<?xml version="1.0" encoding="utf-8" standalone="no"?>
<!DOCTYPE svg PUBLIC "-//W3C//DTD SVG 1.1//EN"
  "http://www.w3.org/Graphics/SVG/1.1/DTD/svg11.dtd">
<svg xmlns:xlink="http://www.w3.org/1999/xlink" width="1394.425625pt" height="593.44125pt" viewBox="0 0 1394.425625 593.44125" xmlns="http://www.w3.org/2000/svg" version="1.1">
 <metadata>
  <rdf:RDF xmlns:dc="http://purl.org/dc/elements/1.1/" xmlns:cc="http://creativecommons.org/ns#" xmlns:rdf="http://www.w3.org/1999/02/22-rdf-syntax-ns#">
   <cc:Work>
    <dc:type rdf:resource="http://purl.org/dc/dcmitype/StillImage"/>
    <dc:date>2024-10-29T21:36:48.647859</dc:date>
    <dc:format>image/svg+xml</dc:format>
    <dc:creator>
     <cc:Agent>
      <dc:title>Matplotlib v3.5.3, https://matplotlib.org/</dc:title>
     </cc:Agent>
    </dc:creator>
   </cc:Work>
  </rdf:RDF>
 </metadata>
 <defs>
  <style type="text/css">*{stroke-linejoin: round; stroke-linecap: butt}</style>
 </defs>
 <g id="figure_1">
  <g id="patch_1">
   <path d="M 0 593.44125 
L 1394.425625 593.44125 
L 1394.425625 0 
L 0 0 
z
" style="fill: #ffffff"/>
  </g>
  <g id="axes_1">
   <g id="patch_2">
    <path d="M 61.065625 480.517187 
L 446.965625 480.517187 
L 446.965625 45.877187 
L 61.065625 45.877187 
z
" style="fill: #ffffff"/>
   </g>
   <g id="PolyCollection_1">
    <defs>
     <path id="mcc93b96559" d="M 78.606534 -202.941434 
L 78.606534 -112.924062 
L 80.36944 -112.924062 
L 82.132345 -112.924062 
L 83.89525 -112.924062 
L 85.658156 -112.924062 
L 87.421061 -112.924062 
L 89.183967 -112.924062 
L 90.946872 -112.924062 
L 92.709778 -112.924062 
L 94.472683 -112.924062 
L 96.235588 -112.924062 
L 97.998494 -112.924062 
L 99.761399 -112.924062 
L 101.524305 -112.924062 
L 103.28721 -112.924062 
L 105.050116 -112.924062 
L 106.813021 -112.924062 
L 108.575927 -112.924062 
L 110.338832 -112.924062 
L 112.101737 -112.924062 
L 113.864643 -112.924062 
L 115.627548 -112.924062 
L 117.390454 -112.924062 
L 119.153359 -112.924062 
L 120.916265 -112.924062 
L 122.67917 -112.924062 
L 124.442075 -112.924062 
L 126.204981 -112.924062 
L 127.967886 -112.924062 
L 129.730792 -112.924062 
L 131.493697 -112.924062 
L 133.256603 -112.924062 
L 135.019508 -112.924062 
L 136.782413 -112.924062 
L 138.545319 -112.924062 
L 140.308224 -112.924062 
L 142.07113 -112.924062 
L 143.834035 -112.924062 
L 145.596941 -112.924062 
L 147.359846 -112.924062 
L 149.122752 -112.924062 
L 150.885657 -112.924062 
L 152.648562 -112.924062 
L 154.411468 -112.924062 
L 156.174373 -112.924062 
L 157.937279 -112.924062 
L 159.700184 -112.924062 
L 161.46309 -112.924062 
L 163.225995 -112.924062 
L 164.9889 -112.924062 
L 166.751806 -112.924062 
L 168.514711 -112.924062 
L 170.277617 -112.924062 
L 172.040522 -112.924062 
L 173.803428 -112.924062 
L 175.566333 -112.924062 
L 177.329239 -112.924062 
L 179.092144 -112.924062 
L 180.855049 -112.924062 
L 182.617955 -112.924062 
L 184.38086 -112.924062 
L 186.143766 -112.924062 
L 187.906671 -112.924062 
L 189.669577 -112.924062 
L 191.432482 -112.924062 
L 193.195387 -112.924062 
L 194.958293 -112.924062 
L 196.721198 -112.924062 
L 198.484104 -112.924062 
L 200.247009 -112.924062 
L 202.009915 -112.924062 
L 203.77282 -112.924062 
L 205.535726 -112.924062 
L 207.298631 -112.924062 
L 209.061536 -112.924062 
L 210.824442 -112.924062 
L 212.587347 -112.924062 
L 214.350253 -112.924062 
L 216.113158 -112.924062 
L 217.876064 -112.924062 
L 219.638969 -112.924062 
L 221.401874 -112.924062 
L 223.16478 -112.924062 
L 224.927685 -112.924062 
L 226.690591 -112.924062 
L 228.453496 -112.924062 
L 230.216402 -112.924062 
L 231.979307 -112.924062 
L 233.742212 -112.924062 
L 235.505118 -112.924062 
L 237.268023 -112.924062 
L 239.030929 -112.924062 
L 240.793834 -112.924062 
L 242.55674 -112.924062 
L 244.319645 -112.924062 
L 246.082551 -112.924062 
L 247.845456 -112.924062 
L 249.608361 -112.924062 
L 251.371267 -112.924062 
L 253.134172 -112.924062 
L 254.897078 -112.924062 
L 256.659983 -112.924062 
L 258.422889 -112.924062 
L 260.185794 -112.924062 
L 261.948699 -112.924062 
L 263.711605 -112.924062 
L 265.47451 -112.924062 
L 267.237416 -112.924062 
L 269.000321 -112.924062 
L 270.763227 -112.924062 
L 272.526132 -112.924062 
L 274.289038 -112.924062 
L 276.051943 -112.924062 
L 277.814848 -112.924062 
L 279.577754 -112.924062 
L 281.340659 -112.924062 
L 283.103565 -112.924062 
L 284.86647 -112.924062 
L 286.629376 -112.924062 
L 288.392281 -112.924062 
L 290.155186 -112.924062 
L 291.918092 -112.924062 
L 293.680997 -112.924062 
L 295.443903 -112.924062 
L 297.206808 -112.924062 
L 298.969714 -112.924062 
L 300.732619 -112.924062 
L 302.495524 -112.924062 
L 304.25843 -112.924062 
L 306.021335 -112.924062 
L 307.784241 -112.924062 
L 309.547146 -112.924062 
L 311.310052 -112.924062 
L 313.072957 -112.924062 
L 314.835863 -112.924062 
L 316.598768 -112.924062 
L 318.361673 -112.924062 
L 320.124579 -112.924062 
L 321.887484 -112.924062 
L 323.65039 -112.924062 
L 325.413295 -112.924062 
L 327.176201 -112.924062 
L 328.939106 -112.924062 
L 330.702011 -112.924062 
L 332.464917 -112.924062 
L 334.227822 -112.924062 
L 335.990728 -112.924062 
L 337.753633 -112.924062 
L 339.516539 -112.924062 
L 341.279444 -112.924062 
L 343.04235 -112.924062 
L 344.805255 -112.924062 
L 346.56816 -112.924062 
L 348.331066 -112.924062 
L 350.093971 -112.924062 
L 351.856877 -112.924062 
L 353.619782 -112.924062 
L 355.382688 -112.924062 
L 357.145593 -112.924062 
L 358.908498 -112.924062 
L 360.671404 -112.924062 
L 362.434309 -112.924062 
L 364.197215 -112.924062 
L 365.96012 -112.924062 
L 367.723026 -112.924062 
L 369.485931 -112.924062 
L 371.248837 -112.924062 
L 373.011742 -112.924062 
L 374.774647 -112.924062 
L 376.537553 -112.924062 
L 378.300458 -112.924062 
L 380.063364 -112.924062 
L 381.826269 -112.924062 
L 383.589175 -112.924062 
L 385.35208 -112.924062 
L 387.114985 -112.924062 
L 388.877891 -112.924062 
L 390.640796 -112.924062 
L 392.403702 -112.924062 
L 394.166607 -112.924062 
L 395.929513 -112.924062 
L 397.692418 -112.924062 
L 399.455323 -112.924062 
L 401.218229 -112.924062 
L 402.981134 -112.924062 
L 404.74404 -112.924062 
L 406.506945 -112.924062 
L 408.269851 -112.924062 
L 410.032756 -112.924062 
L 411.795662 -112.924062 
L 413.558567 -112.924062 
L 415.321472 -112.924062 
L 417.084378 -112.924062 
L 418.847283 -112.924062 
L 420.610189 -112.924062 
L 422.373094 -112.924062 
L 424.136 -112.924062 
L 425.898905 -112.924062 
L 427.66181 -112.924062 
L 429.424716 -112.924062 
L 429.424716 -118.741374 
L 429.424716 -118.741374 
L 427.66181 -118.977823 
L 425.898905 -119.101296 
L 424.136 -119.15698 
L 422.373094 -119.207205 
L 420.610189 -119.321722 
L 418.847283 -119.567111 
L 417.084378 -119.99755 
L 415.321472 -120.648675 
L 413.558567 -121.535311 
L 411.795662 -122.653021 
L 410.032756 -123.98267 
L 408.269851 -125.496849 
L 406.506945 -127.166792 
L 404.74404 -128.968508 
L 402.981134 -130.887074 
L 401.218229 -132.918386 
L 399.455323 -135.068236 
L 397.692418 -137.349146 
L 395.929513 -139.775885 
L 394.166607 -142.360852 
L 392.403702 -145.110435 
L 390.640796 -148.02311 
L 388.877891 -151.089563 
L 387.114985 -154.294696 
L 385.35208 -157.621107 
L 383.589175 -161.053486 
L 381.826269 -164.583338 
L 380.063364 -168.213334 
L 378.300458 -171.960475 
L 376.537553 -175.857211 
L 374.774647 -179.949815 
L 373.011742 -184.29376 
L 371.248837 -188.946553 
L 369.485931 -193.959216 
L 367.723026 -199.36811 
L 365.96012 -205.188864 
L 364.197215 -211.413681 
L 362.434309 -218.012511 
L 360.671404 -224.937583 
L 358.908498 -232.13011 
L 357.145593 -239.527603 
L 355.382688 -247.070348 
L 353.619782 -254.705979 
L 351.856877 -262.39166 
L 350.093971 -270.09387 
L 348.331066 -277.786194 
L 346.56816 -285.445778 
L 344.805255 -293.049223 
L 343.04235 -300.568738 
L 341.279444 -307.969298 
L 339.516539 -315.207456 
L 337.753633 -322.232263 
L 335.990728 -328.988523 
L 334.227822 -335.422322 
L 332.464917 -341.488355 
L 330.702011 -347.158151 
L 328.939106 -352.427856 
L 327.176201 -357.324038 
L 325.413295 -361.906099 
L 323.65039 -366.26439 
L 321.887484 -370.513899 
L 320.124579 -374.784197 
L 318.361673 -379.20686 
L 316.598768 -383.901828 
L 314.835863 -388.964078 
L 313.072957 -394.451804 
L 311.310052 -400.377281 
L 309.547146 -406.701724 
L 307.784241 -413.335655 
L 306.021335 -420.146237 
L 304.25843 -426.972388 
L 302.495524 -433.647069 
L 300.732619 -440.024162 
L 298.969714 -446.005262 
L 297.206808 -451.560307 
L 295.443903 -456.736022 
L 293.680997 -461.648049 
L 291.918092 -466.45626 
L 290.155186 -471.327236 
L 288.392281 -476.391959 
L 286.629376 -481.708984 
L 284.86647 -487.242776 
L 283.103565 -492.863471 
L 281.340659 -498.368848 
L 279.577754 -503.523506 
L 277.814848 -508.105776 
L 276.051943 -511.95118 
L 274.289038 -514.982554 
L 272.526132 -517.220809 
L 270.763227 -518.775321 
L 269.000321 -519.817636 
L 267.237416 -520.545511 
L 265.47451 -521.14554 
L 263.711605 -521.761965 
L 261.948699 -522.477133 
L 260.185794 -523.306209 
L 258.422889 -524.205705 
L 256.659983 -525.092828 
L 254.897078 -525.870744 
L 253.134172 -526.454111 
L 251.371267 -526.789516 
L 249.608361 -526.86692 
L 247.845456 -526.720432 
L 246.082551 -526.419232 
L 244.319645 -526.05161 
L 242.55674 -525.706332 
L 240.793834 -525.455568 
L 239.030929 -525.342575 
L 237.268023 -525.375656 
L 235.505118 -525.52825 
L 233.742212 -525.743801 
L 231.979307 -525.943698 
L 230.216402 -526.0367 
L 228.453496 -525.928812 
L 226.690591 -525.532874 
L 224.927685 -524.777225 
L 223.16478 -523.612634 
L 221.401874 -522.016516 
L 219.638969 -519.993702 
L 217.876064 -517.573558 
L 216.113158 -514.804206 
L 214.350253 -511.745302 
L 212.587347 -508.461143 
L 210.824442 -505.01545 
L 209.061536 -501.468226 
L 207.298631 -497.874023 
L 205.535726 -494.280353 
L 203.77282 -490.725139 
L 202.009915 -487.233033 
L 200.247009 -483.811693 
L 198.484104 -480.449932 
L 196.721198 -477.119671 
L 194.958293 -473.782514 
L 193.195387 -470.400019 
L 191.432482 -466.945069 
L 189.669577 -463.410844 
L 187.906671 -459.814271 
L 186.143766 -456.192375 
L 184.38086 -452.592161 
L 182.617955 -449.056772 
L 180.855049 -445.611919 
L 179.092144 -442.256675 
L 177.329239 -438.961485 
L 175.566333 -435.674261 
L 173.803428 -432.333146 
L 172.040522 -428.882765 
L 170.277617 -425.289892 
L 168.514711 -421.554721 
L 166.751806 -417.715148 
L 164.9889 -413.843247 
L 163.225995 -410.035049 
L 161.46309 -406.396168 
L 159.700184 -403.026615 
L 157.937279 -400.007933 
L 156.174373 -397.394839 
L 154.411468 -395.211979 
L 152.648562 -393.454883 
L 150.885657 -392.09304 
L 149.122752 -391.072855 
L 147.359846 -390.319038 
L 145.596941 -389.734461 
L 143.834035 -389.200136 
L 142.07113 -388.5779 
L 140.308224 -387.718122 
L 138.545319 -386.47328 
L 136.782413 -384.715989 
L 135.019508 -382.357971 
L 133.256603 -379.365374 
L 131.493697 -375.766318 
L 129.730792 -371.648403 
L 127.967886 -367.146461 
L 126.204981 -362.423194 
L 124.442075 -357.646679 
L 122.67917 -352.968885 
L 120.916265 -348.508451 
L 119.153359 -344.339619 
L 117.390454 -340.487838 
L 115.627548 -336.931545 
L 113.864643 -333.60893 
L 112.101737 -330.428143 
L 110.338832 -327.279187 
L 108.575927 -324.045755 
L 106.813021 -320.615592 
L 105.050116 -316.888518 
L 103.28721 -312.781855 
L 101.524305 -308.233407 
L 99.761399 -303.202142 
L 97.998494 -297.66659 
L 96.235588 -291.620941 
L 94.472683 -285.069175 
L 92.709778 -278.018137 
L 90.946872 -270.470931 
L 89.183967 -262.422168 
L 87.421061 -253.856547 
L 85.658156 -244.752097 
L 83.89525 -235.089255 
L 82.132345 -224.86615 
L 80.36944 -214.118704 
L 78.606534 -202.941434 
z
" style="stroke: #0000ff"/>
    </defs>
    <g clip-path="url(#paa516faeb4)">
     <use xlink:href="#mcc93b96559" x="0" y="593.44125" style="fill: #0000ff; fill-opacity: 0.25; stroke: #0000ff"/>
    </g>
   </g>
   <g id="matplotlib.axis_1">
    <g id="xtick_1">
     <g id="line2d_1">
      <defs>
       <path id="m3c2db81ee0" d="M 0 0 
L 0 3.5 
" style="stroke: #000000; stroke-width: 0.8"/>
      </defs>
      <g>
       <use xlink:href="#m3c2db81ee0" x="115.47311" y="480.517187" style="stroke: #000000; stroke-width: 0.8"/>
      </g>
     </g>
     <g id="text_1">
      <!-- 4.0 -->
      <g transform="translate(102.75061 499.674687)scale(0.16 -0.16)">
       <defs>
        <path id="DejaVuSans-34" d="M 2419 4116 
L 825 1625 
L 2419 1625 
L 2419 4116 
z
M 2253 4666 
L 3047 4666 
L 3047 1625 
L 3713 1625 
L 3713 1100 
L 3047 1100 
L 3047 0 
L 2419 0 
L 2419 1100 
L 313 1100 
L 313 1709 
L 2253 4666 
z
" transform="scale(0.015625)"/>
        <path id="DejaVuSans-2e" d="M 684 794 
L 1344 794 
L 1344 0 
L 684 0 
L 684 794 
z
" transform="scale(0.015625)"/>
        <path id="DejaVuSans-30" d="M 2034 4250 
Q 1547 4250 1301 3770 
Q 1056 3291 1056 2328 
Q 1056 1369 1301 889 
Q 1547 409 2034 409 
Q 2525 409 2770 889 
Q 3016 1369 3016 2328 
Q 3016 3291 2770 3770 
Q 2525 4250 2034 4250 
z
M 2034 4750 
Q 2819 4750 3233 4129 
Q 3647 3509 3647 2328 
Q 3647 1150 3233 529 
Q 2819 -91 2034 -91 
Q 1250 -91 836 529 
Q 422 1150 422 2328 
Q 422 3509 836 4129 
Q 1250 4750 2034 4750 
z
" transform="scale(0.015625)"/>
       </defs>
       <use xlink:href="#DejaVuSans-34"/>
       <use xlink:href="#DejaVuSans-2e" x="63.623047"/>
       <use xlink:href="#DejaVuSans-30" x="95.410156"/>
      </g>
     </g>
    </g>
    <g id="xtick_2">
     <g id="line2d_2">
      <g>
       <use xlink:href="#m3c2db81ee0" x="170.72877" y="480.517187" style="stroke: #000000; stroke-width: 0.8"/>
      </g>
     </g>
     <g id="text_2">
      <!-- 4.5 -->
      <g transform="translate(158.00627 499.674687)scale(0.16 -0.16)">
       <defs>
        <path id="DejaVuSans-35" d="M 691 4666 
L 3169 4666 
L 3169 4134 
L 1269 4134 
L 1269 2991 
Q 1406 3038 1543 3061 
Q 1681 3084 1819 3084 
Q 2600 3084 3056 2656 
Q 3513 2228 3513 1497 
Q 3513 744 3044 326 
Q 2575 -91 1722 -91 
Q 1428 -91 1123 -41 
Q 819 9 494 109 
L 494 744 
Q 775 591 1075 516 
Q 1375 441 1709 441 
Q 2250 441 2565 725 
Q 2881 1009 2881 1497 
Q 2881 1984 2565 2268 
Q 2250 2553 1709 2553 
Q 1456 2553 1204 2497 
Q 953 2441 691 2322 
L 691 4666 
z
" transform="scale(0.015625)"/>
       </defs>
       <use xlink:href="#DejaVuSans-34"/>
       <use xlink:href="#DejaVuSans-2e" x="63.623047"/>
       <use xlink:href="#DejaVuSans-35" x="95.410156"/>
      </g>
     </g>
    </g>
    <g id="xtick_3">
     <g id="line2d_3">
      <g>
       <use xlink:href="#m3c2db81ee0" x="225.984429" y="480.517187" style="stroke: #000000; stroke-width: 0.8"/>
      </g>
     </g>
     <g id="text_3">
      <!-- 5.0 -->
      <g transform="translate(213.261929 499.674687)scale(0.16 -0.16)">
       <use xlink:href="#DejaVuSans-35"/>
       <use xlink:href="#DejaVuSans-2e" x="63.623047"/>
       <use xlink:href="#DejaVuSans-30" x="95.410156"/>
      </g>
     </g>
    </g>
    <g id="xtick_4">
     <g id="line2d_4">
      <g>
       <use xlink:href="#m3c2db81ee0" x="281.240088" y="480.517187" style="stroke: #000000; stroke-width: 0.8"/>
      </g>
     </g>
     <g id="text_4">
      <!-- 5.5 -->
      <g transform="translate(268.517588 499.674687)scale(0.16 -0.16)">
       <use xlink:href="#DejaVuSans-35"/>
       <use xlink:href="#DejaVuSans-2e" x="63.623047"/>
       <use xlink:href="#DejaVuSans-35" x="95.410156"/>
      </g>
     </g>
    </g>
    <g id="xtick_5">
     <g id="line2d_5">
      <g>
       <use xlink:href="#m3c2db81ee0" x="336.495748" y="480.517187" style="stroke: #000000; stroke-width: 0.8"/>
      </g>
     </g>
     <g id="text_5">
      <!-- 6.0 -->
      <g transform="translate(323.773248 499.674687)scale(0.16 -0.16)">
       <defs>
        <path id="DejaVuSans-36" d="M 2113 2584 
Q 1688 2584 1439 2293 
Q 1191 2003 1191 1497 
Q 1191 994 1439 701 
Q 1688 409 2113 409 
Q 2538 409 2786 701 
Q 3034 994 3034 1497 
Q 3034 2003 2786 2293 
Q 2538 2584 2113 2584 
z
M 3366 4563 
L 3366 3988 
Q 3128 4100 2886 4159 
Q 2644 4219 2406 4219 
Q 1781 4219 1451 3797 
Q 1122 3375 1075 2522 
Q 1259 2794 1537 2939 
Q 1816 3084 2150 3084 
Q 2853 3084 3261 2657 
Q 3669 2231 3669 1497 
Q 3669 778 3244 343 
Q 2819 -91 2113 -91 
Q 1303 -91 875 529 
Q 447 1150 447 2328 
Q 447 3434 972 4092 
Q 1497 4750 2381 4750 
Q 2619 4750 2861 4703 
Q 3103 4656 3366 4563 
z
" transform="scale(0.015625)"/>
       </defs>
       <use xlink:href="#DejaVuSans-36"/>
       <use xlink:href="#DejaVuSans-2e" x="63.623047"/>
       <use xlink:href="#DejaVuSans-30" x="95.410156"/>
      </g>
     </g>
    </g>
    <g id="xtick_6">
     <g id="line2d_6">
      <g>
       <use xlink:href="#m3c2db81ee0" x="391.751407" y="480.517187" style="stroke: #000000; stroke-width: 0.8"/>
      </g>
     </g>
     <g id="text_6">
      <!-- 6.5 -->
      <g transform="translate(379.028907 499.674687)scale(0.16 -0.16)">
       <use xlink:href="#DejaVuSans-36"/>
       <use xlink:href="#DejaVuSans-2e" x="63.623047"/>
       <use xlink:href="#DejaVuSans-35" x="95.410156"/>
      </g>
     </g>
    </g>
    <g id="text_7">
     <!-- age -->
     <g transform="translate(237.248906 520.679375)scale(0.18 -0.18)">
      <defs>
       <path id="DejaVuSans-61" d="M 2194 1759 
Q 1497 1759 1228 1600 
Q 959 1441 959 1056 
Q 959 750 1161 570 
Q 1363 391 1709 391 
Q 2188 391 2477 730 
Q 2766 1069 2766 1631 
L 2766 1759 
L 2194 1759 
z
M 3341 1997 
L 3341 0 
L 2766 0 
L 2766 531 
Q 2569 213 2275 61 
Q 1981 -91 1556 -91 
Q 1019 -91 701 211 
Q 384 513 384 1019 
Q 384 1609 779 1909 
Q 1175 2209 1959 2209 
L 2766 2209 
L 2766 2266 
Q 2766 2663 2505 2880 
Q 2244 3097 1772 3097 
Q 1472 3097 1187 3025 
Q 903 2953 641 2809 
L 641 3341 
Q 956 3463 1253 3523 
Q 1550 3584 1831 3584 
Q 2591 3584 2966 3190 
Q 3341 2797 3341 1997 
z
" transform="scale(0.015625)"/>
       <path id="DejaVuSans-67" d="M 2906 1791 
Q 2906 2416 2648 2759 
Q 2391 3103 1925 3103 
Q 1463 3103 1205 2759 
Q 947 2416 947 1791 
Q 947 1169 1205 825 
Q 1463 481 1925 481 
Q 2391 481 2648 825 
Q 2906 1169 2906 1791 
z
M 3481 434 
Q 3481 -459 3084 -895 
Q 2688 -1331 1869 -1331 
Q 1566 -1331 1297 -1286 
Q 1028 -1241 775 -1147 
L 775 -588 
Q 1028 -725 1275 -790 
Q 1522 -856 1778 -856 
Q 2344 -856 2625 -561 
Q 2906 -266 2906 331 
L 2906 616 
Q 2728 306 2450 153 
Q 2172 0 1784 0 
Q 1141 0 747 490 
Q 353 981 353 1791 
Q 353 2603 747 3093 
Q 1141 3584 1784 3584 
Q 2172 3584 2450 3431 
Q 2728 3278 2906 2969 
L 2906 3500 
L 3481 3500 
L 3481 434 
z
" transform="scale(0.015625)"/>
       <path id="DejaVuSans-65" d="M 3597 1894 
L 3597 1613 
L 953 1613 
Q 991 1019 1311 708 
Q 1631 397 2203 397 
Q 2534 397 2845 478 
Q 3156 559 3463 722 
L 3463 178 
Q 3153 47 2828 -22 
Q 2503 -91 2169 -91 
Q 1331 -91 842 396 
Q 353 884 353 1716 
Q 353 2575 817 3079 
Q 1281 3584 2069 3584 
Q 2775 3584 3186 3129 
Q 3597 2675 3597 1894 
z
M 3022 2063 
Q 3016 2534 2758 2815 
Q 2500 3097 2075 3097 
Q 1594 3097 1305 2825 
Q 1016 2553 972 2059 
L 3022 2063 
z
" transform="scale(0.015625)"/>
      </defs>
      <use xlink:href="#DejaVuSans-61"/>
      <use xlink:href="#DejaVuSans-67" x="61.279297"/>
      <use xlink:href="#DejaVuSans-65" x="124.755859"/>
     </g>
    </g>
   </g>
   <g id="matplotlib.axis_2">
    <g id="ytick_1">
     <g id="line2d_7">
      <defs>
       <path id="m21322774cb" d="M 0 0 
L -3.5 0 
" style="stroke: #000000; stroke-width: 0.8"/>
      </defs>
      <g>
       <use xlink:href="#m21322774cb" x="61.065625" y="480.517187" style="stroke: #000000; stroke-width: 0.8"/>
      </g>
     </g>
     <g id="text_8">
      <!-- 0.0 -->
      <g transform="translate(28.620625 486.595937)scale(0.16 -0.16)">
       <use xlink:href="#DejaVuSans-30"/>
       <use xlink:href="#DejaVuSans-2e" x="63.623047"/>
       <use xlink:href="#DejaVuSans-30" x="95.410156"/>
      </g>
     </g>
    </g>
    <g id="ytick_2">
     <g id="line2d_8">
      <g>
       <use xlink:href="#m21322774cb" x="61.065625" y="400.759915" style="stroke: #000000; stroke-width: 0.8"/>
      </g>
     </g>
     <g id="text_9">
      <!-- 0.1 -->
      <g transform="translate(28.620625 406.838665)scale(0.16 -0.16)">
       <defs>
        <path id="DejaVuSans-31" d="M 794 531 
L 1825 531 
L 1825 4091 
L 703 3866 
L 703 4441 
L 1819 4666 
L 2450 4666 
L 2450 531 
L 3481 531 
L 3481 0 
L 794 0 
L 794 531 
z
" transform="scale(0.015625)"/>
       </defs>
       <use xlink:href="#DejaVuSans-30"/>
       <use xlink:href="#DejaVuSans-2e" x="63.623047"/>
       <use xlink:href="#DejaVuSans-31" x="95.410156"/>
      </g>
     </g>
    </g>
    <g id="ytick_3">
     <g id="line2d_9">
      <g>
       <use xlink:href="#m21322774cb" x="61.065625" y="321.002643" style="stroke: #000000; stroke-width: 0.8"/>
      </g>
     </g>
     <g id="text_10">
      <!-- 0.2 -->
      <g transform="translate(28.620625 327.081393)scale(0.16 -0.16)">
       <defs>
        <path id="DejaVuSans-32" d="M 1228 531 
L 3431 531 
L 3431 0 
L 469 0 
L 469 531 
Q 828 903 1448 1529 
Q 2069 2156 2228 2338 
Q 2531 2678 2651 2914 
Q 2772 3150 2772 3378 
Q 2772 3750 2511 3984 
Q 2250 4219 1831 4219 
Q 1534 4219 1204 4116 
Q 875 4013 500 3803 
L 500 4441 
Q 881 4594 1212 4672 
Q 1544 4750 1819 4750 
Q 2544 4750 2975 4387 
Q 3406 4025 3406 3419 
Q 3406 3131 3298 2873 
Q 3191 2616 2906 2266 
Q 2828 2175 2409 1742 
Q 1991 1309 1228 531 
z
" transform="scale(0.015625)"/>
       </defs>
       <use xlink:href="#DejaVuSans-30"/>
       <use xlink:href="#DejaVuSans-2e" x="63.623047"/>
       <use xlink:href="#DejaVuSans-32" x="95.410156"/>
      </g>
     </g>
    </g>
    <g id="ytick_4">
     <g id="line2d_10">
      <g>
       <use xlink:href="#m21322774cb" x="61.065625" y="241.245371" style="stroke: #000000; stroke-width: 0.8"/>
      </g>
     </g>
     <g id="text_11">
      <!-- 0.3 -->
      <g transform="translate(28.620625 247.324121)scale(0.16 -0.16)">
       <defs>
        <path id="DejaVuSans-33" d="M 2597 2516 
Q 3050 2419 3304 2112 
Q 3559 1806 3559 1356 
Q 3559 666 3084 287 
Q 2609 -91 1734 -91 
Q 1441 -91 1130 -33 
Q 819 25 488 141 
L 488 750 
Q 750 597 1062 519 
Q 1375 441 1716 441 
Q 2309 441 2620 675 
Q 2931 909 2931 1356 
Q 2931 1769 2642 2001 
Q 2353 2234 1838 2234 
L 1294 2234 
L 1294 2753 
L 1863 2753 
Q 2328 2753 2575 2939 
Q 2822 3125 2822 3475 
Q 2822 3834 2567 4026 
Q 2313 4219 1838 4219 
Q 1578 4219 1281 4162 
Q 984 4106 628 3988 
L 628 4550 
Q 988 4650 1302 4700 
Q 1616 4750 1894 4750 
Q 2613 4750 3031 4423 
Q 3450 4097 3450 3541 
Q 3450 3153 3228 2886 
Q 3006 2619 2597 2516 
z
" transform="scale(0.015625)"/>
       </defs>
       <use xlink:href="#DejaVuSans-30"/>
       <use xlink:href="#DejaVuSans-2e" x="63.623047"/>
       <use xlink:href="#DejaVuSans-33" x="95.410156"/>
      </g>
     </g>
    </g>
    <g id="ytick_5">
     <g id="line2d_11">
      <g>
       <use xlink:href="#m21322774cb" x="61.065625" y="161.488099" style="stroke: #000000; stroke-width: 0.8"/>
      </g>
     </g>
     <g id="text_12">
      <!-- 0.4 -->
      <g transform="translate(28.620625 167.566849)scale(0.16 -0.16)">
       <use xlink:href="#DejaVuSans-30"/>
       <use xlink:href="#DejaVuSans-2e" x="63.623047"/>
       <use xlink:href="#DejaVuSans-34" x="95.410156"/>
      </g>
     </g>
    </g>
    <g id="ytick_6">
     <g id="line2d_12">
      <g>
       <use xlink:href="#m21322774cb" x="61.065625" y="81.730827" style="stroke: #000000; stroke-width: 0.8"/>
      </g>
     </g>
     <g id="text_13">
      <!-- 0.5 -->
      <g transform="translate(28.620625 87.809577)scale(0.16 -0.16)">
       <use xlink:href="#DejaVuSans-30"/>
       <use xlink:href="#DejaVuSans-2e" x="63.623047"/>
       <use xlink:href="#DejaVuSans-35" x="95.410156"/>
      </g>
     </g>
    </g>
    <g id="text_14">
     <!-- Density -->
     <g transform="translate(20.877188 297.412656)rotate(-90)scale(0.18 -0.18)">
      <defs>
       <path id="DejaVuSans-44" d="M 1259 4147 
L 1259 519 
L 2022 519 
Q 2988 519 3436 956 
Q 3884 1394 3884 2338 
Q 3884 3275 3436 3711 
Q 2988 4147 2022 4147 
L 1259 4147 
z
M 628 4666 
L 1925 4666 
Q 3281 4666 3915 4102 
Q 4550 3538 4550 2338 
Q 4550 1131 3912 565 
Q 3275 0 1925 0 
L 628 0 
L 628 4666 
z
" transform="scale(0.015625)"/>
       <path id="DejaVuSans-6e" d="M 3513 2113 
L 3513 0 
L 2938 0 
L 2938 2094 
Q 2938 2591 2744 2837 
Q 2550 3084 2163 3084 
Q 1697 3084 1428 2787 
Q 1159 2491 1159 1978 
L 1159 0 
L 581 0 
L 581 3500 
L 1159 3500 
L 1159 2956 
Q 1366 3272 1645 3428 
Q 1925 3584 2291 3584 
Q 2894 3584 3203 3211 
Q 3513 2838 3513 2113 
z
" transform="scale(0.015625)"/>
       <path id="DejaVuSans-73" d="M 2834 3397 
L 2834 2853 
Q 2591 2978 2328 3040 
Q 2066 3103 1784 3103 
Q 1356 3103 1142 2972 
Q 928 2841 928 2578 
Q 928 2378 1081 2264 
Q 1234 2150 1697 2047 
L 1894 2003 
Q 2506 1872 2764 1633 
Q 3022 1394 3022 966 
Q 3022 478 2636 193 
Q 2250 -91 1575 -91 
Q 1294 -91 989 -36 
Q 684 19 347 128 
L 347 722 
Q 666 556 975 473 
Q 1284 391 1588 391 
Q 1994 391 2212 530 
Q 2431 669 2431 922 
Q 2431 1156 2273 1281 
Q 2116 1406 1581 1522 
L 1381 1569 
Q 847 1681 609 1914 
Q 372 2147 372 2553 
Q 372 3047 722 3315 
Q 1072 3584 1716 3584 
Q 2034 3584 2315 3537 
Q 2597 3491 2834 3397 
z
" transform="scale(0.015625)"/>
       <path id="DejaVuSans-69" d="M 603 3500 
L 1178 3500 
L 1178 0 
L 603 0 
L 603 3500 
z
M 603 4863 
L 1178 4863 
L 1178 4134 
L 603 4134 
L 603 4863 
z
" transform="scale(0.015625)"/>
       <path id="DejaVuSans-74" d="M 1172 4494 
L 1172 3500 
L 2356 3500 
L 2356 3053 
L 1172 3053 
L 1172 1153 
Q 1172 725 1289 603 
Q 1406 481 1766 481 
L 2356 481 
L 2356 0 
L 1766 0 
Q 1100 0 847 248 
Q 594 497 594 1153 
L 594 3053 
L 172 3053 
L 172 3500 
L 594 3500 
L 594 4494 
L 1172 4494 
z
" transform="scale(0.015625)"/>
       <path id="DejaVuSans-79" d="M 2059 -325 
Q 1816 -950 1584 -1140 
Q 1353 -1331 966 -1331 
L 506 -1331 
L 506 -850 
L 844 -850 
Q 1081 -850 1212 -737 
Q 1344 -625 1503 -206 
L 1606 56 
L 191 3500 
L 800 3500 
L 1894 763 
L 2988 3500 
L 3597 3500 
L 2059 -325 
z
" transform="scale(0.015625)"/>
      </defs>
      <use xlink:href="#DejaVuSans-44"/>
      <use xlink:href="#DejaVuSans-65" x="77.001953"/>
      <use xlink:href="#DejaVuSans-6e" x="138.525391"/>
      <use xlink:href="#DejaVuSans-73" x="201.904297"/>
      <use xlink:href="#DejaVuSans-69" x="254.003906"/>
      <use xlink:href="#DejaVuSans-74" x="281.787109"/>
      <use xlink:href="#DejaVuSans-79" x="320.996094"/>
     </g>
    </g>
   </g>
   <g id="patch_3">
    <path d="M 61.065625 480.517187 
L 61.065625 45.877187 
" style="fill: none; stroke: #000000; stroke-width: 0.8; stroke-linejoin: miter; stroke-linecap: square"/>
   </g>
   <g id="patch_4">
    <path d="M 446.965625 480.517187 
L 446.965625 45.877187 
" style="fill: none; stroke: #000000; stroke-width: 0.8; stroke-linejoin: miter; stroke-linecap: square"/>
   </g>
   <g id="patch_5">
    <path d="M 61.065625 480.517187 
L 446.965625 480.517187 
" style="fill: none; stroke: #000000; stroke-width: 0.8; stroke-linejoin: miter; stroke-linecap: square"/>
   </g>
   <g id="patch_6">
    <path d="M 61.065625 45.877187 
L 446.965625 45.877187 
" style="fill: none; stroke: #000000; stroke-width: 0.8; stroke-linejoin: miter; stroke-linecap: square"/>
   </g>
   <g id="text_15">
    <!-- KDE Plot: age (Scale: boxcox) -->
    <g transform="translate(121.414688 20.877187)scale(0.18 -0.18)">
     <defs>
      <path id="DejaVuSans-4b" d="M 628 4666 
L 1259 4666 
L 1259 2694 
L 3353 4666 
L 4166 4666 
L 1850 2491 
L 4331 0 
L 3500 0 
L 1259 2247 
L 1259 0 
L 628 0 
L 628 4666 
z
" transform="scale(0.015625)"/>
      <path id="DejaVuSans-45" d="M 628 4666 
L 3578 4666 
L 3578 4134 
L 1259 4134 
L 1259 2753 
L 3481 2753 
L 3481 2222 
L 1259 2222 
L 1259 531 
L 3634 531 
L 3634 0 
L 628 0 
L 628 4666 
z
" transform="scale(0.015625)"/>
      <path id="DejaVuSans-20" transform="scale(0.015625)"/>
      <path id="DejaVuSans-50" d="M 1259 4147 
L 1259 2394 
L 2053 2394 
Q 2494 2394 2734 2622 
Q 2975 2850 2975 3272 
Q 2975 3691 2734 3919 
Q 2494 4147 2053 4147 
L 1259 4147 
z
M 628 4666 
L 2053 4666 
Q 2838 4666 3239 4311 
Q 3641 3956 3641 3272 
Q 3641 2581 3239 2228 
Q 2838 1875 2053 1875 
L 1259 1875 
L 1259 0 
L 628 0 
L 628 4666 
z
" transform="scale(0.015625)"/>
      <path id="DejaVuSans-6c" d="M 603 4863 
L 1178 4863 
L 1178 0 
L 603 0 
L 603 4863 
z
" transform="scale(0.015625)"/>
      <path id="DejaVuSans-6f" d="M 1959 3097 
Q 1497 3097 1228 2736 
Q 959 2375 959 1747 
Q 959 1119 1226 758 
Q 1494 397 1959 397 
Q 2419 397 2687 759 
Q 2956 1122 2956 1747 
Q 2956 2369 2687 2733 
Q 2419 3097 1959 3097 
z
M 1959 3584 
Q 2709 3584 3137 3096 
Q 3566 2609 3566 1747 
Q 3566 888 3137 398 
Q 2709 -91 1959 -91 
Q 1206 -91 779 398 
Q 353 888 353 1747 
Q 353 2609 779 3096 
Q 1206 3584 1959 3584 
z
" transform="scale(0.015625)"/>
      <path id="DejaVuSans-3a" d="M 750 794 
L 1409 794 
L 1409 0 
L 750 0 
L 750 794 
z
M 750 3309 
L 1409 3309 
L 1409 2516 
L 750 2516 
L 750 3309 
z
" transform="scale(0.015625)"/>
      <path id="DejaVuSans-28" d="M 1984 4856 
Q 1566 4138 1362 3434 
Q 1159 2731 1159 2009 
Q 1159 1288 1364 580 
Q 1569 -128 1984 -844 
L 1484 -844 
Q 1016 -109 783 600 
Q 550 1309 550 2009 
Q 550 2706 781 3412 
Q 1013 4119 1484 4856 
L 1984 4856 
z
" transform="scale(0.015625)"/>
      <path id="DejaVuSans-53" d="M 3425 4513 
L 3425 3897 
Q 3066 4069 2747 4153 
Q 2428 4238 2131 4238 
Q 1616 4238 1336 4038 
Q 1056 3838 1056 3469 
Q 1056 3159 1242 3001 
Q 1428 2844 1947 2747 
L 2328 2669 
Q 3034 2534 3370 2195 
Q 3706 1856 3706 1288 
Q 3706 609 3251 259 
Q 2797 -91 1919 -91 
Q 1588 -91 1214 -16 
Q 841 59 441 206 
L 441 856 
Q 825 641 1194 531 
Q 1563 422 1919 422 
Q 2459 422 2753 634 
Q 3047 847 3047 1241 
Q 3047 1584 2836 1778 
Q 2625 1972 2144 2069 
L 1759 2144 
Q 1053 2284 737 2584 
Q 422 2884 422 3419 
Q 422 4038 858 4394 
Q 1294 4750 2059 4750 
Q 2388 4750 2728 4690 
Q 3069 4631 3425 4513 
z
" transform="scale(0.015625)"/>
      <path id="DejaVuSans-63" d="M 3122 3366 
L 3122 2828 
Q 2878 2963 2633 3030 
Q 2388 3097 2138 3097 
Q 1578 3097 1268 2742 
Q 959 2388 959 1747 
Q 959 1106 1268 751 
Q 1578 397 2138 397 
Q 2388 397 2633 464 
Q 2878 531 3122 666 
L 3122 134 
Q 2881 22 2623 -34 
Q 2366 -91 2075 -91 
Q 1284 -91 818 406 
Q 353 903 353 1747 
Q 353 2603 823 3093 
Q 1294 3584 2113 3584 
Q 2378 3584 2631 3529 
Q 2884 3475 3122 3366 
z
" transform="scale(0.015625)"/>
      <path id="DejaVuSans-62" d="M 3116 1747 
Q 3116 2381 2855 2742 
Q 2594 3103 2138 3103 
Q 1681 3103 1420 2742 
Q 1159 2381 1159 1747 
Q 1159 1113 1420 752 
Q 1681 391 2138 391 
Q 2594 391 2855 752 
Q 3116 1113 3116 1747 
z
M 1159 2969 
Q 1341 3281 1617 3432 
Q 1894 3584 2278 3584 
Q 2916 3584 3314 3078 
Q 3713 2572 3713 1747 
Q 3713 922 3314 415 
Q 2916 -91 2278 -91 
Q 1894 -91 1617 61 
Q 1341 213 1159 525 
L 1159 0 
L 581 0 
L 581 4863 
L 1159 4863 
L 1159 2969 
z
" transform="scale(0.015625)"/>
      <path id="DejaVuSans-78" d="M 3513 3500 
L 2247 1797 
L 3578 0 
L 2900 0 
L 1881 1375 
L 863 0 
L 184 0 
L 1544 1831 
L 300 3500 
L 978 3500 
L 1906 2253 
L 2834 3500 
L 3513 3500 
z
" transform="scale(0.015625)"/>
      <path id="DejaVuSans-29" d="M 513 4856 
L 1013 4856 
Q 1481 4119 1714 3412 
Q 1947 2706 1947 2009 
Q 1947 1309 1714 600 
Q 1481 -109 1013 -844 
L 513 -844 
Q 928 -128 1133 580 
Q 1338 1288 1338 2009 
Q 1338 2731 1133 3434 
Q 928 4138 513 4856 
z
" transform="scale(0.015625)"/>
     </defs>
     <use xlink:href="#DejaVuSans-4b"/>
     <use xlink:href="#DejaVuSans-44" x="65.576172"/>
     <use xlink:href="#DejaVuSans-45" x="142.578125"/>
     <use xlink:href="#DejaVuSans-20" x="205.761719"/>
     <use xlink:href="#DejaVuSans-50" x="237.548828"/>
     <use xlink:href="#DejaVuSans-6c" x="297.851562"/>
     <use xlink:href="#DejaVuSans-6f" x="325.634766"/>
     <use xlink:href="#DejaVuSans-74" x="386.816406"/>
     <use xlink:href="#DejaVuSans-3a" x="426.025391"/>
     <use xlink:href="#DejaVuSans-20" x="459.716797"/>
     <use xlink:href="#DejaVuSans-61" x="491.503906"/>
     <use xlink:href="#DejaVuSans-67" x="552.783203"/>
     <use xlink:href="#DejaVuSans-65" x="616.259766"/>
     <use xlink:href="#DejaVuSans-20" x="677.783203"/>
     <use xlink:href="#DejaVuSans-28" x="709.570312"/>
     <use xlink:href="#DejaVuSans-53" x="748.583984"/>
     <use xlink:href="#DejaVuSans-63" x="812.060547"/>
     <use xlink:href="#DejaVuSans-61" x="867.041016"/>
     <use xlink:href="#DejaVuSans-6c" x="928.320312"/>
     <use xlink:href="#DejaVuSans-65" x="956.103516"/>
     <use xlink:href="#DejaVuSans-3a" x="1017.626953"/>
     <use xlink:href="#DejaVuSans-20" x="1051.318359"/>
     <use xlink:href="#DejaVuSans-62" x="1083.105469"/>
     <use xlink:href="#DejaVuSans-6f" x="1146.582031"/>
     <use xlink:href="#DejaVuSans-78" x="1204.638672"/>
     <use xlink:href="#DejaVuSans-63" x="1262.068359"/>
     <use xlink:href="#DejaVuSans-6f" x="1317.048828"/>
     <use xlink:href="#DejaVuSans-78" x="1375.105469"/>
     <use xlink:href="#DejaVuSans-29" x="1434.285156"/>
    </g>
   </g>
  </g>
  <g id="axes_2">
   <g id="patch_7">
    <path d="M 531.195625 480.517187 
L 917.095625 480.517187 
L 917.095625 45.877187 
L 531.195625 45.877187 
z
" style="fill: #ffffff"/>
   </g>
   <g id="patch_8">
    <path d="M 548.736534 480.517187 
L 554.785123 480.517187 
L 554.785123 386.797248 
L 548.736534 386.797248 
z
" clip-path="url(#p8a77226b6c)" style="fill: #008000; fill-opacity: 0.75; stroke: #000000; stroke-width: 0.514475; stroke-linejoin: miter"/>
   </g>
   <g id="patch_9">
    <path d="M 554.785123 480.517187 
L 560.833713 480.517187 
L 560.833713 344.74141 
L 554.785123 344.74141 
z
" clip-path="url(#p8a77226b6c)" style="fill: #008000; fill-opacity: 0.75; stroke: #000000; stroke-width: 0.514475; stroke-linejoin: miter"/>
   </g>
   <g id="patch_10">
    <path d="M 560.833713 480.517187 
L 566.882302 480.517187 
L 566.882302 480.517187 
L 560.833713 480.517187 
z
" clip-path="url(#p8a77226b6c)" style="fill: #008000; fill-opacity: 0.75; stroke: #000000; stroke-width: 0.514475; stroke-linejoin: miter"/>
   </g>
   <g id="patch_11">
    <path d="M 566.882302 480.517187 
L 572.930891 480.517187 
L 572.930891 314.656522 
L 566.882302 314.656522 
z
" clip-path="url(#p8a77226b6c)" style="fill: #008000; fill-opacity: 0.75; stroke: #000000; stroke-width: 0.514475; stroke-linejoin: miter"/>
   </g>
   <g id="patch_12">
    <path d="M 572.930891 480.517187 
L 578.979481 480.517187 
L 578.979481 305.205772 
L 572.930891 305.205772 
z
" clip-path="url(#p8a77226b6c)" style="fill: #008000; fill-opacity: 0.75; stroke: #000000; stroke-width: 0.514475; stroke-linejoin: miter"/>
   </g>
   <g id="patch_13">
    <path d="M 578.979481 480.517187 
L 585.02807 480.517187 
L 585.02807 480.517187 
L 578.979481 480.517187 
z
" clip-path="url(#p8a77226b6c)" style="fill: #008000; fill-opacity: 0.75; stroke: #000000; stroke-width: 0.514475; stroke-linejoin: miter"/>
   </g>
   <g id="patch_14">
    <path d="M 585.02807 480.517187 
L 591.076659 480.517187 
L 591.076659 307.883485 
L 585.02807 307.883485 
z
" clip-path="url(#p8a77226b6c)" style="fill: #008000; fill-opacity: 0.75; stroke: #000000; stroke-width: 0.514475; stroke-linejoin: miter"/>
   </g>
   <g id="patch_15">
    <path d="M 591.076659 480.517187 
L 597.125249 480.517187 
L 597.125249 294.967459 
L 591.076659 294.967459 
z
" clip-path="url(#p8a77226b6c)" style="fill: #008000; fill-opacity: 0.75; stroke: #000000; stroke-width: 0.514475; stroke-linejoin: miter"/>
   </g>
   <g id="patch_16">
    <path d="M 597.125249 480.517187 
L 603.173838 480.517187 
L 603.173838 480.517187 
L 597.125249 480.517187 
z
" clip-path="url(#p8a77226b6c)" style="fill: #008000; fill-opacity: 0.75; stroke: #000000; stroke-width: 0.514475; stroke-linejoin: miter"/>
   </g>
   <g id="patch_17">
    <path d="M 603.173838 480.517187 
L 609.222428 480.517187 
L 609.222428 271.183071 
L 603.173838 271.183071 
z
" clip-path="url(#p8a77226b6c)" style="fill: #008000; fill-opacity: 0.75; stroke: #000000; stroke-width: 0.514475; stroke-linejoin: miter"/>
   </g>
   <g id="patch_18">
    <path d="M 609.222428 480.517187 
L 615.271017 480.517187 
L 615.271017 290.557109 
L 609.222428 290.557109 
z
" clip-path="url(#p8a77226b6c)" style="fill: #008000; fill-opacity: 0.75; stroke: #000000; stroke-width: 0.514475; stroke-linejoin: miter"/>
   </g>
   <g id="patch_19">
    <path d="M 615.271017 480.517187 
L 621.319606 480.517187 
L 621.319606 292.289747 
L 615.271017 292.289747 
z
" clip-path="url(#p8a77226b6c)" style="fill: #008000; fill-opacity: 0.75; stroke: #000000; stroke-width: 0.514475; stroke-linejoin: miter"/>
   </g>
   <g id="patch_20">
    <path d="M 621.319606 480.517187 
L 627.368196 480.517187 
L 627.368196 480.517187 
L 621.319606 480.517187 
z
" clip-path="url(#p8a77226b6c)" style="fill: #008000; fill-opacity: 0.75; stroke: #000000; stroke-width: 0.514475; stroke-linejoin: miter"/>
   </g>
   <g id="patch_21">
    <path d="M 627.368196 480.517187 
L 633.416785 480.517187 
L 633.416785 298.905272 
L 627.368196 298.905272 
z
" clip-path="url(#p8a77226b6c)" style="fill: #008000; fill-opacity: 0.75; stroke: #000000; stroke-width: 0.514475; stroke-linejoin: miter"/>
   </g>
   <g id="patch_22">
    <path d="M 633.416785 480.517187 
L 639.465374 480.517187 
L 639.465374 286.461784 
L 633.416785 286.461784 
z
" clip-path="url(#p8a77226b6c)" style="fill: #008000; fill-opacity: 0.75; stroke: #000000; stroke-width: 0.514475; stroke-linejoin: miter"/>
   </g>
   <g id="patch_23">
    <path d="M 639.465374 480.517187 
L 645.513964 480.517187 
L 645.513964 278.901184 
L 639.465374 278.901184 
z
" clip-path="url(#p8a77226b6c)" style="fill: #008000; fill-opacity: 0.75; stroke: #000000; stroke-width: 0.514475; stroke-linejoin: miter"/>
   </g>
   <g id="patch_24">
    <path d="M 645.513964 480.517187 
L 651.562553 480.517187 
L 651.562553 287.879397 
L 645.513964 287.879397 
z
" clip-path="url(#p8a77226b6c)" style="fill: #008000; fill-opacity: 0.75; stroke: #000000; stroke-width: 0.514475; stroke-linejoin: miter"/>
   </g>
   <g id="patch_25">
    <path d="M 651.562553 480.517187 
L 657.611142 480.517187 
L 657.611142 279.216209 
L 651.562553 279.216209 
z
" clip-path="url(#p8a77226b6c)" style="fill: #008000; fill-opacity: 0.75; stroke: #000000; stroke-width: 0.514475; stroke-linejoin: miter"/>
   </g>
   <g id="patch_26">
    <path d="M 657.611142 480.517187 
L 663.659732 480.517187 
L 663.659732 271.813121 
L 657.611142 271.813121 
z
" clip-path="url(#p8a77226b6c)" style="fill: #008000; fill-opacity: 0.75; stroke: #000000; stroke-width: 0.514475; stroke-linejoin: miter"/>
   </g>
   <g id="patch_27">
    <path d="M 663.659732 480.517187 
L 669.708321 480.517187 
L 669.708321 480.517187 
L 663.659732 480.517187 
z
" clip-path="url(#p8a77226b6c)" style="fill: #008000; fill-opacity: 0.75; stroke: #000000; stroke-width: 0.514475; stroke-linejoin: miter"/>
   </g>
   <g id="patch_28">
    <path d="M 669.708321 480.517187 
L 675.75691 480.517187 
L 675.75691 283.154022 
L 669.708321 283.154022 
z
" clip-path="url(#p8a77226b6c)" style="fill: #008000; fill-opacity: 0.75; stroke: #000000; stroke-width: 0.514475; stroke-linejoin: miter"/>
   </g>
   <g id="patch_29">
    <path d="M 675.75691 480.517187 
L 681.8055 480.517187 
L 681.8055 270.237996 
L 675.75691 270.237996 
z
" clip-path="url(#p8a77226b6c)" style="fill: #008000; fill-opacity: 0.75; stroke: #000000; stroke-width: 0.514475; stroke-linejoin: miter"/>
   </g>
   <g id="patch_30">
    <path d="M 681.8055 480.517187 
L 687.854089 480.517187 
L 687.854089 275.278396 
L 681.8055 275.278396 
z
" clip-path="url(#p8a77226b6c)" style="fill: #008000; fill-opacity: 0.75; stroke: #000000; stroke-width: 0.514475; stroke-linejoin: miter"/>
   </g>
   <g id="patch_31">
    <path d="M 687.854089 480.517187 
L 693.902678 480.517187 
L 693.902678 269.922971 
L 687.854089 269.922971 
z
" clip-path="url(#p8a77226b6c)" style="fill: #008000; fill-opacity: 0.75; stroke: #000000; stroke-width: 0.514475; stroke-linejoin: miter"/>
   </g>
   <g id="patch_32">
    <path d="M 693.902678 480.517187 
L 699.951268 480.517187 
L 699.951268 66.57433 
L 693.902678 66.57433 
z
" clip-path="url(#p8a77226b6c)" style="fill: #008000; fill-opacity: 0.75; stroke: #000000; stroke-width: 0.514475; stroke-linejoin: miter"/>
   </g>
   <g id="patch_33">
    <path d="M 699.951268 480.517187 
L 705.999857 480.517187 
L 705.999857 281.421384 
L 699.951268 281.421384 
z
" clip-path="url(#p8a77226b6c)" style="fill: #008000; fill-opacity: 0.75; stroke: #000000; stroke-width: 0.514475; stroke-linejoin: miter"/>
   </g>
   <g id="patch_34">
    <path d="M 705.999857 480.517187 
L 712.048446 480.517187 
L 712.048446 290.557109 
L 705.999857 290.557109 
z
" clip-path="url(#p8a77226b6c)" style="fill: #008000; fill-opacity: 0.75; stroke: #000000; stroke-width: 0.514475; stroke-linejoin: miter"/>
   </g>
   <g id="patch_35">
    <path d="M 712.048446 480.517187 
L 718.097036 480.517187 
L 718.097036 293.549847 
L 712.048446 293.549847 
z
" clip-path="url(#p8a77226b6c)" style="fill: #008000; fill-opacity: 0.75; stroke: #000000; stroke-width: 0.514475; stroke-linejoin: miter"/>
   </g>
   <g id="patch_36">
    <path d="M 718.097036 480.517187 
L 724.145625 480.517187 
L 724.145625 285.989247 
L 718.097036 285.989247 
z
" clip-path="url(#p8a77226b6c)" style="fill: #008000; fill-opacity: 0.75; stroke: #000000; stroke-width: 0.514475; stroke-linejoin: miter"/>
   </g>
   <g id="patch_37">
    <path d="M 724.145625 480.517187 
L 730.194214 480.517187 
L 730.194214 297.015122 
L 724.145625 297.015122 
z
" clip-path="url(#p8a77226b6c)" style="fill: #008000; fill-opacity: 0.75; stroke: #000000; stroke-width: 0.514475; stroke-linejoin: miter"/>
   </g>
   <g id="patch_38">
    <path d="M 730.194214 480.517187 
L 736.242804 480.517187 
L 736.242804 306.623384 
L 730.194214 306.623384 
z
" clip-path="url(#p8a77226b6c)" style="fill: #008000; fill-opacity: 0.75; stroke: #000000; stroke-width: 0.514475; stroke-linejoin: miter"/>
   </g>
   <g id="patch_39">
    <path d="M 736.242804 480.517187 
L 742.291393 480.517187 
L 742.291393 139.817644 
L 736.242804 139.817644 
z
" clip-path="url(#p8a77226b6c)" style="fill: #008000; fill-opacity: 0.75; stroke: #000000; stroke-width: 0.514475; stroke-linejoin: miter"/>
   </g>
   <g id="patch_40">
    <path d="M 742.291393 480.517187 
L 748.339982 480.517187 
L 748.339982 307.725972 
L 742.291393 307.725972 
z
" clip-path="url(#p8a77226b6c)" style="fill: #008000; fill-opacity: 0.75; stroke: #000000; stroke-width: 0.514475; stroke-linejoin: miter"/>
   </g>
   <g id="patch_41">
    <path d="M 748.339982 480.517187 
L 754.388572 480.517187 
L 754.388572 310.246172 
L 748.339982 310.246172 
z
" clip-path="url(#p8a77226b6c)" style="fill: #008000; fill-opacity: 0.75; stroke: #000000; stroke-width: 0.514475; stroke-linejoin: miter"/>
   </g>
   <g id="patch_42">
    <path d="M 754.388572 480.517187 
L 760.437161 480.517187 
L 760.437161 214.006033 
L 754.388572 214.006033 
z
" clip-path="url(#p8a77226b6c)" style="fill: #008000; fill-opacity: 0.75; stroke: #000000; stroke-width: 0.514475; stroke-linejoin: miter"/>
   </g>
   <g id="patch_43">
    <path d="M 760.437161 480.517187 
L 766.48575 480.517187 
L 766.48575 344.11136 
L 760.437161 344.11136 
z
" clip-path="url(#p8a77226b6c)" style="fill: #008000; fill-opacity: 0.75; stroke: #000000; stroke-width: 0.514475; stroke-linejoin: miter"/>
   </g>
   <g id="patch_44">
    <path d="M 766.48575 480.517187 
L 772.53434 480.517187 
L 772.53434 342.378723 
L 766.48575 342.378723 
z
" clip-path="url(#p8a77226b6c)" style="fill: #008000; fill-opacity: 0.75; stroke: #000000; stroke-width: 0.514475; stroke-linejoin: miter"/>
   </g>
   <g id="patch_45">
    <path d="M 772.53434 480.517187 
L 778.582929 480.517187 
L 778.582929 252.281571 
L 772.53434 252.281571 
z
" clip-path="url(#p8a77226b6c)" style="fill: #008000; fill-opacity: 0.75; stroke: #000000; stroke-width: 0.514475; stroke-linejoin: miter"/>
   </g>
   <g id="patch_46">
    <path d="M 778.582929 480.517187 
L 784.631518 480.517187 
L 784.631518 383.962023 
L 778.582929 383.962023 
z
" clip-path="url(#p8a77226b6c)" style="fill: #008000; fill-opacity: 0.75; stroke: #000000; stroke-width: 0.514475; stroke-linejoin: miter"/>
   </g>
   <g id="patch_47">
    <path d="M 784.631518 480.517187 
L 790.680108 480.517187 
L 790.680108 293.864872 
L 784.631518 293.864872 
z
" clip-path="url(#p8a77226b6c)" style="fill: #008000; fill-opacity: 0.75; stroke: #000000; stroke-width: 0.514475; stroke-linejoin: miter"/>
   </g>
   <g id="patch_48">
    <path d="M 790.680108 480.517187 
L 796.728697 480.517187 
L 796.728697 393.727799 
L 790.680108 393.727799 
z
" clip-path="url(#p8a77226b6c)" style="fill: #008000; fill-opacity: 0.75; stroke: #000000; stroke-width: 0.514475; stroke-linejoin: miter"/>
   </g>
   <g id="patch_49">
    <path d="M 796.728697 480.517187 
L 802.777286 480.517187 
L 802.777286 310.71871 
L 796.728697 310.71871 
z
" clip-path="url(#p8a77226b6c)" style="fill: #008000; fill-opacity: 0.75; stroke: #000000; stroke-width: 0.514475; stroke-linejoin: miter"/>
   </g>
   <g id="patch_50">
    <path d="M 802.777286 480.517187 
L 808.825876 480.517187 
L 808.825876 338.913448 
L 802.777286 338.913448 
z
" clip-path="url(#p8a77226b6c)" style="fill: #008000; fill-opacity: 0.75; stroke: #000000; stroke-width: 0.514475; stroke-linejoin: miter"/>
   </g>
   <g id="patch_51">
    <path d="M 808.825876 480.517187 
L 814.874465 480.517187 
L 814.874465 418.457261 
L 808.825876 418.457261 
z
" clip-path="url(#p8a77226b6c)" style="fill: #008000; fill-opacity: 0.75; stroke: #000000; stroke-width: 0.514475; stroke-linejoin: miter"/>
   </g>
   <g id="patch_52">
    <path d="M 814.874465 480.517187 
L 820.923054 480.517187 
L 820.923054 374.196248 
L 814.874465 374.196248 
z
" clip-path="url(#p8a77226b6c)" style="fill: #008000; fill-opacity: 0.75; stroke: #000000; stroke-width: 0.514475; stroke-linejoin: miter"/>
   </g>
   <g id="patch_53">
    <path d="M 820.923054 480.517187 
L 826.971644 480.517187 
L 826.971644 398.453174 
L 820.923054 398.453174 
z
" clip-path="url(#p8a77226b6c)" style="fill: #008000; fill-opacity: 0.75; stroke: #000000; stroke-width: 0.514475; stroke-linejoin: miter"/>
   </g>
   <g id="patch_54">
    <path d="M 826.971644 480.517187 
L 833.020233 480.517187 
L 833.020233 443.029212 
L 826.971644 443.029212 
z
" clip-path="url(#p8a77226b6c)" style="fill: #008000; fill-opacity: 0.75; stroke: #000000; stroke-width: 0.514475; stroke-linejoin: miter"/>
   </g>
   <g id="patch_55">
    <path d="M 833.020233 480.517187 
L 839.068822 480.517187 
L 839.068822 429.010599 
L 833.020233 429.010599 
z
" clip-path="url(#p8a77226b6c)" style="fill: #008000; fill-opacity: 0.75; stroke: #000000; stroke-width: 0.514475; stroke-linejoin: miter"/>
   </g>
   <g id="patch_56">
    <path d="M 839.068822 480.517187 
L 845.117412 480.517187 
L 845.117412 440.981549 
L 839.068822 440.981549 
z
" clip-path="url(#p8a77226b6c)" style="fill: #008000; fill-opacity: 0.75; stroke: #000000; stroke-width: 0.514475; stroke-linejoin: miter"/>
   </g>
   <g id="patch_57">
    <path d="M 845.117412 480.517187 
L 851.166001 480.517187 
L 851.166001 444.604337 
L 845.117412 444.604337 
z
" clip-path="url(#p8a77226b6c)" style="fill: #008000; fill-opacity: 0.75; stroke: #000000; stroke-width: 0.514475; stroke-linejoin: miter"/>
   </g>
   <g id="patch_58">
    <path d="M 851.166001 480.517187 
L 857.214591 480.517187 
L 857.214591 457.047825 
L 851.166001 457.047825 
z
" clip-path="url(#p8a77226b6c)" style="fill: #008000; fill-opacity: 0.75; stroke: #000000; stroke-width: 0.514475; stroke-linejoin: miter"/>
   </g>
   <g id="patch_59">
    <path d="M 857.214591 480.517187 
L 863.26318 480.517187 
L 863.26318 461.14315 
L 857.214591 461.14315 
z
" clip-path="url(#p8a77226b6c)" style="fill: #008000; fill-opacity: 0.75; stroke: #000000; stroke-width: 0.514475; stroke-linejoin: miter"/>
   </g>
   <g id="patch_60">
    <path d="M 863.26318 480.517187 
L 869.311769 480.517187 
L 869.311769 470.436387 
L 863.26318 470.436387 
z
" clip-path="url(#p8a77226b6c)" style="fill: #008000; fill-opacity: 0.75; stroke: #000000; stroke-width: 0.514475; stroke-linejoin: miter"/>
   </g>
   <g id="patch_61">
    <path d="M 869.311769 480.517187 
L 875.360359 480.517187 
L 875.360359 468.70375 
L 869.311769 468.70375 
z
" clip-path="url(#p8a77226b6c)" style="fill: #008000; fill-opacity: 0.75; stroke: #000000; stroke-width: 0.514475; stroke-linejoin: miter"/>
   </g>
   <g id="patch_62">
    <path d="M 875.360359 480.517187 
L 881.408948 480.517187 
L 881.408948 476.421862 
L 875.360359 476.421862 
z
" clip-path="url(#p8a77226b6c)" style="fill: #008000; fill-opacity: 0.75; stroke: #000000; stroke-width: 0.514475; stroke-linejoin: miter"/>
   </g>
   <g id="patch_63">
    <path d="M 881.408948 480.517187 
L 887.457537 480.517187 
L 887.457537 477.681962 
L 881.408948 477.681962 
z
" clip-path="url(#p8a77226b6c)" style="fill: #008000; fill-opacity: 0.75; stroke: #000000; stroke-width: 0.514475; stroke-linejoin: miter"/>
   </g>
   <g id="patch_64">
    <path d="M 887.457537 480.517187 
L 893.506127 480.517187 
L 893.506127 479.887137 
L 887.457537 479.887137 
z
" clip-path="url(#p8a77226b6c)" style="fill: #008000; fill-opacity: 0.75; stroke: #000000; stroke-width: 0.514475; stroke-linejoin: miter"/>
   </g>
   <g id="patch_65">
    <path d="M 893.506127 480.517187 
L 899.554716 480.517187 
L 899.554716 470.5939 
L 893.506127 470.5939 
z
" clip-path="url(#p8a77226b6c)" style="fill: #008000; fill-opacity: 0.75; stroke: #000000; stroke-width: 0.514475; stroke-linejoin: miter"/>
   </g>
   <g id="matplotlib.axis_3">
    <g id="xtick_7">
     <g id="line2d_13">
      <g>
       <use xlink:href="#m3c2db81ee0" x="585.604124" y="480.517187" style="stroke: #000000; stroke-width: 0.8"/>
      </g>
     </g>
     <g id="text_16">
      <!-- 4.0 -->
      <g transform="translate(572.881624 499.674687)scale(0.16 -0.16)">
       <use xlink:href="#DejaVuSans-34"/>
       <use xlink:href="#DejaVuSans-2e" x="63.623047"/>
       <use xlink:href="#DejaVuSans-30" x="95.410156"/>
      </g>
     </g>
    </g>
    <g id="xtick_8">
     <g id="line2d_14">
      <g>
       <use xlink:href="#m3c2db81ee0" x="640.859244" y="480.517187" style="stroke: #000000; stroke-width: 0.8"/>
      </g>
     </g>
     <g id="text_17">
      <!-- 4.5 -->
      <g transform="translate(628.136744 499.674687)scale(0.16 -0.16)">
       <use xlink:href="#DejaVuSans-34"/>
       <use xlink:href="#DejaVuSans-2e" x="63.623047"/>
       <use xlink:href="#DejaVuSans-35" x="95.410156"/>
      </g>
     </g>
    </g>
    <g id="xtick_9">
     <g id="line2d_15">
      <g>
       <use xlink:href="#m3c2db81ee0" x="696.114364" y="480.517187" style="stroke: #000000; stroke-width: 0.8"/>
      </g>
     </g>
     <g id="text_18">
      <!-- 5.0 -->
      <g transform="translate(683.391864 499.674687)scale(0.16 -0.16)">
       <use xlink:href="#DejaVuSans-35"/>
       <use xlink:href="#DejaVuSans-2e" x="63.623047"/>
       <use xlink:href="#DejaVuSans-30" x="95.410156"/>
      </g>
     </g>
    </g>
    <g id="xtick_10">
     <g id="line2d_16">
      <g>
       <use xlink:href="#m3c2db81ee0" x="751.369483" y="480.517187" style="stroke: #000000; stroke-width: 0.8"/>
      </g>
     </g>
     <g id="text_19">
      <!-- 5.5 -->
      <g transform="translate(738.646983 499.674687)scale(0.16 -0.16)">
       <use xlink:href="#DejaVuSans-35"/>
       <use xlink:href="#DejaVuSans-2e" x="63.623047"/>
       <use xlink:href="#DejaVuSans-35" x="95.410156"/>
      </g>
     </g>
    </g>
    <g id="xtick_11">
     <g id="line2d_17">
      <g>
       <use xlink:href="#m3c2db81ee0" x="806.624603" y="480.517187" style="stroke: #000000; stroke-width: 0.8"/>
      </g>
     </g>
     <g id="text_20">
      <!-- 6.0 -->
      <g transform="translate(793.902103 499.674687)scale(0.16 -0.16)">
       <use xlink:href="#DejaVuSans-36"/>
       <use xlink:href="#DejaVuSans-2e" x="63.623047"/>
       <use xlink:href="#DejaVuSans-30" x="95.410156"/>
      </g>
     </g>
    </g>
    <g id="xtick_12">
     <g id="line2d_18">
      <g>
       <use xlink:href="#m3c2db81ee0" x="861.879722" y="480.517187" style="stroke: #000000; stroke-width: 0.8"/>
      </g>
     </g>
     <g id="text_21">
      <!-- 6.5 -->
      <g transform="translate(849.157222 499.674687)scale(0.16 -0.16)">
       <use xlink:href="#DejaVuSans-36"/>
       <use xlink:href="#DejaVuSans-2e" x="63.623047"/>
       <use xlink:href="#DejaVuSans-35" x="95.410156"/>
      </g>
     </g>
    </g>
    <g id="text_22">
     <!-- age -->
     <g transform="translate(707.378906 520.679375)scale(0.18 -0.18)">
      <use xlink:href="#DejaVuSans-61"/>
      <use xlink:href="#DejaVuSans-67" x="61.279297"/>
      <use xlink:href="#DejaVuSans-65" x="124.755859"/>
     </g>
    </g>
   </g>
   <g id="matplotlib.axis_4">
    <g id="ytick_7">
     <g id="line2d_19">
      <g>
       <use xlink:href="#m21322774cb" x="531.195625" y="480.517187" style="stroke: #000000; stroke-width: 0.8"/>
      </g>
     </g>
     <g id="text_23">
      <!-- 0 -->
      <g transform="translate(514.015625 486.595937)scale(0.16 -0.16)">
       <use xlink:href="#DejaVuSans-30"/>
      </g>
     </g>
    </g>
    <g id="ytick_8">
     <g id="line2d_20">
      <g>
       <use xlink:href="#m21322774cb" x="531.195625" y="401.760936" style="stroke: #000000; stroke-width: 0.8"/>
      </g>
     </g>
     <g id="text_24">
      <!-- 500 -->
      <g transform="translate(493.655625 407.839686)scale(0.16 -0.16)">
       <use xlink:href="#DejaVuSans-35"/>
       <use xlink:href="#DejaVuSans-30" x="63.623047"/>
       <use xlink:href="#DejaVuSans-30" x="127.246094"/>
      </g>
     </g>
    </g>
    <g id="ytick_9">
     <g id="line2d_21">
      <g>
       <use xlink:href="#m21322774cb" x="531.195625" y="323.004685" style="stroke: #000000; stroke-width: 0.8"/>
      </g>
     </g>
     <g id="text_25">
      <!-- 1000 -->
      <g transform="translate(483.475625 329.083435)scale(0.16 -0.16)">
       <use xlink:href="#DejaVuSans-31"/>
       <use xlink:href="#DejaVuSans-30" x="63.623047"/>
       <use xlink:href="#DejaVuSans-30" x="127.246094"/>
       <use xlink:href="#DejaVuSans-30" x="190.869141"/>
      </g>
     </g>
    </g>
    <g id="ytick_10">
     <g id="line2d_22">
      <g>
       <use xlink:href="#m21322774cb" x="531.195625" y="244.248433" style="stroke: #000000; stroke-width: 0.8"/>
      </g>
     </g>
     <g id="text_26">
      <!-- 1500 -->
      <g transform="translate(483.475625 250.327183)scale(0.16 -0.16)">
       <use xlink:href="#DejaVuSans-31"/>
       <use xlink:href="#DejaVuSans-35" x="63.623047"/>
       <use xlink:href="#DejaVuSans-30" x="127.246094"/>
       <use xlink:href="#DejaVuSans-30" x="190.869141"/>
      </g>
     </g>
    </g>
    <g id="ytick_11">
     <g id="line2d_23">
      <g>
       <use xlink:href="#m21322774cb" x="531.195625" y="165.492182" style="stroke: #000000; stroke-width: 0.8"/>
      </g>
     </g>
     <g id="text_27">
      <!-- 2000 -->
      <g transform="translate(483.475625 171.570932)scale(0.16 -0.16)">
       <use xlink:href="#DejaVuSans-32"/>
       <use xlink:href="#DejaVuSans-30" x="63.623047"/>
       <use xlink:href="#DejaVuSans-30" x="127.246094"/>
       <use xlink:href="#DejaVuSans-30" x="190.869141"/>
      </g>
     </g>
    </g>
    <g id="ytick_12">
     <g id="line2d_24">
      <g>
       <use xlink:href="#m21322774cb" x="531.195625" y="86.735931" style="stroke: #000000; stroke-width: 0.8"/>
      </g>
     </g>
     <g id="text_28">
      <!-- 2500 -->
      <g transform="translate(483.475625 92.814681)scale(0.16 -0.16)">
       <use xlink:href="#DejaVuSans-32"/>
       <use xlink:href="#DejaVuSans-35" x="63.623047"/>
       <use xlink:href="#DejaVuSans-30" x="127.246094"/>
       <use xlink:href="#DejaVuSans-30" x="190.869141"/>
      </g>
     </g>
    </g>
    <g id="text_29">
     <!-- Count -->
     <g transform="translate(475.732188 289.924375)rotate(-90)scale(0.18 -0.18)">
      <defs>
       <path id="DejaVuSans-43" d="M 4122 4306 
L 4122 3641 
Q 3803 3938 3442 4084 
Q 3081 4231 2675 4231 
Q 1875 4231 1450 3742 
Q 1025 3253 1025 2328 
Q 1025 1406 1450 917 
Q 1875 428 2675 428 
Q 3081 428 3442 575 
Q 3803 722 4122 1019 
L 4122 359 
Q 3791 134 3420 21 
Q 3050 -91 2638 -91 
Q 1578 -91 968 557 
Q 359 1206 359 2328 
Q 359 3453 968 4101 
Q 1578 4750 2638 4750 
Q 3056 4750 3426 4639 
Q 3797 4528 4122 4306 
z
" transform="scale(0.015625)"/>
       <path id="DejaVuSans-75" d="M 544 1381 
L 544 3500 
L 1119 3500 
L 1119 1403 
Q 1119 906 1312 657 
Q 1506 409 1894 409 
Q 2359 409 2629 706 
Q 2900 1003 2900 1516 
L 2900 3500 
L 3475 3500 
L 3475 0 
L 2900 0 
L 2900 538 
Q 2691 219 2414 64 
Q 2138 -91 1772 -91 
Q 1169 -91 856 284 
Q 544 659 544 1381 
z
M 1991 3584 
L 1991 3584 
z
" transform="scale(0.015625)"/>
      </defs>
      <use xlink:href="#DejaVuSans-43"/>
      <use xlink:href="#DejaVuSans-6f" x="69.824219"/>
      <use xlink:href="#DejaVuSans-75" x="131.005859"/>
      <use xlink:href="#DejaVuSans-6e" x="194.384766"/>
      <use xlink:href="#DejaVuSans-74" x="257.763672"/>
     </g>
    </g>
   </g>
   <g id="patch_66">
    <path d="M 531.195625 480.517187 
L 531.195625 45.877187 
" style="fill: none; stroke: #000000; stroke-width: 0.8; stroke-linejoin: miter; stroke-linecap: square"/>
   </g>
   <g id="patch_67">
    <path d="M 917.095625 480.517187 
L 917.095625 45.877187 
" style="fill: none; stroke: #000000; stroke-width: 0.8; stroke-linejoin: miter; stroke-linecap: square"/>
   </g>
   <g id="patch_68">
    <path d="M 531.195625 480.517187 
L 917.095625 480.517187 
" style="fill: none; stroke: #000000; stroke-width: 0.8; stroke-linejoin: miter; stroke-linecap: square"/>
   </g>
   <g id="patch_69">
    <path d="M 531.195625 45.877187 
L 917.095625 45.877187 
" style="fill: none; stroke: #000000; stroke-width: 0.8; stroke-linejoin: miter; stroke-linecap: square"/>
   </g>
   <g id="text_30">
    <!-- Histplot: age (Scale: boxcox) -->
    <g transform="translate(595.151719 20.877187)scale(0.18 -0.18)">
     <defs>
      <path id="DejaVuSans-48" d="M 628 4666 
L 1259 4666 
L 1259 2753 
L 3553 2753 
L 3553 4666 
L 4184 4666 
L 4184 0 
L 3553 0 
L 3553 2222 
L 1259 2222 
L 1259 0 
L 628 0 
L 628 4666 
z
" transform="scale(0.015625)"/>
      <path id="DejaVuSans-70" d="M 1159 525 
L 1159 -1331 
L 581 -1331 
L 581 3500 
L 1159 3500 
L 1159 2969 
Q 1341 3281 1617 3432 
Q 1894 3584 2278 3584 
Q 2916 3584 3314 3078 
Q 3713 2572 3713 1747 
Q 3713 922 3314 415 
Q 2916 -91 2278 -91 
Q 1894 -91 1617 61 
Q 1341 213 1159 525 
z
M 3116 1747 
Q 3116 2381 2855 2742 
Q 2594 3103 2138 3103 
Q 1681 3103 1420 2742 
Q 1159 2381 1159 1747 
Q 1159 1113 1420 752 
Q 1681 391 2138 391 
Q 2594 391 2855 752 
Q 3116 1113 3116 1747 
z
" transform="scale(0.015625)"/>
     </defs>
     <use xlink:href="#DejaVuSans-48"/>
     <use xlink:href="#DejaVuSans-69" x="75.195312"/>
     <use xlink:href="#DejaVuSans-73" x="102.978516"/>
     <use xlink:href="#DejaVuSans-74" x="155.078125"/>
     <use xlink:href="#DejaVuSans-70" x="194.287109"/>
     <use xlink:href="#DejaVuSans-6c" x="257.763672"/>
     <use xlink:href="#DejaVuSans-6f" x="285.546875"/>
     <use xlink:href="#DejaVuSans-74" x="346.728516"/>
     <use xlink:href="#DejaVuSans-3a" x="385.9375"/>
     <use xlink:href="#DejaVuSans-20" x="419.628906"/>
     <use xlink:href="#DejaVuSans-61" x="451.416016"/>
     <use xlink:href="#DejaVuSans-67" x="512.695312"/>
     <use xlink:href="#DejaVuSans-65" x="576.171875"/>
     <use xlink:href="#DejaVuSans-20" x="637.695312"/>
     <use xlink:href="#DejaVuSans-28" x="669.482422"/>
     <use xlink:href="#DejaVuSans-53" x="708.496094"/>
     <use xlink:href="#DejaVuSans-63" x="771.972656"/>
     <use xlink:href="#DejaVuSans-61" x="826.953125"/>
     <use xlink:href="#DejaVuSans-6c" x="888.232422"/>
     <use xlink:href="#DejaVuSans-65" x="916.015625"/>
     <use xlink:href="#DejaVuSans-3a" x="977.539062"/>
     <use xlink:href="#DejaVuSans-20" x="1011.230469"/>
     <use xlink:href="#DejaVuSans-62" x="1043.017578"/>
     <use xlink:href="#DejaVuSans-6f" x="1106.494141"/>
     <use xlink:href="#DejaVuSans-78" x="1164.550781"/>
     <use xlink:href="#DejaVuSans-63" x="1221.980469"/>
     <use xlink:href="#DejaVuSans-6f" x="1276.960938"/>
     <use xlink:href="#DejaVuSans-78" x="1335.017578"/>
     <use xlink:href="#DejaVuSans-29" x="1394.197266"/>
    </g>
   </g>
  </g>
  <g id="axes_3">
   <g id="patch_70">
    <path d="M 1001.325625 480.517187 
L 1387.225625 480.517187 
L 1387.225625 45.877187 
L 1001.325625 45.877187 
z
" style="fill: #ffffff"/>
   </g>
   <g id="PolyCollection_2">
    <defs>
     <path id="mf126e97071" d="M 1018.866534 -327.241006 
L 1018.866534 -333.247119 
L 1022.410152 -337.228959 
L 1025.95377 -343.88795 
L 1029.497388 -353.012657 
L 1033.041006 -363.481303 
L 1036.584624 -373.92518 
L 1040.128242 -383.472716 
L 1043.67186 -391.886445 
L 1047.215478 -399.225059 
L 1050.759096 -405.541593 
L 1054.302714 -410.822915 
L 1057.846332 -415.091963 
L 1061.38995 -418.528669 
L 1064.933568 -421.50883 
L 1068.477186 -424.530925 
L 1072.020804 -428.030354 
L 1075.564422 -432.141013 
L 1079.10804 -436.549918 
L 1082.651658 -440.593064 
L 1086.195276 -443.614819 
L 1089.738894 -445.380367 
L 1093.282512 -446.207313 
L 1096.82613 -446.722577 
L 1100.369748 -447.521872 
L 1103.913366 -449.005662 
L 1107.456984 -451.350005 
L 1111.000602 -454.46694 
L 1114.54422 -458.004664 
L 1118.087838 -461.521987 
L 1121.631456 -464.77144 
L 1125.175074 -467.833698 
L 1128.718692 -470.953844 
L 1132.26231 -474.246921 
L 1135.805928 -477.593686 
L 1139.349546 -480.82222 
L 1142.893164 -483.926322 
L 1146.436782 -487.052572 
L 1149.9804 -490.308541 
L 1153.524018 -493.64044 
L 1157.067636 -496.859862 
L 1160.611254 -499.705636 
L 1164.154872 -501.897562 
L 1167.69849 -503.242536 
L 1171.242108 -503.763538 
L 1174.785726 -503.729219 
L 1178.329344 -503.540343 
L 1181.872962 -503.534854 
L 1185.41658 -503.798485 
L 1188.960198 -504.100062 
L 1192.503816 -504.068794 
L 1196.047434 -503.53577 
L 1199.591052 -502.717842 
L 1203.13467 -501.993958 
L 1206.678288 -501.426131 
L 1210.221906 -500.491602 
L 1213.765524 -498.372226 
L 1217.309142 -494.642037 
L 1220.85276 -489.72134 
L 1224.396378 -484.567977 
L 1227.939996 -479.834189 
L 1231.483614 -475.347377 
L 1235.027232 -470.440083 
L 1238.57085 -464.713614 
L 1242.114468 -458.433243 
L 1245.658086 -452.280266 
L 1249.201704 -446.835756 
L 1252.745322 -442.248079 
L 1256.28894 -438.216873 
L 1259.832558 -434.193769 
L 1263.376176 -429.66026 
L 1266.919794 -424.344768 
L 1270.463412 -418.270803 
L 1274.00703 -411.644221 
L 1277.550648 -404.696745 
L 1281.094266 -397.596536 
L 1284.637884 -390.45776 
L 1288.181502 -383.412102 
L 1291.72512 -376.669369 
L 1295.268738 -370.4977 
L 1298.812356 -365.109775 
L 1302.355974 -360.535903 
L 1305.899592 -356.607653 
L 1309.44321 -353.081945 
L 1312.986828 -349.794469 
L 1316.530446 -346.718364 
L 1320.074064 -343.913922 
L 1323.617682 -341.43688 
L 1327.1613 -339.278328 
L 1330.704918 -337.382148 
L 1334.248536 -335.725268 
L 1337.792154 -334.375556 
L 1341.335772 -333.450433 
L 1344.87939 -332.993177 
L 1348.423008 -332.870828 
L 1351.966626 -332.804373 
L 1355.510244 -332.540643 
L 1359.053862 -332.023814 
L 1362.59748 -331.400367 
L 1366.141098 -330.865478 
L 1369.684716 -330.518598 
L 1369.684716 -329.969527 
L 1369.684716 -329.969527 
L 1366.141098 -329.622647 
L 1362.59748 -329.087758 
L 1359.053862 -328.464311 
L 1355.510244 -327.947482 
L 1351.966626 -327.683752 
L 1348.423008 -327.617297 
L 1344.87939 -327.494948 
L 1341.335772 -327.037692 
L 1337.792154 -326.112569 
L 1334.248536 -324.762857 
L 1330.704918 -323.105977 
L 1327.1613 -321.209797 
L 1323.617682 -319.051245 
L 1320.074064 -316.574203 
L 1316.530446 -313.769761 
L 1312.986828 -310.693656 
L 1309.44321 -307.40618 
L 1305.899592 -303.880472 
L 1302.355974 -299.952222 
L 1298.812356 -295.37835 
L 1295.268738 -289.990425 
L 1291.72512 -283.818756 
L 1288.181502 -277.076023 
L 1284.637884 -270.030365 
L 1281.094266 -262.891589 
L 1277.550648 -255.79138 
L 1274.00703 -248.843904 
L 1270.463412 -242.217322 
L 1266.919794 -236.143357 
L 1263.376176 -230.827865 
L 1259.832558 -226.294356 
L 1256.28894 -222.271252 
L 1252.745322 -218.240046 
L 1249.201704 -213.652369 
L 1245.658086 -208.207859 
L 1242.114468 -202.054882 
L 1238.57085 -195.774511 
L 1235.027232 -190.048042 
L 1231.483614 -185.140748 
L 1227.939996 -180.653936 
L 1224.396378 -175.920148 
L 1220.85276 -170.766785 
L 1217.309142 -165.846088 
L 1213.765524 -162.115899 
L 1210.221906 -159.996523 
L 1206.678288 -159.061994 
L 1203.13467 -158.494167 
L 1199.591052 -157.770283 
L 1196.047434 -156.952355 
L 1192.503816 -156.419331 
L 1188.960198 -156.388062 
L 1185.41658 -156.68964 
L 1181.872962 -156.953271 
L 1178.329344 -156.947782 
L 1174.785726 -156.758906 
L 1171.242108 -156.724587 
L 1167.69849 -157.245589 
L 1164.154872 -158.590563 
L 1160.611254 -160.782489 
L 1157.067636 -163.628263 
L 1153.524018 -166.847685 
L 1149.9804 -170.179584 
L 1146.436782 -173.435553 
L 1142.893164 -176.561803 
L 1139.349546 -179.665905 
L 1135.805928 -182.894439 
L 1132.26231 -186.241204 
L 1128.718692 -189.534281 
L 1125.175074 -192.654427 
L 1121.631456 -195.716685 
L 1118.087838 -198.966138 
L 1114.54422 -202.483461 
L 1111.000602 -206.021185 
L 1107.456984 -209.13812 
L 1103.913366 -211.482463 
L 1100.369748 -212.966253 
L 1096.82613 -213.765548 
L 1093.282512 -214.280812 
L 1089.738894 -215.107758 
L 1086.195276 -216.873306 
L 1082.651658 -219.895061 
L 1079.10804 -223.938207 
L 1075.564422 -228.347112 
L 1072.020804 -232.457771 
L 1068.477186 -235.9572 
L 1064.933568 -238.979295 
L 1061.38995 -241.959456 
L 1057.846332 -245.396162 
L 1054.302714 -249.66521 
L 1050.759096 -254.946532 
L 1047.215478 -261.263066 
L 1043.67186 -268.60168 
L 1040.128242 -277.015409 
L 1036.584624 -286.562945 
L 1033.041006 -297.006822 
L 1029.497388 -307.475468 
L 1025.95377 -316.600175 
L 1022.410152 -323.259166 
L 1018.866534 -327.241006 
z
" style="stroke: #797979; stroke-width: 1.5"/>
    </defs>
    <g clip-path="url(#pa0057e6e5f)">
     <use xlink:href="#mf126e97071" x="0" y="593.44125" style="fill: #b4d4df; stroke: #797979; stroke-width: 1.5"/>
    </g>
   </g>
   <g id="matplotlib.axis_5">
    <g id="xtick_13">
     <g id="line2d_25">
      <g>
       <use xlink:href="#m3c2db81ee0" x="1017.828273" y="480.517187" style="stroke: #000000; stroke-width: 0.8"/>
      </g>
     </g>
     <g id="text_31">
      <!-- 3.5 -->
      <g transform="translate(1005.105773 499.674687)scale(0.16 -0.16)">
       <use xlink:href="#DejaVuSans-33"/>
       <use xlink:href="#DejaVuSans-2e" x="63.623047"/>
       <use xlink:href="#DejaVuSans-35" x="95.410156"/>
      </g>
     </g>
    </g>
    <g id="xtick_14">
     <g id="line2d_26">
      <g>
       <use xlink:href="#m3c2db81ee0" x="1068.136785" y="480.517187" style="stroke: #000000; stroke-width: 0.8"/>
      </g>
     </g>
     <g id="text_32">
      <!-- 4.0 -->
      <g transform="translate(1055.414285 499.674687)scale(0.16 -0.16)">
       <use xlink:href="#DejaVuSans-34"/>
       <use xlink:href="#DejaVuSans-2e" x="63.623047"/>
       <use xlink:href="#DejaVuSans-30" x="95.410156"/>
      </g>
     </g>
    </g>
    <g id="xtick_15">
     <g id="line2d_27">
      <g>
       <use xlink:href="#m3c2db81ee0" x="1118.445296" y="480.517187" style="stroke: #000000; stroke-width: 0.8"/>
      </g>
     </g>
     <g id="text_33">
      <!-- 4.5 -->
      <g transform="translate(1105.722796 499.674687)scale(0.16 -0.16)">
       <use xlink:href="#DejaVuSans-34"/>
       <use xlink:href="#DejaVuSans-2e" x="63.623047"/>
       <use xlink:href="#DejaVuSans-35" x="95.410156"/>
      </g>
     </g>
    </g>
    <g id="xtick_16">
     <g id="line2d_28">
      <g>
       <use xlink:href="#m3c2db81ee0" x="1168.753808" y="480.517187" style="stroke: #000000; stroke-width: 0.8"/>
      </g>
     </g>
     <g id="text_34">
      <!-- 5.0 -->
      <g transform="translate(1156.031308 499.674687)scale(0.16 -0.16)">
       <use xlink:href="#DejaVuSans-35"/>
       <use xlink:href="#DejaVuSans-2e" x="63.623047"/>
       <use xlink:href="#DejaVuSans-30" x="95.410156"/>
      </g>
     </g>
    </g>
    <g id="xtick_17">
     <g id="line2d_29">
      <g>
       <use xlink:href="#m3c2db81ee0" x="1219.06232" y="480.517187" style="stroke: #000000; stroke-width: 0.8"/>
      </g>
     </g>
     <g id="text_35">
      <!-- 5.5 -->
      <g transform="translate(1206.33982 499.674687)scale(0.16 -0.16)">
       <use xlink:href="#DejaVuSans-35"/>
       <use xlink:href="#DejaVuSans-2e" x="63.623047"/>
       <use xlink:href="#DejaVuSans-35" x="95.410156"/>
      </g>
     </g>
    </g>
    <g id="xtick_18">
     <g id="line2d_30">
      <g>
       <use xlink:href="#m3c2db81ee0" x="1269.370832" y="480.517187" style="stroke: #000000; stroke-width: 0.8"/>
      </g>
     </g>
     <g id="text_36">
      <!-- 6.0 -->
      <g transform="translate(1256.648332 499.674687)scale(0.16 -0.16)">
       <use xlink:href="#DejaVuSans-36"/>
       <use xlink:href="#DejaVuSans-2e" x="63.623047"/>
       <use xlink:href="#DejaVuSans-30" x="95.410156"/>
      </g>
     </g>
    </g>
    <g id="xtick_19">
     <g id="line2d_31">
      <g>
       <use xlink:href="#m3c2db81ee0" x="1319.679343" y="480.517187" style="stroke: #000000; stroke-width: 0.8"/>
      </g>
     </g>
     <g id="text_37">
      <!-- 6.5 -->
      <g transform="translate(1306.956843 499.674687)scale(0.16 -0.16)">
       <use xlink:href="#DejaVuSans-36"/>
       <use xlink:href="#DejaVuSans-2e" x="63.623047"/>
       <use xlink:href="#DejaVuSans-35" x="95.410156"/>
      </g>
     </g>
    </g>
    <g id="xtick_20">
     <g id="line2d_32">
      <g>
       <use xlink:href="#m3c2db81ee0" x="1369.987855" y="480.517187" style="stroke: #000000; stroke-width: 0.8"/>
      </g>
     </g>
     <g id="text_38">
      <!-- 7.0 -->
      <g transform="translate(1357.265355 499.674687)scale(0.16 -0.16)">
       <defs>
        <path id="DejaVuSans-37" d="M 525 4666 
L 3525 4666 
L 3525 4397 
L 1831 0 
L 1172 0 
L 2766 4134 
L 525 4134 
L 525 4666 
z
" transform="scale(0.015625)"/>
       </defs>
       <use xlink:href="#DejaVuSans-37"/>
       <use xlink:href="#DejaVuSans-2e" x="63.623047"/>
       <use xlink:href="#DejaVuSans-30" x="95.410156"/>
      </g>
     </g>
    </g>
    <g id="text_39">
     <!-- age -->
     <g transform="translate(1177.508906 520.679375)scale(0.18 -0.18)">
      <use xlink:href="#DejaVuSans-61"/>
      <use xlink:href="#DejaVuSans-67" x="61.279297"/>
      <use xlink:href="#DejaVuSans-65" x="124.755859"/>
     </g>
    </g>
   </g>
   <g id="matplotlib.axis_6">
    <g id="ytick_13">
     <g id="line2d_33">
      <g>
       <use xlink:href="#m21322774cb" x="1001.325625" y="263.197187" style="stroke: #000000; stroke-width: 0.8"/>
      </g>
     </g>
    </g>
   </g>
   <g id="line2d_34">
    <path d="M 1034.569694 263.197187 
L 1353.981556 263.197187 
" clip-path="url(#pa0057e6e5f)" style="fill: none; stroke: #797979; stroke-width: 1.5; stroke-linecap: square"/>
   </g>
   <g id="line2d_35">
    <path d="M 1120.649626 263.197187 
L 1222.464996 263.197187 
" clip-path="url(#pa0057e6e5f)" style="fill: none; stroke: #797979; stroke-width: 4.5; stroke-linecap: square"/>
   </g>
   <g id="patch_71">
    <path d="M 1001.325625 480.517187 
L 1001.325625 45.877187 
" style="fill: none; stroke: #000000; stroke-width: 0.8; stroke-linejoin: miter; stroke-linecap: square"/>
   </g>
   <g id="patch_72">
    <path d="M 1387.225625 480.517187 
L 1387.225625 45.877187 
" style="fill: none; stroke: #000000; stroke-width: 0.8; stroke-linejoin: miter; stroke-linecap: square"/>
   </g>
   <g id="patch_73">
    <path d="M 1001.325625 480.517187 
L 1387.225625 480.517187 
" style="fill: none; stroke: #000000; stroke-width: 0.8; stroke-linejoin: miter; stroke-linecap: square"/>
   </g>
   <g id="patch_74">
    <path d="M 1001.325625 45.877187 
L 1387.225625 45.877187 
" style="fill: none; stroke: #000000; stroke-width: 0.8; stroke-linejoin: miter; stroke-linecap: square"/>
   </g>
   <g id="PathCollection_1">
    <defs>
     <path id="mbdab060dd3" d="M 0 1.5 
C 0.397805 1.5 0.77937 1.341951 1.06066 1.06066 
C 1.341951 0.77937 1.5 0.397805 1.5 0 
C 1.5 -0.397805 1.341951 -0.77937 1.06066 -1.06066 
C 0.77937 -1.341951 0.397805 -1.5 0 -1.5 
C -0.397805 -1.5 -0.77937 -1.341951 -1.06066 -1.06066 
C -1.341951 -0.77937 -1.5 -0.397805 -1.5 0 
C -1.5 0.397805 -1.341951 0.77937 -1.06066 1.06066 
C -0.77937 1.341951 -0.397805 1.5 0 1.5 
z
" style="stroke: #797979"/>
    </defs>
    <g clip-path="url(#pa0057e6e5f)">
     <use xlink:href="#mbdab060dd3" x="1172.100045" y="263.197187" style="fill: #ffffff; stroke: #797979"/>
    </g>
   </g>
   <g id="text_40">
    <!-- Violinplot: age (Scale: boxcox) -->
    <g transform="translate(1058.101406 20.877187)scale(0.18 -0.18)">
     <defs>
      <path id="DejaVuSans-56" d="M 1831 0 
L 50 4666 
L 709 4666 
L 2188 738 
L 3669 4666 
L 4325 4666 
L 2547 0 
L 1831 0 
z
" transform="scale(0.015625)"/>
     </defs>
     <use xlink:href="#DejaVuSans-56"/>
     <use xlink:href="#DejaVuSans-69" x="66.158203"/>
     <use xlink:href="#DejaVuSans-6f" x="93.941406"/>
     <use xlink:href="#DejaVuSans-6c" x="155.123047"/>
     <use xlink:href="#DejaVuSans-69" x="182.90625"/>
     <use xlink:href="#DejaVuSans-6e" x="210.689453"/>
     <use xlink:href="#DejaVuSans-70" x="274.068359"/>
     <use xlink:href="#DejaVuSans-6c" x="337.544922"/>
     <use xlink:href="#DejaVuSans-6f" x="365.328125"/>
     <use xlink:href="#DejaVuSans-74" x="426.509766"/>
     <use xlink:href="#DejaVuSans-3a" x="465.71875"/>
     <use xlink:href="#DejaVuSans-20" x="499.410156"/>
     <use xlink:href="#DejaVuSans-61" x="531.197266"/>
     <use xlink:href="#DejaVuSans-67" x="592.476562"/>
     <use xlink:href="#DejaVuSans-65" x="655.953125"/>
     <use xlink:href="#DejaVuSans-20" x="717.476562"/>
     <use xlink:href="#DejaVuSans-28" x="749.263672"/>
     <use xlink:href="#DejaVuSans-53" x="788.277344"/>
     <use xlink:href="#DejaVuSans-63" x="851.753906"/>
     <use xlink:href="#DejaVuSans-61" x="906.734375"/>
     <use xlink:href="#DejaVuSans-6c" x="968.013672"/>
     <use xlink:href="#DejaVuSans-65" x="995.796875"/>
     <use xlink:href="#DejaVuSans-3a" x="1057.320312"/>
     <use xlink:href="#DejaVuSans-20" x="1091.011719"/>
     <use xlink:href="#DejaVuSans-62" x="1122.798828"/>
     <use xlink:href="#DejaVuSans-6f" x="1186.275391"/>
     <use xlink:href="#DejaVuSans-78" x="1244.332031"/>
     <use xlink:href="#DejaVuSans-63" x="1301.761719"/>
     <use xlink:href="#DejaVuSans-6f" x="1356.742188"/>
     <use xlink:href="#DejaVuSans-78" x="1414.798828"/>
     <use xlink:href="#DejaVuSans-29" x="1473.978516"/>
    </g>
   </g>
  </g>
  <g id="text_41">
   <!-- Lower cutoff: 4 | Upper cutoff: 7 -->
   <g transform="translate(553.90625 581.997187)scale(0.18 -0.18)">
    <defs>
     <path id="DejaVuSans-4c" d="M 628 4666 
L 1259 4666 
L 1259 531 
L 3531 531 
L 3531 0 
L 628 0 
L 628 4666 
z
" transform="scale(0.015625)"/>
     <path id="DejaVuSans-77" d="M 269 3500 
L 844 3500 
L 1563 769 
L 2278 3500 
L 2956 3500 
L 3675 769 
L 4391 3500 
L 4966 3500 
L 4050 0 
L 3372 0 
L 2619 2869 
L 1863 0 
L 1184 0 
L 269 3500 
z
" transform="scale(0.015625)"/>
     <path id="DejaVuSans-72" d="M 2631 2963 
Q 2534 3019 2420 3045 
Q 2306 3072 2169 3072 
Q 1681 3072 1420 2755 
Q 1159 2438 1159 1844 
L 1159 0 
L 581 0 
L 581 3500 
L 1159 3500 
L 1159 2956 
Q 1341 3275 1631 3429 
Q 1922 3584 2338 3584 
Q 2397 3584 2469 3576 
Q 2541 3569 2628 3553 
L 2631 2963 
z
" transform="scale(0.015625)"/>
     <path id="DejaVuSans-66" d="M 2375 4863 
L 2375 4384 
L 1825 4384 
Q 1516 4384 1395 4259 
Q 1275 4134 1275 3809 
L 1275 3500 
L 2222 3500 
L 2222 3053 
L 1275 3053 
L 1275 0 
L 697 0 
L 697 3053 
L 147 3053 
L 147 3500 
L 697 3500 
L 697 3744 
Q 697 4328 969 4595 
Q 1241 4863 1831 4863 
L 2375 4863 
z
" transform="scale(0.015625)"/>
     <path id="DejaVuSans-7c" d="M 1344 4891 
L 1344 -1509 
L 813 -1509 
L 813 4891 
L 1344 4891 
z
" transform="scale(0.015625)"/>
     <path id="DejaVuSans-55" d="M 556 4666 
L 1191 4666 
L 1191 1831 
Q 1191 1081 1462 751 
Q 1734 422 2344 422 
Q 2950 422 3222 751 
Q 3494 1081 3494 1831 
L 3494 4666 
L 4128 4666 
L 4128 1753 
Q 4128 841 3676 375 
Q 3225 -91 2344 -91 
Q 1459 -91 1007 375 
Q 556 841 556 1753 
L 556 4666 
z
" transform="scale(0.015625)"/>
    </defs>
    <use xlink:href="#DejaVuSans-4c"/>
    <use xlink:href="#DejaVuSans-6f" x="53.962891"/>
    <use xlink:href="#DejaVuSans-77" x="115.144531"/>
    <use xlink:href="#DejaVuSans-65" x="196.931641"/>
    <use xlink:href="#DejaVuSans-72" x="258.455078"/>
    <use xlink:href="#DejaVuSans-20" x="299.568359"/>
    <use xlink:href="#DejaVuSans-63" x="331.355469"/>
    <use xlink:href="#DejaVuSans-75" x="386.335938"/>
    <use xlink:href="#DejaVuSans-74" x="449.714844"/>
    <use xlink:href="#DejaVuSans-6f" x="488.923828"/>
    <use xlink:href="#DejaVuSans-66" x="550.105469"/>
    <use xlink:href="#DejaVuSans-66" x="585.310547"/>
    <use xlink:href="#DejaVuSans-3a" x="616.890625"/>
    <use xlink:href="#DejaVuSans-20" x="650.582031"/>
    <use xlink:href="#DejaVuSans-34" x="682.369141"/>
    <use xlink:href="#DejaVuSans-20" x="745.992188"/>
    <use xlink:href="#DejaVuSans-7c" x="777.779297"/>
    <use xlink:href="#DejaVuSans-20" x="811.470703"/>
    <use xlink:href="#DejaVuSans-55" x="843.257812"/>
    <use xlink:href="#DejaVuSans-70" x="916.451172"/>
    <use xlink:href="#DejaVuSans-70" x="979.927734"/>
    <use xlink:href="#DejaVuSans-65" x="1043.404297"/>
    <use xlink:href="#DejaVuSans-72" x="1104.927734"/>
    <use xlink:href="#DejaVuSans-20" x="1146.041016"/>
    <use xlink:href="#DejaVuSans-63" x="1177.828125"/>
    <use xlink:href="#DejaVuSans-75" x="1232.808594"/>
    <use xlink:href="#DejaVuSans-74" x="1296.1875"/>
    <use xlink:href="#DejaVuSans-6f" x="1335.396484"/>
    <use xlink:href="#DejaVuSans-66" x="1396.578125"/>
    <use xlink:href="#DejaVuSans-66" x="1431.783203"/>
    <use xlink:href="#DejaVuSans-3a" x="1463.363281"/>
    <use xlink:href="#DejaVuSans-20" x="1497.054688"/>
    <use xlink:href="#DejaVuSans-37" x="1528.841797"/>
   </g>
  </g>
 </g>
 <defs>
  <clipPath id="paa516faeb4">
   <rect x="61.065625" y="45.877187" width="385.9" height="434.64"/>
  </clipPath>
  <clipPath id="p8a77226b6c">
   <rect x="531.195625" y="45.877187" width="385.9" height="434.64"/>
  </clipPath>
  <clipPath id="pa0057e6e5f">
   <rect x="1001.325625" y="45.877187" width="385.9" height="434.64"/>
  </clipPath>
 </defs>
</svg>
