<svg id="Layer_1" data-name="Layer 1" xmlns="http://www.w3.org/2000/svg" viewBox="0 0 468 105.96"><defs><style>.cls-1{fill:#010101;}.cls-2{fill:#235d9d;}.cls-3{fill:#0ba097;}.cls-4{fill:#27326b;}.cls-5{fill:#dedee0;}</style></defs><path d="M608.41,258a4.41,4.41,0,0,1-4.66,4.26,4.22,4.22,0,0,1-4-4.17,4.18,4.18,0,0,1,4.41-4.26A4.42,4.42,0,0,1,608.41,258Z" transform="translate(-166 -215.02)"/><path class="cls-1" d="M295.74,291.39h21.32v6.15H287.8V257.41h28.1v6.15H295.74v10.37H313v6.15h-17.3Z" transform="translate(-166 -215.02)"/><path class="cls-1" d="M325.49,297.54V257.41h10.63c.95,0,1.9,0,2.87.09s1.92.15,2.84.27,1.82.27,2.68.44a19.43,19.43,0,0,1,2.37.61,20.55,20.55,0,0,1,5.68,2.76,17,17,0,0,1,4.13,4.11,17.84,17.84,0,0,1,2.53,5.29,22.5,22.5,0,0,1,.85,6.34,24.65,24.65,0,0,1-.72,6.08,17.94,17.94,0,0,1-2.19,5.17,16.47,16.47,0,0,1-3.71,4.12,19.19,19.19,0,0,1-5.31,2.93,28.1,28.1,0,0,1-5.8,1.44,50.12,50.12,0,0,1-7.3.48Zm10.39-6.15q6.47,0,10.1-1.77a10.9,10.9,0,0,0,4.87-4.62,16.09,16.09,0,0,0,1.65-7.74,16.75,16.75,0,0,0-.54-4.43,12.18,12.18,0,0,0-1.56-3.53,10.79,10.79,0,0,0-2.48-2.65,13.61,13.61,0,0,0-3.29-1.83,17.49,17.49,0,0,0-3.82-1,33.56,33.56,0,0,0-4.72-.3h-3.24v27.83Z" transform="translate(-166 -215.02)"/><path class="cls-1" d="M392,288.5H375.69l-3.8,9.35h-9.25L381.17,255h5.08l18.06,42.9h-8.39Zm-8.61-23.73c-1.51,4.49-2.83,8.74-4,11.76l-1.48,3.82h11.2l-1.48-3.82c-1.17-3-2.56-7.3-4.09-11.76Z" transform="translate(-166 -215.02)"/><path class="cls-1" d="M409.17,279.3h26.39v6.59H409.17Z" transform="translate(-166 -215.02)"/><path class="cls-1" d="M460.63,297.54h-7.94v-34h-14v-6.15h35.9v6.15h-14Z" transform="translate(-166 -215.02)"/><path class="cls-1" d="M505.51,283a16.9,16.9,0,0,1-1.11,6.24,13.38,13.38,0,0,1-3.16,4.83,14.11,14.11,0,0,1-5,3.1,18.37,18.37,0,0,1-6.51,1.1,18.89,18.89,0,0,1-6.63-1.1,13.93,13.93,0,0,1-5-3.1,13.58,13.58,0,0,1-3.13-4.83A17.32,17.32,0,0,1,474,283a16.9,16.9,0,0,1,1.1-6.24,13.34,13.34,0,0,1,3.16-4.82,14.13,14.13,0,0,1,5-3.11,18.41,18.41,0,0,1,6.51-1.09,18.86,18.86,0,0,1,6.63,1.09,14,14,0,0,1,5,3.11,13.4,13.4,0,0,1,3.13,4.82A17.32,17.32,0,0,1,505.51,283Zm-7.94,0a13,13,0,0,0-.59-4.08,8.64,8.64,0,0,0-1.62-3,6.41,6.41,0,0,0-2.49-1.79,8.26,8.26,0,0,0-3.18-.6,8,8,0,0,0-3.12.6,6.45,6.45,0,0,0-2.48,1.79,8.64,8.64,0,0,0-1.62,3,14.4,14.4,0,0,0,0,8.16,8.22,8.22,0,0,0,1.63,2.95,7,7,0,0,0,2.5,1.8,8,8,0,0,0,3.16.62,7.86,7.86,0,0,0,3.14-.62,6.82,6.82,0,0,0,2.46-1.8A8.36,8.36,0,0,0,497,287.1,13,13,0,0,0,497.57,283Z" transform="translate(-166 -215.02)"/><path class="cls-1" d="M542.25,283a17.11,17.11,0,0,1-1.1,6.24,13.65,13.65,0,0,1-3.16,4.83,14.06,14.06,0,0,1-5,3.1,18.37,18.37,0,0,1-6.51,1.1,18.89,18.89,0,0,1-6.63-1.1,13.93,13.93,0,0,1-5-3.1,13.58,13.58,0,0,1-3.13-4.83,17.32,17.32,0,0,1-1.08-6.24,17.11,17.11,0,0,1,1.1-6.24A13.47,13.47,0,0,1,515,272a14.13,14.13,0,0,1,5-3.11,18.47,18.47,0,0,1,6.52-1.09,18.8,18.8,0,0,1,6.62,1.09,13.91,13.91,0,0,1,5,3.11,13.38,13.38,0,0,1,3.12,4.82A17.11,17.11,0,0,1,542.25,283Zm-7.94,0a13,13,0,0,0-.58-4.08,8.64,8.64,0,0,0-1.62-3,6.52,6.52,0,0,0-2.5-1.79,8.25,8.25,0,0,0-3.17-.6,8,8,0,0,0-3.13.6,6.45,6.45,0,0,0-2.48,1.79,8.64,8.64,0,0,0-1.62,3,14.64,14.64,0,0,0,0,8.16,8.08,8.08,0,0,0,1.64,2.95,6.92,6.92,0,0,0,2.49,1.8,8,8,0,0,0,3.16.62,7.82,7.82,0,0,0,3.14-.62,6.94,6.94,0,0,0,2.47-1.8,8.36,8.36,0,0,0,1.62-2.95A13,13,0,0,0,534.31,283Z" transform="translate(-166 -215.02)"/><path class="cls-1" d="M549.38,297.54V247.35h7.68v50.19Z" transform="translate(-166 -215.02)"/><path class="cls-1" d="M566.13,247.35h7.68v30.22H574l8.15-9.09h9.49l-10,11.24,13.87,17.82h-9.3l-12.28-15.63h-.13v15.63h-7.68Z" transform="translate(-166 -215.02)"/><path class="cls-1" d="M600.25,268.48h7.68v29.06h-7.68Z" transform="translate(-166 -215.02)"/><path class="cls-1" d="M633.62,296.75a8.62,8.62,0,0,1-2,.45,23.75,23.75,0,0,1-3,.22,12.07,12.07,0,0,1-5.84-1.24,6.93,6.93,0,0,1-3.21-3.53,12.2,12.2,0,0,1-.67-4.49V272.51h-5.3v-6.08h5.3V258h6.94v8.45H634v6.08h-8.2v14.68a5.27,5.27,0,0,0,.5,2.59c.58,1,1.75,1.43,3.48,1.43a13.69,13.69,0,0,0,2.39-.2,8.53,8.53,0,0,0,1.45-.37Z" transform="translate(-166 -215.02)"/><rect class="cls-2" y="39.59" width="21.58" height="41.98" rx="1.99"/><rect class="cls-3" x="89.85" y="39.48" width="21.58" height="46.03" rx="1.99"/><rect class="cls-4" x="29.91" y="19.69" width="21.58" height="86.27" rx="1.99"/><rect class="cls-4" x="59.94" width="21.58" height="99.71" rx="1.99"/><polygon class="cls-5" points="29.91 60.54 29.91 62.41 39.83 63.7 40.15 61.86 29.91 60.54"/><polygon class="cls-5" points="21.58 59.46 15.38 58.66 15.06 60.5 21.58 61.34 21.58 59.46"/><polygon class="cls-5" points="59.93 58.56 69.73 55.23 69.2 53.44 59.93 56.59 59.93 58.56"/><polygon class="cls-5" points="51.5 59.46 41.47 62.88 42 64.66 51.5 61.43 51.5 59.46"/><polygon class="cls-5" points="81.53 54.99 74.24 52.4 73.54 54.13 81.53 56.96 81.53 54.99"/><polygon class="cls-5" points="89.84 57.93 89.84 59.91 97.89 62.76 98.59 61.03 89.84 57.93"/><ellipse class="cls-5" cx="41.57" cy="63.46" rx="4.27" ry="4.43"/><ellipse class="cls-5" cx="13.15" cy="58.51" rx="4.27" ry="4.43"/><ellipse class="cls-5" cx="71.65" cy="52.85" rx="4.27" ry="4.43"/><ellipse class="cls-5" cx="101.13" cy="62.76" rx="4.27" ry="4.43"/></svg>