<?xml version="1.0" encoding="utf-8" standalone="no"?>
<!DOCTYPE svg PUBLIC "-//W3C//DTD SVG 1.1//EN"
  "http://www.w3.org/Graphics/SVG/1.1/DTD/svg11.dtd">
<svg xmlns:xlink="http://www.w3.org/1999/xlink" width="817.116875pt" height="364.2675pt" viewBox="0 0 817.116875 364.2675" xmlns="http://www.w3.org/2000/svg" version="1.1">
 <metadata>
  <rdf:RDF xmlns:dc="http://purl.org/dc/elements/1.1/" xmlns:cc="http://creativecommons.org/ns#" xmlns:rdf="http://www.w3.org/1999/02/22-rdf-syntax-ns#">
   <cc:Work>
    <dc:type rdf:resource="http://purl.org/dc/dcmitype/StillImage"/>
    <dc:date>2025-07-30T15:47:19.434874</dc:date>
    <dc:format>image/svg+xml</dc:format>
    <dc:creator>
     <cc:Agent>
      <dc:title>Matplotlib v3.9.2, https://matplotlib.org/</dc:title>
     </cc:Agent>
    </dc:creator>
   </cc:Work>
  </rdf:RDF>
 </metadata>
 <defs>
  <style type="text/css">*{stroke-linejoin: round; stroke-linecap: butt}</style>
 </defs>
 <g id="figure_1">
  <g id="patch_1">
   <path d="M 0 364.2675 
L 817.116875 364.2675 
L 817.116875 0 
L 0 0 
z
" style="fill: #ffffff"/>
  </g>
  <g id="axes_1">
   <g id="patch_2">
    <path d="M 45.716875 272.198125 
L 257.616875 272.198125 
L 257.616875 41.318125 
L 45.716875 41.318125 
z
" style="fill: #ffffff"/>
   </g>
   <g id="PolyCollection_1">
    <defs>
     <path id="mb3f9c3e3d7" d="M 55.348693 -139.88654 
L 55.348693 -92.069375 
L 56.316715 -92.069375 
L 57.284737 -92.069375 
L 58.252759 -92.069375 
L 59.220781 -92.069375 
L 60.188803 -92.069375 
L 61.156825 -92.069375 
L 62.124847 -92.069375 
L 63.092869 -92.069375 
L 64.060891 -92.069375 
L 65.028912 -92.069375 
L 65.996934 -92.069375 
L 66.964956 -92.069375 
L 67.932978 -92.069375 
L 68.901 -92.069375 
L 69.869022 -92.069375 
L 70.837044 -92.069375 
L 71.805066 -92.069375 
L 72.773088 -92.069375 
L 73.74111 -92.069375 
L 74.709132 -92.069375 
L 75.677154 -92.069375 
L 76.645176 -92.069375 
L 77.613198 -92.069375 
L 78.581219 -92.069375 
L 79.549241 -92.069375 
L 80.517263 -92.069375 
L 81.485285 -92.069375 
L 82.453307 -92.069375 
L 83.421329 -92.069375 
L 84.389351 -92.069375 
L 85.357373 -92.069375 
L 86.325395 -92.069375 
L 87.293417 -92.069375 
L 88.261439 -92.069375 
L 89.229461 -92.069375 
L 90.197483 -92.069375 
L 91.165505 -92.069375 
L 92.133526 -92.069375 
L 93.101548 -92.069375 
L 94.06957 -92.069375 
L 95.037592 -92.069375 
L 96.005614 -92.069375 
L 96.973636 -92.069375 
L 97.941658 -92.069375 
L 98.90968 -92.069375 
L 99.877702 -92.069375 
L 100.845724 -92.069375 
L 101.813746 -92.069375 
L 102.781768 -92.069375 
L 103.74979 -92.069375 
L 104.717812 -92.069375 
L 105.685833 -92.069375 
L 106.653855 -92.069375 
L 107.621877 -92.069375 
L 108.589899 -92.069375 
L 109.557921 -92.069375 
L 110.525943 -92.069375 
L 111.493965 -92.069375 
L 112.461987 -92.069375 
L 113.430009 -92.069375 
L 114.398031 -92.069375 
L 115.366053 -92.069375 
L 116.334075 -92.069375 
L 117.302097 -92.069375 
L 118.270118 -92.069375 
L 119.23814 -92.069375 
L 120.206162 -92.069375 
L 121.174184 -92.069375 
L 122.142206 -92.069375 
L 123.110228 -92.069375 
L 124.07825 -92.069375 
L 125.046272 -92.069375 
L 126.014294 -92.069375 
L 126.982316 -92.069375 
L 127.950338 -92.069375 
L 128.91836 -92.069375 
L 129.886382 -92.069375 
L 130.854404 -92.069375 
L 131.822425 -92.069375 
L 132.790447 -92.069375 
L 133.758469 -92.069375 
L 134.726491 -92.069375 
L 135.694513 -92.069375 
L 136.662535 -92.069375 
L 137.630557 -92.069375 
L 138.598579 -92.069375 
L 139.566601 -92.069375 
L 140.534623 -92.069375 
L 141.502645 -92.069375 
L 142.470667 -92.069375 
L 143.438689 -92.069375 
L 144.406711 -92.069375 
L 145.374732 -92.069375 
L 146.342754 -92.069375 
L 147.310776 -92.069375 
L 148.278798 -92.069375 
L 149.24682 -92.069375 
L 150.214842 -92.069375 
L 151.182864 -92.069375 
L 152.150886 -92.069375 
L 153.118908 -92.069375 
L 154.08693 -92.069375 
L 155.054952 -92.069375 
L 156.022974 -92.069375 
L 156.990996 -92.069375 
L 157.959018 -92.069375 
L 158.927039 -92.069375 
L 159.895061 -92.069375 
L 160.863083 -92.069375 
L 161.831105 -92.069375 
L 162.799127 -92.069375 
L 163.767149 -92.069375 
L 164.735171 -92.069375 
L 165.703193 -92.069375 
L 166.671215 -92.069375 
L 167.639237 -92.069375 
L 168.607259 -92.069375 
L 169.575281 -92.069375 
L 170.543303 -92.069375 
L 171.511325 -92.069375 
L 172.479346 -92.069375 
L 173.447368 -92.069375 
L 174.41539 -92.069375 
L 175.383412 -92.069375 
L 176.351434 -92.069375 
L 177.319456 -92.069375 
L 178.287478 -92.069375 
L 179.2555 -92.069375 
L 180.223522 -92.069375 
L 181.191544 -92.069375 
L 182.159566 -92.069375 
L 183.127588 -92.069375 
L 184.09561 -92.069375 
L 185.063632 -92.069375 
L 186.031653 -92.069375 
L 186.999675 -92.069375 
L 187.967697 -92.069375 
L 188.935719 -92.069375 
L 189.903741 -92.069375 
L 190.871763 -92.069375 
L 191.839785 -92.069375 
L 192.807807 -92.069375 
L 193.775829 -92.069375 
L 194.743851 -92.069375 
L 195.711873 -92.069375 
L 196.679895 -92.069375 
L 197.647917 -92.069375 
L 198.615938 -92.069375 
L 199.58396 -92.069375 
L 200.551982 -92.069375 
L 201.520004 -92.069375 
L 202.488026 -92.069375 
L 203.456048 -92.069375 
L 204.42407 -92.069375 
L 205.392092 -92.069375 
L 206.360114 -92.069375 
L 207.328136 -92.069375 
L 208.296158 -92.069375 
L 209.26418 -92.069375 
L 210.232202 -92.069375 
L 211.200224 -92.069375 
L 212.168245 -92.069375 
L 213.136267 -92.069375 
L 214.104289 -92.069375 
L 215.072311 -92.069375 
L 216.040333 -92.069375 
L 217.008355 -92.069375 
L 217.976377 -92.069375 
L 218.944399 -92.069375 
L 219.912421 -92.069375 
L 220.880443 -92.069375 
L 221.848465 -92.069375 
L 222.816487 -92.069375 
L 223.784509 -92.069375 
L 224.752531 -92.069375 
L 225.720552 -92.069375 
L 226.688574 -92.069375 
L 227.656596 -92.069375 
L 228.624618 -92.069375 
L 229.59264 -92.069375 
L 230.560662 -92.069375 
L 231.528684 -92.069375 
L 232.496706 -92.069375 
L 233.464728 -92.069375 
L 234.43275 -92.069375 
L 235.400772 -92.069375 
L 236.368794 -92.069375 
L 237.336816 -92.069375 
L 238.304838 -92.069375 
L 239.272859 -92.069375 
L 240.240881 -92.069375 
L 241.208903 -92.069375 
L 242.176925 -92.069375 
L 243.144947 -92.069375 
L 244.112969 -92.069375 
L 245.080991 -92.069375 
L 246.049013 -92.069375 
L 247.017035 -92.069375 
L 247.985057 -92.069375 
L 247.985057 -95.159513 
L 247.985057 -95.159513 
L 247.017035 -95.285117 
L 246.049013 -95.350709 
L 245.080991 -95.380289 
L 244.112969 -95.406967 
L 243.144947 -95.467796 
L 242.176925 -95.598142 
L 241.208903 -95.826785 
L 240.240881 -96.172656 
L 239.272859 -96.64363 
L 238.304838 -97.237349 
L 237.336816 -97.943652 
L 236.368794 -98.747977 
L 235.400772 -99.635044 
L 234.43275 -100.592109 
L 233.464728 -101.611246 
L 232.496706 -102.690272 
L 231.528684 -103.832266 
L 230.560662 -105.043879 
L 229.59264 -106.332954 
L 228.624618 -107.706081 
L 227.656596 -109.166651 
L 226.688574 -110.713855 
L 225.720552 -112.342746 
L 224.752531 -114.045304 
L 223.784509 -115.812285 
L 222.816487 -117.635557 
L 221.848465 -119.510606 
L 220.880443 -121.438852 
L 219.912421 -123.429324 
L 218.944399 -125.499259 
L 217.976377 -127.673239 
L 217.008355 -129.980728 
L 216.040333 -132.452277 
L 215.072311 -135.114986 
L 214.104289 -137.988172 
L 213.136267 -141.080138 
L 212.168245 -144.386741 
L 211.200224 -147.892021 
L 210.232202 -151.570601 
L 209.26418 -155.391254 
L 208.296158 -159.320786 
L 207.328136 -163.327477 
L 206.360114 -167.38351 
L 205.392092 -171.46613 
L 204.42407 -175.557531 
L 203.456048 -179.643682 
L 202.488026 -183.712441 
L 201.520004 -187.75138 
L 200.551982 -191.745736 
L 199.58396 -195.676904 
L 198.615938 -199.521805 
L 197.647917 -203.253376 
L 196.679895 -206.842297 
L 195.711873 -210.259927 
L 194.743851 -213.482202 
L 193.775829 -216.493996 
L 192.807807 -219.293263 
L 191.839785 -221.894114 
L 190.871763 -224.328103 
L 189.903741 -226.643223 
L 188.935719 -228.900556 
L 187.967697 -231.16893 
L 186.999675 -233.518237 
L 186.031653 -236.012189 
L 185.063632 -238.70124 
L 184.09561 -241.616302 
L 183.127588 -244.763897 
L 182.159566 -248.123423 
L 181.191544 -251.647351 
L 180.223522 -255.265119 
L 179.2555 -258.891161 
L 178.287478 -262.436744 
L 177.319456 -265.824252 
L 176.351434 -269.001411 
L 175.383412 -271.952249 
L 174.41539 -274.701587 
L 173.447368 -277.310851 
L 172.479346 -279.864965 
L 171.511325 -282.452417 
L 170.543303 -285.142785 
L 169.575281 -287.967174 
L 168.607259 -290.906712 
L 167.639237 -293.892416 
L 166.671215 -296.816867 
L 165.703193 -299.555021 
L 164.735171 -301.989128 
L 163.767149 -304.031814 
L 162.799127 -305.642089 
L 161.831105 -306.83106 
L 160.863083 -307.656825 
L 159.895061 -308.210508 
L 158.927039 -308.597157 
L 157.959018 -308.915892 
L 156.990996 -309.243335 
L 156.022974 -309.623229 
L 155.054952 -310.063631 
L 154.08693 -310.541441 
L 153.118908 -311.01268 
L 152.150886 -311.425911 
L 151.182864 -311.735798 
L 150.214842 -311.913968 
L 149.24682 -311.955089 
L 148.278798 -311.877279 
L 147.310776 -311.717283 
L 146.342754 -311.522003 
L 145.374732 -311.338591 
L 144.406711 -311.205384 
L 143.438689 -311.145359 
L 142.470667 -311.16293 
L 141.502645 -311.243986 
L 140.534623 -311.358486 
L 139.566601 -311.464671 
L 138.598579 -311.514076 
L 137.630557 -311.45677 
L 136.662535 -311.246453 
L 135.694513 -310.84506 
L 134.726491 -310.226437 
L 133.758469 -309.378589 
L 132.790447 -308.304079 
L 131.822425 -307.018508 
L 130.854404 -305.547438 
L 129.886382 -303.922557 
L 128.91836 -302.17802 
L 127.950338 -300.347676 
L 126.982316 -298.463397 
L 126.014294 -296.554163 
L 125.046272 -294.645211 
L 124.07825 -292.756686 
L 123.110228 -290.901685 
L 122.142206 -289.084274 
L 121.174184 -287.298511 
L 120.206162 -285.529482 
L 119.23814 -283.75679 
L 118.270118 -281.960015 
L 117.302097 -280.124753 
L 116.334075 -278.247379 
L 115.366053 -276.336886 
L 114.398031 -274.412941 
L 113.430009 -272.500513 
L 112.461987 -270.622519 
L 111.493965 -268.792618 
L 110.525943 -267.010317 
L 109.557921 -265.259917 
L 108.589899 -263.513749 
L 107.621877 -261.738956 
L 106.653855 -259.906121 
L 105.685833 -257.997594 
L 104.717812 -256.013479 
L 103.74979 -253.973905 
L 102.781768 -251.917158 
L 101.813746 -249.894248 
L 100.845724 -247.961278 
L 99.877702 -246.171373 
L 98.90968 -244.56785 
L 97.941658 -243.179774 
L 96.973636 -242.020237 
L 96.005614 -241.086866 
L 95.037592 -240.363452 
L 94.06957 -239.821528 
L 93.101548 -239.4211 
L 92.133526 -239.110572 
L 91.165505 -238.82674 
L 90.197483 -238.496211 
L 89.229461 -238.039502 
L 88.261439 -237.378249 
L 87.293417 -236.444785 
L 86.325395 -235.192217 
L 85.357373 -233.602561 
L 84.389351 -231.690755 
L 83.421329 -229.50333 
L 82.453307 -227.111909 
L 81.485285 -224.602919 
L 80.517263 -222.065642 
L 79.549241 -219.580804 
L 78.581219 -217.211427 
L 77.613198 -214.996947 
L 76.645176 -212.950884 
L 75.677154 -211.061785 
L 74.709132 -209.296815 
L 73.74111 -207.607186 
L 72.773088 -205.934466 
L 71.805066 -204.216874 
L 70.837044 -202.394779 
L 69.869022 -200.414967 
L 68.901 -198.233519 
L 67.932978 -195.817396 
L 66.964956 -193.144801 
L 65.996934 -190.20433 
L 65.028912 -186.992896 
L 64.060891 -183.512614 
L 63.092869 -179.76712 
L 62.124847 -175.758061 
L 61.156825 -171.482577 
L 60.188803 -166.932538 
L 59.220781 -162.096275 
L 58.252759 -156.963395 
L 57.284737 -151.532904 
L 56.316715 -145.823883 
L 55.348693 -139.88654 
z
" style="stroke: #0000ff"/>
    </defs>
    <g clip-path="url(#p440235fca8)">
     <use xlink:href="#mb3f9c3e3d7" x="0" y="364.2675" style="fill: #0000ff; fill-opacity: 0.25; stroke: #0000ff"/>
    </g>
   </g>
   <g id="matplotlib.axis_1">
    <g id="xtick_1">
     <g id="line2d_1">
      <defs>
       <path id="m1168a1b86d" d="M 0 0 
L 0 3.5 
" style="stroke: #000000; stroke-width: 0.8"/>
      </defs>
      <g>
       <use xlink:href="#m1168a1b86d" x="75.592351" y="272.198125" style="stroke: #000000; stroke-width: 0.8"/>
      </g>
     </g>
     <g id="text_1">
      <!-- 4.0 -->
      <g transform="translate(67.640788 286.796562) scale(0.1 -0.1)">
       <defs>
        <path id="DejaVuSans-34" d="M 2419 4116 
L 825 1625 
L 2419 1625 
L 2419 4116 
z
M 2253 4666 
L 3047 4666 
L 3047 1625 
L 3713 1625 
L 3713 1100 
L 3047 1100 
L 3047 0 
L 2419 0 
L 2419 1100 
L 313 1100 
L 313 1709 
L 2253 4666 
z
" transform="scale(0.015625)"/>
        <path id="DejaVuSans-2e" d="M 684 794 
L 1344 794 
L 1344 0 
L 684 0 
L 684 794 
z
" transform="scale(0.015625)"/>
        <path id="DejaVuSans-30" d="M 2034 4250 
Q 1547 4250 1301 3770 
Q 1056 3291 1056 2328 
Q 1056 1369 1301 889 
Q 1547 409 2034 409 
Q 2525 409 2770 889 
Q 3016 1369 3016 2328 
Q 3016 3291 2770 3770 
Q 2525 4250 2034 4250 
z
M 2034 4750 
Q 2819 4750 3233 4129 
Q 3647 3509 3647 2328 
Q 3647 1150 3233 529 
Q 2819 -91 2034 -91 
Q 1250 -91 836 529 
Q 422 1150 422 2328 
Q 422 3509 836 4129 
Q 1250 4750 2034 4750 
z
" transform="scale(0.015625)"/>
       </defs>
       <use xlink:href="#DejaVuSans-34"/>
       <use xlink:href="#DejaVuSans-2e" x="63.623047"/>
       <use xlink:href="#DejaVuSans-30" x="95.410156"/>
      </g>
     </g>
    </g>
    <g id="xtick_2">
     <g id="line2d_2">
      <g>
       <use xlink:href="#m1168a1b86d" x="105.933564" y="272.198125" style="stroke: #000000; stroke-width: 0.8"/>
      </g>
     </g>
     <g id="text_2">
      <!-- 4.5 -->
      <g transform="translate(97.982002 286.796562) scale(0.1 -0.1)">
       <defs>
        <path id="DejaVuSans-35" d="M 691 4666 
L 3169 4666 
L 3169 4134 
L 1269 4134 
L 1269 2991 
Q 1406 3038 1543 3061 
Q 1681 3084 1819 3084 
Q 2600 3084 3056 2656 
Q 3513 2228 3513 1497 
Q 3513 744 3044 326 
Q 2575 -91 1722 -91 
Q 1428 -91 1123 -41 
Q 819 9 494 109 
L 494 744 
Q 775 591 1075 516 
Q 1375 441 1709 441 
Q 2250 441 2565 725 
Q 2881 1009 2881 1497 
Q 2881 1984 2565 2268 
Q 2250 2553 1709 2553 
Q 1456 2553 1204 2497 
Q 953 2441 691 2322 
L 691 4666 
z
" transform="scale(0.015625)"/>
       </defs>
       <use xlink:href="#DejaVuSans-34"/>
       <use xlink:href="#DejaVuSans-2e" x="63.623047"/>
       <use xlink:href="#DejaVuSans-35" x="95.410156"/>
      </g>
     </g>
    </g>
    <g id="xtick_3">
     <g id="line2d_3">
      <g>
       <use xlink:href="#m1168a1b86d" x="136.274777" y="272.198125" style="stroke: #000000; stroke-width: 0.8"/>
      </g>
     </g>
     <g id="text_3">
      <!-- 5.0 -->
      <g transform="translate(128.323215 286.796562) scale(0.1 -0.1)">
       <use xlink:href="#DejaVuSans-35"/>
       <use xlink:href="#DejaVuSans-2e" x="63.623047"/>
       <use xlink:href="#DejaVuSans-30" x="95.410156"/>
      </g>
     </g>
    </g>
    <g id="xtick_4">
     <g id="line2d_4">
      <g>
       <use xlink:href="#m1168a1b86d" x="166.615991" y="272.198125" style="stroke: #000000; stroke-width: 0.8"/>
      </g>
     </g>
     <g id="text_4">
      <!-- 5.5 -->
      <g transform="translate(158.664428 286.796562) scale(0.1 -0.1)">
       <use xlink:href="#DejaVuSans-35"/>
       <use xlink:href="#DejaVuSans-2e" x="63.623047"/>
       <use xlink:href="#DejaVuSans-35" x="95.410156"/>
      </g>
     </g>
    </g>
    <g id="xtick_5">
     <g id="line2d_5">
      <g>
       <use xlink:href="#m1168a1b86d" x="196.957204" y="272.198125" style="stroke: #000000; stroke-width: 0.8"/>
      </g>
     </g>
     <g id="text_5">
      <!-- 6.0 -->
      <g transform="translate(189.005642 286.796562) scale(0.1 -0.1)">
       <defs>
        <path id="DejaVuSans-36" d="M 2113 2584 
Q 1688 2584 1439 2293 
Q 1191 2003 1191 1497 
Q 1191 994 1439 701 
Q 1688 409 2113 409 
Q 2538 409 2786 701 
Q 3034 994 3034 1497 
Q 3034 2003 2786 2293 
Q 2538 2584 2113 2584 
z
M 3366 4563 
L 3366 3988 
Q 3128 4100 2886 4159 
Q 2644 4219 2406 4219 
Q 1781 4219 1451 3797 
Q 1122 3375 1075 2522 
Q 1259 2794 1537 2939 
Q 1816 3084 2150 3084 
Q 2853 3084 3261 2657 
Q 3669 2231 3669 1497 
Q 3669 778 3244 343 
Q 2819 -91 2113 -91 
Q 1303 -91 875 529 
Q 447 1150 447 2328 
Q 447 3434 972 4092 
Q 1497 4750 2381 4750 
Q 2619 4750 2861 4703 
Q 3103 4656 3366 4563 
z
" transform="scale(0.015625)"/>
       </defs>
       <use xlink:href="#DejaVuSans-36"/>
       <use xlink:href="#DejaVuSans-2e" x="63.623047"/>
       <use xlink:href="#DejaVuSans-30" x="95.410156"/>
      </g>
     </g>
    </g>
    <g id="xtick_6">
     <g id="line2d_6">
      <g>
       <use xlink:href="#m1168a1b86d" x="227.298418" y="272.198125" style="stroke: #000000; stroke-width: 0.8"/>
      </g>
     </g>
     <g id="text_6">
      <!-- 6.5 -->
      <g transform="translate(219.346855 286.796562) scale(0.1 -0.1)">
       <use xlink:href="#DejaVuSans-36"/>
       <use xlink:href="#DejaVuSans-2e" x="63.623047"/>
       <use xlink:href="#DejaVuSans-35" x="95.410156"/>
      </g>
     </g>
    </g>
    <g id="text_7">
     <!-- age -->
     <g transform="translate(140.489062 301.994375) scale(0.12 -0.12)">
      <defs>
       <path id="DejaVuSans-61" d="M 2194 1759 
Q 1497 1759 1228 1600 
Q 959 1441 959 1056 
Q 959 750 1161 570 
Q 1363 391 1709 391 
Q 2188 391 2477 730 
Q 2766 1069 2766 1631 
L 2766 1759 
L 2194 1759 
z
M 3341 1997 
L 3341 0 
L 2766 0 
L 2766 531 
Q 2569 213 2275 61 
Q 1981 -91 1556 -91 
Q 1019 -91 701 211 
Q 384 513 384 1019 
Q 384 1609 779 1909 
Q 1175 2209 1959 2209 
L 2766 2209 
L 2766 2266 
Q 2766 2663 2505 2880 
Q 2244 3097 1772 3097 
Q 1472 3097 1187 3025 
Q 903 2953 641 2809 
L 641 3341 
Q 956 3463 1253 3523 
Q 1550 3584 1831 3584 
Q 2591 3584 2966 3190 
Q 3341 2797 3341 1997 
z
" transform="scale(0.015625)"/>
       <path id="DejaVuSans-67" d="M 2906 1791 
Q 2906 2416 2648 2759 
Q 2391 3103 1925 3103 
Q 1463 3103 1205 2759 
Q 947 2416 947 1791 
Q 947 1169 1205 825 
Q 1463 481 1925 481 
Q 2391 481 2648 825 
Q 2906 1169 2906 1791 
z
M 3481 434 
Q 3481 -459 3084 -895 
Q 2688 -1331 1869 -1331 
Q 1566 -1331 1297 -1286 
Q 1028 -1241 775 -1147 
L 775 -588 
Q 1028 -725 1275 -790 
Q 1522 -856 1778 -856 
Q 2344 -856 2625 -561 
Q 2906 -266 2906 331 
L 2906 616 
Q 2728 306 2450 153 
Q 2172 0 1784 0 
Q 1141 0 747 490 
Q 353 981 353 1791 
Q 353 2603 747 3093 
Q 1141 3584 1784 3584 
Q 2172 3584 2450 3431 
Q 2728 3278 2906 2969 
L 2906 3500 
L 3481 3500 
L 3481 434 
z
" transform="scale(0.015625)"/>
       <path id="DejaVuSans-65" d="M 3597 1894 
L 3597 1613 
L 953 1613 
Q 991 1019 1311 708 
Q 1631 397 2203 397 
Q 2534 397 2845 478 
Q 3156 559 3463 722 
L 3463 178 
Q 3153 47 2828 -22 
Q 2503 -91 2169 -91 
Q 1331 -91 842 396 
Q 353 884 353 1716 
Q 353 2575 817 3079 
Q 1281 3584 2069 3584 
Q 2775 3584 3186 3129 
Q 3597 2675 3597 1894 
z
M 3022 2063 
Q 3016 2534 2758 2815 
Q 2500 3097 2075 3097 
Q 1594 3097 1305 2825 
Q 1016 2553 972 2059 
L 3022 2063 
z
" transform="scale(0.015625)"/>
      </defs>
      <use xlink:href="#DejaVuSans-61"/>
      <use xlink:href="#DejaVuSans-67" x="61.279297"/>
      <use xlink:href="#DejaVuSans-65" x="124.755859"/>
     </g>
    </g>
   </g>
   <g id="matplotlib.axis_2">
    <g id="ytick_1">
     <g id="line2d_7">
      <defs>
       <path id="m6551e777ca" d="M 0 0 
L -3.5 0 
" style="stroke: #000000; stroke-width: 0.8"/>
      </defs>
      <g>
       <use xlink:href="#m6551e777ca" x="45.716875" y="272.198125" style="stroke: #000000; stroke-width: 0.8"/>
      </g>
     </g>
     <g id="text_8">
      <!-- 0.0 -->
      <g transform="translate(22.81375 275.997344) scale(0.1 -0.1)">
       <use xlink:href="#DejaVuSans-30"/>
       <use xlink:href="#DejaVuSans-2e" x="63.623047"/>
       <use xlink:href="#DejaVuSans-30" x="95.410156"/>
      </g>
     </g>
    </g>
    <g id="ytick_2">
     <g id="line2d_8">
      <g>
       <use xlink:href="#m6551e777ca" x="45.716875" y="229.83121" style="stroke: #000000; stroke-width: 0.8"/>
      </g>
     </g>
     <g id="text_9">
      <!-- 0.1 -->
      <g transform="translate(22.81375 233.630429) scale(0.1 -0.1)">
       <defs>
        <path id="DejaVuSans-31" d="M 794 531 
L 1825 531 
L 1825 4091 
L 703 3866 
L 703 4441 
L 1819 4666 
L 2450 4666 
L 2450 531 
L 3481 531 
L 3481 0 
L 794 0 
L 794 531 
z
" transform="scale(0.015625)"/>
       </defs>
       <use xlink:href="#DejaVuSans-30"/>
       <use xlink:href="#DejaVuSans-2e" x="63.623047"/>
       <use xlink:href="#DejaVuSans-31" x="95.410156"/>
      </g>
     </g>
    </g>
    <g id="ytick_3">
     <g id="line2d_9">
      <g>
       <use xlink:href="#m6551e777ca" x="45.716875" y="187.464296" style="stroke: #000000; stroke-width: 0.8"/>
      </g>
     </g>
     <g id="text_10">
      <!-- 0.2 -->
      <g transform="translate(22.81375 191.263514) scale(0.1 -0.1)">
       <defs>
        <path id="DejaVuSans-32" d="M 1228 531 
L 3431 531 
L 3431 0 
L 469 0 
L 469 531 
Q 828 903 1448 1529 
Q 2069 2156 2228 2338 
Q 2531 2678 2651 2914 
Q 2772 3150 2772 3378 
Q 2772 3750 2511 3984 
Q 2250 4219 1831 4219 
Q 1534 4219 1204 4116 
Q 875 4013 500 3803 
L 500 4441 
Q 881 4594 1212 4672 
Q 1544 4750 1819 4750 
Q 2544 4750 2975 4387 
Q 3406 4025 3406 3419 
Q 3406 3131 3298 2873 
Q 3191 2616 2906 2266 
Q 2828 2175 2409 1742 
Q 1991 1309 1228 531 
z
" transform="scale(0.015625)"/>
       </defs>
       <use xlink:href="#DejaVuSans-30"/>
       <use xlink:href="#DejaVuSans-2e" x="63.623047"/>
       <use xlink:href="#DejaVuSans-32" x="95.410156"/>
      </g>
     </g>
    </g>
    <g id="ytick_4">
     <g id="line2d_10">
      <g>
       <use xlink:href="#m6551e777ca" x="45.716875" y="145.097381" style="stroke: #000000; stroke-width: 0.8"/>
      </g>
     </g>
     <g id="text_11">
      <!-- 0.3 -->
      <g transform="translate(22.81375 148.8966) scale(0.1 -0.1)">
       <defs>
        <path id="DejaVuSans-33" d="M 2597 2516 
Q 3050 2419 3304 2112 
Q 3559 1806 3559 1356 
Q 3559 666 3084 287 
Q 2609 -91 1734 -91 
Q 1441 -91 1130 -33 
Q 819 25 488 141 
L 488 750 
Q 750 597 1062 519 
Q 1375 441 1716 441 
Q 2309 441 2620 675 
Q 2931 909 2931 1356 
Q 2931 1769 2642 2001 
Q 2353 2234 1838 2234 
L 1294 2234 
L 1294 2753 
L 1863 2753 
Q 2328 2753 2575 2939 
Q 2822 3125 2822 3475 
Q 2822 3834 2567 4026 
Q 2313 4219 1838 4219 
Q 1578 4219 1281 4162 
Q 984 4106 628 3988 
L 628 4550 
Q 988 4650 1302 4700 
Q 1616 4750 1894 4750 
Q 2613 4750 3031 4423 
Q 3450 4097 3450 3541 
Q 3450 3153 3228 2886 
Q 3006 2619 2597 2516 
z
" transform="scale(0.015625)"/>
       </defs>
       <use xlink:href="#DejaVuSans-30"/>
       <use xlink:href="#DejaVuSans-2e" x="63.623047"/>
       <use xlink:href="#DejaVuSans-33" x="95.410156"/>
      </g>
     </g>
    </g>
    <g id="ytick_5">
     <g id="line2d_11">
      <g>
       <use xlink:href="#m6551e777ca" x="45.716875" y="102.730466" style="stroke: #000000; stroke-width: 0.8"/>
      </g>
     </g>
     <g id="text_12">
      <!-- 0.4 -->
      <g transform="translate(22.81375 106.529685) scale(0.1 -0.1)">
       <use xlink:href="#DejaVuSans-30"/>
       <use xlink:href="#DejaVuSans-2e" x="63.623047"/>
       <use xlink:href="#DejaVuSans-34" x="95.410156"/>
      </g>
     </g>
    </g>
    <g id="ytick_6">
     <g id="line2d_12">
      <g>
       <use xlink:href="#m6551e777ca" x="45.716875" y="60.363552" style="stroke: #000000; stroke-width: 0.8"/>
      </g>
     </g>
     <g id="text_13">
      <!-- 0.5 -->
      <g transform="translate(22.81375 64.162771) scale(0.1 -0.1)">
       <use xlink:href="#DejaVuSans-30"/>
       <use xlink:href="#DejaVuSans-2e" x="63.623047"/>
       <use xlink:href="#DejaVuSans-35" x="95.410156"/>
      </g>
     </g>
    </g>
    <g id="text_14">
     <!-- Density -->
     <g transform="translate(16.318125 179.568437) rotate(-90) scale(0.12 -0.12)">
      <defs>
       <path id="DejaVuSans-44" d="M 1259 4147 
L 1259 519 
L 2022 519 
Q 2988 519 3436 956 
Q 3884 1394 3884 2338 
Q 3884 3275 3436 3711 
Q 2988 4147 2022 4147 
L 1259 4147 
z
M 628 4666 
L 1925 4666 
Q 3281 4666 3915 4102 
Q 4550 3538 4550 2338 
Q 4550 1131 3912 565 
Q 3275 0 1925 0 
L 628 0 
L 628 4666 
z
" transform="scale(0.015625)"/>
       <path id="DejaVuSans-6e" d="M 3513 2113 
L 3513 0 
L 2938 0 
L 2938 2094 
Q 2938 2591 2744 2837 
Q 2550 3084 2163 3084 
Q 1697 3084 1428 2787 
Q 1159 2491 1159 1978 
L 1159 0 
L 581 0 
L 581 3500 
L 1159 3500 
L 1159 2956 
Q 1366 3272 1645 3428 
Q 1925 3584 2291 3584 
Q 2894 3584 3203 3211 
Q 3513 2838 3513 2113 
z
" transform="scale(0.015625)"/>
       <path id="DejaVuSans-73" d="M 2834 3397 
L 2834 2853 
Q 2591 2978 2328 3040 
Q 2066 3103 1784 3103 
Q 1356 3103 1142 2972 
Q 928 2841 928 2578 
Q 928 2378 1081 2264 
Q 1234 2150 1697 2047 
L 1894 2003 
Q 2506 1872 2764 1633 
Q 3022 1394 3022 966 
Q 3022 478 2636 193 
Q 2250 -91 1575 -91 
Q 1294 -91 989 -36 
Q 684 19 347 128 
L 347 722 
Q 666 556 975 473 
Q 1284 391 1588 391 
Q 1994 391 2212 530 
Q 2431 669 2431 922 
Q 2431 1156 2273 1281 
Q 2116 1406 1581 1522 
L 1381 1569 
Q 847 1681 609 1914 
Q 372 2147 372 2553 
Q 372 3047 722 3315 
Q 1072 3584 1716 3584 
Q 2034 3584 2315 3537 
Q 2597 3491 2834 3397 
z
" transform="scale(0.015625)"/>
       <path id="DejaVuSans-69" d="M 603 3500 
L 1178 3500 
L 1178 0 
L 603 0 
L 603 3500 
z
M 603 4863 
L 1178 4863 
L 1178 4134 
L 603 4134 
L 603 4863 
z
" transform="scale(0.015625)"/>
       <path id="DejaVuSans-74" d="M 1172 4494 
L 1172 3500 
L 2356 3500 
L 2356 3053 
L 1172 3053 
L 1172 1153 
Q 1172 725 1289 603 
Q 1406 481 1766 481 
L 2356 481 
L 2356 0 
L 1766 0 
Q 1100 0 847 248 
Q 594 497 594 1153 
L 594 3053 
L 172 3053 
L 172 3500 
L 594 3500 
L 594 4494 
L 1172 4494 
z
" transform="scale(0.015625)"/>
       <path id="DejaVuSans-79" d="M 2059 -325 
Q 1816 -950 1584 -1140 
Q 1353 -1331 966 -1331 
L 506 -1331 
L 506 -850 
L 844 -850 
Q 1081 -850 1212 -737 
Q 1344 -625 1503 -206 
L 1606 56 
L 191 3500 
L 800 3500 
L 1894 763 
L 2988 3500 
L 3597 3500 
L 2059 -325 
z
" transform="scale(0.015625)"/>
      </defs>
      <use xlink:href="#DejaVuSans-44"/>
      <use xlink:href="#DejaVuSans-65" x="77.001953"/>
      <use xlink:href="#DejaVuSans-6e" x="138.525391"/>
      <use xlink:href="#DejaVuSans-73" x="201.904297"/>
      <use xlink:href="#DejaVuSans-69" x="254.003906"/>
      <use xlink:href="#DejaVuSans-74" x="281.787109"/>
      <use xlink:href="#DejaVuSans-79" x="320.996094"/>
     </g>
    </g>
   </g>
   <g id="patch_3">
    <path d="M 45.716875 272.198125 
L 45.716875 41.318125 
" style="fill: none; stroke: #000000; stroke-width: 0.8; stroke-linejoin: miter; stroke-linecap: square"/>
   </g>
   <g id="patch_4">
    <path d="M 257.616875 272.198125 
L 257.616875 41.318125 
" style="fill: none; stroke: #000000; stroke-width: 0.8; stroke-linejoin: miter; stroke-linecap: square"/>
   </g>
   <g id="patch_5">
    <path d="M 45.716875 272.198125 
L 257.616875 272.198125 
" style="fill: none; stroke: #000000; stroke-width: 0.8; stroke-linejoin: miter; stroke-linecap: square"/>
   </g>
   <g id="patch_6">
    <path d="M 45.716875 41.318125 
L 257.616875 41.318125 
" style="fill: none; stroke: #000000; stroke-width: 0.8; stroke-linejoin: miter; stroke-linecap: square"/>
   </g>
   <g id="text_15">
    <!-- KDE Plot: age (Scale: boxcox) -->
    <g transform="translate(63.26625 16.318125) scale(0.12 -0.12)">
     <defs>
      <path id="DejaVuSans-4b" d="M 628 4666 
L 1259 4666 
L 1259 2694 
L 3353 4666 
L 4166 4666 
L 1850 2491 
L 4331 0 
L 3500 0 
L 1259 2247 
L 1259 0 
L 628 0 
L 628 4666 
z
" transform="scale(0.015625)"/>
      <path id="DejaVuSans-45" d="M 628 4666 
L 3578 4666 
L 3578 4134 
L 1259 4134 
L 1259 2753 
L 3481 2753 
L 3481 2222 
L 1259 2222 
L 1259 531 
L 3634 531 
L 3634 0 
L 628 0 
L 628 4666 
z
" transform="scale(0.015625)"/>
      <path id="DejaVuSans-20" transform="scale(0.015625)"/>
      <path id="DejaVuSans-50" d="M 1259 4147 
L 1259 2394 
L 2053 2394 
Q 2494 2394 2734 2622 
Q 2975 2850 2975 3272 
Q 2975 3691 2734 3919 
Q 2494 4147 2053 4147 
L 1259 4147 
z
M 628 4666 
L 2053 4666 
Q 2838 4666 3239 4311 
Q 3641 3956 3641 3272 
Q 3641 2581 3239 2228 
Q 2838 1875 2053 1875 
L 1259 1875 
L 1259 0 
L 628 0 
L 628 4666 
z
" transform="scale(0.015625)"/>
      <path id="DejaVuSans-6c" d="M 603 4863 
L 1178 4863 
L 1178 0 
L 603 0 
L 603 4863 
z
" transform="scale(0.015625)"/>
      <path id="DejaVuSans-6f" d="M 1959 3097 
Q 1497 3097 1228 2736 
Q 959 2375 959 1747 
Q 959 1119 1226 758 
Q 1494 397 1959 397 
Q 2419 397 2687 759 
Q 2956 1122 2956 1747 
Q 2956 2369 2687 2733 
Q 2419 3097 1959 3097 
z
M 1959 3584 
Q 2709 3584 3137 3096 
Q 3566 2609 3566 1747 
Q 3566 888 3137 398 
Q 2709 -91 1959 -91 
Q 1206 -91 779 398 
Q 353 888 353 1747 
Q 353 2609 779 3096 
Q 1206 3584 1959 3584 
z
" transform="scale(0.015625)"/>
      <path id="DejaVuSans-3a" d="M 750 794 
L 1409 794 
L 1409 0 
L 750 0 
L 750 794 
z
M 750 3309 
L 1409 3309 
L 1409 2516 
L 750 2516 
L 750 3309 
z
" transform="scale(0.015625)"/>
      <path id="DejaVuSans-28" d="M 1984 4856 
Q 1566 4138 1362 3434 
Q 1159 2731 1159 2009 
Q 1159 1288 1364 580 
Q 1569 -128 1984 -844 
L 1484 -844 
Q 1016 -109 783 600 
Q 550 1309 550 2009 
Q 550 2706 781 3412 
Q 1013 4119 1484 4856 
L 1984 4856 
z
" transform="scale(0.015625)"/>
      <path id="DejaVuSans-53" d="M 3425 4513 
L 3425 3897 
Q 3066 4069 2747 4153 
Q 2428 4238 2131 4238 
Q 1616 4238 1336 4038 
Q 1056 3838 1056 3469 
Q 1056 3159 1242 3001 
Q 1428 2844 1947 2747 
L 2328 2669 
Q 3034 2534 3370 2195 
Q 3706 1856 3706 1288 
Q 3706 609 3251 259 
Q 2797 -91 1919 -91 
Q 1588 -91 1214 -16 
Q 841 59 441 206 
L 441 856 
Q 825 641 1194 531 
Q 1563 422 1919 422 
Q 2459 422 2753 634 
Q 3047 847 3047 1241 
Q 3047 1584 2836 1778 
Q 2625 1972 2144 2069 
L 1759 2144 
Q 1053 2284 737 2584 
Q 422 2884 422 3419 
Q 422 4038 858 4394 
Q 1294 4750 2059 4750 
Q 2388 4750 2728 4690 
Q 3069 4631 3425 4513 
z
" transform="scale(0.015625)"/>
      <path id="DejaVuSans-63" d="M 3122 3366 
L 3122 2828 
Q 2878 2963 2633 3030 
Q 2388 3097 2138 3097 
Q 1578 3097 1268 2742 
Q 959 2388 959 1747 
Q 959 1106 1268 751 
Q 1578 397 2138 397 
Q 2388 397 2633 464 
Q 2878 531 3122 666 
L 3122 134 
Q 2881 22 2623 -34 
Q 2366 -91 2075 -91 
Q 1284 -91 818 406 
Q 353 903 353 1747 
Q 353 2603 823 3093 
Q 1294 3584 2113 3584 
Q 2378 3584 2631 3529 
Q 2884 3475 3122 3366 
z
" transform="scale(0.015625)"/>
      <path id="DejaVuSans-62" d="M 3116 1747 
Q 3116 2381 2855 2742 
Q 2594 3103 2138 3103 
Q 1681 3103 1420 2742 
Q 1159 2381 1159 1747 
Q 1159 1113 1420 752 
Q 1681 391 2138 391 
Q 2594 391 2855 752 
Q 3116 1113 3116 1747 
z
M 1159 2969 
Q 1341 3281 1617 3432 
Q 1894 3584 2278 3584 
Q 2916 3584 3314 3078 
Q 3713 2572 3713 1747 
Q 3713 922 3314 415 
Q 2916 -91 2278 -91 
Q 1894 -91 1617 61 
Q 1341 213 1159 525 
L 1159 0 
L 581 0 
L 581 4863 
L 1159 4863 
L 1159 2969 
z
" transform="scale(0.015625)"/>
      <path id="DejaVuSans-78" d="M 3513 3500 
L 2247 1797 
L 3578 0 
L 2900 0 
L 1881 1375 
L 863 0 
L 184 0 
L 1544 1831 
L 300 3500 
L 978 3500 
L 1906 2253 
L 2834 3500 
L 3513 3500 
z
" transform="scale(0.015625)"/>
      <path id="DejaVuSans-29" d="M 513 4856 
L 1013 4856 
Q 1481 4119 1714 3412 
Q 1947 2706 1947 2009 
Q 1947 1309 1714 600 
Q 1481 -109 1013 -844 
L 513 -844 
Q 928 -128 1133 580 
Q 1338 1288 1338 2009 
Q 1338 2731 1133 3434 
Q 928 4138 513 4856 
z
" transform="scale(0.015625)"/>
     </defs>
     <use xlink:href="#DejaVuSans-4b"/>
     <use xlink:href="#DejaVuSans-44" x="65.576172"/>
     <use xlink:href="#DejaVuSans-45" x="142.578125"/>
     <use xlink:href="#DejaVuSans-20" x="205.761719"/>
     <use xlink:href="#DejaVuSans-50" x="237.548828"/>
     <use xlink:href="#DejaVuSans-6c" x="297.851562"/>
     <use xlink:href="#DejaVuSans-6f" x="325.634766"/>
     <use xlink:href="#DejaVuSans-74" x="386.816406"/>
     <use xlink:href="#DejaVuSans-3a" x="426.025391"/>
     <use xlink:href="#DejaVuSans-20" x="459.716797"/>
     <use xlink:href="#DejaVuSans-61" x="491.503906"/>
     <use xlink:href="#DejaVuSans-67" x="552.783203"/>
     <use xlink:href="#DejaVuSans-65" x="616.259766"/>
     <use xlink:href="#DejaVuSans-20" x="677.783203"/>
     <use xlink:href="#DejaVuSans-28" x="709.570312"/>
     <use xlink:href="#DejaVuSans-53" x="748.583984"/>
     <use xlink:href="#DejaVuSans-63" x="812.060547"/>
     <use xlink:href="#DejaVuSans-61" x="867.041016"/>
     <use xlink:href="#DejaVuSans-6c" x="928.320312"/>
     <use xlink:href="#DejaVuSans-65" x="956.103516"/>
     <use xlink:href="#DejaVuSans-3a" x="1017.626953"/>
     <use xlink:href="#DejaVuSans-20" x="1051.318359"/>
     <use xlink:href="#DejaVuSans-62" x="1083.105469"/>
     <use xlink:href="#DejaVuSans-6f" x="1146.582031"/>
     <use xlink:href="#DejaVuSans-78" x="1204.638672"/>
     <use xlink:href="#DejaVuSans-63" x="1262.068359"/>
     <use xlink:href="#DejaVuSans-6f" x="1317.048828"/>
     <use xlink:href="#DejaVuSans-78" x="1375.105469"/>
     <use xlink:href="#DejaVuSans-29" x="1434.285156"/>
    </g>
   </g>
  </g>
  <g id="axes_2">
   <g id="patch_7">
    <path d="M 321.866875 272.198125 
L 533.766875 272.198125 
L 533.766875 41.318125 
L 321.866875 41.318125 
z
" style="fill: #ffffff"/>
   </g>
   <g id="patch_8">
    <path d="M 331.498693 272.198125 
L 334.82001 272.198125 
L 334.82001 222.414259 
L 331.498693 222.414259 
z
" clip-path="url(#pf8c5672dda)" style="fill: #008000; fill-opacity: 0.75; stroke: #000000; stroke-width: 0.308685; stroke-linejoin: miter"/>
   </g>
   <g id="patch_9">
    <path d="M 334.82001 272.198125 
L 338.141326 272.198125 
L 338.141326 200.074272 
L 334.82001 200.074272 
z
" clip-path="url(#pf8c5672dda)" style="fill: #008000; fill-opacity: 0.75; stroke: #000000; stroke-width: 0.308685; stroke-linejoin: miter"/>
   </g>
   <g id="patch_10">
    <path d="M 338.141326 272.198125 
L 341.462643 272.198125 
L 341.462643 272.198125 
L 338.141326 272.198125 
z
" clip-path="url(#pf8c5672dda)" style="fill: #008000; fill-opacity: 0.75; stroke: #000000; stroke-width: 0.308685; stroke-linejoin: miter"/>
   </g>
   <g id="patch_11">
    <path d="M 341.462643 272.198125 
L 344.78396 272.198125 
L 344.78396 184.093233 
L 341.462643 184.093233 
z
" clip-path="url(#pf8c5672dda)" style="fill: #008000; fill-opacity: 0.75; stroke: #000000; stroke-width: 0.308685; stroke-linejoin: miter"/>
   </g>
   <g id="patch_12">
    <path d="M 344.78396 272.198125 
L 348.105276 272.198125 
L 348.105276 179.073011 
L 344.78396 179.073011 
z
" clip-path="url(#pf8c5672dda)" style="fill: #008000; fill-opacity: 0.75; stroke: #000000; stroke-width: 0.308685; stroke-linejoin: miter"/>
   </g>
   <g id="patch_13">
    <path d="M 348.105276 272.198125 
L 351.426593 272.198125 
L 351.426593 272.198125 
L 348.105276 272.198125 
z
" clip-path="url(#pf8c5672dda)" style="fill: #008000; fill-opacity: 0.75; stroke: #000000; stroke-width: 0.308685; stroke-linejoin: miter"/>
   </g>
   <g id="patch_14">
    <path d="M 351.426593 272.198125 
L 354.747909 272.198125 
L 354.747909 180.495407 
L 351.426593 180.495407 
z
" clip-path="url(#pf8c5672dda)" style="fill: #008000; fill-opacity: 0.75; stroke: #000000; stroke-width: 0.308685; stroke-linejoin: miter"/>
   </g>
   <g id="patch_15">
    <path d="M 354.747909 272.198125 
L 358.069226 272.198125 
L 358.069226 173.634437 
L 354.747909 173.634437 
z
" clip-path="url(#pf8c5672dda)" style="fill: #008000; fill-opacity: 0.75; stroke: #000000; stroke-width: 0.308685; stroke-linejoin: miter"/>
   </g>
   <g id="patch_16">
    <path d="M 358.069226 272.198125 
L 361.390543 272.198125 
L 361.390543 272.198125 
L 358.069226 272.198125 
z
" clip-path="url(#pf8c5672dda)" style="fill: #008000; fill-opacity: 0.75; stroke: #000000; stroke-width: 0.308685; stroke-linejoin: miter"/>
   </g>
   <g id="patch_17">
    <path d="M 361.390543 272.198125 
L 364.711859 272.198125 
L 364.711859 161.000212 
L 361.390543 161.000212 
z
" clip-path="url(#pf8c5672dda)" style="fill: #008000; fill-opacity: 0.75; stroke: #000000; stroke-width: 0.308685; stroke-linejoin: miter"/>
   </g>
   <g id="patch_18">
    <path d="M 364.711859 272.198125 
L 368.033176 272.198125 
L 368.033176 171.291667 
L 364.711859 171.291667 
z
" clip-path="url(#pf8c5672dda)" style="fill: #008000; fill-opacity: 0.75; stroke: #000000; stroke-width: 0.308685; stroke-linejoin: miter"/>
   </g>
   <g id="patch_19">
    <path d="M 368.033176 272.198125 
L 371.354493 272.198125 
L 371.354493 172.212041 
L 368.033176 172.212041 
z
" clip-path="url(#pf8c5672dda)" style="fill: #008000; fill-opacity: 0.75; stroke: #000000; stroke-width: 0.308685; stroke-linejoin: miter"/>
   </g>
   <g id="patch_20">
    <path d="M 371.354493 272.198125 
L 374.675809 272.198125 
L 374.675809 272.198125 
L 371.354493 272.198125 
z
" clip-path="url(#pf8c5672dda)" style="fill: #008000; fill-opacity: 0.75; stroke: #000000; stroke-width: 0.308685; stroke-linejoin: miter"/>
   </g>
   <g id="patch_21">
    <path d="M 374.675809 272.198125 
L 377.997126 272.198125 
L 377.997126 175.726196 
L 374.675809 175.726196 
z
" clip-path="url(#pf8c5672dda)" style="fill: #008000; fill-opacity: 0.75; stroke: #000000; stroke-width: 0.308685; stroke-linejoin: miter"/>
   </g>
   <g id="patch_22">
    <path d="M 377.997126 272.198125 
L 381.318442 272.198125 
L 381.318442 169.116238 
L 377.997126 169.116238 
z
" clip-path="url(#pf8c5672dda)" style="fill: #008000; fill-opacity: 0.75; stroke: #000000; stroke-width: 0.308685; stroke-linejoin: miter"/>
   </g>
   <g id="patch_23">
    <path d="M 381.318442 272.198125 
L 384.639759 272.198125 
L 384.639759 165.10006 
L 381.318442 165.10006 
z
" clip-path="url(#pf8c5672dda)" style="fill: #008000; fill-opacity: 0.75; stroke: #000000; stroke-width: 0.308685; stroke-linejoin: miter"/>
   </g>
   <g id="patch_24">
    <path d="M 384.639759 272.198125 
L 387.961076 272.198125 
L 387.961076 169.869271 
L 384.639759 169.869271 
z
" clip-path="url(#pf8c5672dda)" style="fill: #008000; fill-opacity: 0.75; stroke: #000000; stroke-width: 0.308685; stroke-linejoin: miter"/>
   </g>
   <g id="patch_25">
    <path d="M 387.961076 272.198125 
L 391.282392 272.198125 
L 391.282392 165.267401 
L 387.961076 165.267401 
z
" clip-path="url(#pf8c5672dda)" style="fill: #008000; fill-opacity: 0.75; stroke: #000000; stroke-width: 0.308685; stroke-linejoin: miter"/>
   </g>
   <g id="patch_26">
    <path d="M 391.282392 272.198125 
L 394.603709 272.198125 
L 394.603709 161.334894 
L 391.282392 161.334894 
z
" clip-path="url(#pf8c5672dda)" style="fill: #008000; fill-opacity: 0.75; stroke: #000000; stroke-width: 0.308685; stroke-linejoin: miter"/>
   </g>
   <g id="patch_27">
    <path d="M 394.603709 272.198125 
L 397.925025 272.198125 
L 397.925025 272.198125 
L 394.603709 272.198125 
z
" clip-path="url(#pf8c5672dda)" style="fill: #008000; fill-opacity: 0.75; stroke: #000000; stroke-width: 0.308685; stroke-linejoin: miter"/>
   </g>
   <g id="patch_28">
    <path d="M 397.925025 272.198125 
L 401.246342 272.198125 
L 401.246342 167.35916 
L 397.925025 167.35916 
z
" clip-path="url(#pf8c5672dda)" style="fill: #008000; fill-opacity: 0.75; stroke: #000000; stroke-width: 0.308685; stroke-linejoin: miter"/>
   </g>
   <g id="patch_29">
    <path d="M 401.246342 272.198125 
L 404.567659 272.198125 
L 404.567659 160.49819 
L 401.246342 160.49819 
z
" clip-path="url(#pf8c5672dda)" style="fill: #008000; fill-opacity: 0.75; stroke: #000000; stroke-width: 0.308685; stroke-linejoin: miter"/>
   </g>
   <g id="patch_30">
    <path d="M 404.567659 272.198125 
L 407.888975 272.198125 
L 407.888975 163.175642 
L 404.567659 163.175642 
z
" clip-path="url(#pf8c5672dda)" style="fill: #008000; fill-opacity: 0.75; stroke: #000000; stroke-width: 0.308685; stroke-linejoin: miter"/>
   </g>
   <g id="patch_31">
    <path d="M 407.888975 272.198125 
L 411.210292 272.198125 
L 411.210292 160.33085 
L 407.888975 160.33085 
z
" clip-path="url(#pf8c5672dda)" style="fill: #008000; fill-opacity: 0.75; stroke: #000000; stroke-width: 0.308685; stroke-linejoin: miter"/>
   </g>
   <g id="patch_32">
    <path d="M 411.210292 272.198125 
L 414.531609 272.198125 
L 414.531609 52.312411 
L 411.210292 52.312411 
z
" clip-path="url(#pf8c5672dda)" style="fill: #008000; fill-opacity: 0.75; stroke: #000000; stroke-width: 0.308685; stroke-linejoin: miter"/>
   </g>
   <g id="patch_33">
    <path d="M 414.531609 272.198125 
L 417.852925 272.198125 
L 417.852925 166.438786 
L 414.531609 166.438786 
z
" clip-path="url(#pf8c5672dda)" style="fill: #008000; fill-opacity: 0.75; stroke: #000000; stroke-width: 0.308685; stroke-linejoin: miter"/>
   </g>
   <g id="patch_34">
    <path d="M 417.852925 272.198125 
L 421.174242 272.198125 
L 421.174242 171.291667 
L 417.852925 171.291667 
z
" clip-path="url(#pf8c5672dda)" style="fill: #008000; fill-opacity: 0.75; stroke: #000000; stroke-width: 0.308685; stroke-linejoin: miter"/>
   </g>
   <g id="patch_35">
    <path d="M 421.174242 272.198125 
L 424.495558 272.198125 
L 424.495558 172.881404 
L 421.174242 172.881404 
z
" clip-path="url(#pf8c5672dda)" style="fill: #008000; fill-opacity: 0.75; stroke: #000000; stroke-width: 0.308685; stroke-linejoin: miter"/>
   </g>
   <g id="patch_36">
    <path d="M 424.495558 272.198125 
L 427.816875 272.198125 
L 427.816875 168.865227 
L 424.495558 168.865227 
z
" clip-path="url(#pf8c5672dda)" style="fill: #008000; fill-opacity: 0.75; stroke: #000000; stroke-width: 0.308685; stroke-linejoin: miter"/>
   </g>
   <g id="patch_37">
    <path d="M 427.816875 272.198125 
L 431.138192 272.198125 
L 431.138192 174.722152 
L 427.816875 174.722152 
z
" clip-path="url(#pf8c5672dda)" style="fill: #008000; fill-opacity: 0.75; stroke: #000000; stroke-width: 0.308685; stroke-linejoin: miter"/>
   </g>
   <g id="patch_38">
    <path d="M 431.138192 272.198125 
L 434.459508 272.198125 
L 434.459508 179.826044 
L 431.138192 179.826044 
z
" clip-path="url(#pf8c5672dda)" style="fill: #008000; fill-opacity: 0.75; stroke: #000000; stroke-width: 0.308685; stroke-linejoin: miter"/>
   </g>
   <g id="patch_39">
    <path d="M 434.459508 272.198125 
L 437.780825 272.198125 
L 437.780825 91.21913 
L 434.459508 91.21913 
z
" clip-path="url(#pf8c5672dda)" style="fill: #008000; fill-opacity: 0.75; stroke: #000000; stroke-width: 0.308685; stroke-linejoin: miter"/>
   </g>
   <g id="patch_40">
    <path d="M 437.780825 272.198125 
L 441.102141 272.198125 
L 441.102141 180.411737 
L 437.780825 180.411737 
z
" clip-path="url(#pf8c5672dda)" style="fill: #008000; fill-opacity: 0.75; stroke: #000000; stroke-width: 0.308685; stroke-linejoin: miter"/>
   </g>
   <g id="patch_41">
    <path d="M 441.102141 272.198125 
L 444.423458 272.198125 
L 444.423458 181.750462 
L 441.102141 181.750462 
z
" clip-path="url(#pf8c5672dda)" style="fill: #008000; fill-opacity: 0.75; stroke: #000000; stroke-width: 0.308685; stroke-linejoin: miter"/>
   </g>
   <g id="patch_42">
    <path d="M 444.423458 272.198125 
L 447.744775 272.198125 
L 447.744775 130.627871 
L 444.423458 130.627871 
z
" clip-path="url(#pf8c5672dda)" style="fill: #008000; fill-opacity: 0.75; stroke: #000000; stroke-width: 0.308685; stroke-linejoin: miter"/>
   </g>
   <g id="patch_43">
    <path d="M 447.744775 272.198125 
L 451.066091 272.198125 
L 451.066091 199.739591 
L 447.744775 199.739591 
z
" clip-path="url(#pf8c5672dda)" style="fill: #008000; fill-opacity: 0.75; stroke: #000000; stroke-width: 0.308685; stroke-linejoin: miter"/>
   </g>
   <g id="patch_44">
    <path d="M 451.066091 272.198125 
L 454.387408 272.198125 
L 454.387408 198.819217 
L 451.066091 198.819217 
z
" clip-path="url(#pf8c5672dda)" style="fill: #008000; fill-opacity: 0.75; stroke: #000000; stroke-width: 0.308685; stroke-linejoin: miter"/>
   </g>
   <g id="patch_45">
    <path d="M 454.387408 272.198125 
L 457.708725 272.198125 
L 457.708725 150.959769 
L 454.387408 150.959769 
z
" clip-path="url(#pf8c5672dda)" style="fill: #008000; fill-opacity: 0.75; stroke: #000000; stroke-width: 0.308685; stroke-linejoin: miter"/>
   </g>
   <g id="patch_46">
    <path d="M 457.708725 272.198125 
L 461.030041 272.198125 
L 461.030041 220.908192 
L 457.708725 220.908192 
z
" clip-path="url(#pf8c5672dda)" style="fill: #008000; fill-opacity: 0.75; stroke: #000000; stroke-width: 0.308685; stroke-linejoin: miter"/>
   </g>
   <g id="patch_47">
    <path d="M 461.030041 272.198125 
L 464.351358 272.198125 
L 464.351358 173.048745 
L 461.030041 173.048745 
z
" clip-path="url(#pf8c5672dda)" style="fill: #008000; fill-opacity: 0.75; stroke: #000000; stroke-width: 0.308685; stroke-linejoin: miter"/>
   </g>
   <g id="patch_48">
    <path d="M 464.351358 272.198125 
L 467.672674 272.198125 
L 467.672674 226.095755 
L 464.351358 226.095755 
z
" clip-path="url(#pf8c5672dda)" style="fill: #008000; fill-opacity: 0.75; stroke: #000000; stroke-width: 0.308685; stroke-linejoin: miter"/>
   </g>
   <g id="patch_49">
    <path d="M 467.672674 272.198125 
L 470.993991 272.198125 
L 470.993991 182.001474 
L 467.672674 182.001474 
z
" clip-path="url(#pf8c5672dda)" style="fill: #008000; fill-opacity: 0.75; stroke: #000000; stroke-width: 0.308685; stroke-linejoin: miter"/>
   </g>
   <g id="patch_50">
    <path d="M 470.993991 272.198125 
L 474.315308 272.198125 
L 474.315308 196.978469 
L 470.993991 196.978469 
z
" clip-path="url(#pf8c5672dda)" style="fill: #008000; fill-opacity: 0.75; stroke: #000000; stroke-width: 0.308685; stroke-linejoin: miter"/>
   </g>
   <g id="patch_51">
    <path d="M 474.315308 272.198125 
L 477.636624 272.198125 
L 477.636624 239.232002 
L 474.315308 239.232002 
z
" clip-path="url(#pf8c5672dda)" style="fill: #008000; fill-opacity: 0.75; stroke: #000000; stroke-width: 0.308685; stroke-linejoin: miter"/>
   </g>
   <g id="patch_52">
    <path d="M 477.636624 272.198125 
L 480.957941 272.198125 
L 480.957941 215.72063 
L 477.636624 215.72063 
z
" clip-path="url(#pf8c5672dda)" style="fill: #008000; fill-opacity: 0.75; stroke: #000000; stroke-width: 0.308685; stroke-linejoin: miter"/>
   </g>
   <g id="patch_53">
    <path d="M 480.957941 272.198125 
L 484.279257 272.198125 
L 484.279257 228.605866 
L 480.957941 228.605866 
z
" clip-path="url(#pf8c5672dda)" style="fill: #008000; fill-opacity: 0.75; stroke: #000000; stroke-width: 0.308685; stroke-linejoin: miter"/>
   </g>
   <g id="patch_54">
    <path d="M 484.279257 272.198125 
L 487.600574 272.198125 
L 487.600574 252.284579 
L 484.279257 252.284579 
z
" clip-path="url(#pf8c5672dda)" style="fill: #008000; fill-opacity: 0.75; stroke: #000000; stroke-width: 0.308685; stroke-linejoin: miter"/>
   </g>
   <g id="patch_55">
    <path d="M 487.600574 272.198125 
L 490.921891 272.198125 
L 490.921891 244.837916 
L 487.600574 244.837916 
z
" clip-path="url(#pf8c5672dda)" style="fill: #008000; fill-opacity: 0.75; stroke: #000000; stroke-width: 0.308685; stroke-linejoin: miter"/>
   </g>
   <g id="patch_56">
    <path d="M 490.921891 272.198125 
L 494.243207 272.198125 
L 494.243207 251.196864 
L 490.921891 251.196864 
z
" clip-path="url(#pf8c5672dda)" style="fill: #008000; fill-opacity: 0.75; stroke: #000000; stroke-width: 0.308685; stroke-linejoin: miter"/>
   </g>
   <g id="patch_57">
    <path d="M 494.243207 272.198125 
L 497.564524 272.198125 
L 497.564524 253.121282 
L 494.243207 253.121282 
z
" clip-path="url(#pf8c5672dda)" style="fill: #008000; fill-opacity: 0.75; stroke: #000000; stroke-width: 0.308685; stroke-linejoin: miter"/>
   </g>
   <g id="patch_58">
    <path d="M 497.564524 272.198125 
L 500.885841 272.198125 
L 500.885841 259.731241 
L 497.564524 259.731241 
z
" clip-path="url(#pf8c5672dda)" style="fill: #008000; fill-opacity: 0.75; stroke: #000000; stroke-width: 0.308685; stroke-linejoin: miter"/>
   </g>
   <g id="patch_59">
    <path d="M 500.885841 272.198125 
L 504.207157 272.198125 
L 504.207157 261.90667 
L 500.885841 261.90667 
z
" clip-path="url(#pf8c5672dda)" style="fill: #008000; fill-opacity: 0.75; stroke: #000000; stroke-width: 0.308685; stroke-linejoin: miter"/>
   </g>
   <g id="patch_60">
    <path d="M 504.207157 272.198125 
L 507.528474 272.198125 
L 507.528474 266.843222 
L 504.207157 266.843222 
z
" clip-path="url(#pf8c5672dda)" style="fill: #008000; fill-opacity: 0.75; stroke: #000000; stroke-width: 0.308685; stroke-linejoin: miter"/>
   </g>
   <g id="patch_61">
    <path d="M 507.528474 272.198125 
L 510.84979 272.198125 
L 510.84979 265.922848 
L 507.528474 265.922848 
z
" clip-path="url(#pf8c5672dda)" style="fill: #008000; fill-opacity: 0.75; stroke: #000000; stroke-width: 0.308685; stroke-linejoin: miter"/>
   </g>
   <g id="patch_62">
    <path d="M 510.84979 272.198125 
L 514.171107 272.198125 
L 514.171107 270.022696 
L 510.84979 270.022696 
z
" clip-path="url(#pf8c5672dda)" style="fill: #008000; fill-opacity: 0.75; stroke: #000000; stroke-width: 0.308685; stroke-linejoin: miter"/>
   </g>
   <g id="patch_63">
    <path d="M 514.171107 272.198125 
L 517.492424 272.198125 
L 517.492424 270.692058 
L 514.171107 270.692058 
z
" clip-path="url(#pf8c5672dda)" style="fill: #008000; fill-opacity: 0.75; stroke: #000000; stroke-width: 0.308685; stroke-linejoin: miter"/>
   </g>
   <g id="patch_64">
    <path d="M 517.492424 272.198125 
L 520.81374 272.198125 
L 520.81374 271.863444 
L 517.492424 271.863444 
z
" clip-path="url(#pf8c5672dda)" style="fill: #008000; fill-opacity: 0.75; stroke: #000000; stroke-width: 0.308685; stroke-linejoin: miter"/>
   </g>
   <g id="patch_65">
    <path d="M 520.81374 272.198125 
L 524.135057 272.198125 
L 524.135057 266.926892 
L 520.81374 266.926892 
z
" clip-path="url(#pf8c5672dda)" style="fill: #008000; fill-opacity: 0.75; stroke: #000000; stroke-width: 0.308685; stroke-linejoin: miter"/>
   </g>
   <g id="matplotlib.axis_3">
    <g id="xtick_7">
     <g id="line2d_13">
      <g>
       <use xlink:href="#m1168a1b86d" x="351.742927" y="272.198125" style="stroke: #000000; stroke-width: 0.8"/>
      </g>
     </g>
     <g id="text_16">
      <!-- 4.0 -->
      <g transform="translate(343.791364 286.796562) scale(0.1 -0.1)">
       <use xlink:href="#DejaVuSans-34"/>
       <use xlink:href="#DejaVuSans-2e" x="63.623047"/>
       <use xlink:href="#DejaVuSans-30" x="95.410156"/>
      </g>
     </g>
    </g>
    <g id="xtick_8">
     <g id="line2d_14">
      <g>
       <use xlink:href="#m1168a1b86d" x="382.083849" y="272.198125" style="stroke: #000000; stroke-width: 0.8"/>
      </g>
     </g>
     <g id="text_17">
      <!-- 4.5 -->
      <g transform="translate(374.132287 286.796562) scale(0.1 -0.1)">
       <use xlink:href="#DejaVuSans-34"/>
       <use xlink:href="#DejaVuSans-2e" x="63.623047"/>
       <use xlink:href="#DejaVuSans-35" x="95.410156"/>
      </g>
     </g>
    </g>
    <g id="xtick_9">
     <g id="line2d_15">
      <g>
       <use xlink:href="#m1168a1b86d" x="412.424771" y="272.198125" style="stroke: #000000; stroke-width: 0.8"/>
      </g>
     </g>
     <g id="text_18">
      <!-- 5.0 -->
      <g transform="translate(404.473209 286.796562) scale(0.1 -0.1)">
       <use xlink:href="#DejaVuSans-35"/>
       <use xlink:href="#DejaVuSans-2e" x="63.623047"/>
       <use xlink:href="#DejaVuSans-30" x="95.410156"/>
      </g>
     </g>
    </g>
    <g id="xtick_10">
     <g id="line2d_16">
      <g>
       <use xlink:href="#m1168a1b86d" x="442.765693" y="272.198125" style="stroke: #000000; stroke-width: 0.8"/>
      </g>
     </g>
     <g id="text_19">
      <!-- 5.5 -->
      <g transform="translate(434.814131 286.796562) scale(0.1 -0.1)">
       <use xlink:href="#DejaVuSans-35"/>
       <use xlink:href="#DejaVuSans-2e" x="63.623047"/>
       <use xlink:href="#DejaVuSans-35" x="95.410156"/>
      </g>
     </g>
    </g>
    <g id="xtick_11">
     <g id="line2d_17">
      <g>
       <use xlink:href="#m1168a1b86d" x="473.106615" y="272.198125" style="stroke: #000000; stroke-width: 0.8"/>
      </g>
     </g>
     <g id="text_20">
      <!-- 6.0 -->
      <g transform="translate(465.155053 286.796562) scale(0.1 -0.1)">
       <use xlink:href="#DejaVuSans-36"/>
       <use xlink:href="#DejaVuSans-2e" x="63.623047"/>
       <use xlink:href="#DejaVuSans-30" x="95.410156"/>
      </g>
     </g>
    </g>
    <g id="xtick_12">
     <g id="line2d_18">
      <g>
       <use xlink:href="#m1168a1b86d" x="503.447538" y="272.198125" style="stroke: #000000; stroke-width: 0.8"/>
      </g>
     </g>
     <g id="text_21">
      <!-- 6.5 -->
      <g transform="translate(495.495975 286.796562) scale(0.1 -0.1)">
       <use xlink:href="#DejaVuSans-36"/>
       <use xlink:href="#DejaVuSans-2e" x="63.623047"/>
       <use xlink:href="#DejaVuSans-35" x="95.410156"/>
      </g>
     </g>
    </g>
    <g id="text_22">
     <!-- age -->
     <g transform="translate(416.639062 301.994375) scale(0.12 -0.12)">
      <use xlink:href="#DejaVuSans-61"/>
      <use xlink:href="#DejaVuSans-67" x="61.279297"/>
      <use xlink:href="#DejaVuSans-65" x="124.755859"/>
     </g>
    </g>
   </g>
   <g id="matplotlib.axis_4">
    <g id="ytick_7">
     <g id="line2d_19">
      <g>
       <use xlink:href="#m6551e777ca" x="321.866875" y="272.198125" style="stroke: #000000; stroke-width: 0.8"/>
      </g>
     </g>
     <g id="text_23">
      <!-- 0 -->
      <g transform="translate(308.504375 275.997344) scale(0.1 -0.1)">
       <use xlink:href="#DejaVuSans-30"/>
      </g>
     </g>
    </g>
    <g id="ytick_8">
     <g id="line2d_20">
      <g>
       <use xlink:href="#m6551e777ca" x="321.866875" y="230.362943" style="stroke: #000000; stroke-width: 0.8"/>
      </g>
     </g>
     <g id="text_24">
      <!-- 500 -->
      <g transform="translate(295.779375 234.162162) scale(0.1 -0.1)">
       <use xlink:href="#DejaVuSans-35"/>
       <use xlink:href="#DejaVuSans-30" x="63.623047"/>
       <use xlink:href="#DejaVuSans-30" x="127.246094"/>
      </g>
     </g>
    </g>
    <g id="ytick_9">
     <g id="line2d_21">
      <g>
       <use xlink:href="#m6551e777ca" x="321.866875" y="188.527762" style="stroke: #000000; stroke-width: 0.8"/>
      </g>
     </g>
     <g id="text_25">
      <!-- 1000 -->
      <g transform="translate(289.416875 192.326981) scale(0.1 -0.1)">
       <use xlink:href="#DejaVuSans-31"/>
       <use xlink:href="#DejaVuSans-30" x="63.623047"/>
       <use xlink:href="#DejaVuSans-30" x="127.246094"/>
       <use xlink:href="#DejaVuSans-30" x="190.869141"/>
      </g>
     </g>
    </g>
    <g id="ytick_10">
     <g id="line2d_22">
      <g>
       <use xlink:href="#m6551e777ca" x="321.866875" y="146.69258" style="stroke: #000000; stroke-width: 0.8"/>
      </g>
     </g>
     <g id="text_26">
      <!-- 1500 -->
      <g transform="translate(289.416875 150.491799) scale(0.1 -0.1)">
       <use xlink:href="#DejaVuSans-31"/>
       <use xlink:href="#DejaVuSans-35" x="63.623047"/>
       <use xlink:href="#DejaVuSans-30" x="127.246094"/>
       <use xlink:href="#DejaVuSans-30" x="190.869141"/>
      </g>
     </g>
    </g>
    <g id="ytick_11">
     <g id="line2d_23">
      <g>
       <use xlink:href="#m6551e777ca" x="321.866875" y="104.857399" style="stroke: #000000; stroke-width: 0.8"/>
      </g>
     </g>
     <g id="text_27">
      <!-- 2000 -->
      <g transform="translate(289.416875 108.656618) scale(0.1 -0.1)">
       <use xlink:href="#DejaVuSans-32"/>
       <use xlink:href="#DejaVuSans-30" x="63.623047"/>
       <use xlink:href="#DejaVuSans-30" x="127.246094"/>
       <use xlink:href="#DejaVuSans-30" x="190.869141"/>
      </g>
     </g>
    </g>
    <g id="ytick_12">
     <g id="line2d_24">
      <g>
       <use xlink:href="#m6551e777ca" x="321.866875" y="63.022217" style="stroke: #000000; stroke-width: 0.8"/>
      </g>
     </g>
     <g id="text_28">
      <!-- 2500 -->
      <g transform="translate(289.416875 66.821436) scale(0.1 -0.1)">
       <use xlink:href="#DejaVuSans-32"/>
       <use xlink:href="#DejaVuSans-35" x="63.623047"/>
       <use xlink:href="#DejaVuSans-30" x="127.246094"/>
       <use xlink:href="#DejaVuSans-30" x="190.869141"/>
      </g>
     </g>
    </g>
    <g id="text_29">
     <!-- Count -->
     <g transform="translate(282.92125 174.57625) rotate(-90) scale(0.12 -0.12)">
      <defs>
       <path id="DejaVuSans-43" d="M 4122 4306 
L 4122 3641 
Q 3803 3938 3442 4084 
Q 3081 4231 2675 4231 
Q 1875 4231 1450 3742 
Q 1025 3253 1025 2328 
Q 1025 1406 1450 917 
Q 1875 428 2675 428 
Q 3081 428 3442 575 
Q 3803 722 4122 1019 
L 4122 359 
Q 3791 134 3420 21 
Q 3050 -91 2638 -91 
Q 1578 -91 968 557 
Q 359 1206 359 2328 
Q 359 3453 968 4101 
Q 1578 4750 2638 4750 
Q 3056 4750 3426 4639 
Q 3797 4528 4122 4306 
z
" transform="scale(0.015625)"/>
       <path id="DejaVuSans-75" d="M 544 1381 
L 544 3500 
L 1119 3500 
L 1119 1403 
Q 1119 906 1312 657 
Q 1506 409 1894 409 
Q 2359 409 2629 706 
Q 2900 1003 2900 1516 
L 2900 3500 
L 3475 3500 
L 3475 0 
L 2900 0 
L 2900 538 
Q 2691 219 2414 64 
Q 2138 -91 1772 -91 
Q 1169 -91 856 284 
Q 544 659 544 1381 
z
M 1991 3584 
L 1991 3584 
z
" transform="scale(0.015625)"/>
      </defs>
      <use xlink:href="#DejaVuSans-43"/>
      <use xlink:href="#DejaVuSans-6f" x="69.824219"/>
      <use xlink:href="#DejaVuSans-75" x="131.005859"/>
      <use xlink:href="#DejaVuSans-6e" x="194.384766"/>
      <use xlink:href="#DejaVuSans-74" x="257.763672"/>
     </g>
    </g>
   </g>
   <g id="patch_66">
    <path d="M 321.866875 272.198125 
L 321.866875 41.318125 
" style="fill: none; stroke: #000000; stroke-width: 0.8; stroke-linejoin: miter; stroke-linecap: square"/>
   </g>
   <g id="patch_67">
    <path d="M 533.766875 272.198125 
L 533.766875 41.318125 
" style="fill: none; stroke: #000000; stroke-width: 0.8; stroke-linejoin: miter; stroke-linecap: square"/>
   </g>
   <g id="patch_68">
    <path d="M 321.866875 272.198125 
L 533.766875 272.198125 
" style="fill: none; stroke: #000000; stroke-width: 0.8; stroke-linejoin: miter; stroke-linecap: square"/>
   </g>
   <g id="patch_69">
    <path d="M 321.866875 41.318125 
L 533.766875 41.318125 
" style="fill: none; stroke: #000000; stroke-width: 0.8; stroke-linejoin: miter; stroke-linecap: square"/>
   </g>
   <g id="text_30">
    <!-- Histplot: age (Scale: boxcox) -->
    <g transform="translate(341.820938 16.318125) scale(0.12 -0.12)">
     <defs>
      <path id="DejaVuSans-48" d="M 628 4666 
L 1259 4666 
L 1259 2753 
L 3553 2753 
L 3553 4666 
L 4184 4666 
L 4184 0 
L 3553 0 
L 3553 2222 
L 1259 2222 
L 1259 0 
L 628 0 
L 628 4666 
z
" transform="scale(0.015625)"/>
      <path id="DejaVuSans-70" d="M 1159 525 
L 1159 -1331 
L 581 -1331 
L 581 3500 
L 1159 3500 
L 1159 2969 
Q 1341 3281 1617 3432 
Q 1894 3584 2278 3584 
Q 2916 3584 3314 3078 
Q 3713 2572 3713 1747 
Q 3713 922 3314 415 
Q 2916 -91 2278 -91 
Q 1894 -91 1617 61 
Q 1341 213 1159 525 
z
M 3116 1747 
Q 3116 2381 2855 2742 
Q 2594 3103 2138 3103 
Q 1681 3103 1420 2742 
Q 1159 2381 1159 1747 
Q 1159 1113 1420 752 
Q 1681 391 2138 391 
Q 2594 391 2855 752 
Q 3116 1113 3116 1747 
z
" transform="scale(0.015625)"/>
     </defs>
     <use xlink:href="#DejaVuSans-48"/>
     <use xlink:href="#DejaVuSans-69" x="75.195312"/>
     <use xlink:href="#DejaVuSans-73" x="102.978516"/>
     <use xlink:href="#DejaVuSans-74" x="155.078125"/>
     <use xlink:href="#DejaVuSans-70" x="194.287109"/>
     <use xlink:href="#DejaVuSans-6c" x="257.763672"/>
     <use xlink:href="#DejaVuSans-6f" x="285.546875"/>
     <use xlink:href="#DejaVuSans-74" x="346.728516"/>
     <use xlink:href="#DejaVuSans-3a" x="385.9375"/>
     <use xlink:href="#DejaVuSans-20" x="419.628906"/>
     <use xlink:href="#DejaVuSans-61" x="451.416016"/>
     <use xlink:href="#DejaVuSans-67" x="512.695312"/>
     <use xlink:href="#DejaVuSans-65" x="576.171875"/>
     <use xlink:href="#DejaVuSans-20" x="637.695312"/>
     <use xlink:href="#DejaVuSans-28" x="669.482422"/>
     <use xlink:href="#DejaVuSans-53" x="708.496094"/>
     <use xlink:href="#DejaVuSans-63" x="771.972656"/>
     <use xlink:href="#DejaVuSans-61" x="826.953125"/>
     <use xlink:href="#DejaVuSans-6c" x="888.232422"/>
     <use xlink:href="#DejaVuSans-65" x="916.015625"/>
     <use xlink:href="#DejaVuSans-3a" x="977.539062"/>
     <use xlink:href="#DejaVuSans-20" x="1011.230469"/>
     <use xlink:href="#DejaVuSans-62" x="1043.017578"/>
     <use xlink:href="#DejaVuSans-6f" x="1106.494141"/>
     <use xlink:href="#DejaVuSans-78" x="1164.550781"/>
     <use xlink:href="#DejaVuSans-63" x="1221.980469"/>
     <use xlink:href="#DejaVuSans-6f" x="1276.960938"/>
     <use xlink:href="#DejaVuSans-78" x="1335.017578"/>
     <use xlink:href="#DejaVuSans-29" x="1394.197266"/>
    </g>
   </g>
  </g>
  <g id="axes_3">
   <g id="patch_70">
    <path d="M 598.016875 272.198125 
L 809.916875 272.198125 
L 809.916875 41.318125 
L 598.016875 41.318125 
z
" style="fill: #ffffff"/>
   </g>
   <g id="PolyCollection_2">
    <defs>
     <path id="mc5a4034ae6" d="M 607.648693 -205.914157 
L 607.648693 -209.104593 
L 609.594515 -211.219739 
L 611.540337 -214.756984 
L 613.486159 -219.604012 
L 615.431981 -225.164938 
L 617.377802 -230.712707 
L 619.323624 -235.784341 
L 621.269446 -240.253698 
L 623.215268 -244.151957 
L 625.16109 -247.507288 
L 627.106912 -250.312717 
L 629.052734 -252.580428 
L 630.998555 -254.406 
L 632.944377 -255.989056 
L 634.890199 -257.594388 
L 636.836021 -259.453278 
L 638.781843 -261.636853 
L 640.727665 -263.978855 
L 642.673487 -266.126567 
L 644.619308 -267.731719 
L 646.56513 -268.669575 
L 648.510952 -269.108847 
L 650.456774 -269.382555 
L 652.402596 -269.807139 
L 654.348418 -270.595325 
L 656.29424 -271.840636 
L 658.240061 -273.496346 
L 660.185883 -275.375579 
L 662.131705 -277.243974 
L 664.077527 -278.970078 
L 666.023349 -280.596744 
L 667.969171 -282.25416 
L 669.914993 -284.003437 
L 671.860814 -285.781232 
L 673.806636 -287.496224 
L 675.752458 -289.145118 
L 677.69828 -290.805776 
L 679.644102 -292.535341 
L 681.589924 -294.30524 
L 683.535746 -296.015391 
L 685.481567 -297.527062 
L 687.427389 -298.691409 
L 689.373211 -299.405858 
L 691.319033 -299.682613 
L 693.264855 -299.664383 
L 695.210677 -299.564053 
L 697.156499 -299.561137 
L 699.10232 -299.701177 
L 701.048142 -299.861375 
L 702.993964 -299.844765 
L 704.939786 -299.561625 
L 706.885608 -299.127143 
L 708.83143 -298.742617 
L 710.777251 -298.440988 
L 712.723073 -297.944568 
L 714.668895 -296.81876 
L 716.614717 -294.837291 
L 718.560539 -292.223426 
L 720.506361 -289.485969 
L 722.452183 -286.971389 
L 724.398004 -284.588002 
L 726.343826 -281.981256 
L 728.289648 -278.939366 
L 730.23547 -275.603244 
L 732.181292 -272.334794 
L 734.127114 -269.44268 
L 736.072936 -267.005713 
L 738.018757 -264.864344 
L 739.964579 -262.727278 
L 741.910401 -260.319086 
L 743.856223 -257.495506 
L 745.802045 -254.269027 
L 747.747867 -250.748998 
L 749.693689 -247.058512 
L 751.63951 -243.286893 
L 753.585332 -239.494788 
L 755.531154 -235.752146 
L 757.476976 -232.170418 
L 759.422798 -228.892038 
L 761.36862 -226.029982 
L 763.314442 -223.600349 
L 765.260263 -221.513669 
L 767.206085 -219.640819 
L 769.151907 -217.894517 
L 771.097729 -216.260495 
L 773.043551 -214.770781 
L 774.989373 -213.454981 
L 776.935195 -212.308361 
L 778.881016 -211.301114 
L 780.826838 -210.420982 
L 782.77266 -209.704017 
L 784.718482 -209.212594 
L 786.664304 -208.9697 
L 788.610126 -208.904708 
L 790.555948 -208.869408 
L 792.501769 -208.729315 
L 794.447591 -208.454776 
L 796.393413 -208.123602 
L 798.339235 -207.83947 
L 800.285057 -207.655208 
L 800.285057 -207.363542 
L 800.285057 -207.363542 
L 798.339235 -207.17928 
L 796.393413 -206.895148 
L 794.447591 -206.563974 
L 792.501769 -206.289435 
L 790.555948 -206.149342 
L 788.610126 -206.114042 
L 786.664304 -206.04905 
L 784.718482 -205.806156 
L 782.77266 -205.314733 
L 780.826838 -204.597768 
L 778.881016 -203.717636 
L 776.935195 -202.710389 
L 774.989373 -201.563769 
L 773.043551 -200.247969 
L 771.097729 -198.758255 
L 769.151907 -197.124233 
L 767.206085 -195.377931 
L 765.260263 -193.505081 
L 763.314442 -191.418401 
L 761.36862 -188.988768 
L 759.422798 -186.126712 
L 757.476976 -182.848332 
L 755.531154 -179.266604 
L 753.585332 -175.523962 
L 751.63951 -171.731857 
L 749.693689 -167.960238 
L 747.747867 -164.269752 
L 745.802045 -160.749723 
L 743.856223 -157.523244 
L 741.910401 -154.699664 
L 739.964579 -152.291472 
L 738.018757 -150.154406 
L 736.072936 -148.013037 
L 734.127114 -145.57607 
L 732.181292 -142.683956 
L 730.23547 -139.415506 
L 728.289648 -136.079384 
L 726.343826 -133.037494 
L 724.398004 -130.430748 
L 722.452183 -128.047361 
L 720.506361 -125.532781 
L 718.560539 -122.795324 
L 716.614717 -120.181459 
L 714.668895 -118.19999 
L 712.723073 -117.074182 
L 710.777251 -116.577762 
L 708.83143 -116.276133 
L 706.885608 -115.891607 
L 704.939786 -115.457125 
L 702.993964 -115.173985 
L 701.048142 -115.157375 
L 699.10232 -115.317573 
L 697.156499 -115.457613 
L 695.210677 -115.454697 
L 693.264855 -115.354367 
L 691.319033 -115.336137 
L 689.373211 -115.612892 
L 687.427389 -116.327341 
L 685.481567 -117.491688 
L 683.535746 -119.003359 
L 681.589924 -120.71351 
L 679.644102 -122.483409 
L 677.69828 -124.212974 
L 675.752458 -125.873632 
L 673.806636 -127.522526 
L 671.860814 -129.237518 
L 669.914993 -131.015313 
L 667.969171 -132.76459 
L 666.023349 -134.422006 
L 664.077527 -136.048672 
L 662.131705 -137.774776 
L 660.185883 -139.643171 
L 658.240061 -141.522404 
L 656.29424 -143.178114 
L 654.348418 -144.423425 
L 652.402596 -145.211611 
L 650.456774 -145.636195 
L 648.510952 -145.909903 
L 646.56513 -146.349175 
L 644.619308 -147.287031 
L 642.673487 -148.892183 
L 640.727665 -151.039895 
L 638.781843 -153.381897 
L 636.836021 -155.565472 
L 634.890199 -157.424362 
L 632.944377 -159.029694 
L 630.998555 -160.61275 
L 629.052734 -162.438322 
L 627.106912 -164.706033 
L 625.16109 -167.511462 
L 623.215268 -170.866793 
L 621.269446 -174.765052 
L 619.323624 -179.234409 
L 617.377802 -184.306043 
L 615.431981 -189.853812 
L 613.486159 -195.414738 
L 611.540337 -200.261766 
L 609.594515 -203.799011 
L 607.648693 -205.914157 
z
" style="stroke: #797979; stroke-width: 1.25"/>
    </defs>
    <g clip-path="url(#p96728c6d66)">
     <use xlink:href="#mc5a4034ae6" x="0" y="364.2675" style="fill: #b4d4df; stroke: #797979; stroke-width: 1.25"/>
    </g>
   </g>
   <g id="matplotlib.axis_5">
    <g id="xtick_13">
     <g id="line2d_25">
      <g>
       <use xlink:href="#m1168a1b86d" x="634.7033" y="272.198125" style="stroke: #000000; stroke-width: 0.8"/>
      </g>
     </g>
     <g id="text_31">
      <!-- 4 -->
      <g transform="translate(631.52205 286.796562) scale(0.1 -0.1)">
       <use xlink:href="#DejaVuSans-34"/>
      </g>
     </g>
    </g>
    <g id="xtick_14">
     <g id="line2d_26">
      <g>
       <use xlink:href="#m1168a1b86d" x="689.95272" y="272.198125" style="stroke: #000000; stroke-width: 0.8"/>
      </g>
     </g>
     <g id="text_32">
      <!-- 5 -->
      <g transform="translate(686.77147 286.796562) scale(0.1 -0.1)">
       <use xlink:href="#DejaVuSans-35"/>
      </g>
     </g>
    </g>
    <g id="xtick_15">
     <g id="line2d_27">
      <g>
       <use xlink:href="#m1168a1b86d" x="745.202139" y="272.198125" style="stroke: #000000; stroke-width: 0.8"/>
      </g>
     </g>
     <g id="text_33">
      <!-- 6 -->
      <g transform="translate(742.020889 286.796562) scale(0.1 -0.1)">
       <use xlink:href="#DejaVuSans-36"/>
      </g>
     </g>
    </g>
    <g id="xtick_16">
     <g id="line2d_28">
      <g>
       <use xlink:href="#m1168a1b86d" x="800.451558" y="272.198125" style="stroke: #000000; stroke-width: 0.8"/>
      </g>
     </g>
     <g id="text_34">
      <!-- 7 -->
      <g transform="translate(797.270308 286.796562) scale(0.1 -0.1)">
       <defs>
        <path id="DejaVuSans-37" d="M 525 4666 
L 3525 4666 
L 3525 4397 
L 1831 0 
L 1172 0 
L 2766 4134 
L 525 4134 
L 525 4666 
z
" transform="scale(0.015625)"/>
       </defs>
       <use xlink:href="#DejaVuSans-37"/>
      </g>
     </g>
    </g>
    <g id="text_35">
     <!-- age -->
     <g transform="translate(692.789062 301.994375) scale(0.12 -0.12)">
      <use xlink:href="#DejaVuSans-61"/>
      <use xlink:href="#DejaVuSans-67" x="61.279297"/>
      <use xlink:href="#DejaVuSans-65" x="124.755859"/>
     </g>
    </g>
   </g>
   <g id="matplotlib.axis_6">
    <g id="ytick_13">
     <g id="line2d_29">
      <g>
       <use xlink:href="#m6551e777ca" x="598.016875" y="156.758125" style="stroke: #000000; stroke-width: 0.8"/>
      </g>
     </g>
    </g>
   </g>
   <g id="line2d_30">
    <path d="M 616.271392 156.758125 
L 791.662358 156.758125 
" clip-path="url(#p96728c6d66)" style="fill: none; stroke: #797979; stroke-width: 1.875; stroke-linecap: square"/>
   </g>
   <g id="line2d_31">
    <path d="M 663.538399 156.758125 
L 719.445829 156.758125 
" clip-path="url(#p96728c6d66)" style="fill: none; stroke: #797979; stroke-width: 5.625; stroke-linecap: square"/>
   </g>
   <g id="line2d_32">
    <path d="M 691.790133 156.758125 
" clip-path="url(#p96728c6d66)" style="fill: none; stroke: #797979; stroke-width: 1.5; stroke-linecap: square"/>
    <defs>
     <path id="m9bdfa968f6" d="M 0 2.34375 
L 0 -2.34375 
" style="stroke: #ffffff; stroke-width: 1.125"/>
    </defs>
    <g clip-path="url(#p96728c6d66)">
     <use xlink:href="#m9bdfa968f6" x="691.790133" y="156.758125" style="fill: #ffffff; stroke: #ffffff; stroke-width: 1.125"/>
    </g>
   </g>
   <g id="patch_71">
    <path d="M 598.016875 272.198125 
L 598.016875 41.318125 
" style="fill: none; stroke: #000000; stroke-width: 0.8; stroke-linejoin: miter; stroke-linecap: square"/>
   </g>
   <g id="patch_72">
    <path d="M 809.916875 272.198125 
L 809.916875 41.318125 
" style="fill: none; stroke: #000000; stroke-width: 0.8; stroke-linejoin: miter; stroke-linecap: square"/>
   </g>
   <g id="patch_73">
    <path d="M 598.016875 272.198125 
L 809.916875 272.198125 
" style="fill: none; stroke: #000000; stroke-width: 0.8; stroke-linejoin: miter; stroke-linecap: square"/>
   </g>
   <g id="patch_74">
    <path d="M 598.016875 41.318125 
L 809.916875 41.318125 
" style="fill: none; stroke: #000000; stroke-width: 0.8; stroke-linejoin: miter; stroke-linecap: square"/>
   </g>
   <g id="text_36">
    <!-- Violinplot: age (Scale: boxcox) -->
    <g transform="translate(613.184062 16.318125) scale(0.12 -0.12)">
     <defs>
      <path id="DejaVuSans-56" d="M 1831 0 
L 50 4666 
L 709 4666 
L 2188 738 
L 3669 4666 
L 4325 4666 
L 2547 0 
L 1831 0 
z
" transform="scale(0.015625)"/>
     </defs>
     <use xlink:href="#DejaVuSans-56"/>
     <use xlink:href="#DejaVuSans-69" x="66.158203"/>
     <use xlink:href="#DejaVuSans-6f" x="93.941406"/>
     <use xlink:href="#DejaVuSans-6c" x="155.123047"/>
     <use xlink:href="#DejaVuSans-69" x="182.90625"/>
     <use xlink:href="#DejaVuSans-6e" x="210.689453"/>
     <use xlink:href="#DejaVuSans-70" x="274.068359"/>
     <use xlink:href="#DejaVuSans-6c" x="337.544922"/>
     <use xlink:href="#DejaVuSans-6f" x="365.328125"/>
     <use xlink:href="#DejaVuSans-74" x="426.509766"/>
     <use xlink:href="#DejaVuSans-3a" x="465.71875"/>
     <use xlink:href="#DejaVuSans-20" x="499.410156"/>
     <use xlink:href="#DejaVuSans-61" x="531.197266"/>
     <use xlink:href="#DejaVuSans-67" x="592.476562"/>
     <use xlink:href="#DejaVuSans-65" x="655.953125"/>
     <use xlink:href="#DejaVuSans-20" x="717.476562"/>
     <use xlink:href="#DejaVuSans-28" x="749.263672"/>
     <use xlink:href="#DejaVuSans-53" x="788.277344"/>
     <use xlink:href="#DejaVuSans-63" x="851.753906"/>
     <use xlink:href="#DejaVuSans-61" x="906.734375"/>
     <use xlink:href="#DejaVuSans-6c" x="968.013672"/>
     <use xlink:href="#DejaVuSans-65" x="995.796875"/>
     <use xlink:href="#DejaVuSans-3a" x="1057.320312"/>
     <use xlink:href="#DejaVuSans-20" x="1091.011719"/>
     <use xlink:href="#DejaVuSans-62" x="1122.798828"/>
     <use xlink:href="#DejaVuSans-6f" x="1186.275391"/>
     <use xlink:href="#DejaVuSans-78" x="1244.332031"/>
     <use xlink:href="#DejaVuSans-63" x="1301.761719"/>
     <use xlink:href="#DejaVuSans-6f" x="1356.742188"/>
     <use xlink:href="#DejaVuSans-78" x="1414.798828"/>
     <use xlink:href="#DejaVuSans-29" x="1473.978516"/>
    </g>
   </g>
  </g>
  <g id="text_37">
   <!-- Lower cutoff: 4 | Upper cutoff: 7 -->
   <g transform="translate(312.370625 354.238125) scale(0.12 -0.12)">
    <defs>
     <path id="DejaVuSans-4c" d="M 628 4666 
L 1259 4666 
L 1259 531 
L 3531 531 
L 3531 0 
L 628 0 
L 628 4666 
z
" transform="scale(0.015625)"/>
     <path id="DejaVuSans-77" d="M 269 3500 
L 844 3500 
L 1563 769 
L 2278 3500 
L 2956 3500 
L 3675 769 
L 4391 3500 
L 4966 3500 
L 4050 0 
L 3372 0 
L 2619 2869 
L 1863 0 
L 1184 0 
L 269 3500 
z
" transform="scale(0.015625)"/>
     <path id="DejaVuSans-72" d="M 2631 2963 
Q 2534 3019 2420 3045 
Q 2306 3072 2169 3072 
Q 1681 3072 1420 2755 
Q 1159 2438 1159 1844 
L 1159 0 
L 581 0 
L 581 3500 
L 1159 3500 
L 1159 2956 
Q 1341 3275 1631 3429 
Q 1922 3584 2338 3584 
Q 2397 3584 2469 3576 
Q 2541 3569 2628 3553 
L 2631 2963 
z
" transform="scale(0.015625)"/>
     <path id="DejaVuSans-66" d="M 2375 4863 
L 2375 4384 
L 1825 4384 
Q 1516 4384 1395 4259 
Q 1275 4134 1275 3809 
L 1275 3500 
L 2222 3500 
L 2222 3053 
L 1275 3053 
L 1275 0 
L 697 0 
L 697 3053 
L 147 3053 
L 147 3500 
L 697 3500 
L 697 3744 
Q 697 4328 969 4595 
Q 1241 4863 1831 4863 
L 2375 4863 
z
" transform="scale(0.015625)"/>
     <path id="DejaVuSans-7c" d="M 1344 4891 
L 1344 -1509 
L 813 -1509 
L 813 4891 
L 1344 4891 
z
" transform="scale(0.015625)"/>
     <path id="DejaVuSans-55" d="M 556 4666 
L 1191 4666 
L 1191 1831 
Q 1191 1081 1462 751 
Q 1734 422 2344 422 
Q 2950 422 3222 751 
Q 3494 1081 3494 1831 
L 3494 4666 
L 4128 4666 
L 4128 1753 
Q 4128 841 3676 375 
Q 3225 -91 2344 -91 
Q 1459 -91 1007 375 
Q 556 841 556 1753 
L 556 4666 
z
" transform="scale(0.015625)"/>
    </defs>
    <use xlink:href="#DejaVuSans-4c"/>
    <use xlink:href="#DejaVuSans-6f" x="53.962891"/>
    <use xlink:href="#DejaVuSans-77" x="115.144531"/>
    <use xlink:href="#DejaVuSans-65" x="196.931641"/>
    <use xlink:href="#DejaVuSans-72" x="258.455078"/>
    <use xlink:href="#DejaVuSans-20" x="299.568359"/>
    <use xlink:href="#DejaVuSans-63" x="331.355469"/>
    <use xlink:href="#DejaVuSans-75" x="386.335938"/>
    <use xlink:href="#DejaVuSans-74" x="449.714844"/>
    <use xlink:href="#DejaVuSans-6f" x="488.923828"/>
    <use xlink:href="#DejaVuSans-66" x="550.105469"/>
    <use xlink:href="#DejaVuSans-66" x="585.310547"/>
    <use xlink:href="#DejaVuSans-3a" x="616.890625"/>
    <use xlink:href="#DejaVuSans-20" x="650.582031"/>
    <use xlink:href="#DejaVuSans-34" x="682.369141"/>
    <use xlink:href="#DejaVuSans-20" x="745.992188"/>
    <use xlink:href="#DejaVuSans-7c" x="777.779297"/>
    <use xlink:href="#DejaVuSans-20" x="811.470703"/>
    <use xlink:href="#DejaVuSans-55" x="843.257812"/>
    <use xlink:href="#DejaVuSans-70" x="916.451172"/>
    <use xlink:href="#DejaVuSans-70" x="979.927734"/>
    <use xlink:href="#DejaVuSans-65" x="1043.404297"/>
    <use xlink:href="#DejaVuSans-72" x="1104.927734"/>
    <use xlink:href="#DejaVuSans-20" x="1146.041016"/>
    <use xlink:href="#DejaVuSans-63" x="1177.828125"/>
    <use xlink:href="#DejaVuSans-75" x="1232.808594"/>
    <use xlink:href="#DejaVuSans-74" x="1296.1875"/>
    <use xlink:href="#DejaVuSans-6f" x="1335.396484"/>
    <use xlink:href="#DejaVuSans-66" x="1396.578125"/>
    <use xlink:href="#DejaVuSans-66" x="1431.783203"/>
    <use xlink:href="#DejaVuSans-3a" x="1463.363281"/>
    <use xlink:href="#DejaVuSans-20" x="1497.054688"/>
    <use xlink:href="#DejaVuSans-37" x="1528.841797"/>
   </g>
  </g>
 </g>
 <defs>
  <clipPath id="p440235fca8">
   <rect x="45.716875" y="41.318125" width="211.9" height="230.88"/>
  </clipPath>
  <clipPath id="pf8c5672dda">
   <rect x="321.866875" y="41.318125" width="211.9" height="230.88"/>
  </clipPath>
  <clipPath id="p96728c6d66">
   <rect x="598.016875" y="41.318125" width="211.9" height="230.88"/>
  </clipPath>
 </defs>
</svg>
