<?xml version="1.0" encoding="utf-8" standalone="no"?>
<!DOCTYPE svg PUBLIC "-//W3C//DTD SVG 1.1//EN"
  "http://www.w3.org/Graphics/SVG/1.1/DTD/svg11.dtd">
<svg xmlns:xlink="http://www.w3.org/1999/xlink" width="1145.742704pt" height="282.391875pt" viewBox="0 0 1145.742704 282.391875" xmlns="http://www.w3.org/2000/svg" version="1.1">
 <metadata>
  <rdf:RDF xmlns:dc="http://purl.org/dc/elements/1.1/" xmlns:cc="http://creativecommons.org/ns#" xmlns:rdf="http://www.w3.org/1999/02/22-rdf-syntax-ns#">
   <cc:Work>
    <dc:type rdf:resource="http://purl.org/dc/dcmitype/StillImage"/>
    <dc:date>2024-07-31T09:48:13.380708</dc:date>
    <dc:format>image/svg+xml</dc:format>
    <dc:creator>
     <cc:Agent>
      <dc:title>Matplotlib v3.5.3, https://matplotlib.org/</dc:title>
     </cc:Agent>
    </dc:creator>
   </cc:Work>
  </rdf:RDF>
 </metadata>
 <defs>
  <style type="text/css">*{stroke-linejoin: round; stroke-linecap: butt}</style>
 </defs>
 <g id="figure_1">
  <g id="patch_1">
   <path d="M 0 282.391875 
L 1145.742704 282.391875 
L 1145.742704 0 
L 0 0 
z
" style="fill: #ffffff"/>
  </g>
  <g id="axes_1">
   <g id="patch_2">
    <path d="M 73.764375 235.1575 
L 273.595502 235.1575 
L 273.595502 25.3575 
L 73.764375 25.3575 
z
" style="fill: #ffffff"/>
   </g>
   <g id="patch_3">
    <path d="M 93.301178 235.1575 
L 109.37693 235.1575 
L 109.37693 59.97646 
L 93.301178 59.97646 
z
" clip-path="url(#pab86bedcca)" style="fill: #0000ff; fill-opacity: 0.6; stroke: #000000; stroke-linejoin: miter"/>
   </g>
   <g id="patch_4">
    <path d="M 109.37693 235.1575 
L 125.452682 235.1575 
L 125.452682 54.699422 
L 109.37693 54.699422 
z
" clip-path="url(#pab86bedcca)" style="fill: #0000ff; fill-opacity: 0.6; stroke: #000000; stroke-linejoin: miter"/>
   </g>
   <g id="patch_5">
    <path d="M 125.452682 235.1575 
L 141.528434 235.1575 
L 141.528434 45.68275 
L 125.452682 45.68275 
z
" clip-path="url(#pab86bedcca)" style="fill: #0000ff; fill-opacity: 0.6; stroke: #000000; stroke-linejoin: miter"/>
   </g>
   <g id="patch_6">
    <path d="M 141.528434 235.1575 
L 157.604187 235.1575 
L 157.604187 44.914048 
L 141.528434 44.914048 
z
" clip-path="url(#pab86bedcca)" style="fill: #0000ff; fill-opacity: 0.6; stroke: #000000; stroke-linejoin: miter"/>
   </g>
   <g id="patch_7">
    <path d="M 157.604187 235.1575 
L 173.679939 235.1575 
L 173.679939 111.23021 
L 157.604187 111.23021 
z
" clip-path="url(#pab86bedcca)" style="fill: #0000ff; fill-opacity: 0.6; stroke: #000000; stroke-linejoin: miter"/>
   </g>
   <g id="patch_8">
    <path d="M 173.679939 235.1575 
L 189.755691 235.1575 
L 189.755691 154.630731 
L 173.679939 154.630731 
z
" clip-path="url(#pab86bedcca)" style="fill: #0000ff; fill-opacity: 0.6; stroke: #000000; stroke-linejoin: miter"/>
   </g>
   <g id="patch_9">
    <path d="M 189.755691 235.1575 
L 205.831443 235.1575 
L 205.831443 184.132282 
L 189.755691 184.132282 
z
" clip-path="url(#pab86bedcca)" style="fill: #0000ff; fill-opacity: 0.6; stroke: #000000; stroke-linejoin: miter"/>
   </g>
   <g id="patch_10">
    <path d="M 205.831443 235.1575 
L 221.907195 235.1575 
L 221.907195 219.01475 
L 205.831443 219.01475 
z
" clip-path="url(#pab86bedcca)" style="fill: #0000ff; fill-opacity: 0.6; stroke: #000000; stroke-linejoin: miter"/>
   </g>
   <g id="patch_11">
    <path d="M 221.907195 235.1575 
L 237.982947 235.1575 
L 237.982947 229.40262 
L 221.907195 229.40262 
z
" clip-path="url(#pab86bedcca)" style="fill: #0000ff; fill-opacity: 0.6; stroke: #000000; stroke-linejoin: miter"/>
   </g>
   <g id="patch_12">
    <path d="M 237.982947 235.1575 
L 254.0587 235.1575 
L 254.0587 233.163029 
L 237.982947 233.163029 
z
" clip-path="url(#pab86bedcca)" style="fill: #0000ff; fill-opacity: 0.6; stroke: #000000; stroke-linejoin: miter"/>
   </g>
   <g id="matplotlib.axis_1">
    <g id="xtick_1">
     <g id="line2d_1">
      <defs>
       <path id="m1aef86d10a" d="M 0 0 
L 0 3.5 
" style="stroke: #000000; stroke-width: 0.8"/>
      </defs>
      <g>
       <use xlink:href="#m1aef86d10a" x="110.91844" y="235.1575" style="stroke: #000000; stroke-width: 0.8"/>
      </g>
     </g>
     <g id="text_1">
      <!-- 25 -->
      <g transform="translate(102.01094 252.795313)scale(0.14 -0.14)">
       <defs>
        <path id="DejaVuSans-32" d="M 1228 531 
L 3431 531 
L 3431 0 
L 469 0 
L 469 531 
Q 828 903 1448 1529 
Q 2069 2156 2228 2338 
Q 2531 2678 2651 2914 
Q 2772 3150 2772 3378 
Q 2772 3750 2511 3984 
Q 2250 4219 1831 4219 
Q 1534 4219 1204 4116 
Q 875 4013 500 3803 
L 500 4441 
Q 881 4594 1212 4672 
Q 1544 4750 1819 4750 
Q 2544 4750 2975 4387 
Q 3406 4025 3406 3419 
Q 3406 3131 3298 2873 
Q 3191 2616 2906 2266 
Q 2828 2175 2409 1742 
Q 1991 1309 1228 531 
z
" transform="scale(0.015625)"/>
        <path id="DejaVuSans-35" d="M 691 4666 
L 3169 4666 
L 3169 4134 
L 1269 4134 
L 1269 2991 
Q 1406 3038 1543 3061 
Q 1681 3084 1819 3084 
Q 2600 3084 3056 2656 
Q 3513 2228 3513 1497 
Q 3513 744 3044 326 
Q 2575 -91 1722 -91 
Q 1428 -91 1123 -41 
Q 819 9 494 109 
L 494 744 
Q 775 591 1075 516 
Q 1375 441 1709 441 
Q 2250 441 2565 725 
Q 2881 1009 2881 1497 
Q 2881 1984 2565 2268 
Q 2250 2553 1709 2553 
Q 1456 2553 1204 2497 
Q 953 2441 691 2322 
L 691 4666 
z
" transform="scale(0.015625)"/>
       </defs>
       <use xlink:href="#DejaVuSans-32"/>
       <use xlink:href="#DejaVuSans-35" x="63.623047"/>
      </g>
     </g>
    </g>
    <g id="xtick_2">
     <g id="line2d_2">
      <g>
       <use xlink:href="#m1aef86d10a" x="165.972386" y="235.1575" style="stroke: #000000; stroke-width: 0.8"/>
      </g>
     </g>
     <g id="text_2">
      <!-- 50 -->
      <g transform="translate(157.064886 252.795313)scale(0.14 -0.14)">
       <defs>
        <path id="DejaVuSans-30" d="M 2034 4250 
Q 1547 4250 1301 3770 
Q 1056 3291 1056 2328 
Q 1056 1369 1301 889 
Q 1547 409 2034 409 
Q 2525 409 2770 889 
Q 3016 1369 3016 2328 
Q 3016 3291 2770 3770 
Q 2525 4250 2034 4250 
z
M 2034 4750 
Q 2819 4750 3233 4129 
Q 3647 3509 3647 2328 
Q 3647 1150 3233 529 
Q 2819 -91 2034 -91 
Q 1250 -91 836 529 
Q 422 1150 422 2328 
Q 422 3509 836 4129 
Q 1250 4750 2034 4750 
z
" transform="scale(0.015625)"/>
       </defs>
       <use xlink:href="#DejaVuSans-35"/>
       <use xlink:href="#DejaVuSans-30" x="63.623047"/>
      </g>
     </g>
    </g>
    <g id="xtick_3">
     <g id="line2d_3">
      <g>
       <use xlink:href="#m1aef86d10a" x="221.026332" y="235.1575" style="stroke: #000000; stroke-width: 0.8"/>
      </g>
     </g>
     <g id="text_3">
      <!-- 75 -->
      <g transform="translate(212.118832 252.795313)scale(0.14 -0.14)">
       <defs>
        <path id="DejaVuSans-37" d="M 525 4666 
L 3525 4666 
L 3525 4397 
L 1831 0 
L 1172 0 
L 2766 4134 
L 525 4134 
L 525 4666 
z
" transform="scale(0.015625)"/>
       </defs>
       <use xlink:href="#DejaVuSans-37"/>
       <use xlink:href="#DejaVuSans-35" x="63.623047"/>
      </g>
     </g>
    </g>
    <g id="text_4">
     <!-- age -->
     <g transform="translate(158.776189 271.864375)scale(0.16 -0.16)">
      <defs>
       <path id="DejaVuSans-61" d="M 2194 1759 
Q 1497 1759 1228 1600 
Q 959 1441 959 1056 
Q 959 750 1161 570 
Q 1363 391 1709 391 
Q 2188 391 2477 730 
Q 2766 1069 2766 1631 
L 2766 1759 
L 2194 1759 
z
M 3341 1997 
L 3341 0 
L 2766 0 
L 2766 531 
Q 2569 213 2275 61 
Q 1981 -91 1556 -91 
Q 1019 -91 701 211 
Q 384 513 384 1019 
Q 384 1609 779 1909 
Q 1175 2209 1959 2209 
L 2766 2209 
L 2766 2266 
Q 2766 2663 2505 2880 
Q 2244 3097 1772 3097 
Q 1472 3097 1187 3025 
Q 903 2953 641 2809 
L 641 3341 
Q 956 3463 1253 3523 
Q 1550 3584 1831 3584 
Q 2591 3584 2966 3190 
Q 3341 2797 3341 1997 
z
" transform="scale(0.015625)"/>
       <path id="DejaVuSans-67" d="M 2906 1791 
Q 2906 2416 2648 2759 
Q 2391 3103 1925 3103 
Q 1463 3103 1205 2759 
Q 947 2416 947 1791 
Q 947 1169 1205 825 
Q 1463 481 1925 481 
Q 2391 481 2648 825 
Q 2906 1169 2906 1791 
z
M 3481 434 
Q 3481 -459 3084 -895 
Q 2688 -1331 1869 -1331 
Q 1566 -1331 1297 -1286 
Q 1028 -1241 775 -1147 
L 775 -588 
Q 1028 -725 1275 -790 
Q 1522 -856 1778 -856 
Q 2344 -856 2625 -561 
Q 2906 -266 2906 331 
L 2906 616 
Q 2728 306 2450 153 
Q 2172 0 1784 0 
Q 1141 0 747 490 
Q 353 981 353 1791 
Q 353 2603 747 3093 
Q 1141 3584 1784 3584 
Q 2172 3584 2450 3431 
Q 2728 3278 2906 2969 
L 2906 3500 
L 3481 3500 
L 3481 434 
z
" transform="scale(0.015625)"/>
       <path id="DejaVuSans-65" d="M 3597 1894 
L 3597 1613 
L 953 1613 
Q 991 1019 1311 708 
Q 1631 397 2203 397 
Q 2534 397 2845 478 
Q 3156 559 3463 722 
L 3463 178 
Q 3153 47 2828 -22 
Q 2503 -91 2169 -91 
Q 1331 -91 842 396 
Q 353 884 353 1716 
Q 353 2575 817 3079 
Q 1281 3584 2069 3584 
Q 2775 3584 3186 3129 
Q 3597 2675 3597 1894 
z
M 3022 2063 
Q 3016 2534 2758 2815 
Q 2500 3097 2075 3097 
Q 1594 3097 1305 2825 
Q 1016 2553 972 2059 
L 3022 2063 
z
" transform="scale(0.015625)"/>
      </defs>
      <use xlink:href="#DejaVuSans-61"/>
      <use xlink:href="#DejaVuSans-67" x="61.279297"/>
      <use xlink:href="#DejaVuSans-65" x="124.755859"/>
     </g>
    </g>
   </g>
   <g id="matplotlib.axis_2">
    <g id="ytick_1">
     <g id="line2d_4">
      <defs>
       <path id="m45a8881557" d="M 0 0 
L -3.5 0 
" style="stroke: #000000; stroke-width: 0.8"/>
      </defs>
      <g>
       <use xlink:href="#m45a8881557" x="73.764375" y="235.1575" style="stroke: #000000; stroke-width: 0.8"/>
      </g>
     </g>
     <g id="text_5">
      <!-- 0.000 -->
      <g transform="translate(26.685 240.476406)scale(0.14 -0.14)">
       <defs>
        <path id="DejaVuSans-2e" d="M 684 794 
L 1344 794 
L 1344 0 
L 684 0 
L 684 794 
z
" transform="scale(0.015625)"/>
       </defs>
       <use xlink:href="#DejaVuSans-30"/>
       <use xlink:href="#DejaVuSans-2e" x="63.623047"/>
       <use xlink:href="#DejaVuSans-30" x="95.410156"/>
       <use xlink:href="#DejaVuSans-30" x="159.033203"/>
       <use xlink:href="#DejaVuSans-30" x="222.65625"/>
      </g>
     </g>
    </g>
    <g id="ytick_2">
     <g id="line2d_5">
      <g>
       <use xlink:href="#m45a8881557" x="73.764375" y="198.119903" style="stroke: #000000; stroke-width: 0.8"/>
      </g>
     </g>
     <g id="text_6">
      <!-- 0.005 -->
      <g transform="translate(26.685 203.438809)scale(0.14 -0.14)">
       <use xlink:href="#DejaVuSans-30"/>
       <use xlink:href="#DejaVuSans-2e" x="63.623047"/>
       <use xlink:href="#DejaVuSans-30" x="95.410156"/>
       <use xlink:href="#DejaVuSans-30" x="159.033203"/>
       <use xlink:href="#DejaVuSans-35" x="222.65625"/>
      </g>
     </g>
    </g>
    <g id="ytick_3">
     <g id="line2d_6">
      <g>
       <use xlink:href="#m45a8881557" x="73.764375" y="161.082305" style="stroke: #000000; stroke-width: 0.8"/>
      </g>
     </g>
     <g id="text_7">
      <!-- 0.010 -->
      <g transform="translate(26.685 166.401211)scale(0.14 -0.14)">
       <defs>
        <path id="DejaVuSans-31" d="M 794 531 
L 1825 531 
L 1825 4091 
L 703 3866 
L 703 4441 
L 1819 4666 
L 2450 4666 
L 2450 531 
L 3481 531 
L 3481 0 
L 794 0 
L 794 531 
z
" transform="scale(0.015625)"/>
       </defs>
       <use xlink:href="#DejaVuSans-30"/>
       <use xlink:href="#DejaVuSans-2e" x="63.623047"/>
       <use xlink:href="#DejaVuSans-30" x="95.410156"/>
       <use xlink:href="#DejaVuSans-31" x="159.033203"/>
       <use xlink:href="#DejaVuSans-30" x="222.65625"/>
      </g>
     </g>
    </g>
    <g id="ytick_4">
     <g id="line2d_7">
      <g>
       <use xlink:href="#m45a8881557" x="73.764375" y="124.044708" style="stroke: #000000; stroke-width: 0.8"/>
      </g>
     </g>
     <g id="text_8">
      <!-- 0.015 -->
      <g transform="translate(26.685 129.363614)scale(0.14 -0.14)">
       <use xlink:href="#DejaVuSans-30"/>
       <use xlink:href="#DejaVuSans-2e" x="63.623047"/>
       <use xlink:href="#DejaVuSans-30" x="95.410156"/>
       <use xlink:href="#DejaVuSans-31" x="159.033203"/>
       <use xlink:href="#DejaVuSans-35" x="222.65625"/>
      </g>
     </g>
    </g>
    <g id="ytick_5">
     <g id="line2d_8">
      <g>
       <use xlink:href="#m45a8881557" x="73.764375" y="87.00711" style="stroke: #000000; stroke-width: 0.8"/>
      </g>
     </g>
     <g id="text_9">
      <!-- 0.020 -->
      <g transform="translate(26.685 92.326016)scale(0.14 -0.14)">
       <use xlink:href="#DejaVuSans-30"/>
       <use xlink:href="#DejaVuSans-2e" x="63.623047"/>
       <use xlink:href="#DejaVuSans-30" x="95.410156"/>
       <use xlink:href="#DejaVuSans-32" x="159.033203"/>
       <use xlink:href="#DejaVuSans-30" x="222.65625"/>
      </g>
     </g>
    </g>
    <g id="ytick_6">
     <g id="line2d_9">
      <g>
       <use xlink:href="#m45a8881557" x="73.764375" y="49.969513" style="stroke: #000000; stroke-width: 0.8"/>
      </g>
     </g>
     <g id="text_10">
      <!-- 0.025 -->
      <g transform="translate(26.685 55.288419)scale(0.14 -0.14)">
       <use xlink:href="#DejaVuSans-30"/>
       <use xlink:href="#DejaVuSans-2e" x="63.623047"/>
       <use xlink:href="#DejaVuSans-30" x="95.410156"/>
       <use xlink:href="#DejaVuSans-32" x="159.033203"/>
       <use xlink:href="#DejaVuSans-35" x="222.65625"/>
      </g>
     </g>
    </g>
    <g id="text_11">
     <!-- Density -->
     <g transform="translate(19.3575 160.67125)rotate(-90)scale(0.16 -0.16)">
      <defs>
       <path id="DejaVuSans-44" d="M 1259 4147 
L 1259 519 
L 2022 519 
Q 2988 519 3436 956 
Q 3884 1394 3884 2338 
Q 3884 3275 3436 3711 
Q 2988 4147 2022 4147 
L 1259 4147 
z
M 628 4666 
L 1925 4666 
Q 3281 4666 3915 4102 
Q 4550 3538 4550 2338 
Q 4550 1131 3912 565 
Q 3275 0 1925 0 
L 628 0 
L 628 4666 
z
" transform="scale(0.015625)"/>
       <path id="DejaVuSans-6e" d="M 3513 2113 
L 3513 0 
L 2938 0 
L 2938 2094 
Q 2938 2591 2744 2837 
Q 2550 3084 2163 3084 
Q 1697 3084 1428 2787 
Q 1159 2491 1159 1978 
L 1159 0 
L 581 0 
L 581 3500 
L 1159 3500 
L 1159 2956 
Q 1366 3272 1645 3428 
Q 1925 3584 2291 3584 
Q 2894 3584 3203 3211 
Q 3513 2838 3513 2113 
z
" transform="scale(0.015625)"/>
       <path id="DejaVuSans-73" d="M 2834 3397 
L 2834 2853 
Q 2591 2978 2328 3040 
Q 2066 3103 1784 3103 
Q 1356 3103 1142 2972 
Q 928 2841 928 2578 
Q 928 2378 1081 2264 
Q 1234 2150 1697 2047 
L 1894 2003 
Q 2506 1872 2764 1633 
Q 3022 1394 3022 966 
Q 3022 478 2636 193 
Q 2250 -91 1575 -91 
Q 1294 -91 989 -36 
Q 684 19 347 128 
L 347 722 
Q 666 556 975 473 
Q 1284 391 1588 391 
Q 1994 391 2212 530 
Q 2431 669 2431 922 
Q 2431 1156 2273 1281 
Q 2116 1406 1581 1522 
L 1381 1569 
Q 847 1681 609 1914 
Q 372 2147 372 2553 
Q 372 3047 722 3315 
Q 1072 3584 1716 3584 
Q 2034 3584 2315 3537 
Q 2597 3491 2834 3397 
z
" transform="scale(0.015625)"/>
       <path id="DejaVuSans-69" d="M 603 3500 
L 1178 3500 
L 1178 0 
L 603 0 
L 603 3500 
z
M 603 4863 
L 1178 4863 
L 1178 4134 
L 603 4134 
L 603 4863 
z
" transform="scale(0.015625)"/>
       <path id="DejaVuSans-74" d="M 1172 4494 
L 1172 3500 
L 2356 3500 
L 2356 3053 
L 1172 3053 
L 1172 1153 
Q 1172 725 1289 603 
Q 1406 481 1766 481 
L 2356 481 
L 2356 0 
L 1766 0 
Q 1100 0 847 248 
Q 594 497 594 1153 
L 594 3053 
L 172 3053 
L 172 3500 
L 594 3500 
L 594 4494 
L 1172 4494 
z
" transform="scale(0.015625)"/>
       <path id="DejaVuSans-79" d="M 2059 -325 
Q 1816 -950 1584 -1140 
Q 1353 -1331 966 -1331 
L 506 -1331 
L 506 -850 
L 844 -850 
Q 1081 -850 1212 -737 
Q 1344 -625 1503 -206 
L 1606 56 
L 191 3500 
L 800 3500 
L 1894 763 
L 2988 3500 
L 3597 3500 
L 2059 -325 
z
" transform="scale(0.015625)"/>
      </defs>
      <use xlink:href="#DejaVuSans-44"/>
      <use xlink:href="#DejaVuSans-65" x="77.001953"/>
      <use xlink:href="#DejaVuSans-6e" x="138.525391"/>
      <use xlink:href="#DejaVuSans-73" x="201.904297"/>
      <use xlink:href="#DejaVuSans-69" x="254.003906"/>
      <use xlink:href="#DejaVuSans-74" x="281.787109"/>
      <use xlink:href="#DejaVuSans-79" x="320.996094"/>
     </g>
    </g>
   </g>
   <g id="line2d_10">
    <path d="M 93.301178 158.180664 
L 95.724658 118.987746 
L 97.340311 98.01819 
L 98.148138 89.640979 
L 98.955965 82.598871 
L 99.763792 76.72072 
L 100.571618 71.791235 
L 102.187272 63.952244 
L 103.802925 57.932444 
L 104.610752 55.521968 
L 105.418579 53.564537 
L 106.226406 52.111324 
L 107.034232 51.184023 
L 107.842059 50.753164 
L 108.649886 50.731904 
L 110.265539 51.355619 
L 111.073366 51.683635 
L 111.881193 51.840981 
L 112.68902 51.745405 
L 113.496846 51.368887 
L 114.304673 50.733475 
L 115.920327 48.936088 
L 119.151634 44.996611 
L 121.575114 42.420595 
L 123.998594 40.216408 
L 126.422074 38.417304 
L 129.653381 36.273294 
L 131.269035 35.519598 
L 132.076861 35.353296 
L 132.884688 35.388538 
L 133.692515 35.664581 
L 134.500342 36.20773 
L 135.308168 37.025843 
L 136.115995 38.105164 
L 137.731649 40.888249 
L 141.770782 48.620958 
L 143.386436 51.128015 
L 145.809916 54.761146 
L 147.42557 57.700969 
L 151.464703 65.989704 
L 153.080357 68.561498 
L 154.69601 70.88175 
L 155.503837 72.220946 
L 156.311664 73.849975 
L 157.11949 75.868544 
L 157.927317 78.324381 
L 159.542971 84.398665 
L 161.966451 94.411544 
L 163.582104 99.993512 
L 165.197758 104.388407 
L 167.621238 110.578633 
L 169.236892 115.654367 
L 171.660372 124.709726 
L 174.083852 133.648213 
L 175.699506 138.697355 
L 177.315159 142.862179 
L 178.930813 146.255797 
L 180.546466 149.109028 
L 183.777773 154.551395 
L 185.393426 157.7803 
L 187.00908 161.475553 
L 190.240387 169.693308 
L 195.087347 182.195187 
L 199.934308 193.825596 
L 203.973442 202.995762 
L 206.396922 208.032625 
L 208.012575 210.929756 
L 209.628229 213.304742 
L 211.243882 215.170531 
L 212.859536 216.681444 
L 218.514323 221.643417 
L 221.74563 224.358393 
L 225.784764 227.363993 
L 227.400417 228.386667 
L 229.016071 229.184046 
L 231.439551 230.018022 
L 233.863031 230.821135 
L 241.133472 233.629867 
L 243.556952 234.155894 
L 245.172606 234.334962 
L 246.788259 234.32121 
L 248.403912 234.079796 
L 250.827393 233.391907 
L 252.443046 232.973942 
L 254.0587 232.866292 
L 254.0587 232.866292 
" clip-path="url(#pab86bedcca)" style="fill: none; stroke: #0000ff; stroke-width: 1.5; stroke-linecap: square"/>
   </g>
   <g id="line2d_11">
    <path d="M 82.847608 234.854905 
L 83.760496 234.494504 
L 84.673384 233.793055 
L 85.586271 232.517058 
L 86.499159 230.346468 
L 87.412047 226.891295 
L 88.324935 221.74038 
L 89.237822 214.541506 
L 90.15071 205.097607 
L 91.063598 193.451 
L 92.889373 165.097247 
L 95.628036 120.409183 
L 96.540924 107.704351 
L 97.453812 96.756262 
L 98.3667 87.609869 
L 99.279587 80.115849 
L 100.192475 74.000874 
L 101.105363 68.948553 
L 102.018251 64.675328 
L 102.931138 60.986416 
L 103.844026 57.799725 
L 104.756914 55.132575 
L 105.669802 53.056736 
L 106.582689 51.637935 
L 107.495577 50.881463 
L 108.408465 50.702602 
L 109.321353 50.930455 
L 111.147128 51.7067 
L 112.060016 51.843457 
L 112.972904 51.644933 
L 113.885791 51.092316 
L 114.798679 50.241403 
L 116.624455 48.052827 
L 119.363118 44.758897 
L 122.101781 41.904463 
L 123.927557 40.274452 
L 126.66622 38.247766 
L 129.404883 36.421498 
L 130.317771 35.911574 
L 131.230659 35.531746 
L 132.143546 35.347976 
L 133.056434 35.425942 
L 133.969322 35.819788 
L 134.88221 36.560513 
L 135.795097 37.646948 
L 136.707985 39.042302 
L 138.533761 42.461966 
L 141.272424 47.764882 
L 143.098199 50.703971 
L 145.836862 54.805611 
L 147.662638 58.177868 
L 151.314189 65.719258 
L 153.139964 68.647248 
L 154.96574 71.304269 
L 155.878628 72.933689 
L 156.791515 74.997575 
L 157.704403 77.602851 
L 158.617291 80.755159 
L 160.443066 88.172569 
L 162.268842 95.555995 
L 163.18173 98.735146 
L 165.007505 103.911629 
L 167.746168 110.935306 
L 169.571944 116.828365 
L 175.04927 136.772363 
L 176.875046 141.811396 
L 178.700821 145.812131 
L 180.526597 149.07599 
L 183.26526 153.625123 
L 185.091036 157.138424 
L 186.916811 161.253972 
L 189.655474 168.164067 
L 195.132801 182.307634 
L 199.697239 193.269737 
L 203.34879 201.620815 
L 206.087454 207.426986 
L 207.913229 210.765973 
L 209.739005 213.447843 
L 211.56478 215.492176 
L 214.303443 217.908913 
L 217.954994 221.138416 
L 220.693658 223.517615 
L 224.345209 226.332099 
L 227.083872 228.202248 
L 228.909647 229.138908 
L 230.735423 229.801397 
L 234.386974 231.02577 
L 239.8643 233.254303 
L 242.602963 233.98036 
L 244.428739 234.273329 
L 246.254514 234.35002 
L 248.08029 234.146319 
L 249.906065 233.677119 
L 252.644729 232.939449 
L 253.557616 232.855993 
L 254.470504 232.905672 
L 256.29628 233.369983 
L 259.947831 234.645026 
L 261.773606 234.9743 
L 264.512269 235.134006 
L 264.512269 235.134006 
" clip-path="url(#pab86bedcca)" style="fill: none; stroke: #ff0000; stroke-width: 1.5; stroke-linecap: square"/>
   </g>
   <g id="patch_13">
    <path d="M 73.764375 235.1575 
L 73.764375 25.3575 
" style="fill: none; stroke: #000000; stroke-width: 0.8; stroke-linejoin: miter; stroke-linecap: square"/>
   </g>
   <g id="patch_14">
    <path d="M 273.595502 235.1575 
L 273.595502 25.3575 
" style="fill: none; stroke: #000000; stroke-width: 0.8; stroke-linejoin: miter; stroke-linecap: square"/>
   </g>
   <g id="patch_15">
    <path d="M 73.764375 235.1575 
L 273.595502 235.1575 
" style="fill: none; stroke: #000000; stroke-width: 0.8; stroke-linejoin: miter; stroke-linecap: square"/>
   </g>
   <g id="patch_16">
    <path d="M 73.764375 25.3575 
L 273.595502 25.3575 
" style="fill: none; stroke: #000000; stroke-width: 0.8; stroke-linejoin: miter; stroke-linecap: square"/>
   </g>
   <g id="text_12">
    <!-- Distribution of age -->
    <g transform="translate(99.309939 19.3575)scale(0.16 -0.16)">
     <defs>
      <path id="DejaVuSans-72" d="M 2631 2963 
Q 2534 3019 2420 3045 
Q 2306 3072 2169 3072 
Q 1681 3072 1420 2755 
Q 1159 2438 1159 1844 
L 1159 0 
L 581 0 
L 581 3500 
L 1159 3500 
L 1159 2956 
Q 1341 3275 1631 3429 
Q 1922 3584 2338 3584 
Q 2397 3584 2469 3576 
Q 2541 3569 2628 3553 
L 2631 2963 
z
" transform="scale(0.015625)"/>
      <path id="DejaVuSans-62" d="M 3116 1747 
Q 3116 2381 2855 2742 
Q 2594 3103 2138 3103 
Q 1681 3103 1420 2742 
Q 1159 2381 1159 1747 
Q 1159 1113 1420 752 
Q 1681 391 2138 391 
Q 2594 391 2855 752 
Q 3116 1113 3116 1747 
z
M 1159 2969 
Q 1341 3281 1617 3432 
Q 1894 3584 2278 3584 
Q 2916 3584 3314 3078 
Q 3713 2572 3713 1747 
Q 3713 922 3314 415 
Q 2916 -91 2278 -91 
Q 1894 -91 1617 61 
Q 1341 213 1159 525 
L 1159 0 
L 581 0 
L 581 4863 
L 1159 4863 
L 1159 2969 
z
" transform="scale(0.015625)"/>
      <path id="DejaVuSans-75" d="M 544 1381 
L 544 3500 
L 1119 3500 
L 1119 1403 
Q 1119 906 1312 657 
Q 1506 409 1894 409 
Q 2359 409 2629 706 
Q 2900 1003 2900 1516 
L 2900 3500 
L 3475 3500 
L 3475 0 
L 2900 0 
L 2900 538 
Q 2691 219 2414 64 
Q 2138 -91 1772 -91 
Q 1169 -91 856 284 
Q 544 659 544 1381 
z
M 1991 3584 
L 1991 3584 
z
" transform="scale(0.015625)"/>
      <path id="DejaVuSans-6f" d="M 1959 3097 
Q 1497 3097 1228 2736 
Q 959 2375 959 1747 
Q 959 1119 1226 758 
Q 1494 397 1959 397 
Q 2419 397 2687 759 
Q 2956 1122 2956 1747 
Q 2956 2369 2687 2733 
Q 2419 3097 1959 3097 
z
M 1959 3584 
Q 2709 3584 3137 3096 
Q 3566 2609 3566 1747 
Q 3566 888 3137 398 
Q 2709 -91 1959 -91 
Q 1206 -91 779 398 
Q 353 888 353 1747 
Q 353 2609 779 3096 
Q 1206 3584 1959 3584 
z
" transform="scale(0.015625)"/>
      <path id="DejaVuSans-20" transform="scale(0.015625)"/>
      <path id="DejaVuSans-66" d="M 2375 4863 
L 2375 4384 
L 1825 4384 
Q 1516 4384 1395 4259 
Q 1275 4134 1275 3809 
L 1275 3500 
L 2222 3500 
L 2222 3053 
L 1275 3053 
L 1275 0 
L 697 0 
L 697 3053 
L 147 3053 
L 147 3500 
L 697 3500 
L 697 3744 
Q 697 4328 969 4595 
Q 1241 4863 1831 4863 
L 2375 4863 
z
" transform="scale(0.015625)"/>
     </defs>
     <use xlink:href="#DejaVuSans-44"/>
     <use xlink:href="#DejaVuSans-69" x="77.001953"/>
     <use xlink:href="#DejaVuSans-73" x="104.785156"/>
     <use xlink:href="#DejaVuSans-74" x="156.884766"/>
     <use xlink:href="#DejaVuSans-72" x="196.09375"/>
     <use xlink:href="#DejaVuSans-69" x="237.207031"/>
     <use xlink:href="#DejaVuSans-62" x="264.990234"/>
     <use xlink:href="#DejaVuSans-75" x="328.466797"/>
     <use xlink:href="#DejaVuSans-74" x="391.845703"/>
     <use xlink:href="#DejaVuSans-69" x="431.054688"/>
     <use xlink:href="#DejaVuSans-6f" x="458.837891"/>
     <use xlink:href="#DejaVuSans-6e" x="520.019531"/>
     <use xlink:href="#DejaVuSans-20" x="583.398438"/>
     <use xlink:href="#DejaVuSans-6f" x="615.185547"/>
     <use xlink:href="#DejaVuSans-66" x="676.367188"/>
     <use xlink:href="#DejaVuSans-20" x="711.572266"/>
     <use xlink:href="#DejaVuSans-61" x="743.359375"/>
     <use xlink:href="#DejaVuSans-67" x="804.638672"/>
     <use xlink:href="#DejaVuSans-65" x="868.115234"/>
    </g>
   </g>
  </g>
  <g id="axes_2">
   <g id="patch_17">
    <path d="M 357.685502 235.1575 
L 557.51663 235.1575 
L 557.51663 25.3575 
L 357.685502 25.3575 
z
" style="fill: #ffffff"/>
   </g>
   <g id="patch_18">
    <path d="M 376.405497 235.1575 
L 392.644611 235.1575 
L 392.644611 233.089648 
L 376.405497 233.089648 
z
" clip-path="url(#p390124b48d)" style="fill: #0000ff; fill-opacity: 0.6; stroke: #000000; stroke-linejoin: miter"/>
   </g>
   <g id="patch_19">
    <path d="M 392.644611 235.1575 
L 408.883725 235.1575 
L 408.883725 231.967995 
L 392.644611 231.967995 
z
" clip-path="url(#p390124b48d)" style="fill: #0000ff; fill-opacity: 0.6; stroke: #000000; stroke-linejoin: miter"/>
   </g>
   <g id="patch_20">
    <path d="M 408.883725 235.1575 
L 425.122838 235.1575 
L 425.122838 224.436002 
L 408.883725 224.436002 
z
" clip-path="url(#p390124b48d)" style="fill: #0000ff; fill-opacity: 0.6; stroke: #000000; stroke-linejoin: miter"/>
   </g>
   <g id="patch_21">
    <path d="M 425.122838 235.1575 
L 441.361952 235.1575 
L 441.361952 226.453724 
L 425.122838 226.453724 
z
" clip-path="url(#p390124b48d)" style="fill: #0000ff; fill-opacity: 0.6; stroke: #000000; stroke-linejoin: miter"/>
   </g>
   <g id="patch_22">
    <path d="M 441.361952 235.1575 
L 457.601066 235.1575 
L 457.601066 219.68621 
L 441.361952 219.68621 
z
" clip-path="url(#p390124b48d)" style="fill: #0000ff; fill-opacity: 0.6; stroke: #000000; stroke-linejoin: miter"/>
   </g>
   <g id="patch_23">
    <path d="M 457.601066 235.1575 
L 473.84018 235.1575 
L 473.84018 136.251527 
L 457.601066 136.251527 
z
" clip-path="url(#p390124b48d)" style="fill: #0000ff; fill-opacity: 0.6; stroke: #000000; stroke-linejoin: miter"/>
   </g>
   <g id="patch_24">
    <path d="M 473.84018 235.1575 
L 490.079294 235.1575 
L 490.079294 154.078915 
L 473.84018 154.078915 
z
" clip-path="url(#p390124b48d)" style="fill: #0000ff; fill-opacity: 0.6; stroke: #000000; stroke-linejoin: miter"/>
   </g>
   <g id="patch_25">
    <path d="M 490.079294 235.1575 
L 506.318408 235.1575 
L 506.318408 225.125286 
L 490.079294 225.125286 
z
" clip-path="url(#p390124b48d)" style="fill: #0000ff; fill-opacity: 0.6; stroke: #000000; stroke-linejoin: miter"/>
   </g>
   <g id="patch_26">
    <path d="M 506.318408 235.1575 
L 522.557521 235.1575 
L 522.557521 168.221767 
L 506.318408 168.221767 
z
" clip-path="url(#p390124b48d)" style="fill: #0000ff; fill-opacity: 0.6; stroke: #000000; stroke-linejoin: miter"/>
   </g>
   <g id="patch_27">
    <path d="M 522.557521 235.1575 
L 538.796635 235.1575 
L 538.796635 226.209342 
L 522.557521 226.209342 
z
" clip-path="url(#p390124b48d)" style="fill: #0000ff; fill-opacity: 0.6; stroke: #000000; stroke-linejoin: miter"/>
   </g>
   <g id="matplotlib.axis_3">
    <g id="xtick_4">
     <g id="line2d_12">
      <g>
       <use xlink:href="#m1aef86d10a" x="365.579421" y="235.1575" style="stroke: #000000; stroke-width: 0.8"/>
      </g>
     </g>
     <g id="text_13">
      <!-- 0 -->
      <g transform="translate(361.125671 252.795313)scale(0.14 -0.14)">
       <use xlink:href="#DejaVuSans-30"/>
      </g>
     </g>
    </g>
    <g id="xtick_5">
     <g id="line2d_13">
      <g>
       <use xlink:href="#m1aef86d10a" x="419.7098" y="235.1575" style="stroke: #000000; stroke-width: 0.8"/>
      </g>
     </g>
     <g id="text_14">
      <!-- 5 -->
      <g transform="translate(415.25605 252.795313)scale(0.14 -0.14)">
       <use xlink:href="#DejaVuSans-35"/>
      </g>
     </g>
    </g>
    <g id="xtick_6">
     <g id="line2d_14">
      <g>
       <use xlink:href="#m1aef86d10a" x="473.84018" y="235.1575" style="stroke: #000000; stroke-width: 0.8"/>
      </g>
     </g>
     <g id="text_15">
      <!-- 10 -->
      <g transform="translate(464.93268 252.795313)scale(0.14 -0.14)">
       <use xlink:href="#DejaVuSans-31"/>
       <use xlink:href="#DejaVuSans-30" x="63.623047"/>
      </g>
     </g>
    </g>
    <g id="xtick_7">
     <g id="line2d_15">
      <g>
       <use xlink:href="#m1aef86d10a" x="527.970559" y="235.1575" style="stroke: #000000; stroke-width: 0.8"/>
      </g>
     </g>
     <g id="text_16">
      <!-- 15 -->
      <g transform="translate(519.063059 252.795313)scale(0.14 -0.14)">
       <use xlink:href="#DejaVuSans-31"/>
       <use xlink:href="#DejaVuSans-35" x="63.623047"/>
      </g>
     </g>
    </g>
    <g id="text_17">
     <!-- education-num -->
     <g transform="translate(397.086066 271.864375)scale(0.16 -0.16)">
      <defs>
       <path id="DejaVuSans-64" d="M 2906 2969 
L 2906 4863 
L 3481 4863 
L 3481 0 
L 2906 0 
L 2906 525 
Q 2725 213 2448 61 
Q 2172 -91 1784 -91 
Q 1150 -91 751 415 
Q 353 922 353 1747 
Q 353 2572 751 3078 
Q 1150 3584 1784 3584 
Q 2172 3584 2448 3432 
Q 2725 3281 2906 2969 
z
M 947 1747 
Q 947 1113 1208 752 
Q 1469 391 1925 391 
Q 2381 391 2643 752 
Q 2906 1113 2906 1747 
Q 2906 2381 2643 2742 
Q 2381 3103 1925 3103 
Q 1469 3103 1208 2742 
Q 947 2381 947 1747 
z
" transform="scale(0.015625)"/>
       <path id="DejaVuSans-63" d="M 3122 3366 
L 3122 2828 
Q 2878 2963 2633 3030 
Q 2388 3097 2138 3097 
Q 1578 3097 1268 2742 
Q 959 2388 959 1747 
Q 959 1106 1268 751 
Q 1578 397 2138 397 
Q 2388 397 2633 464 
Q 2878 531 3122 666 
L 3122 134 
Q 2881 22 2623 -34 
Q 2366 -91 2075 -91 
Q 1284 -91 818 406 
Q 353 903 353 1747 
Q 353 2603 823 3093 
Q 1294 3584 2113 3584 
Q 2378 3584 2631 3529 
Q 2884 3475 3122 3366 
z
" transform="scale(0.015625)"/>
       <path id="DejaVuSans-2d" d="M 313 2009 
L 1997 2009 
L 1997 1497 
L 313 1497 
L 313 2009 
z
" transform="scale(0.015625)"/>
       <path id="DejaVuSans-6d" d="M 3328 2828 
Q 3544 3216 3844 3400 
Q 4144 3584 4550 3584 
Q 5097 3584 5394 3201 
Q 5691 2819 5691 2113 
L 5691 0 
L 5113 0 
L 5113 2094 
Q 5113 2597 4934 2840 
Q 4756 3084 4391 3084 
Q 3944 3084 3684 2787 
Q 3425 2491 3425 1978 
L 3425 0 
L 2847 0 
L 2847 2094 
Q 2847 2600 2669 2842 
Q 2491 3084 2119 3084 
Q 1678 3084 1418 2786 
Q 1159 2488 1159 1978 
L 1159 0 
L 581 0 
L 581 3500 
L 1159 3500 
L 1159 2956 
Q 1356 3278 1631 3431 
Q 1906 3584 2284 3584 
Q 2666 3584 2933 3390 
Q 3200 3197 3328 2828 
z
" transform="scale(0.015625)"/>
      </defs>
      <use xlink:href="#DejaVuSans-65"/>
      <use xlink:href="#DejaVuSans-64" x="61.523438"/>
      <use xlink:href="#DejaVuSans-75" x="125"/>
      <use xlink:href="#DejaVuSans-63" x="188.378906"/>
      <use xlink:href="#DejaVuSans-61" x="243.359375"/>
      <use xlink:href="#DejaVuSans-74" x="304.638672"/>
      <use xlink:href="#DejaVuSans-69" x="343.847656"/>
      <use xlink:href="#DejaVuSans-6f" x="371.630859"/>
      <use xlink:href="#DejaVuSans-6e" x="432.8125"/>
      <use xlink:href="#DejaVuSans-2d" x="496.191406"/>
      <use xlink:href="#DejaVuSans-6e" x="532.275391"/>
      <use xlink:href="#DejaVuSans-75" x="595.654297"/>
      <use xlink:href="#DejaVuSans-6d" x="659.033203"/>
     </g>
    </g>
   </g>
   <g id="matplotlib.axis_4">
    <g id="ytick_7">
     <g id="line2d_16">
      <g>
       <use xlink:href="#m45a8881557" x="357.685502" y="235.1575" style="stroke: #000000; stroke-width: 0.8"/>
      </g>
     </g>
     <g id="text_18">
      <!-- 0.0 -->
      <g transform="translate(328.421127 240.476406)scale(0.14 -0.14)">
       <use xlink:href="#DejaVuSans-30"/>
       <use xlink:href="#DejaVuSans-2e" x="63.623047"/>
       <use xlink:href="#DejaVuSans-30" x="95.410156"/>
      </g>
     </g>
    </g>
    <g id="ytick_8">
     <g id="line2d_17">
      <g>
       <use xlink:href="#m45a8881557" x="357.685502" y="189.249312" style="stroke: #000000; stroke-width: 0.8"/>
      </g>
     </g>
     <g id="text_19">
      <!-- 0.1 -->
      <g transform="translate(328.421127 194.568219)scale(0.14 -0.14)">
       <use xlink:href="#DejaVuSans-30"/>
       <use xlink:href="#DejaVuSans-2e" x="63.623047"/>
       <use xlink:href="#DejaVuSans-31" x="95.410156"/>
      </g>
     </g>
    </g>
    <g id="ytick_9">
     <g id="line2d_18">
      <g>
       <use xlink:href="#m45a8881557" x="357.685502" y="143.341125" style="stroke: #000000; stroke-width: 0.8"/>
      </g>
     </g>
     <g id="text_20">
      <!-- 0.2 -->
      <g transform="translate(328.421127 148.660031)scale(0.14 -0.14)">
       <use xlink:href="#DejaVuSans-30"/>
       <use xlink:href="#DejaVuSans-2e" x="63.623047"/>
       <use xlink:href="#DejaVuSans-32" x="95.410156"/>
      </g>
     </g>
    </g>
    <g id="ytick_10">
     <g id="line2d_19">
      <g>
       <use xlink:href="#m45a8881557" x="357.685502" y="97.432937" style="stroke: #000000; stroke-width: 0.8"/>
      </g>
     </g>
     <g id="text_21">
      <!-- 0.3 -->
      <g transform="translate(328.421127 102.751844)scale(0.14 -0.14)">
       <defs>
        <path id="DejaVuSans-33" d="M 2597 2516 
Q 3050 2419 3304 2112 
Q 3559 1806 3559 1356 
Q 3559 666 3084 287 
Q 2609 -91 1734 -91 
Q 1441 -91 1130 -33 
Q 819 25 488 141 
L 488 750 
Q 750 597 1062 519 
Q 1375 441 1716 441 
Q 2309 441 2620 675 
Q 2931 909 2931 1356 
Q 2931 1769 2642 2001 
Q 2353 2234 1838 2234 
L 1294 2234 
L 1294 2753 
L 1863 2753 
Q 2328 2753 2575 2939 
Q 2822 3125 2822 3475 
Q 2822 3834 2567 4026 
Q 2313 4219 1838 4219 
Q 1578 4219 1281 4162 
Q 984 4106 628 3988 
L 628 4550 
Q 988 4650 1302 4700 
Q 1616 4750 1894 4750 
Q 2613 4750 3031 4423 
Q 3450 4097 3450 3541 
Q 3450 3153 3228 2886 
Q 3006 2619 2597 2516 
z
" transform="scale(0.015625)"/>
       </defs>
       <use xlink:href="#DejaVuSans-30"/>
       <use xlink:href="#DejaVuSans-2e" x="63.623047"/>
       <use xlink:href="#DejaVuSans-33" x="95.410156"/>
      </g>
     </g>
    </g>
    <g id="ytick_11">
     <g id="line2d_20">
      <g>
       <use xlink:href="#m45a8881557" x="357.685502" y="51.52475" style="stroke: #000000; stroke-width: 0.8"/>
      </g>
     </g>
     <g id="text_22">
      <!-- 0.4 -->
      <g transform="translate(328.421127 56.843656)scale(0.14 -0.14)">
       <defs>
        <path id="DejaVuSans-34" d="M 2419 4116 
L 825 1625 
L 2419 1625 
L 2419 4116 
z
M 2253 4666 
L 3047 4666 
L 3047 1625 
L 3713 1625 
L 3713 1100 
L 3047 1100 
L 3047 0 
L 2419 0 
L 2419 1100 
L 313 1100 
L 313 1709 
L 2253 4666 
z
" transform="scale(0.015625)"/>
       </defs>
       <use xlink:href="#DejaVuSans-30"/>
       <use xlink:href="#DejaVuSans-2e" x="63.623047"/>
       <use xlink:href="#DejaVuSans-34" x="95.410156"/>
      </g>
     </g>
    </g>
    <g id="text_23">
     <!-- Density -->
     <g transform="translate(321.093627 160.67125)rotate(-90)scale(0.16 -0.16)">
      <use xlink:href="#DejaVuSans-44"/>
      <use xlink:href="#DejaVuSans-65" x="77.001953"/>
      <use xlink:href="#DejaVuSans-6e" x="138.525391"/>
      <use xlink:href="#DejaVuSans-73" x="201.904297"/>
      <use xlink:href="#DejaVuSans-69" x="254.003906"/>
      <use xlink:href="#DejaVuSans-74" x="281.787109"/>
      <use xlink:href="#DejaVuSans-79" x="320.996094"/>
     </g>
    </g>
   </g>
   <g id="line2d_21">
    <path d="M 376.405497 234.097908 
L 378.037569 234.183645 
L 380.485676 234.345217 
L 381.301712 234.261166 
L 382.117748 234.062574 
L 383.74982 233.34552 
L 385.381892 232.489053 
L 386.197927 232.176365 
L 387.013963 232.021202 
L 387.829999 232.047347 
L 389.462071 232.525114 
L 391.094143 233.028851 
L 391.910178 233.046142 
L 392.726214 232.812039 
L 393.54225 232.309108 
L 395.174322 230.709715 
L 396.806394 229.14785 
L 397.62243 228.741125 
L 398.438465 228.701808 
L 399.254501 229.018408 
L 401.702609 230.786452 
L 402.518645 231.010403 
L 403.334681 230.774401 
L 404.150717 230.016868 
L 404.966752 228.78225 
L 407.41486 224.187841 
L 408.230896 223.276369 
L 409.046932 223.046891 
L 409.862968 223.541911 
L 410.679004 224.647095 
L 413.127111 228.943472 
L 413.943147 229.75905 
L 414.759183 229.978145 
L 415.575219 229.605769 
L 416.391255 228.767011 
L 418.023326 226.613765 
L 418.839362 225.825559 
L 419.655398 225.504497 
L 420.471434 225.72055 
L 421.28747 226.403738 
L 422.919542 228.301354 
L 423.735577 228.933601 
L 424.551613 228.993871 
L 425.367649 228.320543 
L 426.183685 226.89281 
L 426.999721 224.852076 
L 428.631793 220.221139 
L 429.447829 218.462272 
L 430.263864 217.564705 
L 431.0799 217.699041 
L 431.895936 218.803563 
L 434.344044 224.358356 
L 435.16008 225.377675 
L 435.976116 225.358453 
L 436.792151 224.198582 
L 437.608187 222.033017 
L 440.056295 213.849712 
L 440.872331 212.406617 
L 441.688367 212.293814 
L 442.504403 213.556162 
L 443.320438 215.951806 
L 445.768546 225.093066 
L 446.584582 227.236756 
L 447.400618 228.508956 
L 448.216654 228.936266 
L 449.032689 228.693878 
L 450.664761 227.268717 
L 452.296833 226.026171 
L 453.112869 225.438069 
L 453.928905 224.322824 
L 454.744941 221.845764 
L 455.560976 216.854513 
L 456.377012 208.01194 
L 457.193048 194.071371 
L 458.009084 174.294846 
L 458.82512 148.939698 
L 461.273228 62.710767 
L 462.089263 43.539943 
L 462.905299 35.347976 
L 463.721335 39.48469 
L 464.537371 54.817004 
L 466.169443 104.08402 
L 466.985479 128.159137 
L 467.801515 145.970637 
L 468.61755 154.931906 
L 469.433586 154.425862 
L 470.249622 145.7688 
L 472.69773 103.963809 
L 473.513766 97.374917 
L 474.329801 98.722349 
L 475.145837 108.102455 
L 475.961873 123.904617 
L 478.409981 181.27222 
L 479.226017 195.237752 
L 480.042053 204.595585 
L 480.858088 209.61729 
L 481.674124 211.250745 
L 482.49016 210.78474 
L 483.306196 209.540384 
L 484.122232 208.624353 
L 484.938268 208.761049 
L 485.754304 210.217319 
L 486.57034 212.826723 
L 488.202411 219.400387 
L 489.018447 222.098074 
L 489.834483 223.728205 
L 490.650519 224.066381 
L 491.466555 223.158915 
L 492.282591 221.301997 
L 493.914662 216.751928 
L 494.730698 215.141503 
L 495.546734 214.476674 
L 496.36277 214.787123 
L 497.994842 216.682717 
L 498.810878 216.683087 
L 499.626913 214.736568 
L 500.442949 209.948278 
L 501.258985 201.780856 
L 502.075021 190.296443 
L 504.523129 148.000295 
L 505.339165 138.121062 
L 506.1552 133.692338 
L 506.971236 135.555887 
L 507.787272 143.311681 
L 508.603308 155.424394 
L 510.23538 183.613126 
L 511.051416 195.348638 
L 511.867452 203.637357 
L 512.683487 208.115367 
L 513.499523 209.183499 
L 514.315559 207.798038 
L 515.947631 202.686639 
L 516.763667 201.277306 
L 517.579703 201.612156 
L 518.395739 203.821884 
L 519.211774 207.571732 
L 521.659882 221.123823 
L 522.475918 224.246459 
L 523.291954 226.128431 
L 524.10799 226.838629 
L 524.924025 226.646322 
L 527.372133 224.574312 
L 528.188169 224.518588 
L 529.004205 225.040595 
L 529.820241 226.062603 
L 532.268348 229.898611 
L 533.084384 230.64462 
L 533.90042 230.89004 
L 534.716456 230.645075 
L 535.532492 230.018066 
L 537.164564 228.384319 
L 537.980599 227.807 
L 538.796635 227.614702 
L 538.796635 227.614702 
" clip-path="url(#p390124b48d)" style="fill: none; stroke: #0000ff; stroke-width: 1.5; stroke-linecap: square"/>
   </g>
   <g id="line2d_22">
    <path d="M 366.768735 235.145847 
L 369.507399 235.052936 
L 372.246062 234.703854 
L 374.984725 234.204134 
L 376.810501 234.100695 
L 380.462052 234.346119 
L 381.374939 234.248198 
L 382.287827 234.006262 
L 384.113603 233.149194 
L 385.939378 232.26056 
L 386.852266 232.03772 
L 387.765154 232.038802 
L 388.678041 232.245668 
L 390.503817 232.894366 
L 391.416705 233.062519 
L 392.329592 232.959563 
L 393.24248 232.523907 
L 394.155368 231.775728 
L 395.981143 229.857576 
L 396.894031 229.088165 
L 397.806919 228.699051 
L 398.719807 228.774073 
L 399.632694 229.260847 
L 401.45847 230.650077 
L 402.371358 231.000707 
L 403.284245 230.803972 
L 404.197133 229.958468 
L 405.110021 228.526286 
L 406.935796 224.970842 
L 407.848684 223.626776 
L 408.761572 223.04357 
L 409.674459 223.366793 
L 410.587347 224.499296 
L 413.32601 229.192731 
L 414.238898 229.909857 
L 415.151786 229.867705 
L 416.064674 229.146324 
L 418.803337 225.851514 
L 419.716225 225.502098 
L 420.629112 225.820665 
L 421.542 226.684164 
L 422.454888 227.782888 
L 423.367776 228.705562 
L 424.280663 229.049813 
L 425.193551 228.529188 
L 426.106439 227.057663 
L 427.019327 224.797685 
L 428.845102 219.695398 
L 429.75799 218.005691 
L 430.670878 217.500881 
L 431.583765 218.280326 
L 432.496653 220.075925 
L 434.322429 224.319694 
L 435.235316 225.422575 
L 436.148204 225.207851 
L 437.061092 223.582595 
L 437.97398 220.824309 
L 439.799755 214.532721 
L 440.712643 212.59089 
L 441.625531 212.252353 
L 442.538418 213.635968 
L 443.451306 216.412947 
L 445.277082 223.440708 
L 446.189969 226.303645 
L 447.102857 228.147771 
L 448.015745 228.90196 
L 448.928633 228.753367 
L 449.84152 228.051857 
L 451.667296 226.440158 
L 452.580184 225.844107 
L 453.493071 225.026653 
L 454.405959 223.107743 
L 455.318847 218.675716 
L 456.231735 209.927304 
L 457.144622 195.058065 
L 458.05751 172.936884 
L 458.970398 143.942026 
L 460.796173 77.724595 
L 461.709061 51.272516 
L 462.621949 36.813615 
L 463.534836 37.471295 
L 464.447724 52.67382 
L 465.360612 78.176848 
L 467.186387 133.256775 
L 468.099275 150.342154 
L 469.012163 155.830614 
L 469.925051 150.03226 
L 470.837938 136.056679 
L 471.750826 118.948415 
L 472.663714 104.388421 
L 473.576602 97.183914 
L 474.489489 99.954497 
L 475.402377 112.49244 
L 476.315265 132.068151 
L 478.14104 175.746713 
L 479.053928 192.668781 
L 479.966816 203.924336 
L 480.879704 209.699006 
L 481.792591 211.281105 
L 482.705479 210.481247 
L 483.618367 209.102103 
L 484.531255 208.533665 
L 485.444142 209.510385 
L 486.35703 212.056418 
L 489.095693 222.303611 
L 490.008581 223.911302 
L 490.921469 223.893317 
L 491.834357 222.413954 
L 494.57302 215.38557 
L 495.485908 214.490888 
L 496.398795 214.81952 
L 497.311683 215.921075 
L 498.224571 216.821081 
L 499.137459 216.192949 
L 500.050346 212.651998 
L 500.963234 205.142773 
L 501.876122 193.370112 
L 504.614785 146.669996 
L 505.527673 136.564361 
L 506.44056 133.622217 
L 507.353448 138.525658 
L 508.266336 150.028942 
L 511.004999 194.765988 
L 511.917887 204.02395 
L 512.830775 208.538428 
L 513.743662 208.972718 
L 514.65655 206.786939 
L 515.569438 203.77262 
L 516.482326 201.588013 
L 517.395213 201.369068 
L 518.308101 203.501487 
L 519.220989 207.620551 
L 521.046764 218.067333 
L 521.959652 222.408984 
L 522.87254 225.317442 
L 523.785428 226.684286 
L 524.698315 226.768864 
L 525.611203 226.066724 
L 526.524091 225.156002 
L 527.436979 224.549593 
L 528.349866 224.57646 
L 529.262754 225.317834 
L 530.175642 226.616317 
L 532.001417 229.559212 
L 532.914305 230.528809 
L 533.827193 230.888941 
L 534.740081 230.631559 
L 535.652968 229.90351 
L 537.478744 228.124709 
L 538.391632 227.655504 
L 539.304519 227.723082 
L 540.217407 228.342852 
L 541.130295 229.389466 
L 543.868958 232.999621 
L 544.781846 233.834397 
L 545.694734 234.409178 
L 546.607621 234.7671 
L 548.433397 235.074107 
L 548.433397 235.074107 
" clip-path="url(#p390124b48d)" style="fill: none; stroke: #ff0000; stroke-width: 1.5; stroke-linecap: square"/>
   </g>
   <g id="patch_28">
    <path d="M 357.685502 235.1575 
L 357.685502 25.3575 
" style="fill: none; stroke: #000000; stroke-width: 0.8; stroke-linejoin: miter; stroke-linecap: square"/>
   </g>
   <g id="patch_29">
    <path d="M 557.51663 235.1575 
L 557.51663 25.3575 
" style="fill: none; stroke: #000000; stroke-width: 0.8; stroke-linejoin: miter; stroke-linecap: square"/>
   </g>
   <g id="patch_30">
    <path d="M 357.685502 235.1575 
L 557.51663 235.1575 
" style="fill: none; stroke: #000000; stroke-width: 0.8; stroke-linejoin: miter; stroke-linecap: square"/>
   </g>
   <g id="patch_31">
    <path d="M 357.685502 25.3575 
L 557.51663 25.3575 
" style="fill: none; stroke: #000000; stroke-width: 0.8; stroke-linejoin: miter; stroke-linecap: square"/>
   </g>
   <g id="text_24">
    <!-- Distribution of education-num -->
    <g transform="translate(337.619816 19.3575)scale(0.16 -0.16)">
     <use xlink:href="#DejaVuSans-44"/>
     <use xlink:href="#DejaVuSans-69" x="77.001953"/>
     <use xlink:href="#DejaVuSans-73" x="104.785156"/>
     <use xlink:href="#DejaVuSans-74" x="156.884766"/>
     <use xlink:href="#DejaVuSans-72" x="196.09375"/>
     <use xlink:href="#DejaVuSans-69" x="237.207031"/>
     <use xlink:href="#DejaVuSans-62" x="264.990234"/>
     <use xlink:href="#DejaVuSans-75" x="328.466797"/>
     <use xlink:href="#DejaVuSans-74" x="391.845703"/>
     <use xlink:href="#DejaVuSans-69" x="431.054688"/>
     <use xlink:href="#DejaVuSans-6f" x="458.837891"/>
     <use xlink:href="#DejaVuSans-6e" x="520.019531"/>
     <use xlink:href="#DejaVuSans-20" x="583.398438"/>
     <use xlink:href="#DejaVuSans-6f" x="615.185547"/>
     <use xlink:href="#DejaVuSans-66" x="676.367188"/>
     <use xlink:href="#DejaVuSans-20" x="711.572266"/>
     <use xlink:href="#DejaVuSans-65" x="743.359375"/>
     <use xlink:href="#DejaVuSans-64" x="804.882812"/>
     <use xlink:href="#DejaVuSans-75" x="868.359375"/>
     <use xlink:href="#DejaVuSans-63" x="931.738281"/>
     <use xlink:href="#DejaVuSans-61" x="986.71875"/>
     <use xlink:href="#DejaVuSans-74" x="1047.998047"/>
     <use xlink:href="#DejaVuSans-69" x="1087.207031"/>
     <use xlink:href="#DejaVuSans-6f" x="1114.990234"/>
     <use xlink:href="#DejaVuSans-6e" x="1176.171875"/>
     <use xlink:href="#DejaVuSans-2d" x="1239.550781"/>
     <use xlink:href="#DejaVuSans-6e" x="1275.634766"/>
     <use xlink:href="#DejaVuSans-75" x="1339.013672"/>
     <use xlink:href="#DejaVuSans-6d" x="1402.392578"/>
    </g>
   </g>
  </g>
  <g id="axes_3">
   <g id="patch_32">
    <path d="M 641.60663 235.1575 
L 841.437757 235.1575 
L 841.437757 25.3575 
L 641.60663 25.3575 
z
" style="fill: #ffffff"/>
   </g>
   <g id="patch_33">
    <path d="M 658.002551 235.1575 
L 674.706479 235.1575 
L 674.706479 231.63366 
L 658.002551 231.63366 
z
" clip-path="url(#p365710dcfa)" style="fill: #0000ff; fill-opacity: 0.6; stroke: #000000; stroke-linejoin: miter"/>
   </g>
   <g id="patch_34">
    <path d="M 674.706479 235.1575 
L 691.410408 235.1575 
L 691.410408 224.733197 
L 674.706479 224.733197 
z
" clip-path="url(#p365710dcfa)" style="fill: #0000ff; fill-opacity: 0.6; stroke: #000000; stroke-linejoin: miter"/>
   </g>
   <g id="patch_35">
    <path d="M 691.410408 235.1575 
L 708.114336 235.1575 
L 708.114336 224.513936 
L 691.410408 224.513936 
z
" clip-path="url(#p365710dcfa)" style="fill: #0000ff; fill-opacity: 0.6; stroke: #000000; stroke-linejoin: miter"/>
   </g>
   <g id="patch_36">
    <path d="M 708.114336 235.1575 
L 724.818265 235.1575 
L 724.818265 151.716093 
L 708.114336 151.716093 
z
" clip-path="url(#p365710dcfa)" style="fill: #0000ff; fill-opacity: 0.6; stroke: #000000; stroke-linejoin: miter"/>
   </g>
   <g id="patch_37">
    <path d="M 724.818265 235.1575 
L 741.522194 235.1575 
L 741.522194 220.526515 
L 724.818265 220.526515 
z
" clip-path="url(#p365710dcfa)" style="fill: #0000ff; fill-opacity: 0.6; stroke: #000000; stroke-linejoin: miter"/>
   </g>
   <g id="patch_38">
    <path d="M 741.522194 235.1575 
L 758.226122 235.1575 
L 758.226122 216.902441 
L 741.522194 216.902441 
z
" clip-path="url(#p365710dcfa)" style="fill: #0000ff; fill-opacity: 0.6; stroke: #000000; stroke-linejoin: miter"/>
   </g>
   <g id="patch_39">
    <path d="M 758.226122 235.1575 
L 774.930051 235.1575 
L 774.930051 226.881957 
L 758.226122 226.881957 
z
" clip-path="url(#p365710dcfa)" style="fill: #0000ff; fill-opacity: 0.6; stroke: #000000; stroke-linejoin: miter"/>
   </g>
   <g id="patch_40">
    <path d="M 774.930051 235.1575 
L 791.633979 235.1575 
L 791.633979 233.018137 
L 774.930051 233.018137 
z
" clip-path="url(#p365710dcfa)" style="fill: #0000ff; fill-opacity: 0.6; stroke: #000000; stroke-linejoin: miter"/>
   </g>
   <g id="patch_41">
    <path d="M 791.633979 235.1575 
L 808.337908 235.1575 
L 808.337908 234.170825 
L 791.633979 234.170825 
z
" clip-path="url(#p365710dcfa)" style="fill: #0000ff; fill-opacity: 0.6; stroke: #000000; stroke-linejoin: miter"/>
   </g>
   <g id="patch_42">
    <path d="M 808.337908 235.1575 
L 825.041836 235.1575 
L 825.041836 234.49032 
L 808.337908 234.49032 
z
" clip-path="url(#p365710dcfa)" style="fill: #0000ff; fill-opacity: 0.6; stroke: #000000; stroke-linejoin: miter"/>
   </g>
   <g id="matplotlib.axis_5">
    <g id="xtick_8">
     <g id="line2d_23">
      <g>
       <use xlink:href="#m1aef86d10a" x="656.298068" y="235.1575" style="stroke: #000000; stroke-width: 0.8"/>
      </g>
     </g>
     <g id="text_25">
      <!-- 0 -->
      <g transform="translate(651.844318 252.795313)scale(0.14 -0.14)">
       <use xlink:href="#DejaVuSans-30"/>
      </g>
     </g>
    </g>
    <g id="xtick_9">
     <g id="line2d_24">
      <g>
       <use xlink:href="#m1aef86d10a" x="741.522194" y="235.1575" style="stroke: #000000; stroke-width: 0.8"/>
      </g>
     </g>
     <g id="text_26">
      <!-- 50 -->
      <g transform="translate(732.614694 252.795313)scale(0.14 -0.14)">
       <use xlink:href="#DejaVuSans-35"/>
       <use xlink:href="#DejaVuSans-30" x="63.623047"/>
      </g>
     </g>
    </g>
    <g id="xtick_10">
     <g id="line2d_25">
      <g>
       <use xlink:href="#m1aef86d10a" x="826.746319" y="235.1575" style="stroke: #000000; stroke-width: 0.8"/>
      </g>
     </g>
     <g id="text_27">
      <!-- 100 -->
      <g transform="translate(813.385069 252.795313)scale(0.14 -0.14)">
       <use xlink:href="#DejaVuSans-31"/>
       <use xlink:href="#DejaVuSans-30" x="63.623047"/>
       <use xlink:href="#DejaVuSans-30" x="127.246094"/>
      </g>
     </g>
    </g>
    <g id="text_28">
     <!-- hours-per-week -->
     <g transform="translate(679.458444 271.864375)scale(0.16 -0.16)">
      <defs>
       <path id="DejaVuSans-68" d="M 3513 2113 
L 3513 0 
L 2938 0 
L 2938 2094 
Q 2938 2591 2744 2837 
Q 2550 3084 2163 3084 
Q 1697 3084 1428 2787 
Q 1159 2491 1159 1978 
L 1159 0 
L 581 0 
L 581 4863 
L 1159 4863 
L 1159 2956 
Q 1366 3272 1645 3428 
Q 1925 3584 2291 3584 
Q 2894 3584 3203 3211 
Q 3513 2838 3513 2113 
z
" transform="scale(0.015625)"/>
       <path id="DejaVuSans-70" d="M 1159 525 
L 1159 -1331 
L 581 -1331 
L 581 3500 
L 1159 3500 
L 1159 2969 
Q 1341 3281 1617 3432 
Q 1894 3584 2278 3584 
Q 2916 3584 3314 3078 
Q 3713 2572 3713 1747 
Q 3713 922 3314 415 
Q 2916 -91 2278 -91 
Q 1894 -91 1617 61 
Q 1341 213 1159 525 
z
M 3116 1747 
Q 3116 2381 2855 2742 
Q 2594 3103 2138 3103 
Q 1681 3103 1420 2742 
Q 1159 2381 1159 1747 
Q 1159 1113 1420 752 
Q 1681 391 2138 391 
Q 2594 391 2855 752 
Q 3116 1113 3116 1747 
z
" transform="scale(0.015625)"/>
       <path id="DejaVuSans-77" d="M 269 3500 
L 844 3500 
L 1563 769 
L 2278 3500 
L 2956 3500 
L 3675 769 
L 4391 3500 
L 4966 3500 
L 4050 0 
L 3372 0 
L 2619 2869 
L 1863 0 
L 1184 0 
L 269 3500 
z
" transform="scale(0.015625)"/>
       <path id="DejaVuSans-6b" d="M 581 4863 
L 1159 4863 
L 1159 1991 
L 2875 3500 
L 3609 3500 
L 1753 1863 
L 3688 0 
L 2938 0 
L 1159 1709 
L 1159 0 
L 581 0 
L 581 4863 
z
" transform="scale(0.015625)"/>
      </defs>
      <use xlink:href="#DejaVuSans-68"/>
      <use xlink:href="#DejaVuSans-6f" x="63.378906"/>
      <use xlink:href="#DejaVuSans-75" x="124.560547"/>
      <use xlink:href="#DejaVuSans-72" x="187.939453"/>
      <use xlink:href="#DejaVuSans-73" x="229.052734"/>
      <use xlink:href="#DejaVuSans-2d" x="281.152344"/>
      <use xlink:href="#DejaVuSans-70" x="317.236328"/>
      <use xlink:href="#DejaVuSans-65" x="380.712891"/>
      <use xlink:href="#DejaVuSans-72" x="442.236328"/>
      <use xlink:href="#DejaVuSans-2d" x="476.974609"/>
      <use xlink:href="#DejaVuSans-77" x="513.058594"/>
      <use xlink:href="#DejaVuSans-65" x="594.845703"/>
      <use xlink:href="#DejaVuSans-65" x="656.369141"/>
      <use xlink:href="#DejaVuSans-6b" x="717.892578"/>
     </g>
    </g>
   </g>
   <g id="matplotlib.axis_6">
    <g id="ytick_12">
     <g id="line2d_26">
      <g>
       <use xlink:href="#m45a8881557" x="641.60663" y="235.1575" style="stroke: #000000; stroke-width: 0.8"/>
      </g>
     </g>
     <g id="text_29">
      <!-- 0.00 -->
      <g transform="translate(603.434755 240.476406)scale(0.14 -0.14)">
       <use xlink:href="#DejaVuSans-30"/>
       <use xlink:href="#DejaVuSans-2e" x="63.623047"/>
       <use xlink:href="#DejaVuSans-30" x="95.410156"/>
       <use xlink:href="#DejaVuSans-30" x="159.033203"/>
      </g>
     </g>
    </g>
    <g id="ytick_13">
     <g id="line2d_27">
      <g>
       <use xlink:href="#m45a8881557" x="641.60663" y="205.171868" style="stroke: #000000; stroke-width: 0.8"/>
      </g>
     </g>
     <g id="text_30">
      <!-- 0.02 -->
      <g transform="translate(603.434755 210.490774)scale(0.14 -0.14)">
       <use xlink:href="#DejaVuSans-30"/>
       <use xlink:href="#DejaVuSans-2e" x="63.623047"/>
       <use xlink:href="#DejaVuSans-30" x="95.410156"/>
       <use xlink:href="#DejaVuSans-32" x="159.033203"/>
      </g>
     </g>
    </g>
    <g id="ytick_14">
     <g id="line2d_28">
      <g>
       <use xlink:href="#m45a8881557" x="641.60663" y="175.186236" style="stroke: #000000; stroke-width: 0.8"/>
      </g>
     </g>
     <g id="text_31">
      <!-- 0.04 -->
      <g transform="translate(603.434755 180.505142)scale(0.14 -0.14)">
       <use xlink:href="#DejaVuSans-30"/>
       <use xlink:href="#DejaVuSans-2e" x="63.623047"/>
       <use xlink:href="#DejaVuSans-30" x="95.410156"/>
       <use xlink:href="#DejaVuSans-34" x="159.033203"/>
      </g>
     </g>
    </g>
    <g id="ytick_15">
     <g id="line2d_29">
      <g>
       <use xlink:href="#m45a8881557" x="641.60663" y="145.200604" style="stroke: #000000; stroke-width: 0.8"/>
      </g>
     </g>
     <g id="text_32">
      <!-- 0.06 -->
      <g transform="translate(603.434755 150.51951)scale(0.14 -0.14)">
       <defs>
        <path id="DejaVuSans-36" d="M 2113 2584 
Q 1688 2584 1439 2293 
Q 1191 2003 1191 1497 
Q 1191 994 1439 701 
Q 1688 409 2113 409 
Q 2538 409 2786 701 
Q 3034 994 3034 1497 
Q 3034 2003 2786 2293 
Q 2538 2584 2113 2584 
z
M 3366 4563 
L 3366 3988 
Q 3128 4100 2886 4159 
Q 2644 4219 2406 4219 
Q 1781 4219 1451 3797 
Q 1122 3375 1075 2522 
Q 1259 2794 1537 2939 
Q 1816 3084 2150 3084 
Q 2853 3084 3261 2657 
Q 3669 2231 3669 1497 
Q 3669 778 3244 343 
Q 2819 -91 2113 -91 
Q 1303 -91 875 529 
Q 447 1150 447 2328 
Q 447 3434 972 4092 
Q 1497 4750 2381 4750 
Q 2619 4750 2861 4703 
Q 3103 4656 3366 4563 
z
" transform="scale(0.015625)"/>
       </defs>
       <use xlink:href="#DejaVuSans-30"/>
       <use xlink:href="#DejaVuSans-2e" x="63.623047"/>
       <use xlink:href="#DejaVuSans-30" x="95.410156"/>
       <use xlink:href="#DejaVuSans-36" x="159.033203"/>
      </g>
     </g>
    </g>
    <g id="ytick_16">
     <g id="line2d_30">
      <g>
       <use xlink:href="#m45a8881557" x="641.60663" y="115.214971" style="stroke: #000000; stroke-width: 0.8"/>
      </g>
     </g>
     <g id="text_33">
      <!-- 0.08 -->
      <g transform="translate(603.434755 120.533878)scale(0.14 -0.14)">
       <defs>
        <path id="DejaVuSans-38" d="M 2034 2216 
Q 1584 2216 1326 1975 
Q 1069 1734 1069 1313 
Q 1069 891 1326 650 
Q 1584 409 2034 409 
Q 2484 409 2743 651 
Q 3003 894 3003 1313 
Q 3003 1734 2745 1975 
Q 2488 2216 2034 2216 
z
M 1403 2484 
Q 997 2584 770 2862 
Q 544 3141 544 3541 
Q 544 4100 942 4425 
Q 1341 4750 2034 4750 
Q 2731 4750 3128 4425 
Q 3525 4100 3525 3541 
Q 3525 3141 3298 2862 
Q 3072 2584 2669 2484 
Q 3125 2378 3379 2068 
Q 3634 1759 3634 1313 
Q 3634 634 3220 271 
Q 2806 -91 2034 -91 
Q 1263 -91 848 271 
Q 434 634 434 1313 
Q 434 1759 690 2068 
Q 947 2378 1403 2484 
z
M 1172 3481 
Q 1172 3119 1398 2916 
Q 1625 2713 2034 2713 
Q 2441 2713 2670 2916 
Q 2900 3119 2900 3481 
Q 2900 3844 2670 4047 
Q 2441 4250 2034 4250 
Q 1625 4250 1398 4047 
Q 1172 3844 1172 3481 
z
" transform="scale(0.015625)"/>
       </defs>
       <use xlink:href="#DejaVuSans-30"/>
       <use xlink:href="#DejaVuSans-2e" x="63.623047"/>
       <use xlink:href="#DejaVuSans-30" x="95.410156"/>
       <use xlink:href="#DejaVuSans-38" x="159.033203"/>
      </g>
     </g>
    </g>
    <g id="ytick_17">
     <g id="line2d_31">
      <g>
       <use xlink:href="#m45a8881557" x="641.60663" y="85.229339" style="stroke: #000000; stroke-width: 0.8"/>
      </g>
     </g>
     <g id="text_34">
      <!-- 0.10 -->
      <g transform="translate(603.434755 90.548246)scale(0.14 -0.14)">
       <use xlink:href="#DejaVuSans-30"/>
       <use xlink:href="#DejaVuSans-2e" x="63.623047"/>
       <use xlink:href="#DejaVuSans-31" x="95.410156"/>
       <use xlink:href="#DejaVuSans-30" x="159.033203"/>
      </g>
     </g>
    </g>
    <g id="ytick_18">
     <g id="line2d_32">
      <g>
       <use xlink:href="#m45a8881557" x="641.60663" y="55.243707" style="stroke: #000000; stroke-width: 0.8"/>
      </g>
     </g>
     <g id="text_35">
      <!-- 0.12 -->
      <g transform="translate(603.434755 60.562613)scale(0.14 -0.14)">
       <use xlink:href="#DejaVuSans-30"/>
       <use xlink:href="#DejaVuSans-2e" x="63.623047"/>
       <use xlink:href="#DejaVuSans-31" x="95.410156"/>
       <use xlink:href="#DejaVuSans-32" x="159.033203"/>
      </g>
     </g>
    </g>
    <g id="text_36">
     <!-- Density -->
     <g transform="translate(596.107255 160.67125)rotate(-90)scale(0.16 -0.16)">
      <use xlink:href="#DejaVuSans-44"/>
      <use xlink:href="#DejaVuSans-65" x="77.001953"/>
      <use xlink:href="#DejaVuSans-6e" x="138.525391"/>
      <use xlink:href="#DejaVuSans-73" x="201.904297"/>
      <use xlink:href="#DejaVuSans-69" x="254.003906"/>
      <use xlink:href="#DejaVuSans-74" x="281.787109"/>
      <use xlink:href="#DejaVuSans-79" x="320.996094"/>
     </g>
    </g>
   </g>
   <g id="line2d_33">
    <path d="M 658.002551 234.283098 
L 662.199518 233.036182 
L 664.717698 232.568436 
L 667.235878 232.127639 
L 668.914665 231.501505 
L 672.272238 229.801546 
L 673.111632 229.612769 
L 673.951025 229.631089 
L 675.629812 230.136547 
L 676.469205 230.408202 
L 677.308599 230.501823 
L 678.147992 230.285865 
L 678.987386 229.696027 
L 681.505566 226.99834 
L 682.344959 226.666876 
L 683.184353 226.87162 
L 684.863139 227.921923 
L 685.702533 227.878324 
L 686.541926 226.918602 
L 687.38132 224.964333 
L 689.060106 219.814415 
L 689.8995 218.196921 
L 690.738893 218.106833 
L 691.578287 219.582307 
L 693.257073 224.640544 
L 694.096467 226.496079 
L 694.93586 227.17624 
L 695.775254 226.717424 
L 697.45404 224.350455 
L 698.293434 223.693631 
L 699.132827 223.928275 
L 699.97222 225.004185 
L 701.651007 227.881773 
L 702.490401 228.536443 
L 703.329794 228.119238 
L 704.169187 226.568214 
L 706.687368 219.3901 
L 707.526761 218.392327 
L 708.366154 218.753674 
L 709.205548 220.190216 
L 710.044941 222.041667 
L 710.884335 223.53289 
L 711.723728 224.022414 
L 712.563121 223.176129 
L 713.402515 221.077125 
L 715.081302 215.494691 
L 715.920695 213.52261 
L 717.599482 211.249488 
L 718.438875 207.863669 
L 719.278269 199.203635 
L 720.117662 182.111514 
L 720.957055 154.85608 
L 723.475236 49.686658 
L 724.314629 35.347976 
L 725.154022 42.653311 
L 725.993416 69.223294 
L 727.672203 144.442562 
L 728.511596 174.835692 
L 729.350989 194.456917 
L 730.190383 204.121514 
L 731.029776 206.984733 
L 731.869169 206.713911 
L 732.708563 206.245503 
L 733.547956 207.161285 
L 734.38735 209.595728 
L 735.226743 212.601837 
L 736.066136 214.799337 
L 736.90553 215.018646 
L 737.744923 212.726946 
L 738.584317 208.214756 
L 740.263103 197.602218 
L 741.102497 195.023884 
L 741.94189 196.007122 
L 742.781284 200.489735 
L 745.299464 220.323771 
L 746.138857 224.169954 
L 746.978251 225.839949 
L 747.817644 225.869298 
L 749.496431 224.385045 
L 750.335824 224.328521 
L 751.175218 225.108435 
L 752.854004 227.739628 
L 753.693398 228.301168 
L 754.532791 227.609027 
L 755.372185 225.522137 
L 757.050971 219.13535 
L 757.890365 216.777686 
L 758.729758 216.210943 
L 759.569152 217.690118 
L 760.408545 220.743185 
L 762.087332 227.798115 
L 762.926725 230.230954 
L 763.766119 231.571474 
L 764.605512 232.016798 
L 765.444905 231.939547 
L 766.284299 231.726036 
L 767.123692 231.663273 
L 767.963085 231.876964 
L 770.481266 233.251824 
L 771.320659 233.37515 
L 772.160052 233.153102 
L 772.999446 232.631648 
L 774.678233 231.353892 
L 775.517626 231.006718 
L 776.357019 231.024409 
L 777.196413 231.382855 
L 780.553986 233.562155 
L 781.39338 233.817449 
L 783.072167 233.990927 
L 785.590347 234.210596 
L 787.269134 234.411745 
L 788.108527 234.39877 
L 788.94792 234.263929 
L 792.305494 233.275089 
L 793.144887 233.302681 
L 794.823674 233.797056 
L 796.502461 234.294092 
L 798.181248 234.396321 
L 800.699428 234.432752 
L 804.896395 234.934306 
L 807.414575 234.842668 
L 809.932755 234.735221 
L 813.290329 234.980407 
L 815.808509 235.082726 
L 819.166083 234.959738 
L 820.844869 234.720339 
L 824.202443 233.912008 
L 825.041836 233.875117 
L 825.041836 233.875117 
" clip-path="url(#p365710dcfa)" style="fill: none; stroke: #0000ff; stroke-width: 1.5; stroke-linecap: square"/>
   </g>
   <g id="line2d_34">
    <path d="M 650.689863 235.154413 
L 654.341414 235.033697 
L 656.167189 234.761364 
L 658.905853 234.002798 
L 662.557404 232.951579 
L 665.296067 232.490177 
L 667.121842 232.15785 
L 668.947618 231.485911 
L 672.599169 229.704773 
L 673.512057 229.59544 
L 674.424944 229.727277 
L 676.25072 230.348635 
L 677.163607 230.504615 
L 678.076495 230.318623 
L 678.989383 229.694197 
L 681.728046 226.857984 
L 682.640934 226.681939 
L 683.553822 227.092348 
L 684.466709 227.725194 
L 685.379597 227.98771 
L 686.292485 227.311541 
L 687.205373 225.446136 
L 689.031148 219.891366 
L 689.944036 218.150648 
L 690.856924 218.226894 
L 691.769811 220.08913 
L 693.595587 225.512182 
L 694.508475 226.985727 
L 695.421362 227.028733 
L 696.33425 225.986077 
L 697.247138 224.617614 
L 698.160026 223.742833 
L 699.072913 223.880762 
L 699.985801 225.026644 
L 700.898689 226.676754 
L 701.811577 228.076547 
L 702.724464 228.536686 
L 703.637352 227.675079 
L 704.55024 225.554367 
L 706.376015 220.076266 
L 707.288903 218.537212 
L 708.201791 218.582624 
L 709.114679 220.000932 
L 710.027566 222.004403 
L 710.940454 223.602523 
L 711.853342 223.982086 
L 712.76623 222.770226 
L 713.679117 220.189095 
L 714.592005 217.042123 
L 715.504893 214.375741 
L 716.417781 212.800275 
L 717.330668 211.740812 
L 718.243556 209.000223 
L 719.156444 200.915785 
L 720.069332 183.366719 
L 720.982219 153.88773 
L 722.807995 73.463606 
L 723.720883 43.41425 
L 724.63377 35.538525 
L 725.546658 53.096326 
L 726.459546 89.323242 
L 727.372433 131.462446 
L 728.285321 167.650635 
L 729.198209 191.693762 
L 730.111097 203.557496 
L 731.023984 206.979723 
L 732.84976 206.281916 
L 733.762648 207.66285 
L 735.588423 213.727116 
L 736.501311 215.211732 
L 737.414199 213.930264 
L 738.327086 209.781494 
L 740.152862 198.155821 
L 741.06575 195.066719 
L 741.978637 196.135518 
L 742.891525 201.282725 
L 744.717301 216.385466 
L 745.630188 222.111075 
L 746.543076 225.223633 
L 747.455964 226.007228 
L 748.368852 225.398228 
L 749.281739 224.522887 
L 750.194627 224.278379 
L 751.107515 225.018519 
L 752.93329 227.834103 
L 753.846178 228.278787 
L 754.759066 227.178085 
L 755.671954 224.493207 
L 757.497729 217.700049 
L 758.410617 216.182577 
L 759.323505 217.06086 
L 760.236392 220.031267 
L 762.062168 227.708836 
L 762.975056 230.337216 
L 763.887943 231.683881 
L 764.800831 232.030538 
L 766.626607 231.671134 
L 767.539494 231.733578 
L 768.452382 232.118362 
L 770.278158 233.175339 
L 771.191045 233.378247 
L 772.103933 233.17841 
L 773.016821 232.618613 
L 774.842596 231.260423 
L 775.755484 230.973327 
L 776.668372 231.122706 
L 777.581259 231.628897 
L 779.407035 232.956565 
L 780.319923 233.46276 
L 781.23281 233.780136 
L 783.058586 233.990378 
L 784.884361 234.114812 
L 787.623025 234.419964 
L 788.535912 234.345831 
L 790.361688 233.80647 
L 791.274576 233.484934 
L 792.187463 233.286455 
L 793.100351 233.296506 
L 794.926127 233.834785 
L 796.751902 234.333478 
L 798.577678 234.386043 
L 800.403453 234.406582 
L 805.88078 234.932845 
L 810.445218 234.751347 
L 816.835433 235.074901 
L 819.574096 234.918503 
L 821.399871 234.595989 
L 824.138534 233.920202 
L 825.051422 233.875494 
L 825.96431 233.991096 
L 829.615861 234.951325 
L 831.441636 235.119647 
L 832.354524 235.144338 
L 832.354524 235.144338 
" clip-path="url(#p365710dcfa)" style="fill: none; stroke: #ff0000; stroke-width: 1.5; stroke-linecap: square"/>
   </g>
   <g id="patch_43">
    <path d="M 641.60663 235.1575 
L 641.60663 25.3575 
" style="fill: none; stroke: #000000; stroke-width: 0.8; stroke-linejoin: miter; stroke-linecap: square"/>
   </g>
   <g id="patch_44">
    <path d="M 841.437757 235.1575 
L 841.437757 25.3575 
" style="fill: none; stroke: #000000; stroke-width: 0.8; stroke-linejoin: miter; stroke-linecap: square"/>
   </g>
   <g id="patch_45">
    <path d="M 641.60663 235.1575 
L 841.437757 235.1575 
" style="fill: none; stroke: #000000; stroke-width: 0.8; stroke-linejoin: miter; stroke-linecap: square"/>
   </g>
   <g id="patch_46">
    <path d="M 641.60663 25.3575 
L 841.437757 25.3575 
" style="fill: none; stroke: #000000; stroke-width: 0.8; stroke-linejoin: miter; stroke-linecap: square"/>
   </g>
   <g id="text_37">
    <!-- Distribution of hours-per-week -->
    <g transform="translate(619.992194 19.3575)scale(0.16 -0.16)">
     <use xlink:href="#DejaVuSans-44"/>
     <use xlink:href="#DejaVuSans-69" x="77.001953"/>
     <use xlink:href="#DejaVuSans-73" x="104.785156"/>
     <use xlink:href="#DejaVuSans-74" x="156.884766"/>
     <use xlink:href="#DejaVuSans-72" x="196.09375"/>
     <use xlink:href="#DejaVuSans-69" x="237.207031"/>
     <use xlink:href="#DejaVuSans-62" x="264.990234"/>
     <use xlink:href="#DejaVuSans-75" x="328.466797"/>
     <use xlink:href="#DejaVuSans-74" x="391.845703"/>
     <use xlink:href="#DejaVuSans-69" x="431.054688"/>
     <use xlink:href="#DejaVuSans-6f" x="458.837891"/>
     <use xlink:href="#DejaVuSans-6e" x="520.019531"/>
     <use xlink:href="#DejaVuSans-20" x="583.398438"/>
     <use xlink:href="#DejaVuSans-6f" x="615.185547"/>
     <use xlink:href="#DejaVuSans-66" x="676.367188"/>
     <use xlink:href="#DejaVuSans-20" x="711.572266"/>
     <use xlink:href="#DejaVuSans-68" x="743.359375"/>
     <use xlink:href="#DejaVuSans-6f" x="806.738281"/>
     <use xlink:href="#DejaVuSans-75" x="867.919922"/>
     <use xlink:href="#DejaVuSans-72" x="931.298828"/>
     <use xlink:href="#DejaVuSans-73" x="972.412109"/>
     <use xlink:href="#DejaVuSans-2d" x="1024.511719"/>
     <use xlink:href="#DejaVuSans-70" x="1060.595703"/>
     <use xlink:href="#DejaVuSans-65" x="1124.072266"/>
     <use xlink:href="#DejaVuSans-72" x="1185.595703"/>
     <use xlink:href="#DejaVuSans-2d" x="1220.333984"/>
     <use xlink:href="#DejaVuSans-77" x="1256.417969"/>
     <use xlink:href="#DejaVuSans-65" x="1338.205078"/>
     <use xlink:href="#DejaVuSans-65" x="1399.728516"/>
     <use xlink:href="#DejaVuSans-6b" x="1461.251953"/>
    </g>
   </g>
  </g>
  <g id="axes_4">
   <g id="patch_47">
    <path d="M 925.527757 235.1575 
L 1125.358885 235.1575 
L 1125.358885 25.3575 
L 925.527757 25.3575 
z
" style="fill: #ffffff"/>
   </g>
   <g id="patch_48">
    <path d="M 939.068165 235.1575 
L 956.343197 235.1575 
L 956.343197 189.413762 
L 939.068165 189.413762 
z
" clip-path="url(#pc1eff16dfd)" style="fill: #0000ff; fill-opacity: 0.6; stroke: #000000; stroke-linejoin: miter"/>
   </g>
   <g id="patch_49">
    <path d="M 956.343197 235.1575 
L 973.618228 235.1575 
L 973.618228 234.435503 
L 956.343197 234.435503 
z
" clip-path="url(#pc1eff16dfd)" style="fill: #0000ff; fill-opacity: 0.6; stroke: #000000; stroke-linejoin: miter"/>
   </g>
   <g id="patch_50">
    <path d="M 973.618228 235.1575 
L 990.893259 235.1575 
L 990.893259 235.03477 
L 973.618228 235.03477 
z
" clip-path="url(#pc1eff16dfd)" style="fill: #0000ff; fill-opacity: 0.6; stroke: #000000; stroke-linejoin: miter"/>
   </g>
   <g id="patch_51">
    <path d="M 990.893259 235.1575 
L 1008.16829 235.1575 
L 1008.16829 235.151747 
L 990.893259 235.151747 
z
" clip-path="url(#pc1eff16dfd)" style="fill: #0000ff; fill-opacity: 0.6; stroke: #000000; stroke-linejoin: miter"/>
   </g>
   <g id="patch_52">
    <path d="M 1008.16829 235.1575 
L 1025.443321 235.1575 
L 1025.443321 235.154624 
L 1008.16829 235.154624 
z
" clip-path="url(#pc1eff16dfd)" style="fill: #0000ff; fill-opacity: 0.6; stroke: #000000; stroke-linejoin: miter"/>
   </g>
   <g id="patch_53">
    <path d="M 1025.443321 235.1575 
L 1042.718352 235.1575 
L 1042.718352 235.1575 
L 1025.443321 235.1575 
z
" clip-path="url(#pc1eff16dfd)" style="fill: #0000ff; fill-opacity: 0.6; stroke: #000000; stroke-linejoin: miter"/>
   </g>
   <g id="patch_54">
    <path d="M 1042.718352 235.1575 
L 1059.993383 235.1575 
L 1059.993383 235.1575 
L 1042.718352 235.1575 
z
" clip-path="url(#pc1eff16dfd)" style="fill: #0000ff; fill-opacity: 0.6; stroke: #000000; stroke-linejoin: miter"/>
   </g>
   <g id="patch_55">
    <path d="M 1059.993383 235.1575 
L 1077.268414 235.1575 
L 1077.268414 235.1575 
L 1059.993383 235.1575 
z
" clip-path="url(#pc1eff16dfd)" style="fill: #0000ff; fill-opacity: 0.6; stroke: #000000; stroke-linejoin: miter"/>
   </g>
   <g id="patch_56">
    <path d="M 1077.268414 235.1575 
L 1094.543445 235.1575 
L 1094.543445 235.1575 
L 1077.268414 235.1575 
z
" clip-path="url(#pc1eff16dfd)" style="fill: #0000ff; fill-opacity: 0.6; stroke: #000000; stroke-linejoin: miter"/>
   </g>
   <g id="patch_57">
    <path d="M 1094.543445 235.1575 
L 1111.818476 235.1575 
L 1111.818476 234.923546 
L 1094.543445 234.923546 
z
" clip-path="url(#pc1eff16dfd)" style="fill: #0000ff; fill-opacity: 0.6; stroke: #000000; stroke-linejoin: miter"/>
   </g>
   <g id="matplotlib.axis_7">
    <g id="xtick_11">
     <g id="line2d_35">
      <g>
       <use xlink:href="#m1aef86d10a" x="939.068165" y="235.1575" style="stroke: #000000; stroke-width: 0.8"/>
      </g>
     </g>
     <g id="text_38">
      <!-- 0 -->
      <g transform="translate(934.614415 252.795313)scale(0.14 -0.14)">
       <use xlink:href="#DejaVuSans-30"/>
      </g>
     </g>
    </g>
    <g id="xtick_12">
     <g id="line2d_36">
      <g>
       <use xlink:href="#m1aef86d10a" x="1025.444185" y="235.1575" style="stroke: #000000; stroke-width: 0.8"/>
      </g>
     </g>
     <g id="text_39">
      <!-- 50000 -->
      <g transform="translate(1003.175435 252.795313)scale(0.14 -0.14)">
       <use xlink:href="#DejaVuSans-35"/>
       <use xlink:href="#DejaVuSans-30" x="63.623047"/>
       <use xlink:href="#DejaVuSans-30" x="127.246094"/>
       <use xlink:href="#DejaVuSans-30" x="190.869141"/>
       <use xlink:href="#DejaVuSans-30" x="254.492188"/>
      </g>
     </g>
    </g>
    <g id="xtick_13">
     <g id="line2d_37">
      <g>
       <use xlink:href="#m1aef86d10a" x="1111.820204" y="235.1575" style="stroke: #000000; stroke-width: 0.8"/>
      </g>
     </g>
     <g id="text_40">
      <!-- 100000 -->
      <g transform="translate(1085.097704 252.795313)scale(0.14 -0.14)">
       <use xlink:href="#DejaVuSans-31"/>
       <use xlink:href="#DejaVuSans-30" x="63.623047"/>
       <use xlink:href="#DejaVuSans-30" x="127.246094"/>
       <use xlink:href="#DejaVuSans-30" x="190.869141"/>
       <use xlink:href="#DejaVuSans-30" x="254.492188"/>
       <use xlink:href="#DejaVuSans-30" x="318.115234"/>
      </g>
     </g>
    </g>
    <g id="text_41">
     <!-- capital-gain -->
     <g transform="translate(978.419571 271.864375)scale(0.16 -0.16)">
      <defs>
       <path id="DejaVuSans-6c" d="M 603 4863 
L 1178 4863 
L 1178 0 
L 603 0 
L 603 4863 
z
" transform="scale(0.015625)"/>
      </defs>
      <use xlink:href="#DejaVuSans-63"/>
      <use xlink:href="#DejaVuSans-61" x="54.980469"/>
      <use xlink:href="#DejaVuSans-70" x="116.259766"/>
      <use xlink:href="#DejaVuSans-69" x="179.736328"/>
      <use xlink:href="#DejaVuSans-74" x="207.519531"/>
      <use xlink:href="#DejaVuSans-61" x="246.728516"/>
      <use xlink:href="#DejaVuSans-6c" x="308.007812"/>
      <use xlink:href="#DejaVuSans-2d" x="335.791016"/>
      <use xlink:href="#DejaVuSans-67" x="371.875"/>
      <use xlink:href="#DejaVuSans-61" x="435.351562"/>
      <use xlink:href="#DejaVuSans-69" x="496.630859"/>
      <use xlink:href="#DejaVuSans-6e" x="524.414062"/>
     </g>
    </g>
   </g>
   <g id="matplotlib.axis_8">
    <g id="ytick_19">
     <g id="line2d_38">
      <g>
       <use xlink:href="#m45a8881557" x="925.527757" y="235.1575" style="stroke: #000000; stroke-width: 0.8"/>
      </g>
     </g>
     <g id="text_42">
      <!-- 0.0000 -->
      <g transform="translate(869.540882 240.476406)scale(0.14 -0.14)">
       <use xlink:href="#DejaVuSans-30"/>
       <use xlink:href="#DejaVuSans-2e" x="63.623047"/>
       <use xlink:href="#DejaVuSans-30" x="95.410156"/>
       <use xlink:href="#DejaVuSans-30" x="159.033203"/>
       <use xlink:href="#DejaVuSans-30" x="222.65625"/>
       <use xlink:href="#DejaVuSans-30" x="286.279297"/>
      </g>
     </g>
    </g>
    <g id="ytick_20">
     <g id="line2d_39">
      <g>
       <use xlink:href="#m45a8881557" x="925.527757" y="188.32692" style="stroke: #000000; stroke-width: 0.8"/>
      </g>
     </g>
     <g id="text_43">
      <!-- 0.0001 -->
      <g transform="translate(869.540882 193.645826)scale(0.14 -0.14)">
       <use xlink:href="#DejaVuSans-30"/>
       <use xlink:href="#DejaVuSans-2e" x="63.623047"/>
       <use xlink:href="#DejaVuSans-30" x="95.410156"/>
       <use xlink:href="#DejaVuSans-30" x="159.033203"/>
       <use xlink:href="#DejaVuSans-30" x="222.65625"/>
       <use xlink:href="#DejaVuSans-31" x="286.279297"/>
      </g>
     </g>
    </g>
    <g id="ytick_21">
     <g id="line2d_40">
      <g>
       <use xlink:href="#m45a8881557" x="925.527757" y="141.49634" style="stroke: #000000; stroke-width: 0.8"/>
      </g>
     </g>
     <g id="text_44">
      <!-- 0.0002 -->
      <g transform="translate(869.540882 146.815246)scale(0.14 -0.14)">
       <use xlink:href="#DejaVuSans-30"/>
       <use xlink:href="#DejaVuSans-2e" x="63.623047"/>
       <use xlink:href="#DejaVuSans-30" x="95.410156"/>
       <use xlink:href="#DejaVuSans-30" x="159.033203"/>
       <use xlink:href="#DejaVuSans-30" x="222.65625"/>
       <use xlink:href="#DejaVuSans-32" x="286.279297"/>
      </g>
     </g>
    </g>
    <g id="ytick_22">
     <g id="line2d_41">
      <g>
       <use xlink:href="#m45a8881557" x="925.527757" y="94.66576" style="stroke: #000000; stroke-width: 0.8"/>
      </g>
     </g>
     <g id="text_45">
      <!-- 0.0003 -->
      <g transform="translate(869.540882 99.984667)scale(0.14 -0.14)">
       <use xlink:href="#DejaVuSans-30"/>
       <use xlink:href="#DejaVuSans-2e" x="63.623047"/>
       <use xlink:href="#DejaVuSans-30" x="95.410156"/>
       <use xlink:href="#DejaVuSans-30" x="159.033203"/>
       <use xlink:href="#DejaVuSans-30" x="222.65625"/>
       <use xlink:href="#DejaVuSans-33" x="286.279297"/>
      </g>
     </g>
    </g>
    <g id="ytick_23">
     <g id="line2d_42">
      <g>
       <use xlink:href="#m45a8881557" x="925.527757" y="47.83518" style="stroke: #000000; stroke-width: 0.8"/>
      </g>
     </g>
     <g id="text_46">
      <!-- 0.0004 -->
      <g transform="translate(869.540882 53.154087)scale(0.14 -0.14)">
       <use xlink:href="#DejaVuSans-30"/>
       <use xlink:href="#DejaVuSans-2e" x="63.623047"/>
       <use xlink:href="#DejaVuSans-30" x="95.410156"/>
       <use xlink:href="#DejaVuSans-30" x="159.033203"/>
       <use xlink:href="#DejaVuSans-30" x="222.65625"/>
       <use xlink:href="#DejaVuSans-34" x="286.279297"/>
      </g>
     </g>
    </g>
    <g id="text_47">
     <!-- Density -->
     <g transform="translate(862.213382 160.67125)rotate(-90)scale(0.16 -0.16)">
      <use xlink:href="#DejaVuSans-44"/>
      <use xlink:href="#DejaVuSans-65" x="77.001953"/>
      <use xlink:href="#DejaVuSans-6e" x="138.525391"/>
      <use xlink:href="#DejaVuSans-73" x="201.904297"/>
      <use xlink:href="#DejaVuSans-69" x="254.003906"/>
      <use xlink:href="#DejaVuSans-74" x="281.787109"/>
      <use xlink:href="#DejaVuSans-79" x="320.996094"/>
     </g>
    </g>
   </g>
   <g id="line2d_43">
    <path d="M 939.068165 35.347976 
L 939.936258 66.203714 
L 940.80435 132.982334 
L 941.672442 190.064314 
L 942.540534 219.123585 
L 943.408626 228.542492 
L 944.276718 230.461944 
L 946.880994 231.392927 
L 948.617178 232.563786 
L 949.48527 232.791645 
L 950.353362 232.32295 
L 951.221454 231.517401 
L 952.089546 231.197821 
L 952.957638 231.784084 
L 954.693822 233.830033 
L 955.561914 234.348785 
L 957.298098 234.64116 
L 959.902374 234.988581 
L 960.770466 234.922396 
L 961.638558 234.655568 
L 962.50665 234.129846 
L 964.242834 232.694663 
L 965.110926 232.555033 
L 965.979018 233.118972 
L 966.84711 233.992189 
L 967.715202 234.673647 
L 968.583294 235.009205 
L 970.319478 235.128087 
L 974.659938 234.978583 
L 977.264214 235.140527 
L 981.604674 235.086389 
L 988.54941 234.992809 
L 991.153686 235.150769 
L 1008.515527 235.151693 
L 1027.613551 235.1575 
L 1108.346108 235.086803 
L 1109.2142 234.923978 
L 1111.818476 234.072273 
L 1111.818476 234.072273 
" clip-path="url(#pc1eff16dfd)" style="fill: none; stroke: #0000ff; stroke-width: 1.5; stroke-linecap: square"/>
   </g>
   <g id="line2d_44">
    <path d="M 934.61099 232.943006 
L 935.523878 223.572851 
L 936.436766 193.608513 
L 937.349654 132.98452 
L 938.262541 62.860013 
L 939.175429 35.822347 
L 940.088317 76.69652 
L 941.001205 148.030417 
L 941.914092 200.89872 
L 942.82698 223.709887 
L 943.739868 229.697027 
L 944.652756 230.652451 
L 946.478531 231.20377 
L 947.391419 231.696761 
L 948.304306 232.359492 
L 949.217194 232.791291 
L 950.130082 232.503407 
L 951.04297 231.67049 
L 951.955857 231.188556 
L 952.868745 231.688917 
L 954.694521 233.830629 
L 955.607408 234.365149 
L 957.433184 234.657721 
L 960.171847 234.985946 
L 961.084735 234.852265 
L 961.997623 234.471668 
L 964.736286 232.524801 
L 965.649174 232.837543 
L 967.474949 234.520456 
L 968.387837 234.959412 
L 969.300725 235.107694 
L 971.1265 235.099659 
L 973.865163 234.939035 
L 979.34249 235.147823 
L 989.384255 235.074933 
L 992.122918 235.156554 
L 1107.146774 235.149764 
L 1108.97255 234.984213 
L 1111.711213 234.075097 
L 1112.624101 234.220643 
L 1114.449876 234.93137 
L 1116.275652 235.145444 
L 1116.275652 235.145444 
" clip-path="url(#pc1eff16dfd)" style="fill: none; stroke: #ff0000; stroke-width: 1.5; stroke-linecap: square"/>
   </g>
   <g id="patch_58">
    <path d="M 925.527757 235.1575 
L 925.527757 25.3575 
" style="fill: none; stroke: #000000; stroke-width: 0.8; stroke-linejoin: miter; stroke-linecap: square"/>
   </g>
   <g id="patch_59">
    <path d="M 1125.358885 235.1575 
L 1125.358885 25.3575 
" style="fill: none; stroke: #000000; stroke-width: 0.8; stroke-linejoin: miter; stroke-linecap: square"/>
   </g>
   <g id="patch_60">
    <path d="M 925.527757 235.1575 
L 1125.358885 235.1575 
" style="fill: none; stroke: #000000; stroke-width: 0.8; stroke-linejoin: miter; stroke-linecap: square"/>
   </g>
   <g id="patch_61">
    <path d="M 925.527757 25.3575 
L 1125.358885 25.3575 
" style="fill: none; stroke: #000000; stroke-width: 0.8; stroke-linejoin: miter; stroke-linecap: square"/>
   </g>
   <g id="text_48">
    <!-- Distribution of capital-gain -->
    <g transform="translate(918.953321 19.3575)scale(0.16 -0.16)">
     <use xlink:href="#DejaVuSans-44"/>
     <use xlink:href="#DejaVuSans-69" x="77.001953"/>
     <use xlink:href="#DejaVuSans-73" x="104.785156"/>
     <use xlink:href="#DejaVuSans-74" x="156.884766"/>
     <use xlink:href="#DejaVuSans-72" x="196.09375"/>
     <use xlink:href="#DejaVuSans-69" x="237.207031"/>
     <use xlink:href="#DejaVuSans-62" x="264.990234"/>
     <use xlink:href="#DejaVuSans-75" x="328.466797"/>
     <use xlink:href="#DejaVuSans-74" x="391.845703"/>
     <use xlink:href="#DejaVuSans-69" x="431.054688"/>
     <use xlink:href="#DejaVuSans-6f" x="458.837891"/>
     <use xlink:href="#DejaVuSans-6e" x="520.019531"/>
     <use xlink:href="#DejaVuSans-20" x="583.398438"/>
     <use xlink:href="#DejaVuSans-6f" x="615.185547"/>
     <use xlink:href="#DejaVuSans-66" x="676.367188"/>
     <use xlink:href="#DejaVuSans-20" x="711.572266"/>
     <use xlink:href="#DejaVuSans-63" x="743.359375"/>
     <use xlink:href="#DejaVuSans-61" x="798.339844"/>
     <use xlink:href="#DejaVuSans-70" x="859.619141"/>
     <use xlink:href="#DejaVuSans-69" x="923.095703"/>
     <use xlink:href="#DejaVuSans-74" x="950.878906"/>
     <use xlink:href="#DejaVuSans-61" x="990.087891"/>
     <use xlink:href="#DejaVuSans-6c" x="1051.367188"/>
     <use xlink:href="#DejaVuSans-2d" x="1079.150391"/>
     <use xlink:href="#DejaVuSans-67" x="1115.234375"/>
     <use xlink:href="#DejaVuSans-61" x="1178.710938"/>
     <use xlink:href="#DejaVuSans-69" x="1239.990234"/>
     <use xlink:href="#DejaVuSans-6e" x="1267.773438"/>
    </g>
   </g>
  </g>
 </g>
 <defs>
  <clipPath id="pab86bedcca">
   <rect x="73.764375" y="25.3575" width="199.831127" height="209.8"/>
  </clipPath>
  <clipPath id="p390124b48d">
   <rect x="357.685502" y="25.3575" width="199.831127" height="209.8"/>
  </clipPath>
  <clipPath id="p365710dcfa">
   <rect x="641.60663" y="25.3575" width="199.831127" height="209.8"/>
  </clipPath>
  <clipPath id="pc1eff16dfd">
   <rect x="925.527757" y="25.3575" width="199.831127" height="209.8"/>
  </clipPath>
 </defs>
</svg>
