<?xml version="1.0" encoding="utf-8" standalone="no"?>
<!DOCTYPE svg PUBLIC "-//W3C//DTD SVG 1.1//EN"
  "http://www.w3.org/Graphics/SVG/1.1/DTD/svg11.dtd">
<svg xmlns:xlink="http://www.w3.org/1999/xlink" width="817.116875pt" height="364.2675pt" viewBox="0 0 817.116875 364.2675" xmlns="http://www.w3.org/2000/svg" version="1.1">
 <metadata>
  <rdf:RDF xmlns:dc="http://purl.org/dc/elements/1.1/" xmlns:cc="http://creativecommons.org/ns#" xmlns:rdf="http://www.w3.org/1999/02/22-rdf-syntax-ns#">
   <cc:Work>
    <dc:type rdf:resource="http://purl.org/dc/dcmitype/StillImage"/>
    <dc:date>2024-12-21T17:04:25.064305</dc:date>
    <dc:format>image/svg+xml</dc:format>
    <dc:creator>
     <cc:Agent>
      <dc:title>Matplotlib v3.9.2, https://matplotlib.org/</dc:title>
     </cc:Agent>
    </dc:creator>
   </cc:Work>
  </rdf:RDF>
 </metadata>
 <defs>
  <style type="text/css">*{stroke-linejoin: round; stroke-linecap: butt}</style>
 </defs>
 <g id="figure_1">
  <g id="patch_1">
   <path d="M 0 364.2675 
L 817.116875 364.2675 
L 817.116875 0 
L 0 0 
z
" style="fill: #ffffff"/>
  </g>
  <g id="axes_1">
   <g id="patch_2">
    <path d="M 45.716875 272.198125 
L 257.616875 272.198125 
L 257.616875 41.318125 
L 45.716875 41.318125 
z
" style="fill: #ffffff"/>
   </g>
   <g id="matplotlib.axis_1">
    <g id="xtick_1">
     <g id="line2d_1">
      <defs>
       <path id="m297d8eb086" d="M 0 0 
L 0 3.5 
" style="stroke: #000000; stroke-width: 0.8"/>
      </defs>
      <g>
       <use xlink:href="#m297d8eb086" x="75.592351" y="272.198125" style="stroke: #000000; stroke-width: 0.8"/>
      </g>
     </g>
     <g id="text_1">
      <!-- 4.0 -->
      <g transform="translate(67.640788 286.796562) scale(0.1 -0.1)">
       <defs>
        <path id="DejaVuSans-34" d="M 2419 4116 
L 825 1625 
L 2419 1625 
L 2419 4116 
z
M 2253 4666 
L 3047 4666 
L 3047 1625 
L 3713 1625 
L 3713 1100 
L 3047 1100 
L 3047 0 
L 2419 0 
L 2419 1100 
L 313 1100 
L 313 1709 
L 2253 4666 
z
" transform="scale(0.015625)"/>
        <path id="DejaVuSans-2e" d="M 684 794 
L 1344 794 
L 1344 0 
L 684 0 
L 684 794 
z
" transform="scale(0.015625)"/>
        <path id="DejaVuSans-30" d="M 2034 4250 
Q 1547 4250 1301 3770 
Q 1056 3291 1056 2328 
Q 1056 1369 1301 889 
Q 1547 409 2034 409 
Q 2525 409 2770 889 
Q 3016 1369 3016 2328 
Q 3016 3291 2770 3770 
Q 2525 4250 2034 4250 
z
M 2034 4750 
Q 2819 4750 3233 4129 
Q 3647 3509 3647 2328 
Q 3647 1150 3233 529 
Q 2819 -91 2034 -91 
Q 1250 -91 836 529 
Q 422 1150 422 2328 
Q 422 3509 836 4129 
Q 1250 4750 2034 4750 
z
" transform="scale(0.015625)"/>
       </defs>
       <use xlink:href="#DejaVuSans-34"/>
       <use xlink:href="#DejaVuSans-2e" x="63.623047"/>
       <use xlink:href="#DejaVuSans-30" x="95.410156"/>
      </g>
     </g>
    </g>
    <g id="xtick_2">
     <g id="line2d_2">
      <g>
       <use xlink:href="#m297d8eb086" x="105.933564" y="272.198125" style="stroke: #000000; stroke-width: 0.8"/>
      </g>
     </g>
     <g id="text_2">
      <!-- 4.5 -->
      <g transform="translate(97.982002 286.796562) scale(0.1 -0.1)">
       <defs>
        <path id="DejaVuSans-35" d="M 691 4666 
L 3169 4666 
L 3169 4134 
L 1269 4134 
L 1269 2991 
Q 1406 3038 1543 3061 
Q 1681 3084 1819 3084 
Q 2600 3084 3056 2656 
Q 3513 2228 3513 1497 
Q 3513 744 3044 326 
Q 2575 -91 1722 -91 
Q 1428 -91 1123 -41 
Q 819 9 494 109 
L 494 744 
Q 775 591 1075 516 
Q 1375 441 1709 441 
Q 2250 441 2565 725 
Q 2881 1009 2881 1497 
Q 2881 1984 2565 2268 
Q 2250 2553 1709 2553 
Q 1456 2553 1204 2497 
Q 953 2441 691 2322 
L 691 4666 
z
" transform="scale(0.015625)"/>
       </defs>
       <use xlink:href="#DejaVuSans-34"/>
       <use xlink:href="#DejaVuSans-2e" x="63.623047"/>
       <use xlink:href="#DejaVuSans-35" x="95.410156"/>
      </g>
     </g>
    </g>
    <g id="xtick_3">
     <g id="line2d_3">
      <g>
       <use xlink:href="#m297d8eb086" x="136.274777" y="272.198125" style="stroke: #000000; stroke-width: 0.8"/>
      </g>
     </g>
     <g id="text_3">
      <!-- 5.0 -->
      <g transform="translate(128.323215 286.796562) scale(0.1 -0.1)">
       <use xlink:href="#DejaVuSans-35"/>
       <use xlink:href="#DejaVuSans-2e" x="63.623047"/>
       <use xlink:href="#DejaVuSans-30" x="95.410156"/>
      </g>
     </g>
    </g>
    <g id="xtick_4">
     <g id="line2d_4">
      <g>
       <use xlink:href="#m297d8eb086" x="166.615991" y="272.198125" style="stroke: #000000; stroke-width: 0.8"/>
      </g>
     </g>
     <g id="text_4">
      <!-- 5.5 -->
      <g transform="translate(158.664428 286.796562) scale(0.1 -0.1)">
       <use xlink:href="#DejaVuSans-35"/>
       <use xlink:href="#DejaVuSans-2e" x="63.623047"/>
       <use xlink:href="#DejaVuSans-35" x="95.410156"/>
      </g>
     </g>
    </g>
    <g id="xtick_5">
     <g id="line2d_5">
      <g>
       <use xlink:href="#m297d8eb086" x="196.957204" y="272.198125" style="stroke: #000000; stroke-width: 0.8"/>
      </g>
     </g>
     <g id="text_5">
      <!-- 6.0 -->
      <g transform="translate(189.005642 286.796562) scale(0.1 -0.1)">
       <defs>
        <path id="DejaVuSans-36" d="M 2113 2584 
Q 1688 2584 1439 2293 
Q 1191 2003 1191 1497 
Q 1191 994 1439 701 
Q 1688 409 2113 409 
Q 2538 409 2786 701 
Q 3034 994 3034 1497 
Q 3034 2003 2786 2293 
Q 2538 2584 2113 2584 
z
M 3366 4563 
L 3366 3988 
Q 3128 4100 2886 4159 
Q 2644 4219 2406 4219 
Q 1781 4219 1451 3797 
Q 1122 3375 1075 2522 
Q 1259 2794 1537 2939 
Q 1816 3084 2150 3084 
Q 2853 3084 3261 2657 
Q 3669 2231 3669 1497 
Q 3669 778 3244 343 
Q 2819 -91 2113 -91 
Q 1303 -91 875 529 
Q 447 1150 447 2328 
Q 447 3434 972 4092 
Q 1497 4750 2381 4750 
Q 2619 4750 2861 4703 
Q 3103 4656 3366 4563 
z
" transform="scale(0.015625)"/>
       </defs>
       <use xlink:href="#DejaVuSans-36"/>
       <use xlink:href="#DejaVuSans-2e" x="63.623047"/>
       <use xlink:href="#DejaVuSans-30" x="95.410156"/>
      </g>
     </g>
    </g>
    <g id="xtick_6">
     <g id="line2d_6">
      <g>
       <use xlink:href="#m297d8eb086" x="227.298418" y="272.198125" style="stroke: #000000; stroke-width: 0.8"/>
      </g>
     </g>
     <g id="text_6">
      <!-- 6.5 -->
      <g transform="translate(219.346855 286.796562) scale(0.1 -0.1)">
       <use xlink:href="#DejaVuSans-36"/>
       <use xlink:href="#DejaVuSans-2e" x="63.623047"/>
       <use xlink:href="#DejaVuSans-35" x="95.410156"/>
      </g>
     </g>
    </g>
    <g id="text_7">
     <!-- age -->
     <g transform="translate(140.489062 301.994375) scale(0.12 -0.12)">
      <defs>
       <path id="DejaVuSans-61" d="M 2194 1759 
Q 1497 1759 1228 1600 
Q 959 1441 959 1056 
Q 959 750 1161 570 
Q 1363 391 1709 391 
Q 2188 391 2477 730 
Q 2766 1069 2766 1631 
L 2766 1759 
L 2194 1759 
z
M 3341 1997 
L 3341 0 
L 2766 0 
L 2766 531 
Q 2569 213 2275 61 
Q 1981 -91 1556 -91 
Q 1019 -91 701 211 
Q 384 513 384 1019 
Q 384 1609 779 1909 
Q 1175 2209 1959 2209 
L 2766 2209 
L 2766 2266 
Q 2766 2663 2505 2880 
Q 2244 3097 1772 3097 
Q 1472 3097 1187 3025 
Q 903 2953 641 2809 
L 641 3341 
Q 956 3463 1253 3523 
Q 1550 3584 1831 3584 
Q 2591 3584 2966 3190 
Q 3341 2797 3341 1997 
z
" transform="scale(0.015625)"/>
       <path id="DejaVuSans-67" d="M 2906 1791 
Q 2906 2416 2648 2759 
Q 2391 3103 1925 3103 
Q 1463 3103 1205 2759 
Q 947 2416 947 1791 
Q 947 1169 1205 825 
Q 1463 481 1925 481 
Q 2391 481 2648 825 
Q 2906 1169 2906 1791 
z
M 3481 434 
Q 3481 -459 3084 -895 
Q 2688 -1331 1869 -1331 
Q 1566 -1331 1297 -1286 
Q 1028 -1241 775 -1147 
L 775 -588 
Q 1028 -725 1275 -790 
Q 1522 -856 1778 -856 
Q 2344 -856 2625 -561 
Q 2906 -266 2906 331 
L 2906 616 
Q 2728 306 2450 153 
Q 2172 0 1784 0 
Q 1141 0 747 490 
Q 353 981 353 1791 
Q 353 2603 747 3093 
Q 1141 3584 1784 3584 
Q 2172 3584 2450 3431 
Q 2728 3278 2906 2969 
L 2906 3500 
L 3481 3500 
L 3481 434 
z
" transform="scale(0.015625)"/>
       <path id="DejaVuSans-65" d="M 3597 1894 
L 3597 1613 
L 953 1613 
Q 991 1019 1311 708 
Q 1631 397 2203 397 
Q 2534 397 2845 478 
Q 3156 559 3463 722 
L 3463 178 
Q 3153 47 2828 -22 
Q 2503 -91 2169 -91 
Q 1331 -91 842 396 
Q 353 884 353 1716 
Q 353 2575 817 3079 
Q 1281 3584 2069 3584 
Q 2775 3584 3186 3129 
Q 3597 2675 3597 1894 
z
M 3022 2063 
Q 3016 2534 2758 2815 
Q 2500 3097 2075 3097 
Q 1594 3097 1305 2825 
Q 1016 2553 972 2059 
L 3022 2063 
z
" transform="scale(0.015625)"/>
      </defs>
      <use xlink:href="#DejaVuSans-61"/>
      <use xlink:href="#DejaVuSans-67" x="61.279297"/>
      <use xlink:href="#DejaVuSans-65" x="124.755859"/>
     </g>
    </g>
   </g>
   <g id="matplotlib.axis_2">
    <g id="ytick_1">
     <g id="line2d_7">
      <defs>
       <path id="m602dfd076f" d="M 0 0 
L -3.5 0 
" style="stroke: #000000; stroke-width: 0.8"/>
      </defs>
      <g>
       <use xlink:href="#m602dfd076f" x="45.716875" y="272.198125" style="stroke: #000000; stroke-width: 0.8"/>
      </g>
     </g>
     <g id="text_8">
      <!-- 0.0 -->
      <g transform="translate(22.81375 275.997344) scale(0.1 -0.1)">
       <use xlink:href="#DejaVuSans-30"/>
       <use xlink:href="#DejaVuSans-2e" x="63.623047"/>
       <use xlink:href="#DejaVuSans-30" x="95.410156"/>
      </g>
     </g>
    </g>
    <g id="ytick_2">
     <g id="line2d_8">
      <g>
       <use xlink:href="#m602dfd076f" x="45.716875" y="229.802832" style="stroke: #000000; stroke-width: 0.8"/>
      </g>
     </g>
     <g id="text_9">
      <!-- 0.1 -->
      <g transform="translate(22.81375 233.602051) scale(0.1 -0.1)">
       <defs>
        <path id="DejaVuSans-31" d="M 794 531 
L 1825 531 
L 1825 4091 
L 703 3866 
L 703 4441 
L 1819 4666 
L 2450 4666 
L 2450 531 
L 3481 531 
L 3481 0 
L 794 0 
L 794 531 
z
" transform="scale(0.015625)"/>
       </defs>
       <use xlink:href="#DejaVuSans-30"/>
       <use xlink:href="#DejaVuSans-2e" x="63.623047"/>
       <use xlink:href="#DejaVuSans-31" x="95.410156"/>
      </g>
     </g>
    </g>
    <g id="ytick_3">
     <g id="line2d_9">
      <g>
       <use xlink:href="#m602dfd076f" x="45.716875" y="187.40754" style="stroke: #000000; stroke-width: 0.8"/>
      </g>
     </g>
     <g id="text_10">
      <!-- 0.2 -->
      <g transform="translate(22.81375 191.206759) scale(0.1 -0.1)">
       <defs>
        <path id="DejaVuSans-32" d="M 1228 531 
L 3431 531 
L 3431 0 
L 469 0 
L 469 531 
Q 828 903 1448 1529 
Q 2069 2156 2228 2338 
Q 2531 2678 2651 2914 
Q 2772 3150 2772 3378 
Q 2772 3750 2511 3984 
Q 2250 4219 1831 4219 
Q 1534 4219 1204 4116 
Q 875 4013 500 3803 
L 500 4441 
Q 881 4594 1212 4672 
Q 1544 4750 1819 4750 
Q 2544 4750 2975 4387 
Q 3406 4025 3406 3419 
Q 3406 3131 3298 2873 
Q 3191 2616 2906 2266 
Q 2828 2175 2409 1742 
Q 1991 1309 1228 531 
z
" transform="scale(0.015625)"/>
       </defs>
       <use xlink:href="#DejaVuSans-30"/>
       <use xlink:href="#DejaVuSans-2e" x="63.623047"/>
       <use xlink:href="#DejaVuSans-32" x="95.410156"/>
      </g>
     </g>
    </g>
    <g id="ytick_4">
     <g id="line2d_10">
      <g>
       <use xlink:href="#m602dfd076f" x="45.716875" y="145.012247" style="stroke: #000000; stroke-width: 0.8"/>
      </g>
     </g>
     <g id="text_11">
      <!-- 0.3 -->
      <g transform="translate(22.81375 148.811466) scale(0.1 -0.1)">
       <defs>
        <path id="DejaVuSans-33" d="M 2597 2516 
Q 3050 2419 3304 2112 
Q 3559 1806 3559 1356 
Q 3559 666 3084 287 
Q 2609 -91 1734 -91 
Q 1441 -91 1130 -33 
Q 819 25 488 141 
L 488 750 
Q 750 597 1062 519 
Q 1375 441 1716 441 
Q 2309 441 2620 675 
Q 2931 909 2931 1356 
Q 2931 1769 2642 2001 
Q 2353 2234 1838 2234 
L 1294 2234 
L 1294 2753 
L 1863 2753 
Q 2328 2753 2575 2939 
Q 2822 3125 2822 3475 
Q 2822 3834 2567 4026 
Q 2313 4219 1838 4219 
Q 1578 4219 1281 4162 
Q 984 4106 628 3988 
L 628 4550 
Q 988 4650 1302 4700 
Q 1616 4750 1894 4750 
Q 2613 4750 3031 4423 
Q 3450 4097 3450 3541 
Q 3450 3153 3228 2886 
Q 3006 2619 2597 2516 
z
" transform="scale(0.015625)"/>
       </defs>
       <use xlink:href="#DejaVuSans-30"/>
       <use xlink:href="#DejaVuSans-2e" x="63.623047"/>
       <use xlink:href="#DejaVuSans-33" x="95.410156"/>
      </g>
     </g>
    </g>
    <g id="ytick_5">
     <g id="line2d_11">
      <g>
       <use xlink:href="#m602dfd076f" x="45.716875" y="102.616955" style="stroke: #000000; stroke-width: 0.8"/>
      </g>
     </g>
     <g id="text_12">
      <!-- 0.4 -->
      <g transform="translate(22.81375 106.416174) scale(0.1 -0.1)">
       <use xlink:href="#DejaVuSans-30"/>
       <use xlink:href="#DejaVuSans-2e" x="63.623047"/>
       <use xlink:href="#DejaVuSans-34" x="95.410156"/>
      </g>
     </g>
    </g>
    <g id="ytick_6">
     <g id="line2d_12">
      <g>
       <use xlink:href="#m602dfd076f" x="45.716875" y="60.221662" style="stroke: #000000; stroke-width: 0.8"/>
      </g>
     </g>
     <g id="text_13">
      <!-- 0.5 -->
      <g transform="translate(22.81375 64.020881) scale(0.1 -0.1)">
       <use xlink:href="#DejaVuSans-30"/>
       <use xlink:href="#DejaVuSans-2e" x="63.623047"/>
       <use xlink:href="#DejaVuSans-35" x="95.410156"/>
      </g>
     </g>
    </g>
    <g id="text_14">
     <!-- Density -->
     <g transform="translate(16.318125 179.568437) rotate(-90) scale(0.12 -0.12)">
      <defs>
       <path id="DejaVuSans-44" d="M 1259 4147 
L 1259 519 
L 2022 519 
Q 2988 519 3436 956 
Q 3884 1394 3884 2338 
Q 3884 3275 3436 3711 
Q 2988 4147 2022 4147 
L 1259 4147 
z
M 628 4666 
L 1925 4666 
Q 3281 4666 3915 4102 
Q 4550 3538 4550 2338 
Q 4550 1131 3912 565 
Q 3275 0 1925 0 
L 628 0 
L 628 4666 
z
" transform="scale(0.015625)"/>
       <path id="DejaVuSans-6e" d="M 3513 2113 
L 3513 0 
L 2938 0 
L 2938 2094 
Q 2938 2591 2744 2837 
Q 2550 3084 2163 3084 
Q 1697 3084 1428 2787 
Q 1159 2491 1159 1978 
L 1159 0 
L 581 0 
L 581 3500 
L 1159 3500 
L 1159 2956 
Q 1366 3272 1645 3428 
Q 1925 3584 2291 3584 
Q 2894 3584 3203 3211 
Q 3513 2838 3513 2113 
z
" transform="scale(0.015625)"/>
       <path id="DejaVuSans-73" d="M 2834 3397 
L 2834 2853 
Q 2591 2978 2328 3040 
Q 2066 3103 1784 3103 
Q 1356 3103 1142 2972 
Q 928 2841 928 2578 
Q 928 2378 1081 2264 
Q 1234 2150 1697 2047 
L 1894 2003 
Q 2506 1872 2764 1633 
Q 3022 1394 3022 966 
Q 3022 478 2636 193 
Q 2250 -91 1575 -91 
Q 1294 -91 989 -36 
Q 684 19 347 128 
L 347 722 
Q 666 556 975 473 
Q 1284 391 1588 391 
Q 1994 391 2212 530 
Q 2431 669 2431 922 
Q 2431 1156 2273 1281 
Q 2116 1406 1581 1522 
L 1381 1569 
Q 847 1681 609 1914 
Q 372 2147 372 2553 
Q 372 3047 722 3315 
Q 1072 3584 1716 3584 
Q 2034 3584 2315 3537 
Q 2597 3491 2834 3397 
z
" transform="scale(0.015625)"/>
       <path id="DejaVuSans-69" d="M 603 3500 
L 1178 3500 
L 1178 0 
L 603 0 
L 603 3500 
z
M 603 4863 
L 1178 4863 
L 1178 4134 
L 603 4134 
L 603 4863 
z
" transform="scale(0.015625)"/>
       <path id="DejaVuSans-74" d="M 1172 4494 
L 1172 3500 
L 2356 3500 
L 2356 3053 
L 1172 3053 
L 1172 1153 
Q 1172 725 1289 603 
Q 1406 481 1766 481 
L 2356 481 
L 2356 0 
L 1766 0 
Q 1100 0 847 248 
Q 594 497 594 1153 
L 594 3053 
L 172 3053 
L 172 3500 
L 594 3500 
L 594 4494 
L 1172 4494 
z
" transform="scale(0.015625)"/>
       <path id="DejaVuSans-79" d="M 2059 -325 
Q 1816 -950 1584 -1140 
Q 1353 -1331 966 -1331 
L 506 -1331 
L 506 -850 
L 844 -850 
Q 1081 -850 1212 -737 
Q 1344 -625 1503 -206 
L 1606 56 
L 191 3500 
L 800 3500 
L 1894 763 
L 2988 3500 
L 3597 3500 
L 2059 -325 
z
" transform="scale(0.015625)"/>
      </defs>
      <use xlink:href="#DejaVuSans-44"/>
      <use xlink:href="#DejaVuSans-65" x="77.001953"/>
      <use xlink:href="#DejaVuSans-6e" x="138.525391"/>
      <use xlink:href="#DejaVuSans-73" x="201.904297"/>
      <use xlink:href="#DejaVuSans-69" x="254.003906"/>
      <use xlink:href="#DejaVuSans-74" x="281.787109"/>
      <use xlink:href="#DejaVuSans-79" x="320.996094"/>
     </g>
    </g>
   </g>
   <g id="line2d_13">
    <path d="M 55.348693 224.349024 
L 57.284737 212.694856 
L 59.220781 202.124403 
L 61.156825 192.731807 
L 63.092869 184.44171 
L 65.028912 177.211086 
L 66.964956 171.055054 
L 68.901 165.962921 
L 70.837044 161.798868 
L 72.773088 158.256808 
L 75.677154 153.126058 
L 77.613198 149.188267 
L 79.549241 144.601345 
L 83.421329 134.672174 
L 84.389351 132.48328 
L 85.357373 130.570189 
L 86.325395 128.979462 
L 87.293417 127.726049 
L 88.261439 126.791955 
L 89.229461 126.130255 
L 90.197483 125.673237 
L 94.06957 124.347034 
L 95.037592 123.80475 
L 96.005614 123.080856 
L 96.973636 122.146864 
L 97.941658 120.986556 
L 98.90968 119.597555 
L 100.845724 116.201862 
L 103.74979 110.185213 
L 106.653855 104.249023 
L 110.525943 97.140068 
L 113.430009 91.646199 
L 119.23814 80.382383 
L 124.07825 71.376464 
L 129.886382 60.203113 
L 131.822425 57.105081 
L 132.790447 55.818645 
L 133.758469 54.743411 
L 134.726491 53.894989 
L 135.694513 53.275946 
L 136.662535 52.874279 
L 137.630557 52.663817 
L 139.566601 52.655905 
L 143.438689 52.975434 
L 145.374732 52.782077 
L 148.278798 52.243028 
L 149.24682 52.165162 
L 150.214842 52.206307 
L 151.182864 52.384593 
L 153.118908 53.108189 
L 156.990996 54.878723 
L 159.895061 55.912239 
L 160.863083 56.466286 
L 161.831105 57.292594 
L 162.799127 58.482349 
L 163.767149 60.093689 
L 164.735171 62.137731 
L 165.703193 64.573456 
L 167.639237 70.239842 
L 170.543303 78.995338 
L 176.351434 95.147508 
L 178.287478 101.716557 
L 183.127588 119.401244 
L 185.063632 125.467975 
L 186.999675 130.654461 
L 192.807807 144.888949 
L 194.743851 150.703885 
L 196.679895 157.348222 
L 199.58396 168.521077 
L 204.42407 188.653912 
L 209.26418 208.833698 
L 211.200224 216.337962 
L 213.136267 223.154421 
L 215.072311 229.123582 
L 217.008355 234.261292 
L 218.944399 238.745772 
L 221.848465 244.738442 
L 224.752531 250.20741 
L 226.688574 253.541096 
L 228.624618 256.55089 
L 230.560662 259.214882 
L 232.496706 261.570069 
L 234.43275 263.669642 
L 236.368794 265.515015 
L 238.304838 267.026662 
L 240.240881 268.092079 
L 242.176925 268.666987 
L 244.112969 268.858296 
L 247.017035 268.980225 
L 247.985057 269.105911 
L 247.985057 269.105911 
" clip-path="url(#p03f71f1643)" style="fill: none; stroke: #1f77b4; stroke-width: 1.5; stroke-linecap: square"/>
   </g>
   <g id="patch_3">
    <path d="M 45.716875 272.198125 
L 45.716875 41.318125 
" style="fill: none; stroke: #000000; stroke-width: 0.8; stroke-linejoin: miter; stroke-linecap: square"/>
   </g>
   <g id="patch_4">
    <path d="M 257.616875 272.198125 
L 257.616875 41.318125 
" style="fill: none; stroke: #000000; stroke-width: 0.8; stroke-linejoin: miter; stroke-linecap: square"/>
   </g>
   <g id="patch_5">
    <path d="M 45.716875 272.198125 
L 257.616875 272.198125 
" style="fill: none; stroke: #000000; stroke-width: 0.8; stroke-linejoin: miter; stroke-linecap: square"/>
   </g>
   <g id="patch_6">
    <path d="M 45.716875 41.318125 
L 257.616875 41.318125 
" style="fill: none; stroke: #000000; stroke-width: 0.8; stroke-linejoin: miter; stroke-linecap: square"/>
   </g>
   <g id="text_15">
    <!-- KDE Plot: age (Scale: boxcox) -->
    <g transform="translate(63.26625 16.318125) scale(0.12 -0.12)">
     <defs>
      <path id="DejaVuSans-4b" d="M 628 4666 
L 1259 4666 
L 1259 2694 
L 3353 4666 
L 4166 4666 
L 1850 2491 
L 4331 0 
L 3500 0 
L 1259 2247 
L 1259 0 
L 628 0 
L 628 4666 
z
" transform="scale(0.015625)"/>
      <path id="DejaVuSans-45" d="M 628 4666 
L 3578 4666 
L 3578 4134 
L 1259 4134 
L 1259 2753 
L 3481 2753 
L 3481 2222 
L 1259 2222 
L 1259 531 
L 3634 531 
L 3634 0 
L 628 0 
L 628 4666 
z
" transform="scale(0.015625)"/>
      <path id="DejaVuSans-20" transform="scale(0.015625)"/>
      <path id="DejaVuSans-50" d="M 1259 4147 
L 1259 2394 
L 2053 2394 
Q 2494 2394 2734 2622 
Q 2975 2850 2975 3272 
Q 2975 3691 2734 3919 
Q 2494 4147 2053 4147 
L 1259 4147 
z
M 628 4666 
L 2053 4666 
Q 2838 4666 3239 4311 
Q 3641 3956 3641 3272 
Q 3641 2581 3239 2228 
Q 2838 1875 2053 1875 
L 1259 1875 
L 1259 0 
L 628 0 
L 628 4666 
z
" transform="scale(0.015625)"/>
      <path id="DejaVuSans-6c" d="M 603 4863 
L 1178 4863 
L 1178 0 
L 603 0 
L 603 4863 
z
" transform="scale(0.015625)"/>
      <path id="DejaVuSans-6f" d="M 1959 3097 
Q 1497 3097 1228 2736 
Q 959 2375 959 1747 
Q 959 1119 1226 758 
Q 1494 397 1959 397 
Q 2419 397 2687 759 
Q 2956 1122 2956 1747 
Q 2956 2369 2687 2733 
Q 2419 3097 1959 3097 
z
M 1959 3584 
Q 2709 3584 3137 3096 
Q 3566 2609 3566 1747 
Q 3566 888 3137 398 
Q 2709 -91 1959 -91 
Q 1206 -91 779 398 
Q 353 888 353 1747 
Q 353 2609 779 3096 
Q 1206 3584 1959 3584 
z
" transform="scale(0.015625)"/>
      <path id="DejaVuSans-3a" d="M 750 794 
L 1409 794 
L 1409 0 
L 750 0 
L 750 794 
z
M 750 3309 
L 1409 3309 
L 1409 2516 
L 750 2516 
L 750 3309 
z
" transform="scale(0.015625)"/>
      <path id="DejaVuSans-28" d="M 1984 4856 
Q 1566 4138 1362 3434 
Q 1159 2731 1159 2009 
Q 1159 1288 1364 580 
Q 1569 -128 1984 -844 
L 1484 -844 
Q 1016 -109 783 600 
Q 550 1309 550 2009 
Q 550 2706 781 3412 
Q 1013 4119 1484 4856 
L 1984 4856 
z
" transform="scale(0.015625)"/>
      <path id="DejaVuSans-53" d="M 3425 4513 
L 3425 3897 
Q 3066 4069 2747 4153 
Q 2428 4238 2131 4238 
Q 1616 4238 1336 4038 
Q 1056 3838 1056 3469 
Q 1056 3159 1242 3001 
Q 1428 2844 1947 2747 
L 2328 2669 
Q 3034 2534 3370 2195 
Q 3706 1856 3706 1288 
Q 3706 609 3251 259 
Q 2797 -91 1919 -91 
Q 1588 -91 1214 -16 
Q 841 59 441 206 
L 441 856 
Q 825 641 1194 531 
Q 1563 422 1919 422 
Q 2459 422 2753 634 
Q 3047 847 3047 1241 
Q 3047 1584 2836 1778 
Q 2625 1972 2144 2069 
L 1759 2144 
Q 1053 2284 737 2584 
Q 422 2884 422 3419 
Q 422 4038 858 4394 
Q 1294 4750 2059 4750 
Q 2388 4750 2728 4690 
Q 3069 4631 3425 4513 
z
" transform="scale(0.015625)"/>
      <path id="DejaVuSans-63" d="M 3122 3366 
L 3122 2828 
Q 2878 2963 2633 3030 
Q 2388 3097 2138 3097 
Q 1578 3097 1268 2742 
Q 959 2388 959 1747 
Q 959 1106 1268 751 
Q 1578 397 2138 397 
Q 2388 397 2633 464 
Q 2878 531 3122 666 
L 3122 134 
Q 2881 22 2623 -34 
Q 2366 -91 2075 -91 
Q 1284 -91 818 406 
Q 353 903 353 1747 
Q 353 2603 823 3093 
Q 1294 3584 2113 3584 
Q 2378 3584 2631 3529 
Q 2884 3475 3122 3366 
z
" transform="scale(0.015625)"/>
      <path id="DejaVuSans-62" d="M 3116 1747 
Q 3116 2381 2855 2742 
Q 2594 3103 2138 3103 
Q 1681 3103 1420 2742 
Q 1159 2381 1159 1747 
Q 1159 1113 1420 752 
Q 1681 391 2138 391 
Q 2594 391 2855 752 
Q 3116 1113 3116 1747 
z
M 1159 2969 
Q 1341 3281 1617 3432 
Q 1894 3584 2278 3584 
Q 2916 3584 3314 3078 
Q 3713 2572 3713 1747 
Q 3713 922 3314 415 
Q 2916 -91 2278 -91 
Q 1894 -91 1617 61 
Q 1341 213 1159 525 
L 1159 0 
L 581 0 
L 581 4863 
L 1159 4863 
L 1159 2969 
z
" transform="scale(0.015625)"/>
      <path id="DejaVuSans-78" d="M 3513 3500 
L 2247 1797 
L 3578 0 
L 2900 0 
L 1881 1375 
L 863 0 
L 184 0 
L 1544 1831 
L 300 3500 
L 978 3500 
L 1906 2253 
L 2834 3500 
L 3513 3500 
z
" transform="scale(0.015625)"/>
      <path id="DejaVuSans-29" d="M 513 4856 
L 1013 4856 
Q 1481 4119 1714 3412 
Q 1947 2706 1947 2009 
Q 1947 1309 1714 600 
Q 1481 -109 1013 -844 
L 513 -844 
Q 928 -128 1133 580 
Q 1338 1288 1338 2009 
Q 1338 2731 1133 3434 
Q 928 4138 513 4856 
z
" transform="scale(0.015625)"/>
     </defs>
     <use xlink:href="#DejaVuSans-4b"/>
     <use xlink:href="#DejaVuSans-44" x="65.576172"/>
     <use xlink:href="#DejaVuSans-45" x="142.578125"/>
     <use xlink:href="#DejaVuSans-20" x="205.761719"/>
     <use xlink:href="#DejaVuSans-50" x="237.548828"/>
     <use xlink:href="#DejaVuSans-6c" x="297.851562"/>
     <use xlink:href="#DejaVuSans-6f" x="325.634766"/>
     <use xlink:href="#DejaVuSans-74" x="386.816406"/>
     <use xlink:href="#DejaVuSans-3a" x="426.025391"/>
     <use xlink:href="#DejaVuSans-20" x="459.716797"/>
     <use xlink:href="#DejaVuSans-61" x="491.503906"/>
     <use xlink:href="#DejaVuSans-67" x="552.783203"/>
     <use xlink:href="#DejaVuSans-65" x="616.259766"/>
     <use xlink:href="#DejaVuSans-20" x="677.783203"/>
     <use xlink:href="#DejaVuSans-28" x="709.570312"/>
     <use xlink:href="#DejaVuSans-53" x="748.583984"/>
     <use xlink:href="#DejaVuSans-63" x="812.060547"/>
     <use xlink:href="#DejaVuSans-61" x="867.041016"/>
     <use xlink:href="#DejaVuSans-6c" x="928.320312"/>
     <use xlink:href="#DejaVuSans-65" x="956.103516"/>
     <use xlink:href="#DejaVuSans-3a" x="1017.626953"/>
     <use xlink:href="#DejaVuSans-20" x="1051.318359"/>
     <use xlink:href="#DejaVuSans-62" x="1083.105469"/>
     <use xlink:href="#DejaVuSans-6f" x="1146.582031"/>
     <use xlink:href="#DejaVuSans-78" x="1204.638672"/>
     <use xlink:href="#DejaVuSans-63" x="1262.068359"/>
     <use xlink:href="#DejaVuSans-6f" x="1317.048828"/>
     <use xlink:href="#DejaVuSans-78" x="1375.105469"/>
     <use xlink:href="#DejaVuSans-29" x="1434.285156"/>
    </g>
   </g>
  </g>
  <g id="axes_2">
   <g id="patch_7">
    <path d="M 321.866875 272.198125 
L 533.766875 272.198125 
L 533.766875 41.318125 
L 321.866875 41.318125 
z
" style="fill: #ffffff"/>
   </g>
   <g id="patch_8">
    <path d="M 331.498693 272.198125 
L 334.82001 272.198125 
L 334.82001 222.414259 
L 331.498693 222.414259 
z
" clip-path="url(#p6cc1948107)" style="fill: #1f77b4; fill-opacity: 0.75; stroke: #000000; stroke-width: 0.308685; stroke-linejoin: miter"/>
   </g>
   <g id="patch_9">
    <path d="M 334.82001 272.198125 
L 338.141326 272.198125 
L 338.141326 200.074272 
L 334.82001 200.074272 
z
" clip-path="url(#p6cc1948107)" style="fill: #1f77b4; fill-opacity: 0.75; stroke: #000000; stroke-width: 0.308685; stroke-linejoin: miter"/>
   </g>
   <g id="patch_10">
    <path d="M 338.141326 272.198125 
L 341.462643 272.198125 
L 341.462643 272.198125 
L 338.141326 272.198125 
z
" clip-path="url(#p6cc1948107)" style="fill: #1f77b4; fill-opacity: 0.75; stroke: #000000; stroke-width: 0.308685; stroke-linejoin: miter"/>
   </g>
   <g id="patch_11">
    <path d="M 341.462643 272.198125 
L 344.78396 272.198125 
L 344.78396 184.093233 
L 341.462643 184.093233 
z
" clip-path="url(#p6cc1948107)" style="fill: #1f77b4; fill-opacity: 0.75; stroke: #000000; stroke-width: 0.308685; stroke-linejoin: miter"/>
   </g>
   <g id="patch_12">
    <path d="M 344.78396 272.198125 
L 348.105276 272.198125 
L 348.105276 179.073011 
L 344.78396 179.073011 
z
" clip-path="url(#p6cc1948107)" style="fill: #1f77b4; fill-opacity: 0.75; stroke: #000000; stroke-width: 0.308685; stroke-linejoin: miter"/>
   </g>
   <g id="patch_13">
    <path d="M 348.105276 272.198125 
L 351.426593 272.198125 
L 351.426593 272.198125 
L 348.105276 272.198125 
z
" clip-path="url(#p6cc1948107)" style="fill: #1f77b4; fill-opacity: 0.75; stroke: #000000; stroke-width: 0.308685; stroke-linejoin: miter"/>
   </g>
   <g id="patch_14">
    <path d="M 351.426593 272.198125 
L 354.747909 272.198125 
L 354.747909 180.495407 
L 351.426593 180.495407 
z
" clip-path="url(#p6cc1948107)" style="fill: #1f77b4; fill-opacity: 0.75; stroke: #000000; stroke-width: 0.308685; stroke-linejoin: miter"/>
   </g>
   <g id="patch_15">
    <path d="M 354.747909 272.198125 
L 358.069226 272.198125 
L 358.069226 173.634437 
L 354.747909 173.634437 
z
" clip-path="url(#p6cc1948107)" style="fill: #1f77b4; fill-opacity: 0.75; stroke: #000000; stroke-width: 0.308685; stroke-linejoin: miter"/>
   </g>
   <g id="patch_16">
    <path d="M 358.069226 272.198125 
L 361.390543 272.198125 
L 361.390543 272.198125 
L 358.069226 272.198125 
z
" clip-path="url(#p6cc1948107)" style="fill: #1f77b4; fill-opacity: 0.75; stroke: #000000; stroke-width: 0.308685; stroke-linejoin: miter"/>
   </g>
   <g id="patch_17">
    <path d="M 361.390543 272.198125 
L 364.711859 272.198125 
L 364.711859 161.000212 
L 361.390543 161.000212 
z
" clip-path="url(#p6cc1948107)" style="fill: #1f77b4; fill-opacity: 0.75; stroke: #000000; stroke-width: 0.308685; stroke-linejoin: miter"/>
   </g>
   <g id="patch_18">
    <path d="M 364.711859 272.198125 
L 368.033176 272.198125 
L 368.033176 171.291667 
L 364.711859 171.291667 
z
" clip-path="url(#p6cc1948107)" style="fill: #1f77b4; fill-opacity: 0.75; stroke: #000000; stroke-width: 0.308685; stroke-linejoin: miter"/>
   </g>
   <g id="patch_19">
    <path d="M 368.033176 272.198125 
L 371.354493 272.198125 
L 371.354493 172.212041 
L 368.033176 172.212041 
z
" clip-path="url(#p6cc1948107)" style="fill: #1f77b4; fill-opacity: 0.75; stroke: #000000; stroke-width: 0.308685; stroke-linejoin: miter"/>
   </g>
   <g id="patch_20">
    <path d="M 371.354493 272.198125 
L 374.675809 272.198125 
L 374.675809 272.198125 
L 371.354493 272.198125 
z
" clip-path="url(#p6cc1948107)" style="fill: #1f77b4; fill-opacity: 0.75; stroke: #000000; stroke-width: 0.308685; stroke-linejoin: miter"/>
   </g>
   <g id="patch_21">
    <path d="M 374.675809 272.198125 
L 377.997126 272.198125 
L 377.997126 175.726196 
L 374.675809 175.726196 
z
" clip-path="url(#p6cc1948107)" style="fill: #1f77b4; fill-opacity: 0.75; stroke: #000000; stroke-width: 0.308685; stroke-linejoin: miter"/>
   </g>
   <g id="patch_22">
    <path d="M 377.997126 272.198125 
L 381.318442 272.198125 
L 381.318442 169.116238 
L 377.997126 169.116238 
z
" clip-path="url(#p6cc1948107)" style="fill: #1f77b4; fill-opacity: 0.75; stroke: #000000; stroke-width: 0.308685; stroke-linejoin: miter"/>
   </g>
   <g id="patch_23">
    <path d="M 381.318442 272.198125 
L 384.639759 272.198125 
L 384.639759 165.10006 
L 381.318442 165.10006 
z
" clip-path="url(#p6cc1948107)" style="fill: #1f77b4; fill-opacity: 0.75; stroke: #000000; stroke-width: 0.308685; stroke-linejoin: miter"/>
   </g>
   <g id="patch_24">
    <path d="M 384.639759 272.198125 
L 387.961076 272.198125 
L 387.961076 169.869271 
L 384.639759 169.869271 
z
" clip-path="url(#p6cc1948107)" style="fill: #1f77b4; fill-opacity: 0.75; stroke: #000000; stroke-width: 0.308685; stroke-linejoin: miter"/>
   </g>
   <g id="patch_25">
    <path d="M 387.961076 272.198125 
L 391.282392 272.198125 
L 391.282392 165.267401 
L 387.961076 165.267401 
z
" clip-path="url(#p6cc1948107)" style="fill: #1f77b4; fill-opacity: 0.75; stroke: #000000; stroke-width: 0.308685; stroke-linejoin: miter"/>
   </g>
   <g id="patch_26">
    <path d="M 391.282392 272.198125 
L 394.603709 272.198125 
L 394.603709 161.334894 
L 391.282392 161.334894 
z
" clip-path="url(#p6cc1948107)" style="fill: #1f77b4; fill-opacity: 0.75; stroke: #000000; stroke-width: 0.308685; stroke-linejoin: miter"/>
   </g>
   <g id="patch_27">
    <path d="M 394.603709 272.198125 
L 397.925025 272.198125 
L 397.925025 272.198125 
L 394.603709 272.198125 
z
" clip-path="url(#p6cc1948107)" style="fill: #1f77b4; fill-opacity: 0.75; stroke: #000000; stroke-width: 0.308685; stroke-linejoin: miter"/>
   </g>
   <g id="patch_28">
    <path d="M 397.925025 272.198125 
L 401.246342 272.198125 
L 401.246342 167.35916 
L 397.925025 167.35916 
z
" clip-path="url(#p6cc1948107)" style="fill: #1f77b4; fill-opacity: 0.75; stroke: #000000; stroke-width: 0.308685; stroke-linejoin: miter"/>
   </g>
   <g id="patch_29">
    <path d="M 401.246342 272.198125 
L 404.567659 272.198125 
L 404.567659 160.49819 
L 401.246342 160.49819 
z
" clip-path="url(#p6cc1948107)" style="fill: #1f77b4; fill-opacity: 0.75; stroke: #000000; stroke-width: 0.308685; stroke-linejoin: miter"/>
   </g>
   <g id="patch_30">
    <path d="M 404.567659 272.198125 
L 407.888975 272.198125 
L 407.888975 163.175642 
L 404.567659 163.175642 
z
" clip-path="url(#p6cc1948107)" style="fill: #1f77b4; fill-opacity: 0.75; stroke: #000000; stroke-width: 0.308685; stroke-linejoin: miter"/>
   </g>
   <g id="patch_31">
    <path d="M 407.888975 272.198125 
L 411.210292 272.198125 
L 411.210292 160.33085 
L 407.888975 160.33085 
z
" clip-path="url(#p6cc1948107)" style="fill: #1f77b4; fill-opacity: 0.75; stroke: #000000; stroke-width: 0.308685; stroke-linejoin: miter"/>
   </g>
   <g id="patch_32">
    <path d="M 411.210292 272.198125 
L 414.531609 272.198125 
L 414.531609 52.312411 
L 411.210292 52.312411 
z
" clip-path="url(#p6cc1948107)" style="fill: #1f77b4; fill-opacity: 0.75; stroke: #000000; stroke-width: 0.308685; stroke-linejoin: miter"/>
   </g>
   <g id="patch_33">
    <path d="M 414.531609 272.198125 
L 417.852925 272.198125 
L 417.852925 166.438786 
L 414.531609 166.438786 
z
" clip-path="url(#p6cc1948107)" style="fill: #1f77b4; fill-opacity: 0.75; stroke: #000000; stroke-width: 0.308685; stroke-linejoin: miter"/>
   </g>
   <g id="patch_34">
    <path d="M 417.852925 272.198125 
L 421.174242 272.198125 
L 421.174242 171.291667 
L 417.852925 171.291667 
z
" clip-path="url(#p6cc1948107)" style="fill: #1f77b4; fill-opacity: 0.75; stroke: #000000; stroke-width: 0.308685; stroke-linejoin: miter"/>
   </g>
   <g id="patch_35">
    <path d="M 421.174242 272.198125 
L 424.495558 272.198125 
L 424.495558 172.881404 
L 421.174242 172.881404 
z
" clip-path="url(#p6cc1948107)" style="fill: #1f77b4; fill-opacity: 0.75; stroke: #000000; stroke-width: 0.308685; stroke-linejoin: miter"/>
   </g>
   <g id="patch_36">
    <path d="M 424.495558 272.198125 
L 427.816875 272.198125 
L 427.816875 168.865227 
L 424.495558 168.865227 
z
" clip-path="url(#p6cc1948107)" style="fill: #1f77b4; fill-opacity: 0.75; stroke: #000000; stroke-width: 0.308685; stroke-linejoin: miter"/>
   </g>
   <g id="patch_37">
    <path d="M 427.816875 272.198125 
L 431.138192 272.198125 
L 431.138192 174.722152 
L 427.816875 174.722152 
z
" clip-path="url(#p6cc1948107)" style="fill: #1f77b4; fill-opacity: 0.75; stroke: #000000; stroke-width: 0.308685; stroke-linejoin: miter"/>
   </g>
   <g id="patch_38">
    <path d="M 431.138192 272.198125 
L 434.459508 272.198125 
L 434.459508 179.826044 
L 431.138192 179.826044 
z
" clip-path="url(#p6cc1948107)" style="fill: #1f77b4; fill-opacity: 0.75; stroke: #000000; stroke-width: 0.308685; stroke-linejoin: miter"/>
   </g>
   <g id="patch_39">
    <path d="M 434.459508 272.198125 
L 437.780825 272.198125 
L 437.780825 91.21913 
L 434.459508 91.21913 
z
" clip-path="url(#p6cc1948107)" style="fill: #1f77b4; fill-opacity: 0.75; stroke: #000000; stroke-width: 0.308685; stroke-linejoin: miter"/>
   </g>
   <g id="patch_40">
    <path d="M 437.780825 272.198125 
L 441.102141 272.198125 
L 441.102141 180.411737 
L 437.780825 180.411737 
z
" clip-path="url(#p6cc1948107)" style="fill: #1f77b4; fill-opacity: 0.75; stroke: #000000; stroke-width: 0.308685; stroke-linejoin: miter"/>
   </g>
   <g id="patch_41">
    <path d="M 441.102141 272.198125 
L 444.423458 272.198125 
L 444.423458 181.750462 
L 441.102141 181.750462 
z
" clip-path="url(#p6cc1948107)" style="fill: #1f77b4; fill-opacity: 0.75; stroke: #000000; stroke-width: 0.308685; stroke-linejoin: miter"/>
   </g>
   <g id="patch_42">
    <path d="M 444.423458 272.198125 
L 447.744775 272.198125 
L 447.744775 130.627871 
L 444.423458 130.627871 
z
" clip-path="url(#p6cc1948107)" style="fill: #1f77b4; fill-opacity: 0.75; stroke: #000000; stroke-width: 0.308685; stroke-linejoin: miter"/>
   </g>
   <g id="patch_43">
    <path d="M 447.744775 272.198125 
L 451.066091 272.198125 
L 451.066091 199.739591 
L 447.744775 199.739591 
z
" clip-path="url(#p6cc1948107)" style="fill: #1f77b4; fill-opacity: 0.75; stroke: #000000; stroke-width: 0.308685; stroke-linejoin: miter"/>
   </g>
   <g id="patch_44">
    <path d="M 451.066091 272.198125 
L 454.387408 272.198125 
L 454.387408 198.819217 
L 451.066091 198.819217 
z
" clip-path="url(#p6cc1948107)" style="fill: #1f77b4; fill-opacity: 0.75; stroke: #000000; stroke-width: 0.308685; stroke-linejoin: miter"/>
   </g>
   <g id="patch_45">
    <path d="M 454.387408 272.198125 
L 457.708725 272.198125 
L 457.708725 150.959769 
L 454.387408 150.959769 
z
" clip-path="url(#p6cc1948107)" style="fill: #1f77b4; fill-opacity: 0.75; stroke: #000000; stroke-width: 0.308685; stroke-linejoin: miter"/>
   </g>
   <g id="patch_46">
    <path d="M 457.708725 272.198125 
L 461.030041 272.198125 
L 461.030041 220.908192 
L 457.708725 220.908192 
z
" clip-path="url(#p6cc1948107)" style="fill: #1f77b4; fill-opacity: 0.75; stroke: #000000; stroke-width: 0.308685; stroke-linejoin: miter"/>
   </g>
   <g id="patch_47">
    <path d="M 461.030041 272.198125 
L 464.351358 272.198125 
L 464.351358 173.048745 
L 461.030041 173.048745 
z
" clip-path="url(#p6cc1948107)" style="fill: #1f77b4; fill-opacity: 0.75; stroke: #000000; stroke-width: 0.308685; stroke-linejoin: miter"/>
   </g>
   <g id="patch_48">
    <path d="M 464.351358 272.198125 
L 467.672674 272.198125 
L 467.672674 226.095755 
L 464.351358 226.095755 
z
" clip-path="url(#p6cc1948107)" style="fill: #1f77b4; fill-opacity: 0.75; stroke: #000000; stroke-width: 0.308685; stroke-linejoin: miter"/>
   </g>
   <g id="patch_49">
    <path d="M 467.672674 272.198125 
L 470.993991 272.198125 
L 470.993991 182.001474 
L 467.672674 182.001474 
z
" clip-path="url(#p6cc1948107)" style="fill: #1f77b4; fill-opacity: 0.75; stroke: #000000; stroke-width: 0.308685; stroke-linejoin: miter"/>
   </g>
   <g id="patch_50">
    <path d="M 470.993991 272.198125 
L 474.315308 272.198125 
L 474.315308 196.978469 
L 470.993991 196.978469 
z
" clip-path="url(#p6cc1948107)" style="fill: #1f77b4; fill-opacity: 0.75; stroke: #000000; stroke-width: 0.308685; stroke-linejoin: miter"/>
   </g>
   <g id="patch_51">
    <path d="M 474.315308 272.198125 
L 477.636624 272.198125 
L 477.636624 239.232002 
L 474.315308 239.232002 
z
" clip-path="url(#p6cc1948107)" style="fill: #1f77b4; fill-opacity: 0.75; stroke: #000000; stroke-width: 0.308685; stroke-linejoin: miter"/>
   </g>
   <g id="patch_52">
    <path d="M 477.636624 272.198125 
L 480.957941 272.198125 
L 480.957941 215.72063 
L 477.636624 215.72063 
z
" clip-path="url(#p6cc1948107)" style="fill: #1f77b4; fill-opacity: 0.75; stroke: #000000; stroke-width: 0.308685; stroke-linejoin: miter"/>
   </g>
   <g id="patch_53">
    <path d="M 480.957941 272.198125 
L 484.279257 272.198125 
L 484.279257 228.605866 
L 480.957941 228.605866 
z
" clip-path="url(#p6cc1948107)" style="fill: #1f77b4; fill-opacity: 0.75; stroke: #000000; stroke-width: 0.308685; stroke-linejoin: miter"/>
   </g>
   <g id="patch_54">
    <path d="M 484.279257 272.198125 
L 487.600574 272.198125 
L 487.600574 252.284579 
L 484.279257 252.284579 
z
" clip-path="url(#p6cc1948107)" style="fill: #1f77b4; fill-opacity: 0.75; stroke: #000000; stroke-width: 0.308685; stroke-linejoin: miter"/>
   </g>
   <g id="patch_55">
    <path d="M 487.600574 272.198125 
L 490.921891 272.198125 
L 490.921891 244.837916 
L 487.600574 244.837916 
z
" clip-path="url(#p6cc1948107)" style="fill: #1f77b4; fill-opacity: 0.75; stroke: #000000; stroke-width: 0.308685; stroke-linejoin: miter"/>
   </g>
   <g id="patch_56">
    <path d="M 490.921891 272.198125 
L 494.243207 272.198125 
L 494.243207 251.196864 
L 490.921891 251.196864 
z
" clip-path="url(#p6cc1948107)" style="fill: #1f77b4; fill-opacity: 0.75; stroke: #000000; stroke-width: 0.308685; stroke-linejoin: miter"/>
   </g>
   <g id="patch_57">
    <path d="M 494.243207 272.198125 
L 497.564524 272.198125 
L 497.564524 253.121282 
L 494.243207 253.121282 
z
" clip-path="url(#p6cc1948107)" style="fill: #1f77b4; fill-opacity: 0.75; stroke: #000000; stroke-width: 0.308685; stroke-linejoin: miter"/>
   </g>
   <g id="patch_58">
    <path d="M 497.564524 272.198125 
L 500.885841 272.198125 
L 500.885841 259.731241 
L 497.564524 259.731241 
z
" clip-path="url(#p6cc1948107)" style="fill: #1f77b4; fill-opacity: 0.75; stroke: #000000; stroke-width: 0.308685; stroke-linejoin: miter"/>
   </g>
   <g id="patch_59">
    <path d="M 500.885841 272.198125 
L 504.207157 272.198125 
L 504.207157 261.90667 
L 500.885841 261.90667 
z
" clip-path="url(#p6cc1948107)" style="fill: #1f77b4; fill-opacity: 0.75; stroke: #000000; stroke-width: 0.308685; stroke-linejoin: miter"/>
   </g>
   <g id="patch_60">
    <path d="M 504.207157 272.198125 
L 507.528474 272.198125 
L 507.528474 266.843222 
L 504.207157 266.843222 
z
" clip-path="url(#p6cc1948107)" style="fill: #1f77b4; fill-opacity: 0.75; stroke: #000000; stroke-width: 0.308685; stroke-linejoin: miter"/>
   </g>
   <g id="patch_61">
    <path d="M 507.528474 272.198125 
L 510.84979 272.198125 
L 510.84979 265.922848 
L 507.528474 265.922848 
z
" clip-path="url(#p6cc1948107)" style="fill: #1f77b4; fill-opacity: 0.75; stroke: #000000; stroke-width: 0.308685; stroke-linejoin: miter"/>
   </g>
   <g id="patch_62">
    <path d="M 510.84979 272.198125 
L 514.171107 272.198125 
L 514.171107 270.022696 
L 510.84979 270.022696 
z
" clip-path="url(#p6cc1948107)" style="fill: #1f77b4; fill-opacity: 0.75; stroke: #000000; stroke-width: 0.308685; stroke-linejoin: miter"/>
   </g>
   <g id="patch_63">
    <path d="M 514.171107 272.198125 
L 517.492424 272.198125 
L 517.492424 270.692058 
L 514.171107 270.692058 
z
" clip-path="url(#p6cc1948107)" style="fill: #1f77b4; fill-opacity: 0.75; stroke: #000000; stroke-width: 0.308685; stroke-linejoin: miter"/>
   </g>
   <g id="patch_64">
    <path d="M 517.492424 272.198125 
L 520.81374 272.198125 
L 520.81374 271.863444 
L 517.492424 271.863444 
z
" clip-path="url(#p6cc1948107)" style="fill: #1f77b4; fill-opacity: 0.75; stroke: #000000; stroke-width: 0.308685; stroke-linejoin: miter"/>
   </g>
   <g id="patch_65">
    <path d="M 520.81374 272.198125 
L 524.135057 272.198125 
L 524.135057 266.926892 
L 520.81374 266.926892 
z
" clip-path="url(#p6cc1948107)" style="fill: #1f77b4; fill-opacity: 0.75; stroke: #000000; stroke-width: 0.308685; stroke-linejoin: miter"/>
   </g>
   <g id="matplotlib.axis_3">
    <g id="xtick_7">
     <g id="line2d_14">
      <g>
       <use xlink:href="#m297d8eb086" x="351.74291" y="272.198125" style="stroke: #000000; stroke-width: 0.8"/>
      </g>
     </g>
     <g id="text_16">
      <!-- 4.0 -->
      <g transform="translate(343.791347 286.796562) scale(0.1 -0.1)">
       <use xlink:href="#DejaVuSans-34"/>
       <use xlink:href="#DejaVuSans-2e" x="63.623047"/>
       <use xlink:href="#DejaVuSans-30" x="95.410156"/>
      </g>
     </g>
    </g>
    <g id="xtick_8">
     <g id="line2d_15">
      <g>
       <use xlink:href="#m297d8eb086" x="382.083827" y="272.198125" style="stroke: #000000; stroke-width: 0.8"/>
      </g>
     </g>
     <g id="text_17">
      <!-- 4.5 -->
      <g transform="translate(374.132265 286.796562) scale(0.1 -0.1)">
       <use xlink:href="#DejaVuSans-34"/>
       <use xlink:href="#DejaVuSans-2e" x="63.623047"/>
       <use xlink:href="#DejaVuSans-35" x="95.410156"/>
      </g>
     </g>
    </g>
    <g id="xtick_9">
     <g id="line2d_16">
      <g>
       <use xlink:href="#m297d8eb086" x="412.424745" y="272.198125" style="stroke: #000000; stroke-width: 0.8"/>
      </g>
     </g>
     <g id="text_18">
      <!-- 5.0 -->
      <g transform="translate(404.473182 286.796562) scale(0.1 -0.1)">
       <use xlink:href="#DejaVuSans-35"/>
       <use xlink:href="#DejaVuSans-2e" x="63.623047"/>
       <use xlink:href="#DejaVuSans-30" x="95.410156"/>
      </g>
     </g>
    </g>
    <g id="xtick_10">
     <g id="line2d_17">
      <g>
       <use xlink:href="#m297d8eb086" x="442.765662" y="272.198125" style="stroke: #000000; stroke-width: 0.8"/>
      </g>
     </g>
     <g id="text_19">
      <!-- 5.5 -->
      <g transform="translate(434.8141 286.796562) scale(0.1 -0.1)">
       <use xlink:href="#DejaVuSans-35"/>
       <use xlink:href="#DejaVuSans-2e" x="63.623047"/>
       <use xlink:href="#DejaVuSans-35" x="95.410156"/>
      </g>
     </g>
    </g>
    <g id="xtick_11">
     <g id="line2d_18">
      <g>
       <use xlink:href="#m297d8eb086" x="473.10658" y="272.198125" style="stroke: #000000; stroke-width: 0.8"/>
      </g>
     </g>
     <g id="text_20">
      <!-- 6.0 -->
      <g transform="translate(465.155017 286.796562) scale(0.1 -0.1)">
       <use xlink:href="#DejaVuSans-36"/>
       <use xlink:href="#DejaVuSans-2e" x="63.623047"/>
       <use xlink:href="#DejaVuSans-30" x="95.410156"/>
      </g>
     </g>
    </g>
    <g id="xtick_12">
     <g id="line2d_19">
      <g>
       <use xlink:href="#m297d8eb086" x="503.447497" y="272.198125" style="stroke: #000000; stroke-width: 0.8"/>
      </g>
     </g>
     <g id="text_21">
      <!-- 6.5 -->
      <g transform="translate(495.495935 286.796562) scale(0.1 -0.1)">
       <use xlink:href="#DejaVuSans-36"/>
       <use xlink:href="#DejaVuSans-2e" x="63.623047"/>
       <use xlink:href="#DejaVuSans-35" x="95.410156"/>
      </g>
     </g>
    </g>
    <g id="text_22">
     <!-- age -->
     <g transform="translate(416.639062 301.994375) scale(0.12 -0.12)">
      <use xlink:href="#DejaVuSans-61"/>
      <use xlink:href="#DejaVuSans-67" x="61.279297"/>
      <use xlink:href="#DejaVuSans-65" x="124.755859"/>
     </g>
    </g>
   </g>
   <g id="matplotlib.axis_4">
    <g id="ytick_7">
     <g id="line2d_20">
      <g>
       <use xlink:href="#m602dfd076f" x="321.866875" y="272.198125" style="stroke: #000000; stroke-width: 0.8"/>
      </g>
     </g>
     <g id="text_23">
      <!-- 0 -->
      <g transform="translate(308.504375 275.997344) scale(0.1 -0.1)">
       <use xlink:href="#DejaVuSans-30"/>
      </g>
     </g>
    </g>
    <g id="ytick_8">
     <g id="line2d_21">
      <g>
       <use xlink:href="#m602dfd076f" x="321.866875" y="230.362943" style="stroke: #000000; stroke-width: 0.8"/>
      </g>
     </g>
     <g id="text_24">
      <!-- 500 -->
      <g transform="translate(295.779375 234.162162) scale(0.1 -0.1)">
       <use xlink:href="#DejaVuSans-35"/>
       <use xlink:href="#DejaVuSans-30" x="63.623047"/>
       <use xlink:href="#DejaVuSans-30" x="127.246094"/>
      </g>
     </g>
    </g>
    <g id="ytick_9">
     <g id="line2d_22">
      <g>
       <use xlink:href="#m602dfd076f" x="321.866875" y="188.527762" style="stroke: #000000; stroke-width: 0.8"/>
      </g>
     </g>
     <g id="text_25">
      <!-- 1000 -->
      <g transform="translate(289.416875 192.326981) scale(0.1 -0.1)">
       <use xlink:href="#DejaVuSans-31"/>
       <use xlink:href="#DejaVuSans-30" x="63.623047"/>
       <use xlink:href="#DejaVuSans-30" x="127.246094"/>
       <use xlink:href="#DejaVuSans-30" x="190.869141"/>
      </g>
     </g>
    </g>
    <g id="ytick_10">
     <g id="line2d_23">
      <g>
       <use xlink:href="#m602dfd076f" x="321.866875" y="146.69258" style="stroke: #000000; stroke-width: 0.8"/>
      </g>
     </g>
     <g id="text_26">
      <!-- 1500 -->
      <g transform="translate(289.416875 150.491799) scale(0.1 -0.1)">
       <use xlink:href="#DejaVuSans-31"/>
       <use xlink:href="#DejaVuSans-35" x="63.623047"/>
       <use xlink:href="#DejaVuSans-30" x="127.246094"/>
       <use xlink:href="#DejaVuSans-30" x="190.869141"/>
      </g>
     </g>
    </g>
    <g id="ytick_11">
     <g id="line2d_24">
      <g>
       <use xlink:href="#m602dfd076f" x="321.866875" y="104.857399" style="stroke: #000000; stroke-width: 0.8"/>
      </g>
     </g>
     <g id="text_27">
      <!-- 2000 -->
      <g transform="translate(289.416875 108.656618) scale(0.1 -0.1)">
       <use xlink:href="#DejaVuSans-32"/>
       <use xlink:href="#DejaVuSans-30" x="63.623047"/>
       <use xlink:href="#DejaVuSans-30" x="127.246094"/>
       <use xlink:href="#DejaVuSans-30" x="190.869141"/>
      </g>
     </g>
    </g>
    <g id="ytick_12">
     <g id="line2d_25">
      <g>
       <use xlink:href="#m602dfd076f" x="321.866875" y="63.022217" style="stroke: #000000; stroke-width: 0.8"/>
      </g>
     </g>
     <g id="text_28">
      <!-- 2500 -->
      <g transform="translate(289.416875 66.821436) scale(0.1 -0.1)">
       <use xlink:href="#DejaVuSans-32"/>
       <use xlink:href="#DejaVuSans-35" x="63.623047"/>
       <use xlink:href="#DejaVuSans-30" x="127.246094"/>
       <use xlink:href="#DejaVuSans-30" x="190.869141"/>
      </g>
     </g>
    </g>
    <g id="text_29">
     <!-- Count -->
     <g transform="translate(282.92125 174.57625) rotate(-90) scale(0.12 -0.12)">
      <defs>
       <path id="DejaVuSans-43" d="M 4122 4306 
L 4122 3641 
Q 3803 3938 3442 4084 
Q 3081 4231 2675 4231 
Q 1875 4231 1450 3742 
Q 1025 3253 1025 2328 
Q 1025 1406 1450 917 
Q 1875 428 2675 428 
Q 3081 428 3442 575 
Q 3803 722 4122 1019 
L 4122 359 
Q 3791 134 3420 21 
Q 3050 -91 2638 -91 
Q 1578 -91 968 557 
Q 359 1206 359 2328 
Q 359 3453 968 4101 
Q 1578 4750 2638 4750 
Q 3056 4750 3426 4639 
Q 3797 4528 4122 4306 
z
" transform="scale(0.015625)"/>
       <path id="DejaVuSans-75" d="M 544 1381 
L 544 3500 
L 1119 3500 
L 1119 1403 
Q 1119 906 1312 657 
Q 1506 409 1894 409 
Q 2359 409 2629 706 
Q 2900 1003 2900 1516 
L 2900 3500 
L 3475 3500 
L 3475 0 
L 2900 0 
L 2900 538 
Q 2691 219 2414 64 
Q 2138 -91 1772 -91 
Q 1169 -91 856 284 
Q 544 659 544 1381 
z
M 1991 3584 
L 1991 3584 
z
" transform="scale(0.015625)"/>
      </defs>
      <use xlink:href="#DejaVuSans-43"/>
      <use xlink:href="#DejaVuSans-6f" x="69.824219"/>
      <use xlink:href="#DejaVuSans-75" x="131.005859"/>
      <use xlink:href="#DejaVuSans-6e" x="194.384766"/>
      <use xlink:href="#DejaVuSans-74" x="257.763672"/>
     </g>
    </g>
   </g>
   <g id="patch_66">
    <path d="M 321.866875 272.198125 
L 321.866875 41.318125 
" style="fill: none; stroke: #000000; stroke-width: 0.8; stroke-linejoin: miter; stroke-linecap: square"/>
   </g>
   <g id="patch_67">
    <path d="M 533.766875 272.198125 
L 533.766875 41.318125 
" style="fill: none; stroke: #000000; stroke-width: 0.8; stroke-linejoin: miter; stroke-linecap: square"/>
   </g>
   <g id="patch_68">
    <path d="M 321.866875 272.198125 
L 533.766875 272.198125 
" style="fill: none; stroke: #000000; stroke-width: 0.8; stroke-linejoin: miter; stroke-linecap: square"/>
   </g>
   <g id="patch_69">
    <path d="M 321.866875 41.318125 
L 533.766875 41.318125 
" style="fill: none; stroke: #000000; stroke-width: 0.8; stroke-linejoin: miter; stroke-linecap: square"/>
   </g>
   <g id="text_30">
    <!-- Histplot: age (Scale: boxcox) -->
    <g transform="translate(341.820938 16.318125) scale(0.12 -0.12)">
     <defs>
      <path id="DejaVuSans-48" d="M 628 4666 
L 1259 4666 
L 1259 2753 
L 3553 2753 
L 3553 4666 
L 4184 4666 
L 4184 0 
L 3553 0 
L 3553 2222 
L 1259 2222 
L 1259 0 
L 628 0 
L 628 4666 
z
" transform="scale(0.015625)"/>
      <path id="DejaVuSans-70" d="M 1159 525 
L 1159 -1331 
L 581 -1331 
L 581 3500 
L 1159 3500 
L 1159 2969 
Q 1341 3281 1617 3432 
Q 1894 3584 2278 3584 
Q 2916 3584 3314 3078 
Q 3713 2572 3713 1747 
Q 3713 922 3314 415 
Q 2916 -91 2278 -91 
Q 1894 -91 1617 61 
Q 1341 213 1159 525 
z
M 3116 1747 
Q 3116 2381 2855 2742 
Q 2594 3103 2138 3103 
Q 1681 3103 1420 2742 
Q 1159 2381 1159 1747 
Q 1159 1113 1420 752 
Q 1681 391 2138 391 
Q 2594 391 2855 752 
Q 3116 1113 3116 1747 
z
" transform="scale(0.015625)"/>
     </defs>
     <use xlink:href="#DejaVuSans-48"/>
     <use xlink:href="#DejaVuSans-69" x="75.195312"/>
     <use xlink:href="#DejaVuSans-73" x="102.978516"/>
     <use xlink:href="#DejaVuSans-74" x="155.078125"/>
     <use xlink:href="#DejaVuSans-70" x="194.287109"/>
     <use xlink:href="#DejaVuSans-6c" x="257.763672"/>
     <use xlink:href="#DejaVuSans-6f" x="285.546875"/>
     <use xlink:href="#DejaVuSans-74" x="346.728516"/>
     <use xlink:href="#DejaVuSans-3a" x="385.9375"/>
     <use xlink:href="#DejaVuSans-20" x="419.628906"/>
     <use xlink:href="#DejaVuSans-61" x="451.416016"/>
     <use xlink:href="#DejaVuSans-67" x="512.695312"/>
     <use xlink:href="#DejaVuSans-65" x="576.171875"/>
     <use xlink:href="#DejaVuSans-20" x="637.695312"/>
     <use xlink:href="#DejaVuSans-28" x="669.482422"/>
     <use xlink:href="#DejaVuSans-53" x="708.496094"/>
     <use xlink:href="#DejaVuSans-63" x="771.972656"/>
     <use xlink:href="#DejaVuSans-61" x="826.953125"/>
     <use xlink:href="#DejaVuSans-6c" x="888.232422"/>
     <use xlink:href="#DejaVuSans-65" x="916.015625"/>
     <use xlink:href="#DejaVuSans-3a" x="977.539062"/>
     <use xlink:href="#DejaVuSans-20" x="1011.230469"/>
     <use xlink:href="#DejaVuSans-62" x="1043.017578"/>
     <use xlink:href="#DejaVuSans-6f" x="1106.494141"/>
     <use xlink:href="#DejaVuSans-78" x="1164.550781"/>
     <use xlink:href="#DejaVuSans-63" x="1221.980469"/>
     <use xlink:href="#DejaVuSans-6f" x="1276.960938"/>
     <use xlink:href="#DejaVuSans-78" x="1335.017578"/>
     <use xlink:href="#DejaVuSans-29" x="1394.197266"/>
    </g>
   </g>
  </g>
  <g id="axes_3">
   <g id="patch_70">
    <path d="M 598.016875 272.198125 
L 809.916875 272.198125 
L 809.916875 41.318125 
L 598.016875 41.318125 
z
" style="fill: #ffffff"/>
   </g>
   <g id="matplotlib.axis_5">
    <g id="xtick_13">
     <g id="line2d_26">
      <g>
       <use xlink:href="#m297d8eb086" x="627.89291" y="272.198125" style="stroke: #000000; stroke-width: 0.8"/>
      </g>
     </g>
     <g id="text_31">
      <!-- 4.0 -->
      <g transform="translate(619.941347 286.796562) scale(0.1 -0.1)">
       <use xlink:href="#DejaVuSans-34"/>
       <use xlink:href="#DejaVuSans-2e" x="63.623047"/>
       <use xlink:href="#DejaVuSans-30" x="95.410156"/>
      </g>
     </g>
    </g>
    <g id="xtick_14">
     <g id="line2d_27">
      <g>
       <use xlink:href="#m297d8eb086" x="658.233827" y="272.198125" style="stroke: #000000; stroke-width: 0.8"/>
      </g>
     </g>
     <g id="text_32">
      <!-- 4.5 -->
      <g transform="translate(650.282265 286.796562) scale(0.1 -0.1)">
       <use xlink:href="#DejaVuSans-34"/>
       <use xlink:href="#DejaVuSans-2e" x="63.623047"/>
       <use xlink:href="#DejaVuSans-35" x="95.410156"/>
      </g>
     </g>
    </g>
    <g id="xtick_15">
     <g id="line2d_28">
      <g>
       <use xlink:href="#m297d8eb086" x="688.574745" y="272.198125" style="stroke: #000000; stroke-width: 0.8"/>
      </g>
     </g>
     <g id="text_33">
      <!-- 5.0 -->
      <g transform="translate(680.623182 286.796562) scale(0.1 -0.1)">
       <use xlink:href="#DejaVuSans-35"/>
       <use xlink:href="#DejaVuSans-2e" x="63.623047"/>
       <use xlink:href="#DejaVuSans-30" x="95.410156"/>
      </g>
     </g>
    </g>
    <g id="xtick_16">
     <g id="line2d_29">
      <g>
       <use xlink:href="#m297d8eb086" x="718.915662" y="272.198125" style="stroke: #000000; stroke-width: 0.8"/>
      </g>
     </g>
     <g id="text_34">
      <!-- 5.5 -->
      <g transform="translate(710.9641 286.796562) scale(0.1 -0.1)">
       <use xlink:href="#DejaVuSans-35"/>
       <use xlink:href="#DejaVuSans-2e" x="63.623047"/>
       <use xlink:href="#DejaVuSans-35" x="95.410156"/>
      </g>
     </g>
    </g>
    <g id="xtick_17">
     <g id="line2d_30">
      <g>
       <use xlink:href="#m297d8eb086" x="749.25658" y="272.198125" style="stroke: #000000; stroke-width: 0.8"/>
      </g>
     </g>
     <g id="text_35">
      <!-- 6.0 -->
      <g transform="translate(741.305017 286.796562) scale(0.1 -0.1)">
       <use xlink:href="#DejaVuSans-36"/>
       <use xlink:href="#DejaVuSans-2e" x="63.623047"/>
       <use xlink:href="#DejaVuSans-30" x="95.410156"/>
      </g>
     </g>
    </g>
    <g id="xtick_18">
     <g id="line2d_31">
      <g>
       <use xlink:href="#m297d8eb086" x="779.597497" y="272.198125" style="stroke: #000000; stroke-width: 0.8"/>
      </g>
     </g>
     <g id="text_36">
      <!-- 6.5 -->
      <g transform="translate(771.645935 286.796562) scale(0.1 -0.1)">
       <use xlink:href="#DejaVuSans-36"/>
       <use xlink:href="#DejaVuSans-2e" x="63.623047"/>
       <use xlink:href="#DejaVuSans-35" x="95.410156"/>
      </g>
     </g>
    </g>
    <g id="text_37">
     <!-- age -->
     <g transform="translate(692.789062 301.994375) scale(0.12 -0.12)">
      <use xlink:href="#DejaVuSans-61"/>
      <use xlink:href="#DejaVuSans-67" x="61.279297"/>
      <use xlink:href="#DejaVuSans-65" x="124.755859"/>
     </g>
    </g>
   </g>
   <g id="matplotlib.axis_6">
    <g id="ytick_13">
     <g id="line2d_32">
      <g>
       <use xlink:href="#m602dfd076f" x="598.016875" y="156.758125" style="stroke: #000000; stroke-width: 0.8"/>
      </g>
     </g>
    </g>
   </g>
   <g id="patch_71">
    <path d="M 659.563249 64.406125 
L 659.563249 249.110125 
L 720.967803 249.110125 
L 720.967803 64.406125 
L 659.563249 64.406125 
z
" clip-path="url(#p293d5f03ab)" style="fill: #3274a1; stroke: #3f3f3f; stroke-linejoin: miter"/>
   </g>
   <g id="line2d_33">
    <path d="M 659.563249 156.758125 
L 607.648693 156.758125 
" clip-path="url(#p293d5f03ab)" style="fill: none; stroke: #3f3f3f"/>
   </g>
   <g id="line2d_34">
    <path d="M 720.967803 156.758125 
L 800.285057 156.758125 
" clip-path="url(#p293d5f03ab)" style="fill: none; stroke: #3f3f3f"/>
   </g>
   <g id="line2d_35">
    <path d="M 607.648693 110.582125 
L 607.648693 202.934125 
" clip-path="url(#p293d5f03ab)" style="fill: none; stroke: #3f3f3f; stroke-linecap: square"/>
   </g>
   <g id="line2d_36">
    <path d="M 800.285057 110.582125 
L 800.285057 202.934125 
" clip-path="url(#p293d5f03ab)" style="fill: none; stroke: #3f3f3f; stroke-linecap: square"/>
   </g>
   <g id="line2d_37"/>
   <g id="line2d_38">
    <path d="M 690.592848 64.406125 
L 690.592848 249.110125 
" clip-path="url(#p293d5f03ab)" style="fill: none; stroke: #3f3f3f"/>
   </g>
   <g id="patch_72">
    <path d="M 598.016875 272.198125 
L 598.016875 41.318125 
" style="fill: none; stroke: #000000; stroke-width: 0.8; stroke-linejoin: miter; stroke-linecap: square"/>
   </g>
   <g id="patch_73">
    <path d="M 809.916875 272.198125 
L 809.916875 41.318125 
" style="fill: none; stroke: #000000; stroke-width: 0.8; stroke-linejoin: miter; stroke-linecap: square"/>
   </g>
   <g id="patch_74">
    <path d="M 598.016875 272.198125 
L 809.916875 272.198125 
" style="fill: none; stroke: #000000; stroke-width: 0.8; stroke-linejoin: miter; stroke-linecap: square"/>
   </g>
   <g id="patch_75">
    <path d="M 598.016875 41.318125 
L 809.916875 41.318125 
" style="fill: none; stroke: #000000; stroke-width: 0.8; stroke-linejoin: miter; stroke-linecap: square"/>
   </g>
   <g id="text_38">
    <!-- Boxplot: age (Scale: boxcox) -->
    <g transform="translate(618.47625 16.318125) scale(0.12 -0.12)">
     <defs>
      <path id="DejaVuSans-42" d="M 1259 2228 
L 1259 519 
L 2272 519 
Q 2781 519 3026 730 
Q 3272 941 3272 1375 
Q 3272 1813 3026 2020 
Q 2781 2228 2272 2228 
L 1259 2228 
z
M 1259 4147 
L 1259 2741 
L 2194 2741 
Q 2656 2741 2882 2914 
Q 3109 3088 3109 3444 
Q 3109 3797 2882 3972 
Q 2656 4147 2194 4147 
L 1259 4147 
z
M 628 4666 
L 2241 4666 
Q 2963 4666 3353 4366 
Q 3744 4066 3744 3513 
Q 3744 3084 3544 2831 
Q 3344 2578 2956 2516 
Q 3422 2416 3680 2098 
Q 3938 1781 3938 1306 
Q 3938 681 3513 340 
Q 3088 0 2303 0 
L 628 0 
L 628 4666 
z
" transform="scale(0.015625)"/>
     </defs>
     <use xlink:href="#DejaVuSans-42"/>
     <use xlink:href="#DejaVuSans-6f" x="68.603516"/>
     <use xlink:href="#DejaVuSans-78" x="126.660156"/>
     <use xlink:href="#DejaVuSans-70" x="185.839844"/>
     <use xlink:href="#DejaVuSans-6c" x="249.316406"/>
     <use xlink:href="#DejaVuSans-6f" x="277.099609"/>
     <use xlink:href="#DejaVuSans-74" x="338.28125"/>
     <use xlink:href="#DejaVuSans-3a" x="377.490234"/>
     <use xlink:href="#DejaVuSans-20" x="411.181641"/>
     <use xlink:href="#DejaVuSans-61" x="442.96875"/>
     <use xlink:href="#DejaVuSans-67" x="504.248047"/>
     <use xlink:href="#DejaVuSans-65" x="567.724609"/>
     <use xlink:href="#DejaVuSans-20" x="629.248047"/>
     <use xlink:href="#DejaVuSans-28" x="661.035156"/>
     <use xlink:href="#DejaVuSans-53" x="700.048828"/>
     <use xlink:href="#DejaVuSans-63" x="763.525391"/>
     <use xlink:href="#DejaVuSans-61" x="818.505859"/>
     <use xlink:href="#DejaVuSans-6c" x="879.785156"/>
     <use xlink:href="#DejaVuSans-65" x="907.568359"/>
     <use xlink:href="#DejaVuSans-3a" x="969.091797"/>
     <use xlink:href="#DejaVuSans-20" x="1002.783203"/>
     <use xlink:href="#DejaVuSans-62" x="1034.570312"/>
     <use xlink:href="#DejaVuSans-6f" x="1098.046875"/>
     <use xlink:href="#DejaVuSans-78" x="1156.103516"/>
     <use xlink:href="#DejaVuSans-63" x="1213.533203"/>
     <use xlink:href="#DejaVuSans-6f" x="1268.513672"/>
     <use xlink:href="#DejaVuSans-78" x="1326.570312"/>
     <use xlink:href="#DejaVuSans-29" x="1385.75"/>
    </g>
   </g>
  </g>
  <g id="text_39">
   <!-- Lower cutoff: 4 | Upper cutoff: 7 -->
   <g transform="translate(312.370625 354.238125) scale(0.12 -0.12)">
    <defs>
     <path id="DejaVuSans-4c" d="M 628 4666 
L 1259 4666 
L 1259 531 
L 3531 531 
L 3531 0 
L 628 0 
L 628 4666 
z
" transform="scale(0.015625)"/>
     <path id="DejaVuSans-77" d="M 269 3500 
L 844 3500 
L 1563 769 
L 2278 3500 
L 2956 3500 
L 3675 769 
L 4391 3500 
L 4966 3500 
L 4050 0 
L 3372 0 
L 2619 2869 
L 1863 0 
L 1184 0 
L 269 3500 
z
" transform="scale(0.015625)"/>
     <path id="DejaVuSans-72" d="M 2631 2963 
Q 2534 3019 2420 3045 
Q 2306 3072 2169 3072 
Q 1681 3072 1420 2755 
Q 1159 2438 1159 1844 
L 1159 0 
L 581 0 
L 581 3500 
L 1159 3500 
L 1159 2956 
Q 1341 3275 1631 3429 
Q 1922 3584 2338 3584 
Q 2397 3584 2469 3576 
Q 2541 3569 2628 3553 
L 2631 2963 
z
" transform="scale(0.015625)"/>
     <path id="DejaVuSans-66" d="M 2375 4863 
L 2375 4384 
L 1825 4384 
Q 1516 4384 1395 4259 
Q 1275 4134 1275 3809 
L 1275 3500 
L 2222 3500 
L 2222 3053 
L 1275 3053 
L 1275 0 
L 697 0 
L 697 3053 
L 147 3053 
L 147 3500 
L 697 3500 
L 697 3744 
Q 697 4328 969 4595 
Q 1241 4863 1831 4863 
L 2375 4863 
z
" transform="scale(0.015625)"/>
     <path id="DejaVuSans-7c" d="M 1344 4891 
L 1344 -1509 
L 813 -1509 
L 813 4891 
L 1344 4891 
z
" transform="scale(0.015625)"/>
     <path id="DejaVuSans-55" d="M 556 4666 
L 1191 4666 
L 1191 1831 
Q 1191 1081 1462 751 
Q 1734 422 2344 422 
Q 2950 422 3222 751 
Q 3494 1081 3494 1831 
L 3494 4666 
L 4128 4666 
L 4128 1753 
Q 4128 841 3676 375 
Q 3225 -91 2344 -91 
Q 1459 -91 1007 375 
Q 556 841 556 1753 
L 556 4666 
z
" transform="scale(0.015625)"/>
     <path id="DejaVuSans-37" d="M 525 4666 
L 3525 4666 
L 3525 4397 
L 1831 0 
L 1172 0 
L 2766 4134 
L 525 4134 
L 525 4666 
z
" transform="scale(0.015625)"/>
    </defs>
    <use xlink:href="#DejaVuSans-4c"/>
    <use xlink:href="#DejaVuSans-6f" x="53.962891"/>
    <use xlink:href="#DejaVuSans-77" x="115.144531"/>
    <use xlink:href="#DejaVuSans-65" x="196.931641"/>
    <use xlink:href="#DejaVuSans-72" x="258.455078"/>
    <use xlink:href="#DejaVuSans-20" x="299.568359"/>
    <use xlink:href="#DejaVuSans-63" x="331.355469"/>
    <use xlink:href="#DejaVuSans-75" x="386.335938"/>
    <use xlink:href="#DejaVuSans-74" x="449.714844"/>
    <use xlink:href="#DejaVuSans-6f" x="488.923828"/>
    <use xlink:href="#DejaVuSans-66" x="550.105469"/>
    <use xlink:href="#DejaVuSans-66" x="585.310547"/>
    <use xlink:href="#DejaVuSans-3a" x="616.890625"/>
    <use xlink:href="#DejaVuSans-20" x="650.582031"/>
    <use xlink:href="#DejaVuSans-34" x="682.369141"/>
    <use xlink:href="#DejaVuSans-20" x="745.992188"/>
    <use xlink:href="#DejaVuSans-7c" x="777.779297"/>
    <use xlink:href="#DejaVuSans-20" x="811.470703"/>
    <use xlink:href="#DejaVuSans-55" x="843.257812"/>
    <use xlink:href="#DejaVuSans-70" x="916.451172"/>
    <use xlink:href="#DejaVuSans-70" x="979.927734"/>
    <use xlink:href="#DejaVuSans-65" x="1043.404297"/>
    <use xlink:href="#DejaVuSans-72" x="1104.927734"/>
    <use xlink:href="#DejaVuSans-20" x="1146.041016"/>
    <use xlink:href="#DejaVuSans-63" x="1177.828125"/>
    <use xlink:href="#DejaVuSans-75" x="1232.808594"/>
    <use xlink:href="#DejaVuSans-74" x="1296.1875"/>
    <use xlink:href="#DejaVuSans-6f" x="1335.396484"/>
    <use xlink:href="#DejaVuSans-66" x="1396.578125"/>
    <use xlink:href="#DejaVuSans-66" x="1431.783203"/>
    <use xlink:href="#DejaVuSans-3a" x="1463.363281"/>
    <use xlink:href="#DejaVuSans-20" x="1497.054688"/>
    <use xlink:href="#DejaVuSans-37" x="1528.841797"/>
   </g>
  </g>
 </g>
 <defs>
  <clipPath id="p03f71f1643">
   <rect x="45.716875" y="41.318125" width="211.9" height="230.88"/>
  </clipPath>
  <clipPath id="p6cc1948107">
   <rect x="321.866875" y="41.318125" width="211.9" height="230.88"/>
  </clipPath>
  <clipPath id="p293d5f03ab">
   <rect x="598.016875" y="41.318125" width="211.9" height="230.88"/>
  </clipPath>
 </defs>
</svg>
