<?xml version="1.0" encoding="utf-8" standalone="no"?>
<!DOCTYPE svg PUBLIC "-//W3C//DTD SVG 1.1//EN"
  "http://www.w3.org/Graphics/SVG/1.1/DTD/svg11.dtd">
<svg xmlns:xlink="http://www.w3.org/1999/xlink" width="394.079375pt" height="304.537188pt" viewBox="0 0 394.079375 304.537188" xmlns="http://www.w3.org/2000/svg" version="1.1">
 <metadata>
  <rdf:RDF xmlns:dc="http://purl.org/dc/elements/1.1/" xmlns:cc="http://creativecommons.org/ns#" xmlns:rdf="http://www.w3.org/1999/02/22-rdf-syntax-ns#">
   <cc:Work>
    <dc:type rdf:resource="http://purl.org/dc/dcmitype/StillImage"/>
    <dc:date>2024-12-21T17:04:35.524749</dc:date>
    <dc:format>image/svg+xml</dc:format>
    <dc:creator>
     <cc:Agent>
      <dc:title>Matplotlib v3.9.2, https://matplotlib.org/</dc:title>
     </cc:Agent>
    </dc:creator>
   </cc:Work>
  </rdf:RDF>
 </metadata>
 <defs>
  <style type="text/css">*{stroke-linejoin: round; stroke-linecap: butt}</style>
 </defs>
 <g id="figure_1">
  <g id="patch_1">
   <path d="M 0 304.537188 
L 394.079375 304.537188 
L 394.079375 0 
L 0 0 
z
" style="fill: #ffffff"/>
  </g>
  <g id="axes_1">
   <g id="patch_2">
    <path d="M 52.079375 244.078125 
L 386.879375 244.078125 
L 386.879375 22.318125 
L 52.079375 22.318125 
z
" style="fill: #ffffff"/>
   </g>
   <g id="PolyCollection_1">
    <defs>
     <path id="ma38ce4ad09" d="M 68.83985 -103.902563 
L 68.7989 -103.902563 
L 68.783376 -104.743958 
L 68.76172 -105.585353 
L 68.735263 -106.426747 
L 68.707592 -107.268142 
L 68.68404 -108.109536 
L 68.670068 -108.950931 
L 68.669156 -109.792326 
L 68.681207 -110.63372 
L 68.702314 -111.475115 
L 68.725946 -112.316509 
L 68.744851 -113.157904 
L 68.752798 -113.999299 
L 68.745765 -114.840693 
L 68.722731 -115.682088 
L 68.68631 -116.523483 
L 68.642979 -117.364877 
L 68.602217 -118.206272 
L 68.574061 -119.047666 
L 68.565525 -119.889061 
L 68.577238 -120.730456 
L 68.601714 -121.57185 
L 68.623725 -122.413245 
L 68.622266 -123.254639 
L 68.573555 -124.096034 
L 68.455552 -124.937429 
L 68.255049 -125.778823 
L 67.976955 -126.620218 
L 67.652009 -127.461612 
L 67.336467 -128.303007 
L 67.098967 -129.144402 
L 66.996411 -129.985796 
L 67.048287 -130.827191 
L 67.22111 -131.668586 
L 67.428985 -132.50998 
L 67.547471 -133.351375 
L 67.434182 -134.192769 
L 66.954235 -135.034164 
L 66.015338 -135.875559 
L 64.614862 -136.716953 
L 62.885329 -137.558348 
L 61.106789 -138.399742 
L 59.655124 -139.241137 
L 58.885629 -140.082532 
L 58.996092 -140.923926 
L 59.937894 -141.765321 
L 61.422555 -142.606716 
L 63.016458 -143.44811 
L 64.270261 -144.289505 
L 64.826197 -145.130899 
L 64.481631 -145.972294 
L 63.222906 -146.813689 
L 61.245991 -147.655083 
L 58.95218 -148.496478 
L 56.884403 -149.337872 
L 55.58718 -150.179267 
L 55.427375 -151.020662 
L 56.459306 -151.862056 
L 58.409907 -152.703451 
L 60.79455 -153.544845 
L 63.099388 -154.38624 
L 64.937789 -155.227635 
L 66.121704 -156.069029 
L 66.649058 -156.910424 
L 66.647932 -157.751819 
L 66.317283 -158.593213 
L 65.878897 -159.434608 
L 65.535481 -160.276002 
L 65.430491 -161.117397 
L 65.618041 -161.958792 
L 66.057976 -162.800186 
L 66.642224 -163.641581 
L 67.24113 -164.482975 
L 67.747753 -165.32437 
L 68.102433 -166.165765 
L 68.294205 -167.007159 
L 68.347795 -167.848554 
L 68.307587 -168.689948 
L 68.224654 -169.531343 
L 68.146908 -170.372738 
L 68.110577 -171.214132 
L 68.133447 -172.055527 
L 68.212541 -172.896922 
L 68.328158 -173.738316 
L 68.452915 -174.579711 
L 68.561616 -175.421105 
L 68.637837 -176.2625 
L 68.675779 -177.103895 
L 68.678684 -177.945289 
L 68.656075 -178.786684 
L 68.621095 -179.628078 
L 68.587882 -180.469473 
L 68.568588 -181.310868 
L 68.570396 -182.152262 
L 68.593777 -182.993657 
L 68.633061 -183.835052 
L 68.679185 -184.676446 
L 68.723283 -185.517841 
L 68.759377 -186.359235 
L 68.785251 -187.20063 
L 68.853499 -187.20063 
L 68.853499 -187.20063 
L 68.879373 -186.359235 
L 68.915467 -185.517841 
L 68.959565 -184.676446 
L 69.005689 -183.835052 
L 69.044973 -182.993657 
L 69.068354 -182.152262 
L 69.070162 -181.310868 
L 69.050868 -180.469473 
L 69.017655 -179.628078 
L 68.982675 -178.786684 
L 68.960066 -177.945289 
L 68.962971 -177.103895 
L 69.000913 -176.2625 
L 69.077134 -175.421105 
L 69.185835 -174.579711 
L 69.310592 -173.738316 
L 69.426209 -172.896922 
L 69.505303 -172.055527 
L 69.528173 -171.214132 
L 69.491842 -170.372738 
L 69.414096 -169.531343 
L 69.331163 -168.689948 
L 69.290955 -167.848554 
L 69.344545 -167.007159 
L 69.536317 -166.165765 
L 69.890997 -165.32437 
L 70.39762 -164.482975 
L 70.996526 -163.641581 
L 71.580774 -162.800186 
L 72.020709 -161.958792 
L 72.208259 -161.117397 
L 72.103269 -160.276002 
L 71.759853 -159.434608 
L 71.321467 -158.593213 
L 70.990818 -157.751819 
L 70.989692 -156.910424 
L 71.517046 -156.069029 
L 72.700961 -155.227635 
L 74.539362 -154.38624 
L 76.8442 -153.544845 
L 79.228843 -152.703451 
L 81.179444 -151.862056 
L 82.211375 -151.020662 
L 82.05157 -150.179267 
L 80.754347 -149.337872 
L 78.68657 -148.496478 
L 76.392759 -147.655083 
L 74.415844 -146.813689 
L 73.157119 -145.972294 
L 72.812553 -145.130899 
L 73.368489 -144.289505 
L 74.622292 -143.44811 
L 76.216195 -142.606716 
L 77.700856 -141.765321 
L 78.642658 -140.923926 
L 78.753121 -140.082532 
L 77.983626 -139.241137 
L 76.531961 -138.399742 
L 74.753421 -137.558348 
L 73.023888 -136.716953 
L 71.623412 -135.875559 
L 70.684515 -135.034164 
L 70.204568 -134.192769 
L 70.091279 -133.351375 
L 70.209765 -132.50998 
L 70.41764 -131.668586 
L 70.590463 -130.827191 
L 70.642339 -129.985796 
L 70.539783 -129.144402 
L 70.302283 -128.303007 
L 69.986741 -127.461612 
L 69.661795 -126.620218 
L 69.383701 -125.778823 
L 69.183198 -124.937429 
L 69.065195 -124.096034 
L 69.016484 -123.254639 
L 69.015025 -122.413245 
L 69.037036 -121.57185 
L 69.061512 -120.730456 
L 69.073225 -119.889061 
L 69.064689 -119.047666 
L 69.036533 -118.206272 
L 68.995771 -117.364877 
L 68.95244 -116.523483 
L 68.916019 -115.682088 
L 68.892985 -114.840693 
L 68.885952 -113.999299 
L 68.893899 -113.157904 
L 68.912804 -112.316509 
L 68.936436 -111.475115 
L 68.957543 -110.63372 
L 68.969594 -109.792326 
L 68.968682 -108.950931 
L 68.95471 -108.109536 
L 68.931158 -107.268142 
L 68.903487 -106.426747 
L 68.87703 -105.585353 
L 68.855374 -104.743958 
L 68.83985 -103.902563 
z
" style="stroke: #3d3d3d; stroke-width: 1.25"/>
    </defs>
    <g clip-path="url(#pc05f20e92b)">
     <use xlink:href="#ma38ce4ad09" x="0" y="304.537188" style="fill: #3274a1; stroke: #3d3d3d; stroke-width: 1.25"/>
    </g>
   </g>
   <g id="PolyCollection_2">
    <defs>
     <path id="mc53fc41f20" d="M 102.307648 -82.229386 
L 102.291102 -82.229386 
L 102.278941 -83.925827 
L 102.260827 -85.622268 
L 102.243753 -87.318709 
L 102.237489 -89.015151 
L 102.244147 -90.711592 
L 102.253039 -92.408033 
L 102.248991 -94.104474 
L 102.226998 -95.800915 
L 102.199439 -97.497356 
L 102.18625 -99.193797 
L 102.192495 -100.890238 
L 102.195482 -102.58668 
L 102.159755 -104.283121 
L 102.072846 -105.979562 
L 101.971722 -107.676003 
L 101.923182 -109.372444 
L 101.95974 -111.068885 
L 102.038701 -112.765326 
L 102.078919 -114.461767 
L 102.037316 -116.158209 
L 101.949216 -117.85465 
L 101.896621 -119.551091 
L 101.927551 -121.247532 
L 102.003226 -122.943973 
L 102.03293 -124.640414 
L 101.962474 -126.336855 
L 101.831835 -128.033296 
L 101.746369 -129.729738 
L 101.773072 -131.426179 
L 101.858485 -133.12262 
L 101.865276 -134.819061 
L 101.702861 -136.515502 
L 101.434278 -138.211943 
L 101.247756 -139.908384 
L 101.277464 -141.604825 
L 101.435726 -143.301267 
L 101.459522 -144.997708 
L 101.154444 -146.694149 
L 100.619362 -148.39059 
L 100.225344 -150.087031 
L 100.294702 -151.783472 
L 100.776924 -153.479913 
L 101.308138 -155.176354 
L 101.573763 -156.872796 
L 101.548098 -158.569237 
L 101.414114 -160.265678 
L 101.274467 -161.962119 
L 100.853918 -163.65856 
L 99.454924 -165.355001 
L 96.47231 -167.051442 
L 92.394639 -168.747883 
L 89.19924 -170.444325 
L 88.907375 -172.140766 
L 91.364209 -173.837207 
L 94.044199 -175.533648 
L 94.376185 -177.230089 
L 92.099524 -178.92653 
L 89.476498 -180.622971 
L 89.206978 -182.319412 
L 91.916685 -184.015854 
L 95.843407 -185.712295 
L 98.866645 -187.408736 
L 100.258371 -189.105177 
L 100.591807 -190.801618 
L 100.709132 -192.498059 
L 101.001327 -194.1945 
L 101.351158 -195.890941 
L 101.485374 -197.587383 
L 101.321517 -199.283824 
L 101.048904 -200.980265 
L 100.926046 -202.676706 
L 100.964304 -204.373147 
L 100.794383 -206.069588 
L 99.921753 -207.766029 
L 98.275282 -209.46247 
L 96.5848 -211.158912 
L 95.975402 -212.855353 
L 96.917671 -214.551794 
L 98.740007 -216.248235 
L 100.348233 -217.944676 
L 101.189138 -219.641117 
L 101.422289 -221.337558 
L 101.471615 -223.033999 
L 101.604416 -224.73044 
L 101.825635 -226.426882 
L 102.016234 -228.123323 
L 102.102597 -229.819764 
L 102.107954 -231.516205 
L 102.100615 -233.212646 
L 102.125253 -234.909087 
L 102.175979 -236.605528 
L 102.220006 -238.301969 
L 102.236295 -239.998411 
L 102.230843 -241.694852 
L 102.224591 -243.391293 
L 102.232537 -245.087734 
L 102.253106 -246.784175 
L 102.274852 -248.480616 
L 102.289448 -250.177057 
L 102.309302 -250.177057 
L 102.309302 -250.177057 
L 102.323898 -248.480616 
L 102.345644 -246.784175 
L 102.366213 -245.087734 
L 102.374159 -243.391293 
L 102.367907 -241.694852 
L 102.362455 -239.998411 
L 102.378744 -238.301969 
L 102.422771 -236.605528 
L 102.473497 -234.909087 
L 102.498135 -233.212646 
L 102.490796 -231.516205 
L 102.496153 -229.819764 
L 102.582516 -228.123323 
L 102.773115 -226.426882 
L 102.994334 -224.73044 
L 103.127135 -223.033999 
L 103.176461 -221.337558 
L 103.409612 -219.641117 
L 104.250517 -217.944676 
L 105.858743 -216.248235 
L 107.681079 -214.551794 
L 108.623348 -212.855353 
L 108.01395 -211.158912 
L 106.323468 -209.46247 
L 104.676997 -207.766029 
L 103.804367 -206.069588 
L 103.634446 -204.373147 
L 103.672704 -202.676706 
L 103.549846 -200.980265 
L 103.277233 -199.283824 
L 103.113376 -197.587383 
L 103.247592 -195.890941 
L 103.597423 -194.1945 
L 103.889618 -192.498059 
L 104.006943 -190.801618 
L 104.340379 -189.105177 
L 105.732105 -187.408736 
L 108.755343 -185.712295 
L 112.682065 -184.015854 
L 115.391772 -182.319412 
L 115.122252 -180.622971 
L 112.499226 -178.92653 
L 110.222565 -177.230089 
L 110.554551 -175.533648 
L 113.234541 -173.837207 
L 115.691375 -172.140766 
L 115.39951 -170.444325 
L 112.204111 -168.747883 
L 108.12644 -167.051442 
L 105.143826 -165.355001 
L 103.744832 -163.65856 
L 103.324283 -161.962119 
L 103.184636 -160.265678 
L 103.050652 -158.569237 
L 103.024987 -156.872796 
L 103.290612 -155.176354 
L 103.821826 -153.479913 
L 104.304048 -151.783472 
L 104.373406 -150.087031 
L 103.979388 -148.39059 
L 103.444306 -146.694149 
L 103.139228 -144.997708 
L 103.163024 -143.301267 
L 103.321286 -141.604825 
L 103.350994 -139.908384 
L 103.164472 -138.211943 
L 102.895889 -136.515502 
L 102.733474 -134.819061 
L 102.740265 -133.12262 
L 102.825678 -131.426179 
L 102.852381 -129.729738 
L 102.766915 -128.033296 
L 102.636276 -126.336855 
L 102.56582 -124.640414 
L 102.595524 -122.943973 
L 102.671199 -121.247532 
L 102.702129 -119.551091 
L 102.649534 -117.85465 
L 102.561434 -116.158209 
L 102.519831 -114.461767 
L 102.560049 -112.765326 
L 102.63901 -111.068885 
L 102.675568 -109.372444 
L 102.627028 -107.676003 
L 102.525904 -105.979562 
L 102.438995 -104.283121 
L 102.403268 -102.58668 
L 102.406255 -100.890238 
L 102.4125 -99.193797 
L 102.399311 -97.497356 
L 102.371752 -95.800915 
L 102.349759 -94.104474 
L 102.345711 -92.408033 
L 102.354603 -90.711592 
L 102.361261 -89.015151 
L 102.354997 -87.318709 
L 102.337923 -85.622268 
L 102.319809 -83.925827 
L 102.307648 -82.229386 
z
" style="stroke: #3d3d3d; stroke-width: 1.25"/>
    </defs>
    <g clip-path="url(#pc05f20e92b)">
     <use xlink:href="#mc53fc41f20" x="0" y="304.537188" style="fill: #e1812c; stroke: #3d3d3d; stroke-width: 1.25"/>
    </g>
   </g>
   <g id="PolyCollection_3">
    <defs>
     <path id="m31db1f3a75" d="M 135.786747 -81.212215 
L 135.772003 -81.212215 
L 135.76285 -82.929205 
L 135.749208 -84.646195 
L 135.734336 -86.363185 
L 135.723597 -88.080175 
L 135.719474 -89.797165 
L 135.71703 -91.514155 
L 135.706039 -93.231146 
L 135.680408 -94.948136 
L 135.646785 -96.665126 
L 135.62182 -98.382116 
L 135.616982 -100.099106 
L 135.624547 -101.816096 
L 135.621323 -103.533086 
L 135.590209 -105.250076 
L 135.539759 -106.967066 
L 135.500043 -108.684056 
L 135.494146 -110.401046 
L 135.511686 -112.118036 
L 135.514045 -113.835026 
L 135.471035 -115.552016 
L 135.394746 -117.269006 
L 135.334232 -118.985996 
L 135.330219 -120.702986 
L 135.372179 -122.419976 
L 135.404082 -124.136966 
L 135.377495 -125.853956 
L 135.30059 -127.570946 
L 135.232541 -129.287936 
L 135.224278 -131.004926 
L 135.262173 -132.721916 
L 135.274804 -134.438906 
L 135.202668 -136.155896 
L 135.064626 -137.872886 
L 134.950675 -139.589876 
L 134.937783 -141.306866 
L 135.007514 -143.023856 
L 135.054401 -144.740846 
L 134.986533 -146.457836 
L 134.822894 -148.174826 
L 134.688564 -149.891816 
L 134.70505 -151.608806 
L 134.880537 -153.325797 
L 135.108615 -155.042787 
L 135.266599 -156.759777 
L 135.29801 -158.476767 
L 135.182606 -160.193757 
L 134.80301 -161.910747 
L 133.829595 -163.627737 
L 131.82366 -165.344727 
L 128.678042 -167.061717 
L 125.123477 -168.778707 
L 122.628515 -170.495697 
L 122.387375 -172.212687 
L 124.216093 -173.929677 
L 126.60241 -175.646667 
L 127.993023 -177.363657 
L 128.041806 -179.080647 
L 127.660732 -180.797637 
L 127.985091 -182.514627 
L 129.338349 -184.231617 
L 131.116901 -185.948607 
L 132.505199 -187.665597 
L 133.181009 -189.382587 
L 133.400609 -191.099577 
L 133.584422 -192.816567 
L 133.907924 -194.533557 
L 134.238107 -196.250547 
L 134.368229 -197.967537 
L 134.261185 -199.684527 
L 134.064605 -201.401517 
L 133.898494 -203.118507 
L 133.633081 -204.835497 
L 132.917122 -206.552487 
L 131.52541 -208.269477 
L 129.759321 -209.986467 
L 128.442114 -211.703458 
L 128.340532 -213.420448 
L 129.497559 -215.137438 
L 131.18566 -216.854428 
L 132.54178 -218.571418 
L 133.212226 -220.288408 
L 133.433235 -222.005398 
L 133.630266 -223.722388 
L 134.009372 -225.439378 
L 134.473627 -227.156368 
L 134.823982 -228.873358 
L 134.978244 -230.590348 
L 135.014624 -232.307338 
L 135.060326 -234.024328 
L 135.169246 -235.741318 
L 135.298208 -237.458308 
L 135.376579 -239.175298 
L 135.383926 -240.892288 
L 135.364522 -242.609278 
L 135.379639 -244.326268 
L 135.453075 -246.043258 
L 135.560115 -247.760248 
L 135.659154 -249.477238 
L 135.725728 -251.194228 
L 135.833022 -251.194228 
L 135.833022 -251.194228 
L 135.899596 -249.477238 
L 135.998635 -247.760248 
L 136.105675 -246.043258 
L 136.179111 -244.326268 
L 136.194228 -242.609278 
L 136.174824 -240.892288 
L 136.182171 -239.175298 
L 136.260542 -237.458308 
L 136.389504 -235.741318 
L 136.498424 -234.024328 
L 136.544126 -232.307338 
L 136.580506 -230.590348 
L 136.734768 -228.873358 
L 137.085123 -227.156368 
L 137.549378 -225.439378 
L 137.928484 -223.722388 
L 138.125515 -222.005398 
L 138.346524 -220.288408 
L 139.01697 -218.571418 
L 140.37309 -216.854428 
L 142.061191 -215.137438 
L 143.218218 -213.420448 
L 143.116636 -211.703458 
L 141.799429 -209.986467 
L 140.03334 -208.269477 
L 138.641628 -206.552487 
L 137.925669 -204.835497 
L 137.660256 -203.118507 
L 137.494145 -201.401517 
L 137.297565 -199.684527 
L 137.190521 -197.967537 
L 137.320643 -196.250547 
L 137.650826 -194.533557 
L 137.974328 -192.816567 
L 138.158141 -191.099577 
L 138.377741 -189.382587 
L 139.053551 -187.665597 
L 140.441849 -185.948607 
L 142.220401 -184.231617 
L 143.573659 -182.514627 
L 143.898018 -180.797637 
L 143.516944 -179.080647 
L 143.565727 -177.363657 
L 144.95634 -175.646667 
L 147.342657 -173.929677 
L 149.171375 -172.212687 
L 148.930235 -170.495697 
L 146.435273 -168.778707 
L 142.880708 -167.061717 
L 139.73509 -165.344727 
L 137.729155 -163.627737 
L 136.75574 -161.910747 
L 136.376144 -160.193757 
L 136.26074 -158.476767 
L 136.292151 -156.759777 
L 136.450135 -155.042787 
L 136.678213 -153.325797 
L 136.8537 -151.608806 
L 136.870186 -149.891816 
L 136.735856 -148.174826 
L 136.572217 -146.457836 
L 136.504349 -144.740846 
L 136.551236 -143.023856 
L 136.620967 -141.306866 
L 136.608075 -139.589876 
L 136.494124 -137.872886 
L 136.356082 -136.155896 
L 136.283946 -134.438906 
L 136.296577 -132.721916 
L 136.334472 -131.004926 
L 136.326209 -129.287936 
L 136.25816 -127.570946 
L 136.181255 -125.853956 
L 136.154668 -124.136966 
L 136.186571 -122.419976 
L 136.228531 -120.702986 
L 136.224518 -118.985996 
L 136.164004 -117.269006 
L 136.087715 -115.552016 
L 136.044705 -113.835026 
L 136.047064 -112.118036 
L 136.064604 -110.401046 
L 136.058707 -108.684056 
L 136.018991 -106.967066 
L 135.968541 -105.250076 
L 135.937427 -103.533086 
L 135.934203 -101.816096 
L 135.941768 -100.099106 
L 135.93693 -98.382116 
L 135.911965 -96.665126 
L 135.878342 -94.948136 
L 135.852711 -93.231146 
L 135.84172 -91.514155 
L 135.839276 -89.797165 
L 135.835153 -88.080175 
L 135.824414 -86.363185 
L 135.809542 -84.646195 
L 135.7959 -82.929205 
L 135.786747 -81.212215 
z
" style="stroke: #3d3d3d; stroke-width: 1.25"/>
    </defs>
    <g clip-path="url(#pc05f20e92b)">
     <use xlink:href="#m31db1f3a75" x="0" y="304.537188" style="fill: #3a923a; stroke: #3d3d3d; stroke-width: 1.25"/>
    </g>
   </g>
   <g id="PolyCollection_4">
    <defs>
     <path id="md0a3c52666" d="M 169.266518 -80.291368 
L 169.252232 -80.291368 
L 169.244426 -82.026961 
L 169.232802 -83.762554 
L 169.218939 -85.498147 
L 169.205642 -87.23374 
L 169.194136 -88.969333 
L 169.181067 -90.704926 
L 169.159238 -92.440519 
L 169.123678 -94.176112 
L 169.078664 -95.911705 
L 169.037468 -97.647298 
L 169.011545 -99.382891 
L 168.997452 -101.118484 
L 168.97601 -102.854077 
L 168.928878 -104.58967 
L 168.858995 -106.325263 
L 168.792894 -108.060856 
L 168.757582 -109.796449 
L 168.751696 -111.532042 
L 168.741746 -113.267635 
L 168.692734 -115.003228 
L 168.606426 -116.738821 
L 168.527871 -118.474414 
L 168.508922 -120.210007 
L 168.56136 -121.9456 
L 168.645632 -123.681193 
L 168.706661 -125.416786 
L 168.720944 -127.152379 
L 168.709272 -128.887972 
L 168.705731 -130.623565 
L 168.717178 -132.359158 
L 168.715247 -134.094751 
L 168.66896 -135.830344 
L 168.583886 -137.565937 
L 168.505176 -139.30153 
L 168.477005 -141.037123 
L 168.497221 -142.772716 
L 168.515517 -144.508309 
L 168.481987 -146.243902 
L 168.400395 -147.979495 
L 168.332195 -149.715088 
L 168.344507 -151.450681 
L 168.450945 -153.186274 
L 168.599568 -154.921867 
L 168.709727 -156.65746 
L 168.704369 -158.393053 
L 168.486156 -160.128646 
L 167.870914 -161.864239 
L 166.574456 -163.599832 
L 164.367843 -165.335425 
L 161.386859 -167.071018 
L 158.339051 -168.806611 
L 156.266747 -170.542204 
L 155.867375 -172.277797 
L 156.914499 -174.01339 
L 158.392982 -175.748983 
L 159.314669 -177.484576 
L 159.480912 -179.220169 
L 159.503034 -180.955762 
L 160.12903 -182.691355 
L 161.560839 -184.426948 
L 163.361333 -186.162541 
L 164.913709 -187.898134 
L 165.911146 -189.633727 
L 166.458379 -191.36932 
L 166.820281 -193.104913 
L 167.142336 -194.840506 
L 167.387178 -196.576099 
L 167.465519 -198.311692 
L 167.368452 -200.047285 
L 167.151035 -201.782879 
L 166.79617 -203.518472 
L 166.133197 -205.254065 
L 164.961735 -206.989658 
L 163.330052 -208.725251 
L 161.700308 -210.460844 
L 160.750345 -212.196437 
L 160.892042 -213.93203 
L 161.929513 -215.667623 
L 163.209157 -217.403216 
L 164.138538 -219.138809 
L 164.591676 -220.874402 
L 164.865435 -222.609995 
L 165.305611 -224.345588 
L 165.991818 -226.081181 
L 166.73496 -227.816774 
L 167.306531 -229.552367 
L 167.637022 -231.28796 
L 167.820942 -233.023553 
L 167.982154 -234.759146 
L 168.159228 -236.494739 
L 168.306361 -238.230332 
L 168.37619 -239.965925 
L 168.385824 -241.701518 
L 168.406276 -243.437111 
L 168.499112 -245.172704 
L 168.668089 -246.908297 
L 168.865819 -248.64389 
L 169.036917 -250.379483 
L 169.152897 -252.115076 
L 169.365853 -252.115076 
L 169.365853 -252.115076 
L 169.481833 -250.379483 
L 169.652931 -248.64389 
L 169.850661 -246.908297 
L 170.019638 -245.172704 
L 170.112474 -243.437111 
L 170.132926 -241.701518 
L 170.14256 -239.965925 
L 170.212389 -238.230332 
L 170.359522 -236.494739 
L 170.536596 -234.759146 
L 170.697808 -233.023553 
L 170.881728 -231.28796 
L 171.212219 -229.552367 
L 171.78379 -227.816774 
L 172.526932 -226.081181 
L 173.213139 -224.345588 
L 173.653315 -222.609995 
L 173.927074 -220.874402 
L 174.380212 -219.138809 
L 175.309593 -217.403216 
L 176.589237 -215.667623 
L 177.626708 -213.93203 
L 177.768405 -212.196437 
L 176.818442 -210.460844 
L 175.188698 -208.725251 
L 173.557015 -206.989658 
L 172.385553 -205.254065 
L 171.72258 -203.518472 
L 171.367715 -201.782879 
L 171.150298 -200.047285 
L 171.053231 -198.311692 
L 171.131572 -196.576099 
L 171.376414 -194.840506 
L 171.698469 -193.104913 
L 172.060371 -191.36932 
L 172.607604 -189.633727 
L 173.605041 -187.898134 
L 175.157417 -186.162541 
L 176.957911 -184.426948 
L 178.38972 -182.691355 
L 179.015716 -180.955762 
L 179.037838 -179.220169 
L 179.204081 -177.484576 
L 180.125768 -175.748983 
L 181.604251 -174.01339 
L 182.651375 -172.277797 
L 182.252003 -170.542204 
L 180.179699 -168.806611 
L 177.131891 -167.071018 
L 174.150907 -165.335425 
L 171.944294 -163.599832 
L 170.647836 -161.864239 
L 170.032594 -160.128646 
L 169.814381 -158.393053 
L 169.809023 -156.65746 
L 169.919182 -154.921867 
L 170.067805 -153.186274 
L 170.174243 -151.450681 
L 170.186555 -149.715088 
L 170.118355 -147.979495 
L 170.036763 -146.243902 
L 170.003233 -144.508309 
L 170.021529 -142.772716 
L 170.041745 -141.037123 
L 170.013574 -139.30153 
L 169.934864 -137.565937 
L 169.84979 -135.830344 
L 169.803503 -134.094751 
L 169.801572 -132.359158 
L 169.813019 -130.623565 
L 169.809478 -128.887972 
L 169.797806 -127.152379 
L 169.812089 -125.416786 
L 169.873118 -123.681193 
L 169.95739 -121.9456 
L 170.009828 -120.210007 
L 169.990879 -118.474414 
L 169.912324 -116.738821 
L 169.826016 -115.003228 
L 169.777004 -113.267635 
L 169.767054 -111.532042 
L 169.761168 -109.796449 
L 169.725856 -108.060856 
L 169.659755 -106.325263 
L 169.589872 -104.58967 
L 169.54274 -102.854077 
L 169.521298 -101.118484 
L 169.507205 -99.382891 
L 169.481282 -97.647298 
L 169.440086 -95.911705 
L 169.395072 -94.176112 
L 169.359512 -92.440519 
L 169.337683 -90.704926 
L 169.324614 -88.969333 
L 169.313108 -87.23374 
L 169.299811 -85.498147 
L 169.285948 -83.762554 
L 169.274324 -82.026961 
L 169.266518 -80.291368 
z
" style="stroke: #3d3d3d; stroke-width: 1.25"/>
    </defs>
    <g clip-path="url(#pc05f20e92b)">
     <use xlink:href="#md0a3c52666" x="0" y="304.537188" style="fill: #c03d3e; stroke: #3d3d3d; stroke-width: 1.25"/>
    </g>
   </g>
   <g id="PolyCollection_5">
    <defs>
     <path id="mdf6fa3b419" d="M 202.752412 -78.517013 
L 202.726338 -78.517013 
L 202.714677 -80.288451 
L 202.697576 -82.05989 
L 202.675764 -83.831328 
L 202.651281 -85.602767 
L 202.626093 -87.374206 
L 202.60014 -89.145644 
L 202.570651 -90.917083 
L 202.534107 -92.688521 
L 202.489889 -94.45996 
L 202.442219 -96.231398 
L 202.397592 -98.002837 
L 202.359002 -99.774276 
L 202.322248 -101.545714 
L 202.278741 -103.317153 
L 202.223024 -105.088591 
L 202.157472 -106.86003 
L 202.088366 -108.631468 
L 202.016498 -110.402907 
L 201.933022 -112.174345 
L 201.827967 -113.945784 
L 201.705782 -115.717223 
L 201.592288 -117.488661 
L 201.522501 -119.2601 
L 201.516589 -121.031538 
L 201.564312 -122.802977 
L 201.632197 -124.574415 
L 201.686835 -126.345854 
L 201.713044 -128.117293 
L 201.712181 -129.888731 
L 201.68693 -131.66017 
L 201.632288 -133.431608 
L 201.5442 -135.203047 
L 201.436184 -136.974485 
L 201.343047 -138.745924 
L 201.302425 -140.517363 
L 201.328256 -142.288801 
L 201.400911 -144.06024 
L 201.484321 -145.831678 
L 201.554935 -147.603117 
L 201.616358 -149.374555 
L 201.687517 -151.145994 
L 201.775755 -152.917432 
L 201.855391 -154.688871 
L 201.860255 -156.46031 
L 201.682651 -158.231748 
L 201.173514 -160.003187 
L 200.160276 -161.774625 
L 198.512836 -163.546064 
L 196.260093 -165.317502 
L 193.692685 -167.088941 
L 191.342865 -168.86038 
L 189.785263 -170.631818 
L 189.347375 -172.403257 
L 189.932525 -174.174695 
L 191.105073 -175.946134 
L 192.383305 -177.717572 
L 193.513536 -179.489011 
L 194.527417 -181.26045 
L 195.582489 -183.031888 
L 196.758721 -184.803327 
L 197.980493 -186.574765 
L 199.089443 -188.346204 
L 199.965117 -190.117642 
L 200.583931 -191.889081 
L 200.99274 -193.66052 
L 201.249135 -195.431958 
L 201.385059 -197.203397 
L 201.405173 -198.974835 
L 201.2961 -200.746274 
L 201.028664 -202.517712 
L 200.56397 -204.289151 
L 199.884527 -206.060589 
L 199.044979 -207.832028 
L 198.198833 -209.603467 
L 197.555702 -211.374905 
L 197.276391 -213.146344 
L 197.378336 -214.917782 
L 197.731608 -216.689221 
L 198.155347 -218.460659 
L 198.537553 -220.232098 
L 198.883017 -222.003537 
L 199.262527 -223.774975 
L 199.722438 -225.546414 
L 200.236244 -227.317852 
L 200.72768 -229.089291 
L 201.12833 -230.860729 
L 201.414099 -232.632168 
L 201.599111 -234.403607 
L 201.708419 -236.175045 
L 201.761629 -237.946484 
L 201.777486 -239.717922 
L 201.784326 -241.489361 
L 201.817915 -243.260799 
L 201.905047 -245.032238 
L 202.047667 -246.803676 
L 202.22199 -248.575115 
L 202.39305 -250.346554 
L 202.532797 -252.117992 
L 202.629809 -253.889431 
L 202.848941 -253.889431 
L 202.848941 -253.889431 
L 202.945953 -252.117992 
L 203.0857 -250.346554 
L 203.25676 -248.575115 
L 203.431083 -246.803676 
L 203.573703 -245.032238 
L 203.660835 -243.260799 
L 203.694424 -241.489361 
L 203.701264 -239.717922 
L 203.717121 -237.946484 
L 203.770331 -236.175045 
L 203.879639 -234.403607 
L 204.064651 -232.632168 
L 204.35042 -230.860729 
L 204.75107 -229.089291 
L 205.242506 -227.317852 
L 205.756312 -225.546414 
L 206.216223 -223.774975 
L 206.595733 -222.003537 
L 206.941197 -220.232098 
L 207.323403 -218.460659 
L 207.747142 -216.689221 
L 208.100414 -214.917782 
L 208.202359 -213.146344 
L 207.923048 -211.374905 
L 207.279917 -209.603467 
L 206.433771 -207.832028 
L 205.594223 -206.060589 
L 204.91478 -204.289151 
L 204.450086 -202.517712 
L 204.18265 -200.746274 
L 204.073577 -198.974835 
L 204.093691 -197.203397 
L 204.229615 -195.431958 
L 204.48601 -193.66052 
L 204.894819 -191.889081 
L 205.513633 -190.117642 
L 206.389307 -188.346204 
L 207.498257 -186.574765 
L 208.720029 -184.803327 
L 209.896261 -183.031888 
L 210.951333 -181.26045 
L 211.965214 -179.489011 
L 213.095445 -177.717572 
L 214.373677 -175.946134 
L 215.546225 -174.174695 
L 216.131375 -172.403257 
L 215.693487 -170.631818 
L 214.135885 -168.86038 
L 211.786065 -167.088941 
L 209.218657 -165.317502 
L 206.965914 -163.546064 
L 205.318474 -161.774625 
L 204.305236 -160.003187 
L 203.796099 -158.231748 
L 203.618495 -156.46031 
L 203.623359 -154.688871 
L 203.702995 -152.917432 
L 203.791233 -151.145994 
L 203.862392 -149.374555 
L 203.923815 -147.603117 
L 203.994429 -145.831678 
L 204.077839 -144.06024 
L 204.150494 -142.288801 
L 204.176325 -140.517363 
L 204.135703 -138.745924 
L 204.042566 -136.974485 
L 203.93455 -135.203047 
L 203.846462 -133.431608 
L 203.79182 -131.66017 
L 203.766569 -129.888731 
L 203.765706 -128.117293 
L 203.791915 -126.345854 
L 203.846553 -124.574415 
L 203.914438 -122.802977 
L 203.962161 -121.031538 
L 203.956249 -119.2601 
L 203.886462 -117.488661 
L 203.772968 -115.717223 
L 203.650783 -113.945784 
L 203.545728 -112.174345 
L 203.462252 -110.402907 
L 203.390384 -108.631468 
L 203.321278 -106.86003 
L 203.255726 -105.088591 
L 203.200009 -103.317153 
L 203.156502 -101.545714 
L 203.119748 -99.774276 
L 203.081158 -98.002837 
L 203.036531 -96.231398 
L 202.988861 -94.45996 
L 202.944643 -92.688521 
L 202.908099 -90.917083 
L 202.87861 -89.145644 
L 202.852657 -87.374206 
L 202.827469 -85.602767 
L 202.802986 -83.831328 
L 202.781174 -82.05989 
L 202.764073 -80.288451 
L 202.752412 -78.517013 
z
" style="stroke: #3d3d3d; stroke-width: 1.25"/>
    </defs>
    <g clip-path="url(#pc05f20e92b)">
     <use xlink:href="#mdf6fa3b419" x="0" y="304.537188" style="fill: #9372b2; stroke: #3d3d3d; stroke-width: 1.25"/>
    </g>
   </g>
   <g id="PolyCollection_6">
    <defs>
     <path id="m79eddc4e82" d="M 236.236274 -75.800573 
L 236.202476 -75.800573 
L 236.190258 -77.626889 
L 236.172543 -79.453205 
L 236.148699 -81.279522 
L 236.11861 -83.105838 
L 236.082483 -84.932154 
L 236.040474 -86.75847 
L 235.992422 -88.584786 
L 235.938016 -90.411102 
L 235.877366 -92.237418 
L 235.811536 -94.063735 
L 235.742349 -95.890051 
L 235.67124 -97.716367 
L 235.597603 -99.542683 
L 235.517567 -101.368999 
L 235.423866 -103.195315 
L 235.306784 -105.021631 
L 235.155851 -106.847947 
L 234.962384 -108.674264 
L 234.723412 -110.50058 
L 234.446794 -112.326896 
L 234.155326 -114.153212 
L 233.886022 -115.979528 
L 233.681931 -117.805844 
L 233.578095 -119.63216 
L 233.587887 -121.458476 
L 233.697036 -123.284793 
L 233.868697 -125.111109 
L 234.056596 -126.937425 
L 234.219372 -128.763741 
L 234.330205 -130.590057 
L 234.379998 -132.416373 
L 234.375757 -134.242689 
L 234.336362 -136.069006 
L 234.286622 -137.895322 
L 234.250168 -139.721638 
L 234.24294 -141.547954 
L 234.270027 -143.37427 
L 234.327279 -145.200586 
L 234.40575 -147.026902 
L 234.494455 -148.853218 
L 234.577609 -150.679535 
L 234.626261 -152.505851 
L 234.588446 -154.332167 
L 234.384392 -156.158483 
L 233.913243 -157.984799 
L 233.075549 -159.811115 
L 231.810731 -161.637431 
L 230.140249 -163.463748 
L 228.197623 -165.290064 
L 226.223209 -167.11638 
L 224.512419 -168.942696 
L 223.330075 -170.769012 
L 222.827375 -172.595328 
L 223.002699 -174.421644 
L 223.725293 -176.24796 
L 224.804753 -178.074277 
L 226.064663 -179.900593 
L 227.383111 -181.726909 
L 228.690552 -183.553225 
L 229.943626 -185.379541 
L 231.102084 -187.205857 
L 232.123628 -189.032173 
L 232.972791 -190.85849 
L 233.630551 -192.684806 
L 234.095099 -194.511122 
L 234.373837 -196.337438 
L 234.473372 -198.163754 
L 234.394719 -199.99007 
L 234.137265 -201.816386 
L 233.710472 -203.642702 
L 233.148149 -205.469019 
L 232.517124 -207.295335 
L 231.912374 -209.121651 
L 231.436116 -210.947967 
L 231.167751 -212.774283 
L 231.139023 -214.600599 
L 231.327683 -216.426915 
L 231.672762 -218.253232 
L 232.101809 -220.079548 
L 232.554737 -221.905864 
L 232.993795 -223.73218 
L 233.399968 -225.558496 
L 233.763909 -227.384812 
L 234.079509 -229.211128 
L 234.342711 -231.037444 
L 234.553156 -232.863761 
L 234.715397 -234.690077 
L 234.838603 -236.516393 
L 234.935525 -238.342709 
L 235.021277 -240.169025 
L 235.11137 -241.995341 
L 235.218406 -243.821657 
L 235.348226 -245.647973 
L 235.49763 -247.47429 
L 235.655416 -249.300606 
L 235.806591 -251.126922 
L 235.937706 -252.953238 
L 236.04077 -254.779554 
L 236.114359 -256.60587 
L 236.324391 -256.60587 
L 236.324391 -256.60587 
L 236.39798 -254.779554 
L 236.501044 -252.953238 
L 236.632159 -251.126922 
L 236.783334 -249.300606 
L 236.94112 -247.47429 
L 237.090524 -245.647973 
L 237.220344 -243.821657 
L 237.32738 -241.995341 
L 237.417473 -240.169025 
L 237.503225 -238.342709 
L 237.600147 -236.516393 
L 237.723353 -234.690077 
L 237.885594 -232.863761 
L 238.096039 -231.037444 
L 238.359241 -229.211128 
L 238.674841 -227.384812 
L 239.038782 -225.558496 
L 239.444955 -223.73218 
L 239.884013 -221.905864 
L 240.336941 -220.079548 
L 240.765988 -218.253232 
L 241.111067 -216.426915 
L 241.299727 -214.600599 
L 241.270999 -212.774283 
L 241.002634 -210.947967 
L 240.526376 -209.121651 
L 239.921626 -207.295335 
L 239.290601 -205.469019 
L 238.728278 -203.642702 
L 238.301485 -201.816386 
L 238.044031 -199.99007 
L 237.965378 -198.163754 
L 238.064913 -196.337438 
L 238.343651 -194.511122 
L 238.808199 -192.684806 
L 239.465959 -190.85849 
L 240.315122 -189.032173 
L 241.336666 -187.205857 
L 242.495124 -185.379541 
L 243.748198 -183.553225 
L 245.055639 -181.726909 
L 246.374087 -179.900593 
L 247.633997 -178.074277 
L 248.713457 -176.24796 
L 249.436051 -174.421644 
L 249.611375 -172.595328 
L 249.108675 -170.769012 
L 247.926331 -168.942696 
L 246.215541 -167.11638 
L 244.241127 -165.290064 
L 242.298501 -163.463748 
L 240.628019 -161.637431 
L 239.363201 -159.811115 
L 238.525507 -157.984799 
L 238.054358 -156.158483 
L 237.850304 -154.332167 
L 237.812489 -152.505851 
L 237.861141 -150.679535 
L 237.944295 -148.853218 
L 238.033 -147.026902 
L 238.111471 -145.200586 
L 238.168723 -143.37427 
L 238.19581 -141.547954 
L 238.188582 -139.721638 
L 238.152128 -137.895322 
L 238.102388 -136.069006 
L 238.062993 -134.242689 
L 238.058752 -132.416373 
L 238.108545 -130.590057 
L 238.219378 -128.763741 
L 238.382154 -126.937425 
L 238.570053 -125.111109 
L 238.741714 -123.284793 
L 238.850863 -121.458476 
L 238.860655 -119.63216 
L 238.756819 -117.805844 
L 238.552728 -115.979528 
L 238.283424 -114.153212 
L 237.991956 -112.326896 
L 237.715338 -110.50058 
L 237.476366 -108.674264 
L 237.282899 -106.847947 
L 237.131966 -105.021631 
L 237.014884 -103.195315 
L 236.921183 -101.368999 
L 236.841147 -99.542683 
L 236.76751 -97.716367 
L 236.696401 -95.890051 
L 236.627214 -94.063735 
L 236.561384 -92.237418 
L 236.500734 -90.411102 
L 236.446328 -88.584786 
L 236.398276 -86.75847 
L 236.356267 -84.932154 
L 236.32014 -83.105838 
L 236.290051 -81.279522 
L 236.266207 -79.453205 
L 236.248492 -77.626889 
L 236.236274 -75.800573 
z
" style="stroke: #3d3d3d; stroke-width: 1.25"/>
    </defs>
    <g clip-path="url(#pc05f20e92b)">
     <use xlink:href="#m79eddc4e82" x="0" y="304.537188" style="fill: #845b53; stroke: #3d3d3d; stroke-width: 1.25"/>
    </g>
   </g>
   <g id="PolyCollection_7">
    <defs>
     <path id="mc780b081f0" d="M 269.717962 -70.611543 
L 269.680788 -70.611543 
L 269.670306 -72.542688 
L 269.65546 -74.473833 
L 269.635151 -76.404978 
L 269.608228 -78.336123 
L 269.573506 -80.267268 
L 269.529762 -82.198413 
L 269.47569 -84.129558 
L 269.409825 -86.060703 
L 269.330445 -87.991848 
L 269.235467 -89.922993 
L 269.122354 -91.854138 
L 268.988066 -93.785283 
L 268.829105 -95.716428 
L 268.641706 -97.647573 
L 268.422262 -99.578718 
L 268.168045 -101.509863 
L 267.878248 -103.441008 
L 267.55526 -105.372153 
L 267.205949 -107.303298 
L 266.842577 -109.234443 
L 266.482863 -111.165588 
L 266.14879 -113.096733 
L 265.864 -115.027878 
L 265.650068 -116.959023 
L 265.522428 -118.890168 
L 265.487032 -120.821314 
L 265.538786 -122.752459 
L 265.662383 -124.683604 
L 265.835438 -126.614749 
L 266.033119 -128.545894 
L 266.233004 -130.477039 
L 266.418881 -132.408184 
L 266.582563 -134.339329 
L 266.723432 -136.270474 
L 266.846012 -138.201619 
L 266.956317 -140.132764 
L 267.057795 -142.063909 
L 267.14764 -143.995054 
L 267.213966 -145.926199 
L 267.234243 -147.857344 
L 267.175367 -149.788489 
L 266.995828 -151.719634 
L 266.650467 -153.650779 
L 266.098 -155.581924 
L 265.31078 -157.513069 
L 264.285188 -159.444214 
L 263.050107 -161.375359 
L 261.670497 -163.306504 
L 260.2438 -165.237649 
L 258.888616 -167.168794 
L 257.727443 -169.099939 
L 256.867317 -171.031084 
L 256.3831 -172.962229 
L 256.307375 -174.893374 
L 256.628869 -176.824519 
L 257.298697 -178.755664 
L 258.24173 -180.686809 
L 259.369561 -182.617955 
L 260.592074 -184.5491 
L 261.825898 -186.480245 
L 262.999429 -188.41139 
L 264.055046 -190.342535 
L 264.94956 -192.27368 
L 265.653865 -194.204825 
L 266.152497 -196.13597 
L 266.443461 -198.067115 
L 266.538306 -199.99826 
L 266.462071 -201.929405 
L 266.252397 -203.86055 
L 265.957095 -205.791695 
L 265.629751 -207.72284 
L 265.323618 -209.653985 
L 265.084759 -211.58513 
L 264.945992 -213.516275 
L 264.923108 -215.44742 
L 265.014352 -217.378565 
L 265.203187 -219.30971 
L 265.463437 -221.240855 
L 265.765364 -223.172 
L 266.081183 -225.103145 
L 266.388963 -227.03429 
L 266.674503 -228.965435 
L 266.931379 -230.89658 
L 267.159711 -232.827725 
L 267.36426 -234.75887 
L 267.552373 -236.690015 
L 267.73207 -238.62116 
L 267.910437 -240.552305 
L 268.092393 -242.48345 
L 268.279925 -244.414596 
L 268.47186 -246.345741 
L 268.664222 -248.276886 
L 268.851114 -250.208031 
L 269.025955 -252.139176 
L 269.182766 -254.070321 
L 269.31723 -256.001466 
L 269.427279 -257.932611 
L 269.513159 -259.863756 
L 269.577024 -261.794901 
L 269.821726 -261.794901 
L 269.821726 -261.794901 
L 269.885591 -259.863756 
L 269.971471 -257.932611 
L 270.08152 -256.001466 
L 270.215984 -254.070321 
L 270.372795 -252.139176 
L 270.547636 -250.208031 
L 270.734528 -248.276886 
L 270.92689 -246.345741 
L 271.118825 -244.414596 
L 271.306357 -242.48345 
L 271.488313 -240.552305 
L 271.66668 -238.62116 
L 271.846377 -236.690015 
L 272.03449 -234.75887 
L 272.239039 -232.827725 
L 272.467371 -230.89658 
L 272.724247 -228.965435 
L 273.009787 -227.03429 
L 273.317567 -225.103145 
L 273.633386 -223.172 
L 273.935313 -221.240855 
L 274.195563 -219.30971 
L 274.384398 -217.378565 
L 274.475642 -215.44742 
L 274.452758 -213.516275 
L 274.313991 -211.58513 
L 274.075132 -209.653985 
L 273.768999 -207.72284 
L 273.441655 -205.791695 
L 273.146353 -203.86055 
L 272.936679 -201.929405 
L 272.860444 -199.99826 
L 272.955289 -198.067115 
L 273.246253 -196.13597 
L 273.744885 -194.204825 
L 274.44919 -192.27368 
L 275.343704 -190.342535 
L 276.399321 -188.41139 
L 277.572852 -186.480245 
L 278.806676 -184.5491 
L 280.029189 -182.617955 
L 281.15702 -180.686809 
L 282.100053 -178.755664 
L 282.769881 -176.824519 
L 283.091375 -174.893374 
L 283.01565 -172.962229 
L 282.531433 -171.031084 
L 281.671307 -169.099939 
L 280.510134 -167.168794 
L 279.15495 -165.237649 
L 277.728253 -163.306504 
L 276.348643 -161.375359 
L 275.113562 -159.444214 
L 274.08797 -157.513069 
L 273.30075 -155.581924 
L 272.748283 -153.650779 
L 272.402922 -151.719634 
L 272.223383 -149.788489 
L 272.164507 -147.857344 
L 272.184784 -145.926199 
L 272.25111 -143.995054 
L 272.340955 -142.063909 
L 272.442433 -140.132764 
L 272.552738 -138.201619 
L 272.675318 -136.270474 
L 272.816187 -134.339329 
L 272.979869 -132.408184 
L 273.165746 -130.477039 
L 273.365631 -128.545894 
L 273.563312 -126.614749 
L 273.736367 -124.683604 
L 273.859964 -122.752459 
L 273.911718 -120.821314 
L 273.876322 -118.890168 
L 273.748682 -116.959023 
L 273.53475 -115.027878 
L 273.24996 -113.096733 
L 272.915887 -111.165588 
L 272.556173 -109.234443 
L 272.192801 -107.303298 
L 271.84349 -105.372153 
L 271.520502 -103.441008 
L 271.230705 -101.509863 
L 270.976488 -99.578718 
L 270.757044 -97.647573 
L 270.569645 -95.716428 
L 270.410684 -93.785283 
L 270.276396 -91.854138 
L 270.163283 -89.922993 
L 270.068305 -87.991848 
L 269.988925 -86.060703 
L 269.92306 -84.129558 
L 269.868988 -82.198413 
L 269.825244 -80.267268 
L 269.790522 -78.336123 
L 269.763599 -76.404978 
L 269.74329 -74.473833 
L 269.728444 -72.542688 
L 269.717962 -70.611543 
z
" style="stroke: #3d3d3d; stroke-width: 1.25"/>
    </defs>
    <g clip-path="url(#pc05f20e92b)">
     <use xlink:href="#mc780b081f0" x="0" y="304.537188" style="fill: #d684bd; stroke: #3d3d3d; stroke-width: 1.25"/>
    </g>
   </g>
   <g id="PolyCollection_8">
    <defs>
     <path id="m8cf6ce7cad" d="M 303.404161 -70.593194 
L 302.954589 -70.593194 
L 302.875637 -72.62901 
L 302.77586 -74.664827 
L 302.652091 -76.700644 
L 302.50133 -78.736461 
L 302.320912 -80.772278 
L 302.108682 -82.808095 
L 301.863172 -84.843912 
L 301.583751 -86.879728 
L 301.270778 -88.915545 
L 300.925733 -90.951362 
L 300.551349 -92.987179 
L 300.151736 -95.022996 
L 299.732492 -97.058813 
L 299.300778 -99.09463 
L 298.865334 -101.130446 
L 298.436386 -103.166263 
L 298.025405 -105.20208 
L 297.644684 -107.237897 
L 297.306726 -109.273714 
L 297.023453 -111.309531 
L 296.805303 -113.345348 
L 296.660291 -115.381164 
L 296.59316 -117.416981 
L 296.604714 -119.452798 
L 296.691446 -121.488615 
L 296.845503 -123.524432 
L 297.055001 -125.560249 
L 297.304641 -127.596066 
L 297.576533 -129.631882 
L 297.851134 -131.667699 
L 298.108162 -133.703516 
L 298.327434 -135.739333 
L 298.489573 -137.77515 
L 298.576603 -139.810967 
L 298.57249 -141.846784 
L 298.463714 -143.8826 
L 298.23993 -145.918417 
L 297.894778 -147.954234 
L 297.426812 -149.990051 
L 296.840457 -152.025868 
L 296.146847 -154.061685 
L 295.364351 -156.097502 
L 294.518577 -158.133318 
L 293.64171 -160.169135 
L 292.771085 -162.204952 
L 291.947037 -164.240769 
L 291.210166 -166.276586 
L 290.598282 -168.312403 
L 290.14334 -170.34822 
L 289.868753 -172.384036 
L 289.787375 -174.419853 
L 289.900421 -176.45567 
L 290.197442 -178.491487 
L 290.657351 -180.527304 
L 291.250361 -182.563121 
L 291.940597 -184.598938 
L 292.689095 -186.634754 
L 293.456847 -188.670571 
L 294.207626 -190.706388 
L 294.910334 -192.742205 
L 295.540716 -194.778022 
L 296.082365 -196.813839 
L 296.527002 -198.849656 
L 296.874098 -200.885472 
L 297.129941 -202.921289 
L 297.306302 -204.957106 
L 297.418846 -206.992923 
L 297.48545 -209.02874 
L 297.524602 -211.064557 
L 297.553967 -213.100374 
L 297.589261 -215.13619 
L 297.643444 -217.172007 
L 297.726276 -219.207824 
L 297.844196 -221.243641 
L 298.000467 -223.279458 
L 298.195518 -225.315275 
L 298.427404 -227.351092 
L 298.692307 -229.386908 
L 298.985028 -231.422725 
L 299.299435 -233.458542 
L 299.628854 -235.494359 
L 299.966395 -237.530176 
L 300.305246 -239.565993 
L 300.638912 -241.60181 
L 300.961445 -243.637626 
L 301.267633 -245.673443 
L 301.553163 -247.70926 
L 301.814739 -249.745077 
L 302.050146 -251.780894 
L 302.258251 -253.816711 
L 302.438948 -255.852528 
L 302.593041 -257.888344 
L 302.722088 -259.924161 
L 302.82821 -261.959978 
L 302.913904 -263.995795 
L 302.981849 -266.031612 
L 303.034746 -268.067429 
L 303.07518 -270.103246 
L 303.105528 -272.139062 
L 303.253222 -272.139062 
L 303.253222 -272.139062 
L 303.28357 -270.103246 
L 303.324004 -268.067429 
L 303.376901 -266.031612 
L 303.444846 -263.995795 
L 303.53054 -261.959978 
L 303.636662 -259.924161 
L 303.765709 -257.888344 
L 303.919802 -255.852528 
L 304.100499 -253.816711 
L 304.308604 -251.780894 
L 304.544011 -249.745077 
L 304.805587 -247.70926 
L 305.091117 -245.673443 
L 305.397305 -243.637626 
L 305.719838 -241.60181 
L 306.053504 -239.565993 
L 306.392355 -237.530176 
L 306.729896 -235.494359 
L 307.059315 -233.458542 
L 307.373722 -231.422725 
L 307.666443 -229.386908 
L 307.931346 -227.351092 
L 308.163232 -225.315275 
L 308.358283 -223.279458 
L 308.514554 -221.243641 
L 308.632474 -219.207824 
L 308.715306 -217.172007 
L 308.769489 -215.13619 
L 308.804783 -213.100374 
L 308.834148 -211.064557 
L 308.8733 -209.02874 
L 308.939904 -206.992923 
L 309.052448 -204.957106 
L 309.228809 -202.921289 
L 309.484652 -200.885472 
L 309.831748 -198.849656 
L 310.276385 -196.813839 
L 310.818034 -194.778022 
L 311.448416 -192.742205 
L 312.151124 -190.706388 
L 312.901903 -188.670571 
L 313.669655 -186.634754 
L 314.418153 -184.598938 
L 315.108389 -182.563121 
L 315.701399 -180.527304 
L 316.161308 -178.491487 
L 316.458329 -176.45567 
L 316.571375 -174.419853 
L 316.489997 -172.384036 
L 316.21541 -170.34822 
L 315.760468 -168.312403 
L 315.148584 -166.276586 
L 314.411713 -164.240769 
L 313.587665 -162.204952 
L 312.71704 -160.169135 
L 311.840173 -158.133318 
L 310.994399 -156.097502 
L 310.211903 -154.061685 
L 309.518293 -152.025868 
L 308.931938 -149.990051 
L 308.463972 -147.954234 
L 308.11882 -145.918417 
L 307.895036 -143.8826 
L 307.78626 -141.846784 
L 307.782147 -139.810967 
L 307.869177 -137.77515 
L 308.031316 -135.739333 
L 308.250588 -133.703516 
L 308.507616 -131.667699 
L 308.782217 -129.631882 
L 309.054109 -127.596066 
L 309.303749 -125.560249 
L 309.513247 -123.524432 
L 309.667304 -121.488615 
L 309.754036 -119.452798 
L 309.76559 -117.416981 
L 309.698459 -115.381164 
L 309.553447 -113.345348 
L 309.335297 -111.309531 
L 309.052024 -109.273714 
L 308.714066 -107.237897 
L 308.333345 -105.20208 
L 307.922364 -103.166263 
L 307.493416 -101.130446 
L 307.057972 -99.09463 
L 306.626258 -97.058813 
L 306.207014 -95.022996 
L 305.807401 -92.987179 
L 305.433017 -90.951362 
L 305.087972 -88.915545 
L 304.774999 -86.879728 
L 304.495578 -84.843912 
L 304.250068 -82.808095 
L 304.037838 -80.772278 
L 303.85742 -78.736461 
L 303.706659 -76.700644 
L 303.58289 -74.664827 
L 303.483113 -72.62901 
L 303.404161 -70.593194 
z
" style="stroke: #3d3d3d; stroke-width: 1.25"/>
    </defs>
    <g clip-path="url(#pc05f20e92b)">
     <use xlink:href="#m8cf6ce7cad" x="0" y="304.537188" style="fill: #7f7f7f; stroke: #3d3d3d; stroke-width: 1.25"/>
    </g>
   </g>
   <g id="PolyCollection_9">
    <defs>
     <path id="meb5baf4309" d="M 336.733371 -70.539062 
L 336.585379 -70.539062 
L 336.562063 -72.471672 
L 336.533409 -74.404281 
L 336.498799 -76.33689 
L 336.457686 -78.2695 
L 336.409612 -80.202109 
L 336.354219 -82.134718 
L 336.291249 -84.067327 
L 336.220531 -85.999937 
L 336.141959 -87.932546 
L 336.055471 -89.865155 
L 335.961029 -91.797765 
L 335.858618 -93.730374 
L 335.748264 -95.662983 
L 335.630081 -97.595592 
L 335.504336 -99.528202 
L 335.37153 -101.460811 
L 335.232487 -103.39342 
L 335.088415 -105.326029 
L 334.94094 -107.258639 
L 334.792084 -109.191248 
L 334.64418 -111.123857 
L 334.499737 -113.056467 
L 334.361241 -114.989076 
L 334.230925 -116.921685 
L 334.110536 -118.854294 
L 334.001105 -120.786904 
L 333.902756 -122.719513 
L 333.814555 -124.652122 
L 333.734415 -126.584732 
L 333.659035 -128.517341 
L 333.583886 -130.44995 
L 333.503209 -132.382559 
L 333.41006 -134.315169 
L 333.296369 -136.247778 
L 333.153084 -138.180387 
L 332.970389 -140.112996 
L 332.73808 -142.045606 
L 332.446101 -143.978215 
L 332.085272 -145.910824 
L 331.648198 -147.843434 
L 331.130305 -149.776043 
L 330.530921 -151.708652 
L 329.854255 -153.641261 
L 329.110159 -155.573871 
L 328.314486 -157.50648 
L 327.488939 -159.439089 
L 326.660315 -161.371699 
L 325.859143 -163.304308 
L 325.117759 -165.236917 
L 324.467995 -167.169526 
L 323.938662 -169.102136 
L 323.553112 -171.034745 
L 323.327124 -172.967354 
L 323.267375 -174.899963 
L 323.370657 -176.832573 
L 323.623966 -178.765182 
L 324.00544 -180.697791 
L 324.486085 -182.630401 
L 325.032085 -184.56301 
L 325.607487 -186.495619 
L 326.176984 -188.428228 
L 326.708548 -190.360838 
L 327.175668 -192.293447 
L 327.559032 -194.226056 
L 327.847518 -196.158666 
L 328.038474 -198.091275 
L 328.137302 -200.023884 
L 328.156435 -201.956493 
L 328.113853 -203.889103 
L 328.031283 -205.821712 
L 327.932281 -207.754321 
L 327.840347 -209.68693 
L 327.777237 -211.61954 
L 327.761575 -213.552149 
L 327.807861 -215.484758 
L 327.925881 -217.417368 
L 328.12054 -219.349977 
L 328.392051 -221.282586 
L 328.736423 -223.215195 
L 329.146167 -225.147805 
L 329.611114 -227.080414 
L 330.119282 -229.013023 
L 330.657718 -230.945633 
L 331.21326 -232.878242 
L 331.773181 -234.810851 
L 332.325719 -236.74346 
L 332.86047 -238.67607 
L 333.368651 -240.608679 
L 333.843261 -242.541288 
L 334.279139 -244.473897 
L 334.672925 -246.406507 
L 335.022965 -248.339116 
L 335.329141 -250.271725 
L 335.592661 -252.204335 
L 335.81582 -254.136944 
L 336.001736 -256.069553 
L 336.154088 -258.002162 
L 336.27687 -259.934772 
L 336.374167 -261.867381 
L 336.944583 -261.867381 
L 336.944583 -261.867381 
L 337.04188 -259.934772 
L 337.164662 -258.002162 
L 337.317014 -256.069553 
L 337.50293 -254.136944 
L 337.726089 -252.204335 
L 337.989609 -250.271725 
L 338.295785 -248.339116 
L 338.645825 -246.406507 
L 339.039611 -244.473897 
L 339.475489 -242.541288 
L 339.950099 -240.608679 
L 340.45828 -238.67607 
L 340.993031 -236.74346 
L 341.545569 -234.810851 
L 342.10549 -232.878242 
L 342.661032 -230.945633 
L 343.199468 -229.013023 
L 343.707636 -227.080414 
L 344.172583 -225.147805 
L 344.582327 -223.215195 
L 344.926699 -221.282586 
L 345.19821 -219.349977 
L 345.392869 -217.417368 
L 345.510889 -215.484758 
L 345.557175 -213.552149 
L 345.541513 -211.61954 
L 345.478403 -209.68693 
L 345.386469 -207.754321 
L 345.287467 -205.821712 
L 345.204897 -203.889103 
L 345.162315 -201.956493 
L 345.181448 -200.023884 
L 345.280276 -198.091275 
L 345.471232 -196.158666 
L 345.759718 -194.226056 
L 346.143082 -192.293447 
L 346.610202 -190.360838 
L 347.141766 -188.428228 
L 347.711263 -186.495619 
L 348.286665 -184.56301 
L 348.832665 -182.630401 
L 349.31331 -180.697791 
L 349.694784 -178.765182 
L 349.948093 -176.832573 
L 350.051375 -174.899963 
L 349.991626 -172.967354 
L 349.765638 -171.034745 
L 349.380088 -169.102136 
L 348.850755 -167.169526 
L 348.200991 -165.236917 
L 347.459607 -163.304308 
L 346.658435 -161.371699 
L 345.829811 -159.439089 
L 345.004264 -157.50648 
L 344.208591 -155.573871 
L 343.464495 -153.641261 
L 342.787829 -151.708652 
L 342.188445 -149.776043 
L 341.670552 -147.843434 
L 341.233478 -145.910824 
L 340.872649 -143.978215 
L 340.58067 -142.045606 
L 340.348361 -140.112996 
L 340.165666 -138.180387 
L 340.022381 -136.247778 
L 339.90869 -134.315169 
L 339.815541 -132.382559 
L 339.734864 -130.44995 
L 339.659715 -128.517341 
L 339.584335 -126.584732 
L 339.504195 -124.652122 
L 339.415994 -122.719513 
L 339.317645 -120.786904 
L 339.208214 -118.854294 
L 339.087825 -116.921685 
L 338.957509 -114.989076 
L 338.819013 -113.056467 
L 338.67457 -111.123857 
L 338.526666 -109.191248 
L 338.37781 -107.258639 
L 338.230335 -105.326029 
L 338.086263 -103.39342 
L 337.94722 -101.460811 
L 337.814414 -99.528202 
L 337.688669 -97.595592 
L 337.570486 -95.662983 
L 337.460132 -93.730374 
L 337.357721 -91.797765 
L 337.263279 -89.865155 
L 337.176791 -87.932546 
L 337.098219 -85.999937 
L 337.027501 -84.067327 
L 336.964531 -82.134718 
L 336.909138 -80.202109 
L 336.861064 -78.2695 
L 336.819951 -76.33689 
L 336.785341 -74.404281 
L 336.756687 -72.471672 
L 336.733371 -70.539062 
z
" style="stroke: #3d3d3d; stroke-width: 1.25"/>
    </defs>
    <g clip-path="url(#pc05f20e92b)">
     <use xlink:href="#meb5baf4309" x="0" y="304.537188" style="fill: #a9aa35; stroke: #3d3d3d; stroke-width: 1.25"/>
    </g>
   </g>
   <g id="matplotlib.axis_1">
    <g id="xtick_1">
     <g id="line2d_1">
      <defs>
       <path id="m8483aa19a0" d="M 0 0 
L 0 3.5 
" style="stroke: #000000; stroke-width: 0.8"/>
      </defs>
      <g>
       <use xlink:href="#m8483aa19a0" x="68.819375" y="244.078125" style="stroke: #000000; stroke-width: 0.8"/>
      </g>
     </g>
     <g id="text_1">
      <!-- &lt; 18 -->
      <g transform="translate(71.57875 275.360938) rotate(-90) scale(0.1 -0.1)">
       <defs>
        <path id="DejaVuSans-3c" d="M 4684 3150 
L 1459 2003 
L 4684 863 
L 4684 294 
L 678 1747 
L 678 2266 
L 4684 3719 
L 4684 3150 
z
" transform="scale(0.015625)"/>
        <path id="DejaVuSans-20" transform="scale(0.015625)"/>
        <path id="DejaVuSans-31" d="M 794 531 
L 1825 531 
L 1825 4091 
L 703 3866 
L 703 4441 
L 1819 4666 
L 2450 4666 
L 2450 531 
L 3481 531 
L 3481 0 
L 794 0 
L 794 531 
z
" transform="scale(0.015625)"/>
        <path id="DejaVuSans-38" d="M 2034 2216 
Q 1584 2216 1326 1975 
Q 1069 1734 1069 1313 
Q 1069 891 1326 650 
Q 1584 409 2034 409 
Q 2484 409 2743 651 
Q 3003 894 3003 1313 
Q 3003 1734 2745 1975 
Q 2488 2216 2034 2216 
z
M 1403 2484 
Q 997 2584 770 2862 
Q 544 3141 544 3541 
Q 544 4100 942 4425 
Q 1341 4750 2034 4750 
Q 2731 4750 3128 4425 
Q 3525 4100 3525 3541 
Q 3525 3141 3298 2862 
Q 3072 2584 2669 2484 
Q 3125 2378 3379 2068 
Q 3634 1759 3634 1313 
Q 3634 634 3220 271 
Q 2806 -91 2034 -91 
Q 1263 -91 848 271 
Q 434 634 434 1313 
Q 434 1759 690 2068 
Q 947 2378 1403 2484 
z
M 1172 3481 
Q 1172 3119 1398 2916 
Q 1625 2713 2034 2713 
Q 2441 2713 2670 2916 
Q 2900 3119 2900 3481 
Q 2900 3844 2670 4047 
Q 2441 4250 2034 4250 
Q 1625 4250 1398 4047 
Q 1172 3844 1172 3481 
z
" transform="scale(0.015625)"/>
       </defs>
       <use xlink:href="#DejaVuSans-3c"/>
       <use xlink:href="#DejaVuSans-20" x="83.789062"/>
       <use xlink:href="#DejaVuSans-31" x="115.576172"/>
       <use xlink:href="#DejaVuSans-38" x="179.199219"/>
      </g>
     </g>
    </g>
    <g id="xtick_2">
     <g id="line2d_2">
      <g>
       <use xlink:href="#m8483aa19a0" x="102.299375" y="244.078125" style="stroke: #000000; stroke-width: 0.8"/>
      </g>
     </g>
     <g id="text_2">
      <!-- 18-29 -->
      <g transform="translate(105.05875 280.135938) rotate(-90) scale(0.1 -0.1)">
       <defs>
        <path id="DejaVuSans-2d" d="M 313 2009 
L 1997 2009 
L 1997 1497 
L 313 1497 
L 313 2009 
z
" transform="scale(0.015625)"/>
        <path id="DejaVuSans-32" d="M 1228 531 
L 3431 531 
L 3431 0 
L 469 0 
L 469 531 
Q 828 903 1448 1529 
Q 2069 2156 2228 2338 
Q 2531 2678 2651 2914 
Q 2772 3150 2772 3378 
Q 2772 3750 2511 3984 
Q 2250 4219 1831 4219 
Q 1534 4219 1204 4116 
Q 875 4013 500 3803 
L 500 4441 
Q 881 4594 1212 4672 
Q 1544 4750 1819 4750 
Q 2544 4750 2975 4387 
Q 3406 4025 3406 3419 
Q 3406 3131 3298 2873 
Q 3191 2616 2906 2266 
Q 2828 2175 2409 1742 
Q 1991 1309 1228 531 
z
" transform="scale(0.015625)"/>
        <path id="DejaVuSans-39" d="M 703 97 
L 703 672 
Q 941 559 1184 500 
Q 1428 441 1663 441 
Q 2288 441 2617 861 
Q 2947 1281 2994 2138 
Q 2813 1869 2534 1725 
Q 2256 1581 1919 1581 
Q 1219 1581 811 2004 
Q 403 2428 403 3163 
Q 403 3881 828 4315 
Q 1253 4750 1959 4750 
Q 2769 4750 3195 4129 
Q 3622 3509 3622 2328 
Q 3622 1225 3098 567 
Q 2575 -91 1691 -91 
Q 1453 -91 1209 -44 
Q 966 3 703 97 
z
M 1959 2075 
Q 2384 2075 2632 2365 
Q 2881 2656 2881 3163 
Q 2881 3666 2632 3958 
Q 2384 4250 1959 4250 
Q 1534 4250 1286 3958 
Q 1038 3666 1038 3163 
Q 1038 2656 1286 2365 
Q 1534 2075 1959 2075 
z
" transform="scale(0.015625)"/>
       </defs>
       <use xlink:href="#DejaVuSans-31"/>
       <use xlink:href="#DejaVuSans-38" x="63.623047"/>
       <use xlink:href="#DejaVuSans-2d" x="127.246094"/>
       <use xlink:href="#DejaVuSans-32" x="163.330078"/>
       <use xlink:href="#DejaVuSans-39" x="226.953125"/>
      </g>
     </g>
    </g>
    <g id="xtick_3">
     <g id="line2d_3">
      <g>
       <use xlink:href="#m8483aa19a0" x="135.779375" y="244.078125" style="stroke: #000000; stroke-width: 0.8"/>
      </g>
     </g>
     <g id="text_3">
      <!-- 30-39 -->
      <g transform="translate(138.53875 280.135938) rotate(-90) scale(0.1 -0.1)">
       <defs>
        <path id="DejaVuSans-33" d="M 2597 2516 
Q 3050 2419 3304 2112 
Q 3559 1806 3559 1356 
Q 3559 666 3084 287 
Q 2609 -91 1734 -91 
Q 1441 -91 1130 -33 
Q 819 25 488 141 
L 488 750 
Q 750 597 1062 519 
Q 1375 441 1716 441 
Q 2309 441 2620 675 
Q 2931 909 2931 1356 
Q 2931 1769 2642 2001 
Q 2353 2234 1838 2234 
L 1294 2234 
L 1294 2753 
L 1863 2753 
Q 2328 2753 2575 2939 
Q 2822 3125 2822 3475 
Q 2822 3834 2567 4026 
Q 2313 4219 1838 4219 
Q 1578 4219 1281 4162 
Q 984 4106 628 3988 
L 628 4550 
Q 988 4650 1302 4700 
Q 1616 4750 1894 4750 
Q 2613 4750 3031 4423 
Q 3450 4097 3450 3541 
Q 3450 3153 3228 2886 
Q 3006 2619 2597 2516 
z
" transform="scale(0.015625)"/>
        <path id="DejaVuSans-30" d="M 2034 4250 
Q 1547 4250 1301 3770 
Q 1056 3291 1056 2328 
Q 1056 1369 1301 889 
Q 1547 409 2034 409 
Q 2525 409 2770 889 
Q 3016 1369 3016 2328 
Q 3016 3291 2770 3770 
Q 2525 4250 2034 4250 
z
M 2034 4750 
Q 2819 4750 3233 4129 
Q 3647 3509 3647 2328 
Q 3647 1150 3233 529 
Q 2819 -91 2034 -91 
Q 1250 -91 836 529 
Q 422 1150 422 2328 
Q 422 3509 836 4129 
Q 1250 4750 2034 4750 
z
" transform="scale(0.015625)"/>
       </defs>
       <use xlink:href="#DejaVuSans-33"/>
       <use xlink:href="#DejaVuSans-30" x="63.623047"/>
       <use xlink:href="#DejaVuSans-2d" x="127.246094"/>
       <use xlink:href="#DejaVuSans-33" x="163.330078"/>
       <use xlink:href="#DejaVuSans-39" x="226.953125"/>
      </g>
     </g>
    </g>
    <g id="xtick_4">
     <g id="line2d_4">
      <g>
       <use xlink:href="#m8483aa19a0" x="169.259375" y="244.078125" style="stroke: #000000; stroke-width: 0.8"/>
      </g>
     </g>
     <g id="text_4">
      <!-- 40-49 -->
      <g transform="translate(172.01875 280.135938) rotate(-90) scale(0.1 -0.1)">
       <defs>
        <path id="DejaVuSans-34" d="M 2419 4116 
L 825 1625 
L 2419 1625 
L 2419 4116 
z
M 2253 4666 
L 3047 4666 
L 3047 1625 
L 3713 1625 
L 3713 1100 
L 3047 1100 
L 3047 0 
L 2419 0 
L 2419 1100 
L 313 1100 
L 313 1709 
L 2253 4666 
z
" transform="scale(0.015625)"/>
       </defs>
       <use xlink:href="#DejaVuSans-34"/>
       <use xlink:href="#DejaVuSans-30" x="63.623047"/>
       <use xlink:href="#DejaVuSans-2d" x="127.246094"/>
       <use xlink:href="#DejaVuSans-34" x="163.330078"/>
       <use xlink:href="#DejaVuSans-39" x="226.953125"/>
      </g>
     </g>
    </g>
    <g id="xtick_5">
     <g id="line2d_5">
      <g>
       <use xlink:href="#m8483aa19a0" x="202.739375" y="244.078125" style="stroke: #000000; stroke-width: 0.8"/>
      </g>
     </g>
     <g id="text_5">
      <!-- 50-59 -->
      <g transform="translate(205.49875 280.135938) rotate(-90) scale(0.1 -0.1)">
       <defs>
        <path id="DejaVuSans-35" d="M 691 4666 
L 3169 4666 
L 3169 4134 
L 1269 4134 
L 1269 2991 
Q 1406 3038 1543 3061 
Q 1681 3084 1819 3084 
Q 2600 3084 3056 2656 
Q 3513 2228 3513 1497 
Q 3513 744 3044 326 
Q 2575 -91 1722 -91 
Q 1428 -91 1123 -41 
Q 819 9 494 109 
L 494 744 
Q 775 591 1075 516 
Q 1375 441 1709 441 
Q 2250 441 2565 725 
Q 2881 1009 2881 1497 
Q 2881 1984 2565 2268 
Q 2250 2553 1709 2553 
Q 1456 2553 1204 2497 
Q 953 2441 691 2322 
L 691 4666 
z
" transform="scale(0.015625)"/>
       </defs>
       <use xlink:href="#DejaVuSans-35"/>
       <use xlink:href="#DejaVuSans-30" x="63.623047"/>
       <use xlink:href="#DejaVuSans-2d" x="127.246094"/>
       <use xlink:href="#DejaVuSans-35" x="163.330078"/>
       <use xlink:href="#DejaVuSans-39" x="226.953125"/>
      </g>
     </g>
    </g>
    <g id="xtick_6">
     <g id="line2d_6">
      <g>
       <use xlink:href="#m8483aa19a0" x="236.219375" y="244.078125" style="stroke: #000000; stroke-width: 0.8"/>
      </g>
     </g>
     <g id="text_6">
      <!-- 60-69 -->
      <g transform="translate(238.97875 280.135938) rotate(-90) scale(0.1 -0.1)">
       <defs>
        <path id="DejaVuSans-36" d="M 2113 2584 
Q 1688 2584 1439 2293 
Q 1191 2003 1191 1497 
Q 1191 994 1439 701 
Q 1688 409 2113 409 
Q 2538 409 2786 701 
Q 3034 994 3034 1497 
Q 3034 2003 2786 2293 
Q 2538 2584 2113 2584 
z
M 3366 4563 
L 3366 3988 
Q 3128 4100 2886 4159 
Q 2644 4219 2406 4219 
Q 1781 4219 1451 3797 
Q 1122 3375 1075 2522 
Q 1259 2794 1537 2939 
Q 1816 3084 2150 3084 
Q 2853 3084 3261 2657 
Q 3669 2231 3669 1497 
Q 3669 778 3244 343 
Q 2819 -91 2113 -91 
Q 1303 -91 875 529 
Q 447 1150 447 2328 
Q 447 3434 972 4092 
Q 1497 4750 2381 4750 
Q 2619 4750 2861 4703 
Q 3103 4656 3366 4563 
z
" transform="scale(0.015625)"/>
       </defs>
       <use xlink:href="#DejaVuSans-36"/>
       <use xlink:href="#DejaVuSans-30" x="63.623047"/>
       <use xlink:href="#DejaVuSans-2d" x="127.246094"/>
       <use xlink:href="#DejaVuSans-36" x="163.330078"/>
       <use xlink:href="#DejaVuSans-39" x="226.953125"/>
      </g>
     </g>
    </g>
    <g id="xtick_7">
     <g id="line2d_7">
      <g>
       <use xlink:href="#m8483aa19a0" x="269.699375" y="244.078125" style="stroke: #000000; stroke-width: 0.8"/>
      </g>
     </g>
     <g id="text_7">
      <!-- 70-79 -->
      <g transform="translate(272.45875 280.135938) rotate(-90) scale(0.1 -0.1)">
       <defs>
        <path id="DejaVuSans-37" d="M 525 4666 
L 3525 4666 
L 3525 4397 
L 1831 0 
L 1172 0 
L 2766 4134 
L 525 4134 
L 525 4666 
z
" transform="scale(0.015625)"/>
       </defs>
       <use xlink:href="#DejaVuSans-37"/>
       <use xlink:href="#DejaVuSans-30" x="63.623047"/>
       <use xlink:href="#DejaVuSans-2d" x="127.246094"/>
       <use xlink:href="#DejaVuSans-37" x="163.330078"/>
       <use xlink:href="#DejaVuSans-39" x="226.953125"/>
      </g>
     </g>
    </g>
    <g id="xtick_8">
     <g id="line2d_8">
      <g>
       <use xlink:href="#m8483aa19a0" x="303.179375" y="244.078125" style="stroke: #000000; stroke-width: 0.8"/>
      </g>
     </g>
     <g id="text_8">
      <!-- 80-89 -->
      <g transform="translate(305.93875 280.135938) rotate(-90) scale(0.1 -0.1)">
       <use xlink:href="#DejaVuSans-38"/>
       <use xlink:href="#DejaVuSans-30" x="63.623047"/>
       <use xlink:href="#DejaVuSans-2d" x="127.246094"/>
       <use xlink:href="#DejaVuSans-38" x="163.330078"/>
       <use xlink:href="#DejaVuSans-39" x="226.953125"/>
      </g>
     </g>
    </g>
    <g id="xtick_9">
     <g id="line2d_9">
      <g>
       <use xlink:href="#m8483aa19a0" x="336.659375" y="244.078125" style="stroke: #000000; stroke-width: 0.8"/>
      </g>
     </g>
     <g id="text_9">
      <!-- 90-99 -->
      <g transform="translate(339.41875 280.135938) rotate(-90) scale(0.1 -0.1)">
       <use xlink:href="#DejaVuSans-39"/>
       <use xlink:href="#DejaVuSans-30" x="63.623047"/>
       <use xlink:href="#DejaVuSans-2d" x="127.246094"/>
       <use xlink:href="#DejaVuSans-39" x="163.330078"/>
       <use xlink:href="#DejaVuSans-39" x="226.953125"/>
      </g>
     </g>
    </g>
    <g id="xtick_10">
     <g id="line2d_10">
      <g>
       <use xlink:href="#m8483aa19a0" x="370.139375" y="244.078125" style="stroke: #000000; stroke-width: 0.8"/>
      </g>
     </g>
     <g id="text_10">
      <!-- 100 + -->
      <g transform="translate(372.89875 281.723438) rotate(-90) scale(0.1 -0.1)">
       <defs>
        <path id="DejaVuSans-2b" d="M 2944 4013 
L 2944 2272 
L 4684 2272 
L 4684 1741 
L 2944 1741 
L 2944 0 
L 2419 0 
L 2419 1741 
L 678 1741 
L 678 2272 
L 2419 2272 
L 2419 4013 
L 2944 4013 
z
" transform="scale(0.015625)"/>
       </defs>
       <use xlink:href="#DejaVuSans-31"/>
       <use xlink:href="#DejaVuSans-30" x="63.623047"/>
       <use xlink:href="#DejaVuSans-30" x="127.246094"/>
       <use xlink:href="#DejaVuSans-20" x="190.869141"/>
       <use xlink:href="#DejaVuSans-2b" x="222.65625"/>
      </g>
     </g>
    </g>
    <g id="text_11">
     <!-- age_group -->
     <g transform="translate(187.878125 294.507812) scale(0.12 -0.12)">
      <defs>
       <path id="DejaVuSans-61" d="M 2194 1759 
Q 1497 1759 1228 1600 
Q 959 1441 959 1056 
Q 959 750 1161 570 
Q 1363 391 1709 391 
Q 2188 391 2477 730 
Q 2766 1069 2766 1631 
L 2766 1759 
L 2194 1759 
z
M 3341 1997 
L 3341 0 
L 2766 0 
L 2766 531 
Q 2569 213 2275 61 
Q 1981 -91 1556 -91 
Q 1019 -91 701 211 
Q 384 513 384 1019 
Q 384 1609 779 1909 
Q 1175 2209 1959 2209 
L 2766 2209 
L 2766 2266 
Q 2766 2663 2505 2880 
Q 2244 3097 1772 3097 
Q 1472 3097 1187 3025 
Q 903 2953 641 2809 
L 641 3341 
Q 956 3463 1253 3523 
Q 1550 3584 1831 3584 
Q 2591 3584 2966 3190 
Q 3341 2797 3341 1997 
z
" transform="scale(0.015625)"/>
       <path id="DejaVuSans-67" d="M 2906 1791 
Q 2906 2416 2648 2759 
Q 2391 3103 1925 3103 
Q 1463 3103 1205 2759 
Q 947 2416 947 1791 
Q 947 1169 1205 825 
Q 1463 481 1925 481 
Q 2391 481 2648 825 
Q 2906 1169 2906 1791 
z
M 3481 434 
Q 3481 -459 3084 -895 
Q 2688 -1331 1869 -1331 
Q 1566 -1331 1297 -1286 
Q 1028 -1241 775 -1147 
L 775 -588 
Q 1028 -725 1275 -790 
Q 1522 -856 1778 -856 
Q 2344 -856 2625 -561 
Q 2906 -266 2906 331 
L 2906 616 
Q 2728 306 2450 153 
Q 2172 0 1784 0 
Q 1141 0 747 490 
Q 353 981 353 1791 
Q 353 2603 747 3093 
Q 1141 3584 1784 3584 
Q 2172 3584 2450 3431 
Q 2728 3278 2906 2969 
L 2906 3500 
L 3481 3500 
L 3481 434 
z
" transform="scale(0.015625)"/>
       <path id="DejaVuSans-65" d="M 3597 1894 
L 3597 1613 
L 953 1613 
Q 991 1019 1311 708 
Q 1631 397 2203 397 
Q 2534 397 2845 478 
Q 3156 559 3463 722 
L 3463 178 
Q 3153 47 2828 -22 
Q 2503 -91 2169 -91 
Q 1331 -91 842 396 
Q 353 884 353 1716 
Q 353 2575 817 3079 
Q 1281 3584 2069 3584 
Q 2775 3584 3186 3129 
Q 3597 2675 3597 1894 
z
M 3022 2063 
Q 3016 2534 2758 2815 
Q 2500 3097 2075 3097 
Q 1594 3097 1305 2825 
Q 1016 2553 972 2059 
L 3022 2063 
z
" transform="scale(0.015625)"/>
       <path id="DejaVuSans-5f" d="M 3263 -1063 
L 3263 -1509 
L -63 -1509 
L -63 -1063 
L 3263 -1063 
z
" transform="scale(0.015625)"/>
       <path id="DejaVuSans-72" d="M 2631 2963 
Q 2534 3019 2420 3045 
Q 2306 3072 2169 3072 
Q 1681 3072 1420 2755 
Q 1159 2438 1159 1844 
L 1159 0 
L 581 0 
L 581 3500 
L 1159 3500 
L 1159 2956 
Q 1341 3275 1631 3429 
Q 1922 3584 2338 3584 
Q 2397 3584 2469 3576 
Q 2541 3569 2628 3553 
L 2631 2963 
z
" transform="scale(0.015625)"/>
       <path id="DejaVuSans-6f" d="M 1959 3097 
Q 1497 3097 1228 2736 
Q 959 2375 959 1747 
Q 959 1119 1226 758 
Q 1494 397 1959 397 
Q 2419 397 2687 759 
Q 2956 1122 2956 1747 
Q 2956 2369 2687 2733 
Q 2419 3097 1959 3097 
z
M 1959 3584 
Q 2709 3584 3137 3096 
Q 3566 2609 3566 1747 
Q 3566 888 3137 398 
Q 2709 -91 1959 -91 
Q 1206 -91 779 398 
Q 353 888 353 1747 
Q 353 2609 779 3096 
Q 1206 3584 1959 3584 
z
" transform="scale(0.015625)"/>
       <path id="DejaVuSans-75" d="M 544 1381 
L 544 3500 
L 1119 3500 
L 1119 1403 
Q 1119 906 1312 657 
Q 1506 409 1894 409 
Q 2359 409 2629 706 
Q 2900 1003 2900 1516 
L 2900 3500 
L 3475 3500 
L 3475 0 
L 2900 0 
L 2900 538 
Q 2691 219 2414 64 
Q 2138 -91 1772 -91 
Q 1169 -91 856 284 
Q 544 659 544 1381 
z
M 1991 3584 
L 1991 3584 
z
" transform="scale(0.015625)"/>
       <path id="DejaVuSans-70" d="M 1159 525 
L 1159 -1331 
L 581 -1331 
L 581 3500 
L 1159 3500 
L 1159 2969 
Q 1341 3281 1617 3432 
Q 1894 3584 2278 3584 
Q 2916 3584 3314 3078 
Q 3713 2572 3713 1747 
Q 3713 922 3314 415 
Q 2916 -91 2278 -91 
Q 1894 -91 1617 61 
Q 1341 213 1159 525 
z
M 3116 1747 
Q 3116 2381 2855 2742 
Q 2594 3103 2138 3103 
Q 1681 3103 1420 2742 
Q 1159 2381 1159 1747 
Q 1159 1113 1420 752 
Q 1681 391 2138 391 
Q 2594 391 2855 752 
Q 3116 1113 3116 1747 
z
" transform="scale(0.015625)"/>
      </defs>
      <use xlink:href="#DejaVuSans-61"/>
      <use xlink:href="#DejaVuSans-67" x="61.279297"/>
      <use xlink:href="#DejaVuSans-65" x="124.755859"/>
      <use xlink:href="#DejaVuSans-5f" x="186.279297"/>
      <use xlink:href="#DejaVuSans-67" x="236.279297"/>
      <use xlink:href="#DejaVuSans-72" x="299.755859"/>
      <use xlink:href="#DejaVuSans-6f" x="338.619141"/>
      <use xlink:href="#DejaVuSans-75" x="399.800781"/>
      <use xlink:href="#DejaVuSans-70" x="463.179688"/>
     </g>
    </g>
   </g>
   <g id="matplotlib.axis_2">
    <g id="ytick_1">
     <g id="line2d_11">
      <defs>
       <path id="m5324b35db4" d="M 0 0 
L -3.5 0 
" style="stroke: #000000; stroke-width: 0.8"/>
      </defs>
      <g>
       <use xlink:href="#m5324b35db4" x="52.079375" y="226.103372" style="stroke: #000000; stroke-width: 0.8"/>
      </g>
     </g>
     <g id="text_12">
      <!-- 0.0 -->
      <g transform="translate(29.17625 229.902591) scale(0.1 -0.1)">
       <defs>
        <path id="DejaVuSans-2e" d="M 684 794 
L 1344 794 
L 1344 0 
L 684 0 
L 684 794 
z
" transform="scale(0.015625)"/>
       </defs>
       <use xlink:href="#DejaVuSans-30"/>
       <use xlink:href="#DejaVuSans-2e" x="63.623047"/>
       <use xlink:href="#DejaVuSans-30" x="95.410156"/>
      </g>
     </g>
    </g>
    <g id="ytick_2">
     <g id="line2d_12">
      <g>
       <use xlink:href="#m5324b35db4" x="52.079375" y="200.288841" style="stroke: #000000; stroke-width: 0.8"/>
      </g>
     </g>
     <g id="text_13">
      <!-- 2.5 -->
      <g transform="translate(29.17625 204.08806) scale(0.1 -0.1)">
       <use xlink:href="#DejaVuSans-32"/>
       <use xlink:href="#DejaVuSans-2e" x="63.623047"/>
       <use xlink:href="#DejaVuSans-35" x="95.410156"/>
      </g>
     </g>
    </g>
    <g id="ytick_3">
     <g id="line2d_13">
      <g>
       <use xlink:href="#m5324b35db4" x="52.079375" y="174.47431" style="stroke: #000000; stroke-width: 0.8"/>
      </g>
     </g>
     <g id="text_14">
      <!-- 5.0 -->
      <g transform="translate(29.17625 178.273528) scale(0.1 -0.1)">
       <use xlink:href="#DejaVuSans-35"/>
       <use xlink:href="#DejaVuSans-2e" x="63.623047"/>
       <use xlink:href="#DejaVuSans-30" x="95.410156"/>
      </g>
     </g>
    </g>
    <g id="ytick_4">
     <g id="line2d_14">
      <g>
       <use xlink:href="#m5324b35db4" x="52.079375" y="148.659778" style="stroke: #000000; stroke-width: 0.8"/>
      </g>
     </g>
     <g id="text_15">
      <!-- 7.5 -->
      <g transform="translate(29.17625 152.458997) scale(0.1 -0.1)">
       <use xlink:href="#DejaVuSans-37"/>
       <use xlink:href="#DejaVuSans-2e" x="63.623047"/>
       <use xlink:href="#DejaVuSans-35" x="95.410156"/>
      </g>
     </g>
    </g>
    <g id="ytick_5">
     <g id="line2d_15">
      <g>
       <use xlink:href="#m5324b35db4" x="52.079375" y="122.845247" style="stroke: #000000; stroke-width: 0.8"/>
      </g>
     </g>
     <g id="text_16">
      <!-- 10.0 -->
      <g transform="translate(22.81375 126.644466) scale(0.1 -0.1)">
       <use xlink:href="#DejaVuSans-31"/>
       <use xlink:href="#DejaVuSans-30" x="63.623047"/>
       <use xlink:href="#DejaVuSans-2e" x="127.246094"/>
       <use xlink:href="#DejaVuSans-30" x="159.033203"/>
      </g>
     </g>
    </g>
    <g id="ytick_6">
     <g id="line2d_16">
      <g>
       <use xlink:href="#m5324b35db4" x="52.079375" y="97.030716" style="stroke: #000000; stroke-width: 0.8"/>
      </g>
     </g>
     <g id="text_17">
      <!-- 12.5 -->
      <g transform="translate(22.81375 100.829934) scale(0.1 -0.1)">
       <use xlink:href="#DejaVuSans-31"/>
       <use xlink:href="#DejaVuSans-32" x="63.623047"/>
       <use xlink:href="#DejaVuSans-2e" x="127.246094"/>
       <use xlink:href="#DejaVuSans-35" x="159.033203"/>
      </g>
     </g>
    </g>
    <g id="ytick_7">
     <g id="line2d_17">
      <g>
       <use xlink:href="#m5324b35db4" x="52.079375" y="71.216184" style="stroke: #000000; stroke-width: 0.8"/>
      </g>
     </g>
     <g id="text_18">
      <!-- 15.0 -->
      <g transform="translate(22.81375 75.015403) scale(0.1 -0.1)">
       <use xlink:href="#DejaVuSans-31"/>
       <use xlink:href="#DejaVuSans-35" x="63.623047"/>
       <use xlink:href="#DejaVuSans-2e" x="127.246094"/>
       <use xlink:href="#DejaVuSans-30" x="159.033203"/>
      </g>
     </g>
    </g>
    <g id="ytick_8">
     <g id="line2d_18">
      <g>
       <use xlink:href="#m5324b35db4" x="52.079375" y="45.401653" style="stroke: #000000; stroke-width: 0.8"/>
      </g>
     </g>
     <g id="text_19">
      <!-- 17.5 -->
      <g transform="translate(22.81375 49.200872) scale(0.1 -0.1)">
       <use xlink:href="#DejaVuSans-31"/>
       <use xlink:href="#DejaVuSans-37" x="63.623047"/>
       <use xlink:href="#DejaVuSans-2e" x="127.246094"/>
       <use xlink:href="#DejaVuSans-35" x="159.033203"/>
      </g>
     </g>
    </g>
    <g id="text_20">
     <!-- education-num -->
     <g transform="translate(16.318125 178.584375) rotate(-90) scale(0.12 -0.12)">
      <defs>
       <path id="DejaVuSans-64" d="M 2906 2969 
L 2906 4863 
L 3481 4863 
L 3481 0 
L 2906 0 
L 2906 525 
Q 2725 213 2448 61 
Q 2172 -91 1784 -91 
Q 1150 -91 751 415 
Q 353 922 353 1747 
Q 353 2572 751 3078 
Q 1150 3584 1784 3584 
Q 2172 3584 2448 3432 
Q 2725 3281 2906 2969 
z
M 947 1747 
Q 947 1113 1208 752 
Q 1469 391 1925 391 
Q 2381 391 2643 752 
Q 2906 1113 2906 1747 
Q 2906 2381 2643 2742 
Q 2381 3103 1925 3103 
Q 1469 3103 1208 2742 
Q 947 2381 947 1747 
z
" transform="scale(0.015625)"/>
       <path id="DejaVuSans-63" d="M 3122 3366 
L 3122 2828 
Q 2878 2963 2633 3030 
Q 2388 3097 2138 3097 
Q 1578 3097 1268 2742 
Q 959 2388 959 1747 
Q 959 1106 1268 751 
Q 1578 397 2138 397 
Q 2388 397 2633 464 
Q 2878 531 3122 666 
L 3122 134 
Q 2881 22 2623 -34 
Q 2366 -91 2075 -91 
Q 1284 -91 818 406 
Q 353 903 353 1747 
Q 353 2603 823 3093 
Q 1294 3584 2113 3584 
Q 2378 3584 2631 3529 
Q 2884 3475 3122 3366 
z
" transform="scale(0.015625)"/>
       <path id="DejaVuSans-74" d="M 1172 4494 
L 1172 3500 
L 2356 3500 
L 2356 3053 
L 1172 3053 
L 1172 1153 
Q 1172 725 1289 603 
Q 1406 481 1766 481 
L 2356 481 
L 2356 0 
L 1766 0 
Q 1100 0 847 248 
Q 594 497 594 1153 
L 594 3053 
L 172 3053 
L 172 3500 
L 594 3500 
L 594 4494 
L 1172 4494 
z
" transform="scale(0.015625)"/>
       <path id="DejaVuSans-69" d="M 603 3500 
L 1178 3500 
L 1178 0 
L 603 0 
L 603 3500 
z
M 603 4863 
L 1178 4863 
L 1178 4134 
L 603 4134 
L 603 4863 
z
" transform="scale(0.015625)"/>
       <path id="DejaVuSans-6e" d="M 3513 2113 
L 3513 0 
L 2938 0 
L 2938 2094 
Q 2938 2591 2744 2837 
Q 2550 3084 2163 3084 
Q 1697 3084 1428 2787 
Q 1159 2491 1159 1978 
L 1159 0 
L 581 0 
L 581 3500 
L 1159 3500 
L 1159 2956 
Q 1366 3272 1645 3428 
Q 1925 3584 2291 3584 
Q 2894 3584 3203 3211 
Q 3513 2838 3513 2113 
z
" transform="scale(0.015625)"/>
       <path id="DejaVuSans-6d" d="M 3328 2828 
Q 3544 3216 3844 3400 
Q 4144 3584 4550 3584 
Q 5097 3584 5394 3201 
Q 5691 2819 5691 2113 
L 5691 0 
L 5113 0 
L 5113 2094 
Q 5113 2597 4934 2840 
Q 4756 3084 4391 3084 
Q 3944 3084 3684 2787 
Q 3425 2491 3425 1978 
L 3425 0 
L 2847 0 
L 2847 2094 
Q 2847 2600 2669 2842 
Q 2491 3084 2119 3084 
Q 1678 3084 1418 2786 
Q 1159 2488 1159 1978 
L 1159 0 
L 581 0 
L 581 3500 
L 1159 3500 
L 1159 2956 
Q 1356 3278 1631 3431 
Q 1906 3584 2284 3584 
Q 2666 3584 2933 3390 
Q 3200 3197 3328 2828 
z
" transform="scale(0.015625)"/>
      </defs>
      <use xlink:href="#DejaVuSans-65"/>
      <use xlink:href="#DejaVuSans-64" x="61.523438"/>
      <use xlink:href="#DejaVuSans-75" x="125"/>
      <use xlink:href="#DejaVuSans-63" x="188.378906"/>
      <use xlink:href="#DejaVuSans-61" x="243.359375"/>
      <use xlink:href="#DejaVuSans-74" x="304.638672"/>
      <use xlink:href="#DejaVuSans-69" x="343.847656"/>
      <use xlink:href="#DejaVuSans-6f" x="371.630859"/>
      <use xlink:href="#DejaVuSans-6e" x="432.8125"/>
      <use xlink:href="#DejaVuSans-2d" x="496.191406"/>
      <use xlink:href="#DejaVuSans-6e" x="532.275391"/>
      <use xlink:href="#DejaVuSans-75" x="595.654297"/>
      <use xlink:href="#DejaVuSans-6d" x="659.033203"/>
     </g>
    </g>
   </g>
   <g id="line2d_19">
    <path d="M 68.819375 174.47431 
L 68.819375 143.496872 
" clip-path="url(#pc05f20e92b)" style="fill: none; stroke: #3d3d3d; stroke-width: 1.875; stroke-linecap: square"/>
   </g>
   <g id="line2d_20">
    <path d="M 68.819375 164.148497 
L 68.819375 153.822685 
" clip-path="url(#pc05f20e92b)" style="fill: none; stroke: #3d3d3d; stroke-width: 5.625; stroke-linecap: square"/>
   </g>
   <g id="line2d_21">
    <path d="M 68.819375 153.822685 
" clip-path="url(#pc05f20e92b)" style="fill: none; stroke: #3d3d3d; stroke-width: 1.5; stroke-linecap: square"/>
    <defs>
     <path id="m1cf221e775" d="M 2.34375 0 
L -2.34375 -0 
" style="stroke: #ffffff; stroke-width: 1.125"/>
    </defs>
    <g clip-path="url(#pc05f20e92b)">
     <use xlink:href="#m1cf221e775" x="68.819375" y="153.822685" style="fill: #ffffff; stroke: #ffffff; stroke-width: 1.125"/>
    </g>
   </g>
   <g id="line2d_22">
    <path d="M 102.299375 143.496872 
L 102.299375 112.519434 
" clip-path="url(#pc05f20e92b)" style="fill: none; stroke: #3d3d3d; stroke-width: 1.875; stroke-linecap: square"/>
   </g>
   <g id="line2d_23">
    <path d="M 102.299375 133.171059 
L 102.299375 122.845247 
" clip-path="url(#pc05f20e92b)" style="fill: none; stroke: #3d3d3d; stroke-width: 5.625; stroke-linecap: square"/>
   </g>
   <g id="line2d_24">
    <path d="M 102.299375 122.845247 
" clip-path="url(#pc05f20e92b)" style="fill: none; stroke: #3d3d3d; stroke-width: 1.5; stroke-linecap: square"/>
    <g clip-path="url(#pc05f20e92b)">
     <use xlink:href="#m1cf221e775" x="102.299375" y="122.845247" style="fill: #ffffff; stroke: #ffffff; stroke-width: 1.125"/>
    </g>
   </g>
   <g id="line2d_25">
    <path d="M 135.779375 195.125935 
L 135.779375 60.890372 
" clip-path="url(#pc05f20e92b)" style="fill: none; stroke: #3d3d3d; stroke-width: 1.875; stroke-linecap: square"/>
   </g>
   <g id="line2d_26">
    <path d="M 135.779375 133.171059 
L 135.779375 91.867809 
" clip-path="url(#pc05f20e92b)" style="fill: none; stroke: #3d3d3d; stroke-width: 5.625; stroke-linecap: square"/>
   </g>
   <g id="line2d_27">
    <path d="M 135.779375 122.845247 
" clip-path="url(#pc05f20e92b)" style="fill: none; stroke: #3d3d3d; stroke-width: 1.5; stroke-linecap: square"/>
    <g clip-path="url(#pc05f20e92b)">
     <use xlink:href="#m1cf221e775" x="135.779375" y="122.845247" style="fill: #ffffff; stroke: #ffffff; stroke-width: 1.125"/>
    </g>
   </g>
   <g id="line2d_28">
    <path d="M 169.259375 195.125935 
L 169.259375 60.890372 
" clip-path="url(#pc05f20e92b)" style="fill: none; stroke: #3d3d3d; stroke-width: 1.875; stroke-linecap: square"/>
   </g>
   <g id="line2d_29">
    <path d="M 169.259375 133.171059 
L 169.259375 91.867809 
" clip-path="url(#pc05f20e92b)" style="fill: none; stroke: #3d3d3d; stroke-width: 5.625; stroke-linecap: square"/>
   </g>
   <g id="line2d_30">
    <path d="M 169.259375 122.845247 
" clip-path="url(#pc05f20e92b)" style="fill: none; stroke: #3d3d3d; stroke-width: 1.5; stroke-linecap: square"/>
    <g clip-path="url(#pc05f20e92b)">
     <use xlink:href="#m1cf221e775" x="169.259375" y="122.845247" style="fill: #ffffff; stroke: #ffffff; stroke-width: 1.125"/>
    </g>
   </g>
   <g id="line2d_31">
    <path d="M 202.739375 195.125935 
L 202.739375 60.890372 
" clip-path="url(#pc05f20e92b)" style="fill: none; stroke: #3d3d3d; stroke-width: 1.875; stroke-linecap: square"/>
   </g>
   <g id="line2d_32">
    <path d="M 202.739375 133.171059 
L 202.739375 91.867809 
" clip-path="url(#pc05f20e92b)" style="fill: none; stroke: #3d3d3d; stroke-width: 5.625; stroke-linecap: square"/>
   </g>
   <g id="line2d_33">
    <path d="M 202.739375 122.845247 
" clip-path="url(#pc05f20e92b)" style="fill: none; stroke: #3d3d3d; stroke-width: 1.5; stroke-linecap: square"/>
    <g clip-path="url(#pc05f20e92b)">
     <use xlink:href="#m1cf221e775" x="202.739375" y="122.845247" style="fill: #ffffff; stroke: #ffffff; stroke-width: 1.125"/>
    </g>
   </g>
   <g id="line2d_34">
    <path d="M 236.219375 174.47431 
L 236.219375 60.890372 
" clip-path="url(#pc05f20e92b)" style="fill: none; stroke: #3d3d3d; stroke-width: 1.875; stroke-linecap: square"/>
   </g>
   <g id="line2d_35">
    <path d="M 236.219375 133.171059 
L 236.219375 102.193622 
" clip-path="url(#pc05f20e92b)" style="fill: none; stroke: #3d3d3d; stroke-width: 5.625; stroke-linecap: square"/>
   </g>
   <g id="line2d_36">
    <path d="M 236.219375 133.171059 
" clip-path="url(#pc05f20e92b)" style="fill: none; stroke: #3d3d3d; stroke-width: 1.5; stroke-linecap: square"/>
    <g clip-path="url(#pc05f20e92b)">
     <use xlink:href="#m1cf221e775" x="236.219375" y="133.171059" style="fill: #ffffff; stroke: #ffffff; stroke-width: 1.125"/>
    </g>
   </g>
   <g id="line2d_37">
    <path d="M 269.699375 195.125935 
L 269.699375 60.890372 
" clip-path="url(#pc05f20e92b)" style="fill: none; stroke: #3d3d3d; stroke-width: 1.875; stroke-linecap: square"/>
   </g>
   <g id="line2d_38">
    <path d="M 269.699375 148.659778 
L 269.699375 112.519434 
" clip-path="url(#pc05f20e92b)" style="fill: none; stroke: #3d3d3d; stroke-width: 5.625; stroke-linecap: square"/>
   </g>
   <g id="line2d_39">
    <path d="M 269.699375 133.171059 
" clip-path="url(#pc05f20e92b)" style="fill: none; stroke: #3d3d3d; stroke-width: 1.5; stroke-linecap: square"/>
    <g clip-path="url(#pc05f20e92b)">
     <use xlink:href="#m1cf221e775" x="269.699375" y="133.171059" style="fill: #ffffff; stroke: #ffffff; stroke-width: 1.125"/>
    </g>
   </g>
   <g id="line2d_40">
    <path d="M 303.179375 205.451747 
L 303.179375 60.890372 
" clip-path="url(#pc05f20e92b)" style="fill: none; stroke: #3d3d3d; stroke-width: 1.875; stroke-linecap: square"/>
   </g>
   <g id="line2d_41">
    <path d="M 303.179375 164.148497 
L 303.179375 117.682341 
" clip-path="url(#pc05f20e92b)" style="fill: none; stroke: #3d3d3d; stroke-width: 5.625; stroke-linecap: square"/>
   </g>
   <g id="line2d_42">
    <path d="M 303.179375 133.171059 
" clip-path="url(#pc05f20e92b)" style="fill: none; stroke: #3d3d3d; stroke-width: 1.5; stroke-linecap: square"/>
    <g clip-path="url(#pc05f20e92b)">
     <use xlink:href="#m1cf221e775" x="303.179375" y="133.171059" style="fill: #ffffff; stroke: #ffffff; stroke-width: 1.125"/>
    </g>
   </g>
   <g id="line2d_43">
    <path d="M 336.659375 184.800122 
L 336.659375 71.216184 
" clip-path="url(#pc05f20e92b)" style="fill: none; stroke: #3d3d3d; stroke-width: 1.875; stroke-linecap: square"/>
   </g>
   <g id="line2d_44">
    <path d="M 336.659375 133.171059 
L 336.659375 91.867809 
" clip-path="url(#pc05f20e92b)" style="fill: none; stroke: #3d3d3d; stroke-width: 5.625; stroke-linecap: square"/>
   </g>
   <g id="line2d_45">
    <path d="M 336.659375 122.845247 
" clip-path="url(#pc05f20e92b)" style="fill: none; stroke: #3d3d3d; stroke-width: 1.5; stroke-linecap: square"/>
    <g clip-path="url(#pc05f20e92b)">
     <use xlink:href="#m1cf221e775" x="336.659375" y="122.845247" style="fill: #ffffff; stroke: #ffffff; stroke-width: 1.125"/>
    </g>
   </g>
   <g id="patch_3">
    <path d="M 52.079375 244.078125 
L 52.079375 22.318125 
" style="fill: none; stroke: #000000; stroke-width: 0.8; stroke-linejoin: miter; stroke-linecap: square"/>
   </g>
   <g id="patch_4">
    <path d="M 386.879375 244.078125 
L 386.879375 22.318125 
" style="fill: none; stroke: #000000; stroke-width: 0.8; stroke-linejoin: miter; stroke-linecap: square"/>
   </g>
   <g id="patch_5">
    <path d="M 52.079375 244.078125 
L 386.879375 244.078125 
" style="fill: none; stroke: #000000; stroke-width: 0.8; stroke-linejoin: miter; stroke-linecap: square"/>
   </g>
   <g id="patch_6">
    <path d="M 52.079375 22.318125 
L 386.879375 22.318125 
" style="fill: none; stroke: #000000; stroke-width: 0.8; stroke-linejoin: miter; stroke-linecap: square"/>
   </g>
   <g id="text_21">
    <!-- Distribution of education-num by age_group -->
    <g transform="translate(86.718125 16.318125) scale(0.12 -0.12)">
     <defs>
      <path id="DejaVuSans-44" d="M 1259 4147 
L 1259 519 
L 2022 519 
Q 2988 519 3436 956 
Q 3884 1394 3884 2338 
Q 3884 3275 3436 3711 
Q 2988 4147 2022 4147 
L 1259 4147 
z
M 628 4666 
L 1925 4666 
Q 3281 4666 3915 4102 
Q 4550 3538 4550 2338 
Q 4550 1131 3912 565 
Q 3275 0 1925 0 
L 628 0 
L 628 4666 
z
" transform="scale(0.015625)"/>
      <path id="DejaVuSans-73" d="M 2834 3397 
L 2834 2853 
Q 2591 2978 2328 3040 
Q 2066 3103 1784 3103 
Q 1356 3103 1142 2972 
Q 928 2841 928 2578 
Q 928 2378 1081 2264 
Q 1234 2150 1697 2047 
L 1894 2003 
Q 2506 1872 2764 1633 
Q 3022 1394 3022 966 
Q 3022 478 2636 193 
Q 2250 -91 1575 -91 
Q 1294 -91 989 -36 
Q 684 19 347 128 
L 347 722 
Q 666 556 975 473 
Q 1284 391 1588 391 
Q 1994 391 2212 530 
Q 2431 669 2431 922 
Q 2431 1156 2273 1281 
Q 2116 1406 1581 1522 
L 1381 1569 
Q 847 1681 609 1914 
Q 372 2147 372 2553 
Q 372 3047 722 3315 
Q 1072 3584 1716 3584 
Q 2034 3584 2315 3537 
Q 2597 3491 2834 3397 
z
" transform="scale(0.015625)"/>
      <path id="DejaVuSans-62" d="M 3116 1747 
Q 3116 2381 2855 2742 
Q 2594 3103 2138 3103 
Q 1681 3103 1420 2742 
Q 1159 2381 1159 1747 
Q 1159 1113 1420 752 
Q 1681 391 2138 391 
Q 2594 391 2855 752 
Q 3116 1113 3116 1747 
z
M 1159 2969 
Q 1341 3281 1617 3432 
Q 1894 3584 2278 3584 
Q 2916 3584 3314 3078 
Q 3713 2572 3713 1747 
Q 3713 922 3314 415 
Q 2916 -91 2278 -91 
Q 1894 -91 1617 61 
Q 1341 213 1159 525 
L 1159 0 
L 581 0 
L 581 4863 
L 1159 4863 
L 1159 2969 
z
" transform="scale(0.015625)"/>
      <path id="DejaVuSans-66" d="M 2375 4863 
L 2375 4384 
L 1825 4384 
Q 1516 4384 1395 4259 
Q 1275 4134 1275 3809 
L 1275 3500 
L 2222 3500 
L 2222 3053 
L 1275 3053 
L 1275 0 
L 697 0 
L 697 3053 
L 147 3053 
L 147 3500 
L 697 3500 
L 697 3744 
Q 697 4328 969 4595 
Q 1241 4863 1831 4863 
L 2375 4863 
z
" transform="scale(0.015625)"/>
      <path id="DejaVuSans-79" d="M 2059 -325 
Q 1816 -950 1584 -1140 
Q 1353 -1331 966 -1331 
L 506 -1331 
L 506 -850 
L 844 -850 
Q 1081 -850 1212 -737 
Q 1344 -625 1503 -206 
L 1606 56 
L 191 3500 
L 800 3500 
L 1894 763 
L 2988 3500 
L 3597 3500 
L 2059 -325 
z
" transform="scale(0.015625)"/>
     </defs>
     <use xlink:href="#DejaVuSans-44"/>
     <use xlink:href="#DejaVuSans-69" x="77.001953"/>
     <use xlink:href="#DejaVuSans-73" x="104.785156"/>
     <use xlink:href="#DejaVuSans-74" x="156.884766"/>
     <use xlink:href="#DejaVuSans-72" x="196.09375"/>
     <use xlink:href="#DejaVuSans-69" x="237.207031"/>
     <use xlink:href="#DejaVuSans-62" x="264.990234"/>
     <use xlink:href="#DejaVuSans-75" x="328.466797"/>
     <use xlink:href="#DejaVuSans-74" x="391.845703"/>
     <use xlink:href="#DejaVuSans-69" x="431.054688"/>
     <use xlink:href="#DejaVuSans-6f" x="458.837891"/>
     <use xlink:href="#DejaVuSans-6e" x="520.019531"/>
     <use xlink:href="#DejaVuSans-20" x="583.398438"/>
     <use xlink:href="#DejaVuSans-6f" x="615.185547"/>
     <use xlink:href="#DejaVuSans-66" x="676.367188"/>
     <use xlink:href="#DejaVuSans-20" x="711.572266"/>
     <use xlink:href="#DejaVuSans-65" x="743.359375"/>
     <use xlink:href="#DejaVuSans-64" x="804.882812"/>
     <use xlink:href="#DejaVuSans-75" x="868.359375"/>
     <use xlink:href="#DejaVuSans-63" x="931.738281"/>
     <use xlink:href="#DejaVuSans-61" x="986.71875"/>
     <use xlink:href="#DejaVuSans-74" x="1047.998047"/>
     <use xlink:href="#DejaVuSans-69" x="1087.207031"/>
     <use xlink:href="#DejaVuSans-6f" x="1114.990234"/>
     <use xlink:href="#DejaVuSans-6e" x="1176.171875"/>
     <use xlink:href="#DejaVuSans-2d" x="1239.550781"/>
     <use xlink:href="#DejaVuSans-6e" x="1275.634766"/>
     <use xlink:href="#DejaVuSans-75" x="1339.013672"/>
     <use xlink:href="#DejaVuSans-6d" x="1402.392578"/>
     <use xlink:href="#DejaVuSans-20" x="1499.804688"/>
     <use xlink:href="#DejaVuSans-62" x="1531.591797"/>
     <use xlink:href="#DejaVuSans-79" x="1595.068359"/>
     <use xlink:href="#DejaVuSans-20" x="1654.248047"/>
     <use xlink:href="#DejaVuSans-61" x="1686.035156"/>
     <use xlink:href="#DejaVuSans-67" x="1747.314453"/>
     <use xlink:href="#DejaVuSans-65" x="1810.791016"/>
     <use xlink:href="#DejaVuSans-5f" x="1872.314453"/>
     <use xlink:href="#DejaVuSans-67" x="1922.314453"/>
     <use xlink:href="#DejaVuSans-72" x="1985.791016"/>
     <use xlink:href="#DejaVuSans-6f" x="2024.654297"/>
     <use xlink:href="#DejaVuSans-75" x="2085.835938"/>
     <use xlink:href="#DejaVuSans-70" x="2149.214844"/>
    </g>
   </g>
  </g>
 </g>
 <defs>
  <clipPath id="pc05f20e92b">
   <rect x="52.079375" y="22.318125" width="334.8" height="221.76"/>
  </clipPath>
 </defs>
</svg>
