<?xml version="1.0" encoding="utf-8" standalone="no"?>
<!DOCTYPE svg PUBLIC "-//W3C//DTD SVG 1.1//EN"
  "http://www.w3.org/Graphics/SVG/1.1/DTD/svg11.dtd">
<svg xmlns:xlink="http://www.w3.org/1999/xlink" width="390.90125pt" height="304.537188pt" viewBox="0 0 390.90125 304.537188" xmlns="http://www.w3.org/2000/svg" version="1.1">
 <metadata>
  <rdf:RDF xmlns:dc="http://purl.org/dc/elements/1.1/" xmlns:cc="http://creativecommons.org/ns#" xmlns:rdf="http://www.w3.org/1999/02/22-rdf-syntax-ns#">
   <cc:Work>
    <dc:type rdf:resource="http://purl.org/dc/dcmitype/StillImage"/>
    <dc:date>2024-12-21T17:04:36.958299</dc:date>
    <dc:format>image/svg+xml</dc:format>
    <dc:creator>
     <cc:Agent>
      <dc:title>Matplotlib v3.9.2, https://matplotlib.org/</dc:title>
     </cc:Agent>
    </dc:creator>
   </cc:Work>
  </rdf:RDF>
 </metadata>
 <defs>
  <style type="text/css">*{stroke-linejoin: round; stroke-linecap: butt}</style>
 </defs>
 <g id="figure_1">
  <g id="patch_1">
   <path d="M 0 304.537188 
L 390.90125 304.537188 
L 390.90125 0 
L 0 0 
z
" style="fill: #ffffff"/>
  </g>
  <g id="axes_1">
   <g id="patch_2">
    <path d="M 48.90125 244.078125 
L 383.70125 244.078125 
L 383.70125 22.318125 
L 48.90125 22.318125 
z
" style="fill: #ffffff"/>
   </g>
   <g id="PolyCollection_1">
    <defs>
     <path id="m74eb9a451b" d="M 65.733862 -88.376386 
L 65.548638 -88.376386 
L 65.493507 -89.279136 
L 65.413785 -90.181886 
L 65.302956 -91.084635 
L 65.154707 -91.987385 
L 64.963691 -92.890135 
L 64.72628 -93.792885 
L 64.441135 -94.695635 
L 64.10945 -95.598385 
L 63.734797 -96.501135 
L 63.322616 -97.403884 
L 62.879487 -98.306634 
L 62.412391 -99.209384 
L 61.928093 -100.112134 
L 61.432727 -101.014884 
L 60.931502 -101.917634 
L 60.428388 -102.820383 
L 59.92568 -103.723133 
L 59.423473 -104.625883 
L 58.9193 -105.528633 
L 58.4083 -106.431383 
L 57.884281 -107.334133 
L 57.341732 -108.236882 
L 56.778421 -109.139632 
L 56.197726 -110.042382 
L 55.609695 -110.945132 
L 55.03007 -111.847882 
L 54.477279 -112.750632 
L 53.968324 -113.653382 
L 53.515249 -114.556131 
L 53.12392 -115.458881 
L 52.796038 -116.361631 
L 52.533869 -117.264381 
L 52.34569 -118.167131 
L 52.24925 -119.069881 
L 52.271 -119.97263 
L 52.44048 -120.87538 
L 52.781356 -121.77813 
L 53.302231 -122.68088 
L 53.990702 -123.58363 
L 54.812999 -124.48638 
L 55.719416 -125.389129 
L 56.653584 -126.291879 
L 57.562381 -127.194629 
L 58.403443 -128.097379 
L 59.148569 -129.000129 
L 59.783179 -129.902879 
L 60.303382 -130.805629 
L 60.712724 -131.708378 
L 61.0201 -132.611128 
L 61.23916 -133.513878 
L 61.388447 -134.416628 
L 61.491008 -135.319378 
L 61.572508 -136.222128 
L 61.657719 -137.124877 
L 61.766194 -138.027627 
L 61.908489 -138.930377 
L 62.084161 -139.833127 
L 62.28217 -140.735877 
L 62.483403 -141.638627 
L 62.664425 -142.541376 
L 62.801356 -143.444126 
L 62.87311 -144.346876 
L 62.86383 -145.249626 
L 62.7648 -146.152376 
L 62.576253 -147.055126 
L 62.309115 -147.957875 
L 61.986194 -148.860625 
L 61.641858 -149.763375 
L 61.319278 -150.666125 
L 61.064948 -151.568875 
L 60.921169 -152.471625 
L 60.918167 -153.374375 
L 61.067975 -154.277124 
L 61.361922 -155.179874 
L 61.772538 -156.082624 
L 62.259359 -156.985374 
L 62.776974 -157.888124 
L 63.283114 -158.790874 
L 63.744829 -159.693623 
L 64.141634 -160.596373 
L 64.465525 -161.499123 
L 64.718647 -162.401873 
L 64.909801 -163.304623 
L 65.050927 -164.207373 
L 65.154338 -165.110122 
L 65.230992 -166.012872 
L 65.28971 -166.915622 
L 65.337056 -167.818372 
L 65.377558 -168.721122 
L 65.414057 -169.623872 
L 65.448064 -170.526622 
L 65.480105 -171.429371 
L 65.510041 -172.332121 
L 65.537385 -173.234871 
L 65.561567 -174.137621 
L 65.582153 -175.040371 
L 65.598959 -175.943121 
L 65.612092 -176.84587 
L 65.621903 -177.74862 
L 65.660597 -177.74862 
L 65.660597 -177.74862 
L 65.670408 -176.84587 
L 65.683541 -175.943121 
L 65.700347 -175.040371 
L 65.720933 -174.137621 
L 65.745115 -173.234871 
L 65.772459 -172.332121 
L 65.802395 -171.429371 
L 65.834436 -170.526622 
L 65.868443 -169.623872 
L 65.904942 -168.721122 
L 65.945444 -167.818372 
L 65.99279 -166.915622 
L 66.051508 -166.012872 
L 66.128162 -165.110122 
L 66.231573 -164.207373 
L 66.372699 -163.304623 
L 66.563853 -162.401873 
L 66.816975 -161.499123 
L 67.140866 -160.596373 
L 67.537671 -159.693623 
L 67.999386 -158.790874 
L 68.505526 -157.888124 
L 69.023141 -156.985374 
L 69.509962 -156.082624 
L 69.920578 -155.179874 
L 70.214525 -154.277124 
L 70.364333 -153.374375 
L 70.361331 -152.471625 
L 70.217552 -151.568875 
L 69.963222 -150.666125 
L 69.640642 -149.763375 
L 69.296306 -148.860625 
L 68.973385 -147.957875 
L 68.706247 -147.055126 
L 68.5177 -146.152376 
L 68.41867 -145.249626 
L 68.40939 -144.346876 
L 68.481144 -143.444126 
L 68.618075 -142.541376 
L 68.799097 -141.638627 
L 69.00033 -140.735877 
L 69.198339 -139.833127 
L 69.374011 -138.930377 
L 69.516306 -138.027627 
L 69.624781 -137.124877 
L 69.709992 -136.222128 
L 69.791492 -135.319378 
L 69.894053 -134.416628 
L 70.04334 -133.513878 
L 70.2624 -132.611128 
L 70.569776 -131.708378 
L 70.979118 -130.805629 
L 71.499321 -129.902879 
L 72.133931 -129.000129 
L 72.879057 -128.097379 
L 73.720119 -127.194629 
L 74.628916 -126.291879 
L 75.563084 -125.389129 
L 76.469501 -124.48638 
L 77.291798 -123.58363 
L 77.980269 -122.68088 
L 78.501144 -121.77813 
L 78.84202 -120.87538 
L 79.0115 -119.97263 
L 79.03325 -119.069881 
L 78.93681 -118.167131 
L 78.748631 -117.264381 
L 78.486462 -116.361631 
L 78.15858 -115.458881 
L 77.767251 -114.556131 
L 77.314176 -113.653382 
L 76.805221 -112.750632 
L 76.25243 -111.847882 
L 75.672805 -110.945132 
L 75.084774 -110.042382 
L 74.504079 -109.139632 
L 73.940768 -108.236882 
L 73.398219 -107.334133 
L 72.8742 -106.431383 
L 72.3632 -105.528633 
L 71.859027 -104.625883 
L 71.35682 -103.723133 
L 70.854112 -102.820383 
L 70.350998 -101.917634 
L 69.849773 -101.014884 
L 69.354407 -100.112134 
L 68.870109 -99.209384 
L 68.403013 -98.306634 
L 67.959884 -97.403884 
L 67.547703 -96.501135 
L 67.17305 -95.598385 
L 66.841365 -94.695635 
L 66.55622 -93.792885 
L 66.318809 -92.890135 
L 66.127793 -91.987385 
L 65.979544 -91.084635 
L 65.868715 -90.181886 
L 65.788993 -89.279136 
L 65.733862 -88.376386 
z
" style="stroke: #3d3d3d; stroke-width: 1.25"/>
    </defs>
    <g clip-path="url(#p5154ee21d2)">
     <use xlink:href="#m74eb9a451b" x="0" y="304.537188" style="fill: #3274a1; stroke: #3d3d3d; stroke-width: 1.25"/>
    </g>
   </g>
   <g id="PolyCollection_2">
    <defs>
     <path id="m664cef38e7" d="M 99.123739 -86.863376 
L 99.118761 -86.863376 
L 99.112544 -88.522613 
L 99.097813 -90.18185 
L 99.071373 -91.841086 
L 99.0349 -93.500323 
L 98.9958 -95.15956 
L 98.961903 -96.818797 
L 98.931857 -98.478034 
L 98.888829 -100.137271 
L 98.807934 -101.796507 
L 98.682104 -103.455744 
L 98.5487 -105.114981 
L 98.470466 -106.774218 
L 98.459015 -108.433455 
L 98.435043 -110.092692 
L 98.316733 -111.751929 
L 98.150017 -113.411165 
L 98.060391 -115.070402 
L 98.017276 -116.729639 
L 97.795842 -118.388876 
L 97.336467 -120.048113 
L 96.987712 -121.70735 
L 97.09916 -123.366586 
L 97.49159 -125.025823 
L 97.702341 -126.68506 
L 97.637992 -128.344297 
L 97.609407 -130.003534 
L 97.774914 -131.662771 
L 97.880904 -133.322008 
L 97.658253 -134.981244 
L 97.269391 -136.640481 
L 97.13803 -138.299718 
L 97.361649 -139.958955 
L 97.566524 -141.618192 
L 97.428804 -143.277429 
L 97.045067 -144.936665 
L 96.493201 -146.595902 
L 95.125072 -148.255139 
L 92.029678 -149.914376 
L 87.927231 -151.573613 
L 85.72925 -153.23285 
L 87.491534 -154.892087 
L 91.668325 -156.551323 
L 95.184966 -158.21056 
L 96.854017 -159.869797 
L 97.408245 -161.529034 
L 97.642321 -163.188271 
L 97.666324 -164.847508 
L 97.423528 -166.506744 
L 97.17781 -168.165981 
L 97.298974 -169.825218 
L 97.780389 -171.484455 
L 98.263646 -173.143692 
L 98.506131 -174.802929 
L 98.579968 -176.462165 
L 98.638046 -178.121402 
L 98.680533 -179.780639 
L 98.615169 -181.439876 
L 98.46719 -183.099113 
L 98.407064 -184.75835 
L 98.533327 -186.417587 
L 98.742029 -188.076823 
L 98.882095 -189.73606 
L 98.930095 -191.395297 
L 98.953138 -193.054534 
L 98.98701 -194.713771 
L 99.008717 -196.373008 
L 98.997227 -198.032244 
L 98.974189 -199.691481 
L 98.975084 -201.350718 
L 99.003299 -203.009955 
L 99.033138 -204.669192 
L 99.04733 -206.328429 
L 99.051897 -207.987666 
L 99.056269 -209.646902 
L 99.055012 -211.306139 
L 99.039255 -212.965376 
L 99.018699 -214.624613 
L 99.016476 -216.28385 
L 99.039326 -217.943087 
L 99.069167 -219.602323 
L 99.088984 -221.26156 
L 99.099179 -222.920797 
L 99.106041 -224.580034 
L 99.110382 -226.239271 
L 99.110433 -227.898508 
L 99.10745 -229.557744 
L 99.105641 -231.216981 
L 99.107801 -232.876218 
L 99.112188 -234.535455 
L 99.114737 -236.194692 
L 99.113171 -237.853929 
L 99.10774 -239.513166 
L 99.099592 -241.172402 
L 99.090804 -242.831639 
L 99.085885 -244.490876 
L 99.089325 -246.150113 
L 99.099809 -247.80935 
L 99.110801 -249.468587 
L 99.117604 -251.127823 
L 99.124896 -251.127823 
L 99.124896 -251.127823 
L 99.131699 -249.468587 
L 99.142691 -247.80935 
L 99.153175 -246.150113 
L 99.156615 -244.490876 
L 99.151696 -242.831639 
L 99.142908 -241.172402 
L 99.13476 -239.513166 
L 99.129329 -237.853929 
L 99.127763 -236.194692 
L 99.130312 -234.535455 
L 99.134699 -232.876218 
L 99.136859 -231.216981 
L 99.13505 -229.557744 
L 99.132067 -227.898508 
L 99.132118 -226.239271 
L 99.136459 -224.580034 
L 99.143321 -222.920797 
L 99.153516 -221.26156 
L 99.173333 -219.602323 
L 99.203174 -217.943087 
L 99.226024 -216.28385 
L 99.223801 -214.624613 
L 99.203245 -212.965376 
L 99.187488 -211.306139 
L 99.186231 -209.646902 
L 99.190603 -207.987666 
L 99.19517 -206.328429 
L 99.209362 -204.669192 
L 99.239201 -203.009955 
L 99.267416 -201.350718 
L 99.268311 -199.691481 
L 99.245273 -198.032244 
L 99.233783 -196.373008 
L 99.25549 -194.713771 
L 99.289362 -193.054534 
L 99.312405 -191.395297 
L 99.360405 -189.73606 
L 99.500471 -188.076823 
L 99.709173 -186.417587 
L 99.835436 -184.75835 
L 99.77531 -183.099113 
L 99.627331 -181.439876 
L 99.561967 -179.780639 
L 99.604454 -178.121402 
L 99.662532 -176.462165 
L 99.736369 -174.802929 
L 99.978854 -173.143692 
L 100.462111 -171.484455 
L 100.943526 -169.825218 
L 101.06469 -168.165981 
L 100.818972 -166.506744 
L 100.576176 -164.847508 
L 100.600179 -163.188271 
L 100.834255 -161.529034 
L 101.388483 -159.869797 
L 103.057534 -158.21056 
L 106.574175 -156.551323 
L 110.750966 -154.892087 
L 112.51325 -153.23285 
L 110.315269 -151.573613 
L 106.212822 -149.914376 
L 103.117428 -148.255139 
L 101.749299 -146.595902 
L 101.197433 -144.936665 
L 100.813696 -143.277429 
L 100.675976 -141.618192 
L 100.880851 -139.958955 
L 101.10447 -138.299718 
L 100.973109 -136.640481 
L 100.584247 -134.981244 
L 100.361596 -133.322008 
L 100.467586 -131.662771 
L 100.633093 -130.003534 
L 100.604508 -128.344297 
L 100.540159 -126.68506 
L 100.75091 -125.025823 
L 101.14334 -123.366586 
L 101.254788 -121.70735 
L 100.906033 -120.048113 
L 100.446658 -118.388876 
L 100.225224 -116.729639 
L 100.182109 -115.070402 
L 100.092483 -113.411165 
L 99.925767 -111.751929 
L 99.807457 -110.092692 
L 99.783485 -108.433455 
L 99.772034 -106.774218 
L 99.6938 -105.114981 
L 99.560396 -103.455744 
L 99.434566 -101.796507 
L 99.353671 -100.137271 
L 99.310643 -98.478034 
L 99.280597 -96.818797 
L 99.2467 -95.15956 
L 99.2076 -93.500323 
L 99.171127 -91.841086 
L 99.144687 -90.18185 
L 99.129956 -88.522613 
L 99.123739 -86.863376 
z
" style="stroke: #3d3d3d; stroke-width: 1.25"/>
    </defs>
    <g clip-path="url(#p5154ee21d2)">
     <use xlink:href="#m664cef38e7" x="0" y="304.537188" style="fill: #e1812c; stroke: #3d3d3d; stroke-width: 1.25"/>
    </g>
   </g>
   <g id="PolyCollection_3">
    <defs>
     <path id="m7b797601fc" d="M 132.602251 -87.328233 
L 132.600249 -87.328233 
L 132.597478 -88.978079 
L 132.590919 -90.627925 
L 132.579705 -92.277771 
L 132.565017 -93.927617 
L 132.549849 -95.577462 
L 132.538394 -97.227308 
L 132.532478 -98.877154 
L 132.527434 -100.527 
L 132.516857 -102.176845 
L 132.501074 -103.826691 
L 132.487749 -105.476537 
L 132.485117 -107.126383 
L 132.490817 -108.776229 
L 132.487869 -110.426074 
L 132.461218 -112.07592 
L 132.422779 -113.725766 
L 132.401002 -115.375612 
L 132.387072 -117.025457 
L 132.328108 -118.675303 
L 132.216886 -120.325149 
L 132.147895 -121.974995 
L 132.195961 -123.624841 
L 132.28407 -125.274686 
L 132.292335 -126.924532 
L 132.235426 -128.574378 
L 132.219625 -130.224224 
L 132.263232 -131.87407 
L 132.257344 -133.523915 
L 132.119537 -135.173761 
L 131.930394 -136.823607 
L 131.85248 -138.473453 
L 131.896716 -140.123298 
L 131.879526 -141.773144 
L 131.667776 -143.42299 
L 131.35259 -145.072836 
L 130.920089 -146.722682 
L 129.613139 -148.372527 
L 126.292078 -150.022373 
L 121.639897 -151.672219 
L 119.20925 -153.322065 
L 121.437639 -154.971911 
L 125.97475 -156.621756 
L 129.093154 -158.271602 
L 130.065069 -159.921448 
L 130.27874 -161.571294 
L 130.563557 -163.221139 
L 130.600591 -164.870985 
L 130.060684 -166.520831 
L 129.457503 -168.170677 
L 129.617635 -169.820523 
L 130.524015 -171.470368 
L 131.36221 -173.120214 
L 131.654493 -174.77006 
L 131.65464 -176.419906 
L 131.741235 -178.069751 
L 131.870858 -179.719597 
L 131.741016 -181.369443 
L 131.351624 -183.019289 
L 131.142111 -184.669135 
L 131.411674 -186.31898 
L 131.898643 -187.968826 
L 132.205823 -189.618672 
L 132.281689 -191.268518 
L 132.303699 -192.918364 
L 132.364865 -194.568209 
L 132.404591 -196.218055 
L 132.360932 -197.867901 
L 132.284732 -199.517747 
L 132.274588 -201.167592 
L 132.346032 -202.817438 
L 132.431463 -204.467284 
L 132.480411 -206.11713 
L 132.499898 -207.766976 
L 132.5154 -209.416821 
L 132.52594 -211.066667 
L 132.511769 -212.716513 
L 132.477942 -214.366359 
L 132.46293 -216.016205 
L 132.487045 -217.66605 
L 132.521923 -219.315896 
L 132.538001 -220.965742 
L 132.543 -222.615588 
L 132.554228 -224.265433 
L 132.569527 -225.915279 
L 132.5771 -227.565125 
L 132.573472 -229.214971 
L 132.567086 -230.864817 
L 132.568729 -232.514662 
L 132.578815 -234.164508 
L 132.589052 -235.814354 
L 132.593845 -237.4642 
L 132.591772 -239.114046 
L 132.578971 -240.763891 
L 132.550589 -242.413737 
L 132.516184 -244.063583 
L 132.503462 -245.713429 
L 132.526046 -247.363274 
L 132.562871 -249.01312 
L 132.588295 -250.662966 
L 132.614205 -250.662966 
L 132.614205 -250.662966 
L 132.639629 -249.01312 
L 132.676454 -247.363274 
L 132.699038 -245.713429 
L 132.686316 -244.063583 
L 132.651911 -242.413737 
L 132.623529 -240.763891 
L 132.610728 -239.114046 
L 132.608655 -237.4642 
L 132.613448 -235.814354 
L 132.623685 -234.164508 
L 132.633771 -232.514662 
L 132.635414 -230.864817 
L 132.629028 -229.214971 
L 132.6254 -227.565125 
L 132.632973 -225.915279 
L 132.648272 -224.265433 
L 132.6595 -222.615588 
L 132.664499 -220.965742 
L 132.680577 -219.315896 
L 132.715455 -217.66605 
L 132.73957 -216.016205 
L 132.724558 -214.366359 
L 132.690731 -212.716513 
L 132.67656 -211.066667 
L 132.6871 -209.416821 
L 132.702602 -207.766976 
L 132.722089 -206.11713 
L 132.771037 -204.467284 
L 132.856468 -202.817438 
L 132.927912 -201.167592 
L 132.917768 -199.517747 
L 132.841568 -197.867901 
L 132.797909 -196.218055 
L 132.837635 -194.568209 
L 132.898801 -192.918364 
L 132.920811 -191.268518 
L 132.996677 -189.618672 
L 133.303857 -187.968826 
L 133.790826 -186.31898 
L 134.060389 -184.669135 
L 133.850876 -183.019289 
L 133.461484 -181.369443 
L 133.331642 -179.719597 
L 133.461265 -178.069751 
L 133.54786 -176.419906 
L 133.548007 -174.77006 
L 133.84029 -173.120214 
L 134.678485 -171.470368 
L 135.584865 -169.820523 
L 135.744997 -168.170677 
L 135.141816 -166.520831 
L 134.601909 -164.870985 
L 134.638943 -163.221139 
L 134.92376 -161.571294 
L 135.137431 -159.921448 
L 136.109346 -158.271602 
L 139.22775 -156.621756 
L 143.764861 -154.971911 
L 145.99325 -153.322065 
L 143.562603 -151.672219 
L 138.910422 -150.022373 
L 135.589361 -148.372527 
L 134.282411 -146.722682 
L 133.84991 -145.072836 
L 133.534724 -143.42299 
L 133.322974 -141.773144 
L 133.305784 -140.123298 
L 133.35002 -138.473453 
L 133.272106 -136.823607 
L 133.082963 -135.173761 
L 132.945156 -133.523915 
L 132.939268 -131.87407 
L 132.982875 -130.224224 
L 132.967074 -128.574378 
L 132.910165 -126.924532 
L 132.91843 -125.274686 
L 133.006539 -123.624841 
L 133.054605 -121.974995 
L 132.985614 -120.325149 
L 132.874392 -118.675303 
L 132.815428 -117.025457 
L 132.801498 -115.375612 
L 132.779721 -113.725766 
L 132.741282 -112.07592 
L 132.714631 -110.426074 
L 132.711683 -108.776229 
L 132.717383 -107.126383 
L 132.714751 -105.476537 
L 132.701426 -103.826691 
L 132.685643 -102.176845 
L 132.675066 -100.527 
L 132.670022 -98.877154 
L 132.664106 -97.227308 
L 132.652651 -95.577462 
L 132.637483 -93.927617 
L 132.622795 -92.277771 
L 132.611581 -90.627925 
L 132.605022 -88.978079 
L 132.602251 -87.328233 
z
" style="stroke: #3d3d3d; stroke-width: 1.25"/>
    </defs>
    <g clip-path="url(#p5154ee21d2)">
     <use xlink:href="#m7b797601fc" x="0" y="304.537188" style="fill: #3a923a; stroke: #3d3d3d; stroke-width: 1.25"/>
    </g>
   </g>
   <g id="PolyCollection_4">
    <defs>
     <path id="mfdbe78cab1" d="M 166.082097 -87.065758 
L 166.080403 -87.065758 
L 166.078054 -88.720906 
L 166.072312 -90.376054 
L 166.062102 -92.031203 
L 166.048265 -93.686351 
L 166.032929 -95.341499 
L 166.018056 -96.996648 
L 166.004194 -98.651796 
L 165.989536 -100.306944 
L 165.972486 -101.962093 
L 165.955874 -103.617241 
L 165.946137 -105.272389 
L 165.94774 -106.927538 
L 165.95539 -108.582686 
L 165.951675 -110.237834 
L 165.922549 -111.892983 
L 165.881692 -113.548131 
L 165.861377 -115.203279 
L 165.859847 -116.858428 
L 165.827476 -118.513576 
L 165.743548 -120.168724 
L 165.674278 -121.823873 
L 165.688283 -123.479021 
L 165.744804 -125.134169 
L 165.754164 -126.789318 
L 165.716105 -128.444466 
L 165.707078 -130.099614 
L 165.743877 -131.754762 
L 165.740094 -133.409911 
L 165.62327 -135.065059 
L 165.450087 -136.720207 
L 165.349354 -138.375356 
L 165.342517 -140.030504 
L 165.293808 -141.685652 
L 165.085429 -143.340801 
L 164.751502 -144.995949 
L 164.198803 -146.651097 
L 162.711045 -148.306246 
L 159.382271 -149.961394 
L 154.997839 -151.616542 
L 152.68925 -153.271691 
L 154.57808 -154.926839 
L 158.758378 -156.581987 
L 161.906993 -158.237136 
L 163.106806 -159.892284 
L 163.467456 -161.547432 
L 163.780235 -163.202581 
L 163.824116 -164.857729 
L 163.339931 -166.512877 
L 162.810988 -168.168026 
L 162.980422 -169.823174 
L 163.849812 -171.478322 
L 164.706284 -173.13347 
L 165.078739 -174.788619 
L 165.135026 -176.443767 
L 165.194089 -178.098915 
L 165.233194 -179.754064 
L 165.016427 -181.409212 
L 164.595196 -183.06436 
L 164.407012 -184.719509 
L 164.719645 -186.374657 
L 165.260631 -188.029805 
L 165.626261 -189.684954 
L 165.745568 -191.340102 
L 165.782443 -192.99525 
L 165.833895 -194.650399 
L 165.857598 -196.305547 
L 165.807218 -197.960695 
L 165.73391 -199.615844 
L 165.726887 -201.270992 
L 165.799983 -202.92614 
L 165.891521 -204.581289 
L 165.950953 -206.236437 
L 165.978948 -207.891585 
L 165.995193 -209.546734 
L 165.998773 -211.201882 
L 165.976464 -212.85703 
L 165.94043 -214.512178 
L 165.928201 -216.167327 
L 165.952963 -217.822475 
L 165.984901 -219.477623 
L 165.999264 -221.132772 
L 166.006471 -222.78792 
L 166.021877 -224.443068 
L 166.039538 -226.098217 
L 166.046262 -227.753365 
L 166.041657 -229.408513 
L 166.037214 -231.063662 
L 166.04216 -232.71881 
L 166.054356 -234.373958 
L 166.065092 -236.029107 
L 166.068193 -237.684255 
L 166.06188 -239.339403 
L 166.045113 -240.994552 
L 166.018289 -242.6497 
L 165.992809 -244.304848 
L 165.989557 -245.959997 
L 166.014084 -247.615145 
L 166.04712 -249.270293 
L 166.069307 -250.925442 
L 166.093193 -250.925442 
L 166.093193 -250.925442 
L 166.11538 -249.270293 
L 166.148416 -247.615145 
L 166.172943 -245.959997 
L 166.169691 -244.304848 
L 166.144211 -242.6497 
L 166.117387 -240.994552 
L 166.10062 -239.339403 
L 166.094307 -237.684255 
L 166.097408 -236.029107 
L 166.108144 -234.373958 
L 166.12034 -232.71881 
L 166.125286 -231.063662 
L 166.120843 -229.408513 
L 166.116238 -227.753365 
L 166.122962 -226.098217 
L 166.140623 -224.443068 
L 166.156029 -222.78792 
L 166.163236 -221.132772 
L 166.177599 -219.477623 
L 166.209537 -217.822475 
L 166.234299 -216.167327 
L 166.22207 -214.512178 
L 166.186036 -212.85703 
L 166.163727 -211.201882 
L 166.167307 -209.546734 
L 166.183552 -207.891585 
L 166.211547 -206.236437 
L 166.270979 -204.581289 
L 166.362517 -202.92614 
L 166.435613 -201.270992 
L 166.42859 -199.615844 
L 166.355282 -197.960695 
L 166.304902 -196.305547 
L 166.328605 -194.650399 
L 166.380057 -192.99525 
L 166.416932 -191.340102 
L 166.536239 -189.684954 
L 166.901869 -188.029805 
L 167.442855 -186.374657 
L 167.755488 -184.719509 
L 167.567304 -183.06436 
L 167.146073 -181.409212 
L 166.929306 -179.754064 
L 166.968411 -178.098915 
L 167.027474 -176.443767 
L 167.083761 -174.788619 
L 167.456216 -173.13347 
L 168.312688 -171.478322 
L 169.182078 -169.823174 
L 169.351512 -168.168026 
L 168.822569 -166.512877 
L 168.338384 -164.857729 
L 168.382265 -163.202581 
L 168.695044 -161.547432 
L 169.055694 -159.892284 
L 170.255507 -158.237136 
L 173.404122 -156.581987 
L 177.58442 -154.926839 
L 179.47325 -153.271691 
L 177.164661 -151.616542 
L 172.780229 -149.961394 
L 169.451455 -148.306246 
L 167.963697 -146.651097 
L 167.410998 -144.995949 
L 167.077071 -143.340801 
L 166.868692 -141.685652 
L 166.819983 -140.030504 
L 166.813146 -138.375356 
L 166.712413 -136.720207 
L 166.53923 -135.065059 
L 166.422406 -133.409911 
L 166.418623 -131.754762 
L 166.455422 -130.099614 
L 166.446395 -128.444466 
L 166.408336 -126.789318 
L 166.417696 -125.134169 
L 166.474217 -123.479021 
L 166.488222 -121.823873 
L 166.418952 -120.168724 
L 166.335024 -118.513576 
L 166.302653 -116.858428 
L 166.301123 -115.203279 
L 166.280808 -113.548131 
L 166.239951 -111.892983 
L 166.210825 -110.237834 
L 166.20711 -108.582686 
L 166.21476 -106.927538 
L 166.216363 -105.272389 
L 166.206626 -103.617241 
L 166.190014 -101.962093 
L 166.172964 -100.306944 
L 166.158306 -98.651796 
L 166.144444 -96.996648 
L 166.129571 -95.341499 
L 166.114235 -93.686351 
L 166.100398 -92.031203 
L 166.090188 -90.376054 
L 166.084446 -88.720906 
L 166.082097 -87.065758 
z
" style="stroke: #3d3d3d; stroke-width: 1.25"/>
    </defs>
    <g clip-path="url(#p5154ee21d2)">
     <use xlink:href="#mfdbe78cab1" x="0" y="304.537188" style="fill: #c03d3e; stroke: #3d3d3d; stroke-width: 1.25"/>
    </g>
   </g>
   <g id="PolyCollection_5">
    <defs>
     <path id="m4ed1a5cd11" d="M 199.563242 -86.3854 
L 199.559258 -86.3854 
L 199.555535 -88.054293 
L 199.548462 -89.723186 
L 199.53815 -91.392079 
L 199.525843 -93.060972 
L 199.512439 -94.729865 
L 199.497342 -96.398758 
L 199.478034 -98.067651 
L 199.450618 -99.736544 
L 199.414508 -101.405437 
L 199.378399 -103.07433 
L 199.35699 -104.743222 
L 199.358122 -106.412115 
L 199.373108 -108.081008 
L 199.380301 -109.749901 
L 199.362414 -111.418794 
L 199.324274 -113.087687 
L 199.285464 -114.75658 
L 199.246017 -116.425473 
L 199.176566 -118.094366 
L 199.070195 -119.763259 
L 198.985979 -121.432152 
L 198.990521 -123.101045 
L 199.063666 -124.769937 
L 199.121748 -126.43883 
L 199.130357 -128.107723 
L 199.130677 -129.776616 
L 199.148739 -131.445509 
L 199.138594 -133.114402 
L 199.047592 -134.783295 
L 198.905793 -136.452188 
L 198.800172 -138.121081 
L 198.753087 -139.789974 
L 198.674105 -141.458867 
L 198.457215 -143.127759 
L 198.037453 -144.796652 
L 197.192851 -146.465545 
L 195.339498 -148.134438 
L 192.041202 -149.803331 
L 188.204908 -151.472224 
L 186.16925 -153.141117 
L 187.508857 -154.81001 
L 191.1235 -156.478903 
L 194.523806 -158.147796 
L 196.409095 -159.816689 
L 197.123213 -161.485582 
L 197.332689 -163.154474 
L 197.228844 -164.823367 
L 196.857468 -166.49226 
L 196.556381 -168.161153 
L 196.735262 -169.830046 
L 197.375846 -171.498939 
L 198.050583 -173.167832 
L 198.434058 -174.836725 
L 198.568921 -176.505618 
L 198.62066 -178.174511 
L 198.587484 -179.843404 
L 198.378646 -181.512297 
L 198.089626 -183.181189 
L 198.005581 -184.850082 
L 198.271704 -186.518975 
L 198.713627 -188.187868 
L 199.065851 -189.856761 
L 199.241036 -191.525654 
L 199.309635 -193.194547 
L 199.336743 -194.86344 
L 199.324427 -196.532333 
L 199.272259 -198.201226 
L 199.223924 -199.870119 
L 199.230738 -201.539012 
L 199.295174 -203.207904 
L 199.376741 -204.876797 
L 199.440284 -206.54569 
L 199.477875 -208.214583 
L 199.493091 -209.883476 
L 199.485646 -211.552369 
L 199.458508 -213.221262 
L 199.42944 -214.890155 
L 199.41965 -216.559048 
L 199.430344 -218.227941 
L 199.445299 -219.896834 
L 199.457194 -221.565727 
L 199.474107 -223.234619 
L 199.499819 -224.903512 
L 199.524912 -226.572405 
L 199.539475 -228.241298 
L 199.543796 -229.910191 
L 199.544838 -231.579084 
L 199.547564 -233.247977 
L 199.551424 -234.91687 
L 199.552941 -236.585763 
L 199.548337 -238.254656 
L 199.533191 -239.923549 
L 199.504643 -241.592442 
L 199.469794 -243.261334 
L 199.448372 -244.930227 
L 199.456641 -246.59912 
L 199.488969 -248.268013 
L 199.524136 -249.936906 
L 199.547116 -251.605799 
L 199.575384 -251.605799 
L 199.575384 -251.605799 
L 199.598364 -249.936906 
L 199.633531 -248.268013 
L 199.665859 -246.59912 
L 199.674128 -244.930227 
L 199.652706 -243.261334 
L 199.617857 -241.592442 
L 199.589309 -239.923549 
L 199.574163 -238.254656 
L 199.569559 -236.585763 
L 199.571076 -234.91687 
L 199.574936 -233.247977 
L 199.577662 -231.579084 
L 199.578704 -229.910191 
L 199.583025 -228.241298 
L 199.597588 -226.572405 
L 199.622681 -224.903512 
L 199.648393 -223.234619 
L 199.665306 -221.565727 
L 199.677201 -219.896834 
L 199.692156 -218.227941 
L 199.70285 -216.559048 
L 199.69306 -214.890155 
L 199.663992 -213.221262 
L 199.636854 -211.552369 
L 199.629409 -209.883476 
L 199.644625 -208.214583 
L 199.682216 -206.54569 
L 199.745759 -204.876797 
L 199.827326 -203.207904 
L 199.891762 -201.539012 
L 199.898576 -199.870119 
L 199.850241 -198.201226 
L 199.798073 -196.532333 
L 199.785757 -194.86344 
L 199.812865 -193.194547 
L 199.881464 -191.525654 
L 200.056649 -189.856761 
L 200.408873 -188.187868 
L 200.850796 -186.518975 
L 201.116919 -184.850082 
L 201.032874 -183.181189 
L 200.743854 -181.512297 
L 200.535016 -179.843404 
L 200.50184 -178.174511 
L 200.553579 -176.505618 
L 200.688442 -174.836725 
L 201.071917 -173.167832 
L 201.746654 -171.498939 
L 202.387238 -169.830046 
L 202.566119 -168.161153 
L 202.265032 -166.49226 
L 201.893656 -164.823367 
L 201.789811 -163.154474 
L 201.999287 -161.485582 
L 202.713405 -159.816689 
L 204.598694 -158.147796 
L 207.999 -156.478903 
L 211.613643 -154.81001 
L 212.95325 -153.141117 
L 210.917592 -151.472224 
L 207.081298 -149.803331 
L 203.783002 -148.134438 
L 201.929649 -146.465545 
L 201.085047 -144.796652 
L 200.665285 -143.127759 
L 200.448395 -141.458867 
L 200.369413 -139.789974 
L 200.322328 -138.121081 
L 200.216707 -136.452188 
L 200.074908 -134.783295 
L 199.983906 -133.114402 
L 199.973761 -131.445509 
L 199.991823 -129.776616 
L 199.992143 -128.107723 
L 200.000752 -126.43883 
L 200.058834 -124.769937 
L 200.131979 -123.101045 
L 200.136521 -121.432152 
L 200.052305 -119.763259 
L 199.945934 -118.094366 
L 199.876483 -116.425473 
L 199.837036 -114.75658 
L 199.798226 -113.087687 
L 199.760086 -111.418794 
L 199.742199 -109.749901 
L 199.749392 -108.081008 
L 199.764378 -106.412115 
L 199.76551 -104.743222 
L 199.744101 -103.07433 
L 199.707992 -101.405437 
L 199.671882 -99.736544 
L 199.644466 -98.067651 
L 199.625158 -96.398758 
L 199.610061 -94.729865 
L 199.596657 -93.060972 
L 199.58435 -91.392079 
L 199.574038 -89.723186 
L 199.566965 -88.054293 
L 199.563242 -86.3854 
z
" style="stroke: #3d3d3d; stroke-width: 1.25"/>
    </defs>
    <g clip-path="url(#p5154ee21d2)">
     <use xlink:href="#m4ed1a5cd11" x="0" y="304.537188" style="fill: #9372b2; stroke: #3d3d3d; stroke-width: 1.25"/>
    </g>
   </g>
   <g id="PolyCollection_6">
    <defs>
     <path id="m1a8d859fcd" d="M 233.066763 -83.257229 
L 233.015737 -83.257229 
L 232.983024 -84.989317 
L 232.922915 -86.721406 
L 232.825883 -88.453494 
L 232.68784 -90.185582 
L 232.513996 -91.917671 
L 232.318804 -93.649759 
L 232.120974 -95.381847 
L 231.93623 -97.113935 
L 231.772903 -98.846024 
L 231.633683 -100.578112 
L 231.521274 -102.3102 
L 231.441064 -104.042289 
L 231.395944 -105.774377 
L 231.37698 -107.506465 
L 231.360042 -109.238554 
L 231.313759 -110.970642 
L 231.212508 -112.70273 
L 231.04449 -114.434818 
L 230.814666 -116.166907 
L 230.5496 -117.898995 
L 230.301361 -119.631083 
L 230.13545 -121.363172 
L 230.099248 -123.09526 
L 230.194299 -124.827348 
L 230.378281 -126.559436 
L 230.591667 -128.291525 
L 230.781098 -130.023613 
L 230.906645 -131.755701 
L 230.945134 -133.48779 
L 230.897361 -135.219878 
L 230.784891 -136.951966 
L 230.62222 -138.684055 
L 230.37501 -140.416143 
L 229.931149 -142.148231 
L 229.107246 -143.880319 
L 227.711503 -145.612408 
L 225.679001 -147.344496 
L 223.239258 -149.076584 
L 220.978143 -150.808673 
L 219.64925 -152.540761 
L 219.775444 -154.272849 
L 221.31796 -156.004937 
L 223.691207 -157.737026 
L 226.113253 -159.469114 
L 228.005315 -161.201202 
L 229.173088 -162.933291 
L 229.740374 -164.665379 
L 229.976014 -166.397467 
L 230.140676 -168.129556 
L 230.394802 -169.861644 
L 230.769454 -171.593732 
L 231.196677 -173.32582 
L 231.576824 -175.057909 
L 231.839606 -176.789997 
L 231.968674 -178.522085 
L 231.994276 -180.254174 
L 231.974022 -181.986262 
L 231.970831 -183.71835 
L 232.028508 -185.450438 
L 232.153374 -187.182527 
L 232.315603 -188.914615 
L 232.470704 -190.646703 
L 232.584471 -192.378792 
L 232.645176 -194.11088 
L 232.661627 -195.842968 
L 232.655215 -197.575057 
L 232.651076 -199.307145 
L 232.66878 -201.039233 
L 232.714526 -202.771321 
L 232.779593 -204.50341 
L 232.846694 -206.235498 
L 232.899728 -207.967586 
L 232.930568 -209.699675 
L 232.940284 -211.431763 
L 232.936313 -213.163851 
L 232.928167 -214.895939 
L 232.923513 -216.628028 
L 232.925907 -218.360116 
L 232.934817 -220.092204 
L 232.947316 -221.824293 
L 232.959972 -223.556381 
L 232.970077 -225.288469 
L 232.976373 -227.020558 
L 232.979474 -228.752646 
L 232.981492 -230.484734 
L 232.984443 -232.216822 
L 232.988191 -233.948911 
L 232.989557 -235.680999 
L 232.983735 -237.413087 
L 232.96756 -239.145176 
L 232.94277 -240.877264 
L 232.91686 -242.609352 
L 232.900201 -244.341441 
L 232.900591 -246.073529 
L 232.918809 -247.805617 
L 232.948467 -249.537705 
L 232.980109 -251.269794 
L 233.006229 -253.001882 
L 233.023819 -254.73397 
L 233.058681 -254.73397 
L 233.058681 -254.73397 
L 233.076271 -253.001882 
L 233.102391 -251.269794 
L 233.134033 -249.537705 
L 233.163691 -247.805617 
L 233.181909 -246.073529 
L 233.182299 -244.341441 
L 233.16564 -242.609352 
L 233.13973 -240.877264 
L 233.11494 -239.145176 
L 233.098765 -237.413087 
L 233.092943 -235.680999 
L 233.094309 -233.948911 
L 233.098057 -232.216822 
L 233.101008 -230.484734 
L 233.103026 -228.752646 
L 233.106127 -227.020558 
L 233.112423 -225.288469 
L 233.122528 -223.556381 
L 233.135184 -221.824293 
L 233.147683 -220.092204 
L 233.156593 -218.360116 
L 233.158987 -216.628028 
L 233.154333 -214.895939 
L 233.146187 -213.163851 
L 233.142216 -211.431763 
L 233.151932 -209.699675 
L 233.182772 -207.967586 
L 233.235806 -206.235498 
L 233.302907 -204.50341 
L 233.367974 -202.771321 
L 233.41372 -201.039233 
L 233.431424 -199.307145 
L 233.427285 -197.575057 
L 233.420873 -195.842968 
L 233.437324 -194.11088 
L 233.498029 -192.378792 
L 233.611796 -190.646703 
L 233.766897 -188.914615 
L 233.929126 -187.182527 
L 234.053992 -185.450438 
L 234.111669 -183.71835 
L 234.108478 -181.986262 
L 234.088224 -180.254174 
L 234.113826 -178.522085 
L 234.242894 -176.789997 
L 234.505676 -175.057909 
L 234.885823 -173.32582 
L 235.313046 -171.593732 
L 235.687698 -169.861644 
L 235.941824 -168.129556 
L 236.106486 -166.397467 
L 236.342126 -164.665379 
L 236.909412 -162.933291 
L 238.077185 -161.201202 
L 239.969247 -159.469114 
L 242.391293 -157.737026 
L 244.76454 -156.004937 
L 246.307056 -154.272849 
L 246.43325 -152.540761 
L 245.104357 -150.808673 
L 242.843242 -149.076584 
L 240.403499 -147.344496 
L 238.370997 -145.612408 
L 236.975254 -143.880319 
L 236.151351 -142.148231 
L 235.70749 -140.416143 
L 235.46028 -138.684055 
L 235.297609 -136.951966 
L 235.185139 -135.219878 
L 235.137366 -133.48779 
L 235.175855 -131.755701 
L 235.301402 -130.023613 
L 235.490833 -128.291525 
L 235.704219 -126.559436 
L 235.888201 -124.827348 
L 235.983252 -123.09526 
L 235.94705 -121.363172 
L 235.781139 -119.631083 
L 235.5329 -117.898995 
L 235.267834 -116.166907 
L 235.03801 -114.434818 
L 234.869992 -112.70273 
L 234.768741 -110.970642 
L 234.722458 -109.238554 
L 234.70552 -107.506465 
L 234.686556 -105.774377 
L 234.641436 -104.042289 
L 234.561226 -102.3102 
L 234.448817 -100.578112 
L 234.309597 -98.846024 
L 234.14627 -97.113935 
L 233.961526 -95.381847 
L 233.763696 -93.649759 
L 233.568504 -91.917671 
L 233.39466 -90.185582 
L 233.256617 -88.453494 
L 233.159585 -86.721406 
L 233.099476 -84.989317 
L 233.066763 -83.257229 
z
" style="stroke: #3d3d3d; stroke-width: 1.25"/>
    </defs>
    <g clip-path="url(#p5154ee21d2)">
     <use xlink:href="#m1a8d859fcd" x="0" y="304.537188" style="fill: #845b53; stroke: #3d3d3d; stroke-width: 1.25"/>
    </g>
   </g>
   <g id="PolyCollection_7">
    <defs>
     <path id="mca65e43c3e" d="M 266.71679 -79.287399 
L 266.32571 -79.287399 
L 266.157609 -81.099686 
L 265.886574 -82.911973 
L 265.479603 -84.72426 
L 264.910007 -86.536547 
L 264.166185 -88.348834 
L 263.258952 -90.161121 
L 262.224448 -91.973408 
L 261.120847 -93.785694 
L 260.019216 -95.597981 
L 258.990835 -97.410268 
L 258.094261 -99.222555 
L 257.365176 -101.034842 
L 256.811085 -102.847129 
L 256.41188 -104.659416 
L 256.126277 -106.471703 
L 255.903076 -108.283989 
L 255.695053 -110.096276 
L 255.472441 -111.908563 
L 255.232632 -113.72085 
L 255.003078 -115.533137 
L 254.835343 -117.345424 
L 254.790187 -119.157711 
L 254.916745 -120.969998 
L 255.232439 -122.782284 
L 255.711906 -124.594571 
L 256.29078 -126.406858 
L 256.883825 -128.219145 
L 257.409834 -130.031432 
L 257.812195 -131.843719 
L 258.066106 -133.656006 
L 258.170109 -135.468293 
L 258.127493 -137.280579 
L 257.928714 -139.092866 
L 257.546725 -140.905153 
L 256.952062 -142.71744 
L 256.144636 -144.529727 
L 255.188228 -146.342014 
L 254.227255 -148.154301 
L 253.468976 -149.966588 
L 253.12925 -151.778874 
L 253.360056 -153.591161 
L 254.190732 -155.403448 
L 255.512054 -157.215735 
L 257.112402 -159.028022 
L 258.749407 -160.840309 
L 260.224208 -162.652596 
L 261.427693 -164.464882 
L 262.345575 -166.277169 
L 263.029846 -168.089456 
L 263.556709 -169.901743 
L 263.991269 -171.71403 
L 264.37038 -173.526317 
L 264.703934 -175.338604 
L 264.987172 -177.150891 
L 265.214504 -178.963177 
L 265.387993 -180.775464 
L 265.518317 -182.587751 
L 265.62015 -184.400038 
L 265.705923 -186.212325 
L 265.781577 -188.024612 
L 265.84609 -189.836899 
L 265.894324 -191.649186 
L 265.921275 -193.461472 
L 265.925555 -195.273759 
L 265.910781 -197.086046 
L 265.88475 -198.898333 
L 265.857313 -200.71062 
L 265.838066 -202.522907 
L 265.834649 -204.335194 
L 265.851804 -206.147481 
L 265.890999 -207.959767 
L 265.950404 -209.772054 
L 266.025264 -211.584341 
L 266.108783 -213.396628 
L 266.193461 -215.208915 
L 266.272555 -217.021202 
L 266.341196 -218.833489 
L 266.396855 -220.645776 
L 266.439135 -222.458062 
L 266.469113 -224.270349 
L 266.488549 -226.082636 
L 266.499171 -227.894923 
L 266.502193 -229.70721 
L 266.498135 -231.519497 
L 266.486995 -233.331784 
L 266.468762 -235.144071 
L 266.444147 -236.956357 
L 266.415257 -238.768644 
L 266.38583 -240.580931 
L 266.360762 -242.393218 
L 266.344919 -244.205505 
L 266.341665 -246.017792 
L 266.351719 -247.830079 
L 266.37291 -249.642366 
L 266.40094 -251.454652 
L 266.430807 -253.266939 
L 266.45823 -255.079226 
L 266.480548 -256.891513 
L 266.496884 -258.7038 
L 266.545616 -258.7038 
L 266.545616 -258.7038 
L 266.561952 -256.891513 
L 266.58427 -255.079226 
L 266.611693 -253.266939 
L 266.64156 -251.454652 
L 266.66959 -249.642366 
L 266.690781 -247.830079 
L 266.700835 -246.017792 
L 266.697581 -244.205505 
L 266.681738 -242.393218 
L 266.65667 -240.580931 
L 266.627243 -238.768644 
L 266.598353 -236.956357 
L 266.573738 -235.144071 
L 266.555505 -233.331784 
L 266.544365 -231.519497 
L 266.540307 -229.70721 
L 266.543329 -227.894923 
L 266.553951 -226.082636 
L 266.573387 -224.270349 
L 266.603365 -222.458062 
L 266.645645 -220.645776 
L 266.701304 -218.833489 
L 266.769945 -217.021202 
L 266.849039 -215.208915 
L 266.933717 -213.396628 
L 267.017236 -211.584341 
L 267.092096 -209.772054 
L 267.151501 -207.959767 
L 267.190696 -206.147481 
L 267.207851 -204.335194 
L 267.204434 -202.522907 
L 267.185187 -200.71062 
L 267.15775 -198.898333 
L 267.131719 -197.086046 
L 267.116945 -195.273759 
L 267.121225 -193.461472 
L 267.148176 -191.649186 
L 267.19641 -189.836899 
L 267.260923 -188.024612 
L 267.336577 -186.212325 
L 267.42235 -184.400038 
L 267.524183 -182.587751 
L 267.654507 -180.775464 
L 267.827996 -178.963177 
L 268.055328 -177.150891 
L 268.338566 -175.338604 
L 268.67212 -173.526317 
L 269.051231 -171.71403 
L 269.485791 -169.901743 
L 270.012654 -168.089456 
L 270.696925 -166.277169 
L 271.614807 -164.464882 
L 272.818292 -162.652596 
L 274.293093 -160.840309 
L 275.930098 -159.028022 
L 277.530446 -157.215735 
L 278.851768 -155.403448 
L 279.682444 -153.591161 
L 279.91325 -151.778874 
L 279.573524 -149.966588 
L 278.815245 -148.154301 
L 277.854272 -146.342014 
L 276.897864 -144.529727 
L 276.090438 -142.71744 
L 275.495775 -140.905153 
L 275.113786 -139.092866 
L 274.915007 -137.280579 
L 274.872391 -135.468293 
L 274.976394 -133.656006 
L 275.230305 -131.843719 
L 275.632666 -130.031432 
L 276.158675 -128.219145 
L 276.75172 -126.406858 
L 277.330594 -124.594571 
L 277.810061 -122.782284 
L 278.125755 -120.969998 
L 278.252313 -119.157711 
L 278.207157 -117.345424 
L 278.039422 -115.533137 
L 277.809868 -113.72085 
L 277.570059 -111.908563 
L 277.347447 -110.096276 
L 277.139424 -108.283989 
L 276.916223 -106.471703 
L 276.63062 -104.659416 
L 276.231415 -102.847129 
L 275.677324 -101.034842 
L 274.948239 -99.222555 
L 274.051665 -97.410268 
L 273.023284 -95.597981 
L 271.921653 -93.785694 
L 270.818052 -91.973408 
L 269.783548 -90.161121 
L 268.876315 -88.348834 
L 268.132493 -86.536547 
L 267.562897 -84.72426 
L 267.155926 -82.911973 
L 266.884891 -81.099686 
L 266.71679 -79.287399 
z
" style="stroke: #3d3d3d; stroke-width: 1.25"/>
    </defs>
    <g clip-path="url(#p5154ee21d2)">
     <use xlink:href="#mca65e43c3e" x="0" y="304.537188" style="fill: #d684bd; stroke: #3d3d3d; stroke-width: 1.25"/>
    </g>
   </g>
   <g id="PolyCollection_8">
    <defs>
     <path id="m14bb8f4283" d="M 300.348619 -74.467717 
L 299.653881 -74.467717 
L 299.507209 -75.856602 
L 299.313883 -77.245487 
L 299.065554 -78.634371 
L 298.754787 -80.023256 
L 298.376024 -81.412141 
L 297.926603 -82.801025 
L 297.407685 -84.18991 
L 296.824941 -85.578795 
L 296.188826 -86.967679 
L 295.514329 -88.356564 
L 294.820107 -89.745449 
L 294.127059 -91.134333 
L 293.456437 -92.523218 
L 292.82772 -93.912103 
L 292.256528 -95.300987 
L 291.752867 -96.689872 
L 291.319985 -98.078757 
L 290.954023 -99.467641 
L 290.64456 -100.856526 
L 290.375996 -102.245411 
L 290.129619 -103.634295 
L 289.886108 -105.02318 
L 289.628139 -106.412065 
L 289.342787 -107.800949 
L 289.023408 -109.189834 
L 288.670776 -110.578719 
L 288.293319 -111.967603 
L 287.906424 -113.356488 
L 287.53086 -114.745373 
L 287.190514 -116.134258 
L 286.909688 -117.523142 
L 286.710288 -118.912027 
L 286.60925 -120.300912 
L 286.616534 -121.689796 
L 286.733944 -123.078681 
L 286.954902 -124.467566 
L 287.265214 -125.85645 
L 287.644652 -127.245335 
L 288.069143 -128.63422 
L 288.513206 -130.023104 
L 288.952335 -131.411989 
L 289.365018 -132.800874 
L 289.734209 -134.189758 
L 290.048189 -135.578643 
L 290.300822 -136.967528 
L 290.491363 -138.356412 
L 290.623931 -139.745297 
L 290.706818 -141.134182 
L 290.751721 -142.523066 
L 290.772916 -143.911951 
L 290.786393 -145.300836 
L 290.808867 -146.68972 
L 290.856681 -148.078605 
L 290.944584 -149.46749 
L 291.084495 -150.856374 
L 291.284382 -152.245259 
L 291.54743 -153.634144 
L 291.871674 -155.023028 
L 292.25019 -156.411913 
L 292.671873 -157.800798 
L 293.122699 -159.189682 
L 293.587317 -160.578567 
L 294.050699 -161.967452 
L 294.499638 -163.356336 
L 294.923852 -164.745221 
L 295.316596 -166.134106 
L 295.674738 -167.52299 
L 295.998363 -168.911875 
L 296.290038 -170.30076 
L 296.553919 -171.689644 
L 296.794849 -173.078529 
L 297.017591 -174.467414 
L 297.226285 -175.856299 
L 297.42414 -177.245183 
L 297.613355 -178.634068 
L 297.795214 -180.022953 
L 297.970278 -181.411837 
L 298.138625 -182.800722 
L 298.300068 -184.189607 
L 298.454336 -185.578491 
L 298.601187 -186.967376 
L 298.740466 -188.356261 
L 298.872115 -189.745145 
L 298.996148 -191.13403 
L 299.112612 -192.522915 
L 299.221551 -193.911799 
L 299.322972 -195.300684 
L 299.416831 -196.689569 
L 299.503048 -198.078453 
L 299.581517 -199.467338 
L 299.652156 -200.856223 
L 299.714935 -202.245107 
L 299.769924 -203.633992 
L 299.817319 -205.022877 
L 299.857458 -206.411761 
L 299.890816 -207.800646 
L 299.917994 -209.189531 
L 299.939678 -210.578415 
L 299.956609 -211.9673 
L 300.045891 -211.9673 
L 300.045891 -211.9673 
L 300.062822 -210.578415 
L 300.084506 -209.189531 
L 300.111684 -207.800646 
L 300.145042 -206.411761 
L 300.185181 -205.022877 
L 300.232576 -203.633992 
L 300.287565 -202.245107 
L 300.350344 -200.856223 
L 300.420983 -199.467338 
L 300.499452 -198.078453 
L 300.585669 -196.689569 
L 300.679528 -195.300684 
L 300.780949 -193.911799 
L 300.889888 -192.522915 
L 301.006352 -191.13403 
L 301.130385 -189.745145 
L 301.262034 -188.356261 
L 301.401313 -186.967376 
L 301.548164 -185.578491 
L 301.702432 -184.189607 
L 301.863875 -182.800722 
L 302.032222 -181.411837 
L 302.207286 -180.022953 
L 302.389145 -178.634068 
L 302.57836 -177.245183 
L 302.776215 -175.856299 
L 302.984909 -174.467414 
L 303.207651 -173.078529 
L 303.448581 -171.689644 
L 303.712462 -170.30076 
L 304.004137 -168.911875 
L 304.327762 -167.52299 
L 304.685904 -166.134106 
L 305.078648 -164.745221 
L 305.502862 -163.356336 
L 305.951801 -161.967452 
L 306.415183 -160.578567 
L 306.879801 -159.189682 
L 307.330627 -157.800798 
L 307.75231 -156.411913 
L 308.130826 -155.023028 
L 308.45507 -153.634144 
L 308.718118 -152.245259 
L 308.918005 -150.856374 
L 309.057916 -149.46749 
L 309.145819 -148.078605 
L 309.193633 -146.68972 
L 309.216107 -145.300836 
L 309.229584 -143.911951 
L 309.250779 -142.523066 
L 309.295682 -141.134182 
L 309.378569 -139.745297 
L 309.511137 -138.356412 
L 309.701678 -136.967528 
L 309.954311 -135.578643 
L 310.268291 -134.189758 
L 310.637482 -132.800874 
L 311.050165 -131.411989 
L 311.489294 -130.023104 
L 311.933357 -128.63422 
L 312.357848 -127.245335 
L 312.737286 -125.85645 
L 313.047598 -124.467566 
L 313.268556 -123.078681 
L 313.385966 -121.689796 
L 313.39325 -120.300912 
L 313.292212 -118.912027 
L 313.092812 -117.523142 
L 312.811986 -116.134258 
L 312.47164 -114.745373 
L 312.096076 -113.356488 
L 311.709181 -111.967603 
L 311.331724 -110.578719 
L 310.979092 -109.189834 
L 310.659713 -107.800949 
L 310.374361 -106.412065 
L 310.116392 -105.02318 
L 309.872881 -103.634295 
L 309.626504 -102.245411 
L 309.35794 -100.856526 
L 309.048477 -99.467641 
L 308.682515 -98.078757 
L 308.249633 -96.689872 
L 307.745972 -95.300987 
L 307.17478 -93.912103 
L 306.546063 -92.523218 
L 305.875441 -91.134333 
L 305.182393 -89.745449 
L 304.488171 -88.356564 
L 303.813674 -86.967679 
L 303.177559 -85.578795 
L 302.594815 -84.18991 
L 302.075897 -82.801025 
L 301.626476 -81.412141 
L 301.247713 -80.023256 
L 300.936946 -78.634371 
L 300.688617 -77.245487 
L 300.495291 -75.856602 
L 300.348619 -74.467717 
z
" style="stroke: #3d3d3d; stroke-width: 1.25"/>
    </defs>
    <g clip-path="url(#p5154ee21d2)">
     <use xlink:href="#m14bb8f4283" x="0" y="304.537188" style="fill: #7f7f7f; stroke: #3d3d3d; stroke-width: 1.25"/>
    </g>
   </g>
   <g id="PolyCollection_9">
    <defs>
     <path id="m8b503466cc" d="M 333.620078 -70.539062 
L 333.342422 -70.539062 
L 333.282886 -72.575426 
L 333.203416 -74.61179 
L 333.099756 -76.648153 
L 332.967661 -78.684517 
L 332.80327 -80.720881 
L 332.603567 -82.757244 
L 332.366875 -84.793608 
L 332.093359 -86.829972 
L 331.785444 -88.866335 
L 331.44809 -90.902699 
L 331.088848 -92.939062 
L 330.717641 -94.975426 
L 330.346259 -97.01179 
L 329.987561 -99.048153 
L 329.65447 -101.084517 
L 329.35883 -103.120881 
L 329.110242 -105.157244 
L 328.915021 -107.193608 
L 328.775355 -109.229972 
L 328.688761 -111.266335 
L 328.647882 -113.302699 
L 328.640621 -115.339062 
L 328.650606 -117.375426 
L 328.65795 -119.41179 
L 328.640282 -121.448153 
L 328.574035 -123.484517 
L 328.435985 -125.520881 
L 328.205032 -127.557244 
L 327.864165 -129.593608 
L 327.402523 -131.629972 
L 326.817366 -133.666335 
L 326.115717 -135.702699 
L 325.315364 -137.739062 
L 324.444957 -139.775426 
L 323.542953 -141.81179 
L 322.655338 -143.848153 
L 321.832221 -145.884517 
L 321.123601 -147.920881 
L 320.574793 -149.957244 
L 320.222087 -151.993608 
L 320.08925 -154.029972 
L 320.185351 -156.066335 
L 320.504226 -158.102699 
L 321.025604 -160.139062 
L 321.717714 -162.175426 
L 322.540919 -164.21179 
L 323.451844 -166.248153 
L 324.407412 -168.284517 
L 325.368302 -170.320881 
L 326.301467 -172.357244 
L 327.181572 -174.393608 
L 327.991366 -176.429972 
L 328.721164 -178.466335 
L 329.367711 -180.502699 
L 329.932713 -182.539062 
L 330.421304 -184.575426 
L 330.840653 -186.61179 
L 331.198844 -188.648153 
L 331.504058 -190.684517 
L 331.764058 -192.720881 
L 331.985911 -194.757244 
L 332.17587 -196.793608 
L 332.339348 -198.829972 
L 332.480927 -200.866335 
L 332.604365 -202.902699 
L 332.712601 -204.939062 
L 332.807755 -206.975426 
L 332.891144 -209.01179 
L 332.963332 -211.048153 
L 333.024227 -213.084517 
L 333.073225 -215.120881 
L 333.109407 -217.157244 
L 333.131767 -219.193608 
L 333.139463 -221.229972 
L 333.132061 -223.266335 
L 333.109759 -225.302699 
L 333.073562 -227.339062 
L 333.025388 -229.375426 
L 332.968074 -231.41179 
L 332.905293 -233.448153 
L 332.841348 -235.484517 
L 332.780872 -237.520881 
L 332.728467 -239.557244 
L 332.688288 -241.593608 
L 332.663667 -243.629972 
L 332.656793 -245.666335 
L 332.668511 -247.702699 
L 332.698268 -249.739062 
L 332.744211 -251.775426 
L 332.803424 -253.81179 
L 332.872266 -255.848153 
L 332.946766 -257.884517 
L 333.023011 -259.920881 
L 333.097478 -261.957244 
L 333.167292 -263.993608 
L 333.230358 -266.029972 
L 333.285404 -268.066335 
L 333.331916 -270.102699 
L 333.370022 -272.139062 
L 333.592478 -272.139062 
L 333.592478 -272.139062 
L 333.630584 -270.102699 
L 333.677096 -268.066335 
L 333.732142 -266.029972 
L 333.795208 -263.993608 
L 333.865022 -261.957244 
L 333.939489 -259.920881 
L 334.015734 -257.884517 
L 334.090234 -255.848153 
L 334.159076 -253.81179 
L 334.218289 -251.775426 
L 334.264232 -249.739062 
L 334.293989 -247.702699 
L 334.305707 -245.666335 
L 334.298833 -243.629972 
L 334.274212 -241.593608 
L 334.234033 -239.557244 
L 334.181628 -237.520881 
L 334.121152 -235.484517 
L 334.057207 -233.448153 
L 333.994426 -231.41179 
L 333.937112 -229.375426 
L 333.888938 -227.339062 
L 333.852741 -225.302699 
L 333.830439 -223.266335 
L 333.823037 -221.229972 
L 333.830733 -219.193608 
L 333.853093 -217.157244 
L 333.889275 -215.120881 
L 333.938273 -213.084517 
L 333.999168 -211.048153 
L 334.071356 -209.01179 
L 334.154745 -206.975426 
L 334.249899 -204.939062 
L 334.358135 -202.902699 
L 334.481573 -200.866335 
L 334.623152 -198.829972 
L 334.78663 -196.793608 
L 334.976589 -194.757244 
L 335.198442 -192.720881 
L 335.458442 -190.684517 
L 335.763656 -188.648153 
L 336.121847 -186.61179 
L 336.541196 -184.575426 
L 337.029787 -182.539062 
L 337.594789 -180.502699 
L 338.241336 -178.466335 
L 338.971134 -176.429972 
L 339.780928 -174.393608 
L 340.661033 -172.357244 
L 341.594198 -170.320881 
L 342.555088 -168.284517 
L 343.510656 -166.248153 
L 344.421581 -164.21179 
L 345.244786 -162.175426 
L 345.936896 -160.139062 
L 346.458274 -158.102699 
L 346.777149 -156.066335 
L 346.87325 -154.029972 
L 346.740413 -151.993608 
L 346.387707 -149.957244 
L 345.838899 -147.920881 
L 345.130279 -145.884517 
L 344.307162 -143.848153 
L 343.419547 -141.81179 
L 342.517543 -139.775426 
L 341.647136 -137.739062 
L 340.846783 -135.702699 
L 340.145134 -133.666335 
L 339.559977 -131.629972 
L 339.098335 -129.593608 
L 338.757468 -127.557244 
L 338.526515 -125.520881 
L 338.388465 -123.484517 
L 338.322218 -121.448153 
L 338.30455 -119.41179 
L 338.311894 -117.375426 
L 338.321879 -115.339062 
L 338.314618 -113.302699 
L 338.273739 -111.266335 
L 338.187145 -109.229972 
L 338.047479 -107.193608 
L 337.852258 -105.157244 
L 337.60367 -103.120881 
L 337.30803 -101.084517 
L 336.974939 -99.048153 
L 336.616241 -97.01179 
L 336.244859 -94.975426 
L 335.873652 -92.939062 
L 335.51441 -90.902699 
L 335.177056 -88.866335 
L 334.869141 -86.829972 
L 334.595625 -84.793608 
L 334.358933 -82.757244 
L 334.15923 -80.720881 
L 333.994839 -78.684517 
L 333.862744 -76.648153 
L 333.759084 -74.61179 
L 333.679614 -72.575426 
L 333.620078 -70.539062 
z
" style="stroke: #3d3d3d; stroke-width: 1.25"/>
    </defs>
    <g clip-path="url(#p5154ee21d2)">
     <use xlink:href="#m8b503466cc" x="0" y="304.537188" style="fill: #a9aa35; stroke: #3d3d3d; stroke-width: 1.25"/>
    </g>
   </g>
   <g id="matplotlib.axis_1">
    <g id="xtick_1">
     <g id="line2d_1">
      <defs>
       <path id="mdb63453fd9" d="M 0 0 
L 0 3.5 
" style="stroke: #000000; stroke-width: 0.8"/>
      </defs>
      <g>
       <use xlink:href="#mdb63453fd9" x="65.64125" y="244.078125" style="stroke: #000000; stroke-width: 0.8"/>
      </g>
     </g>
     <g id="text_1">
      <!-- &lt; 18 -->
      <g transform="translate(68.400625 275.360938) rotate(-90) scale(0.1 -0.1)">
       <defs>
        <path id="DejaVuSans-3c" d="M 4684 3150 
L 1459 2003 
L 4684 863 
L 4684 294 
L 678 1747 
L 678 2266 
L 4684 3719 
L 4684 3150 
z
" transform="scale(0.015625)"/>
        <path id="DejaVuSans-20" transform="scale(0.015625)"/>
        <path id="DejaVuSans-31" d="M 794 531 
L 1825 531 
L 1825 4091 
L 703 3866 
L 703 4441 
L 1819 4666 
L 2450 4666 
L 2450 531 
L 3481 531 
L 3481 0 
L 794 0 
L 794 531 
z
" transform="scale(0.015625)"/>
        <path id="DejaVuSans-38" d="M 2034 2216 
Q 1584 2216 1326 1975 
Q 1069 1734 1069 1313 
Q 1069 891 1326 650 
Q 1584 409 2034 409 
Q 2484 409 2743 651 
Q 3003 894 3003 1313 
Q 3003 1734 2745 1975 
Q 2488 2216 2034 2216 
z
M 1403 2484 
Q 997 2584 770 2862 
Q 544 3141 544 3541 
Q 544 4100 942 4425 
Q 1341 4750 2034 4750 
Q 2731 4750 3128 4425 
Q 3525 4100 3525 3541 
Q 3525 3141 3298 2862 
Q 3072 2584 2669 2484 
Q 3125 2378 3379 2068 
Q 3634 1759 3634 1313 
Q 3634 634 3220 271 
Q 2806 -91 2034 -91 
Q 1263 -91 848 271 
Q 434 634 434 1313 
Q 434 1759 690 2068 
Q 947 2378 1403 2484 
z
M 1172 3481 
Q 1172 3119 1398 2916 
Q 1625 2713 2034 2713 
Q 2441 2713 2670 2916 
Q 2900 3119 2900 3481 
Q 2900 3844 2670 4047 
Q 2441 4250 2034 4250 
Q 1625 4250 1398 4047 
Q 1172 3844 1172 3481 
z
" transform="scale(0.015625)"/>
       </defs>
       <use xlink:href="#DejaVuSans-3c"/>
       <use xlink:href="#DejaVuSans-20" x="83.789062"/>
       <use xlink:href="#DejaVuSans-31" x="115.576172"/>
       <use xlink:href="#DejaVuSans-38" x="179.199219"/>
      </g>
     </g>
    </g>
    <g id="xtick_2">
     <g id="line2d_2">
      <g>
       <use xlink:href="#mdb63453fd9" x="99.12125" y="244.078125" style="stroke: #000000; stroke-width: 0.8"/>
      </g>
     </g>
     <g id="text_2">
      <!-- 18-29 -->
      <g transform="translate(101.880625 280.135938) rotate(-90) scale(0.1 -0.1)">
       <defs>
        <path id="DejaVuSans-2d" d="M 313 2009 
L 1997 2009 
L 1997 1497 
L 313 1497 
L 313 2009 
z
" transform="scale(0.015625)"/>
        <path id="DejaVuSans-32" d="M 1228 531 
L 3431 531 
L 3431 0 
L 469 0 
L 469 531 
Q 828 903 1448 1529 
Q 2069 2156 2228 2338 
Q 2531 2678 2651 2914 
Q 2772 3150 2772 3378 
Q 2772 3750 2511 3984 
Q 2250 4219 1831 4219 
Q 1534 4219 1204 4116 
Q 875 4013 500 3803 
L 500 4441 
Q 881 4594 1212 4672 
Q 1544 4750 1819 4750 
Q 2544 4750 2975 4387 
Q 3406 4025 3406 3419 
Q 3406 3131 3298 2873 
Q 3191 2616 2906 2266 
Q 2828 2175 2409 1742 
Q 1991 1309 1228 531 
z
" transform="scale(0.015625)"/>
        <path id="DejaVuSans-39" d="M 703 97 
L 703 672 
Q 941 559 1184 500 
Q 1428 441 1663 441 
Q 2288 441 2617 861 
Q 2947 1281 2994 2138 
Q 2813 1869 2534 1725 
Q 2256 1581 1919 1581 
Q 1219 1581 811 2004 
Q 403 2428 403 3163 
Q 403 3881 828 4315 
Q 1253 4750 1959 4750 
Q 2769 4750 3195 4129 
Q 3622 3509 3622 2328 
Q 3622 1225 3098 567 
Q 2575 -91 1691 -91 
Q 1453 -91 1209 -44 
Q 966 3 703 97 
z
M 1959 2075 
Q 2384 2075 2632 2365 
Q 2881 2656 2881 3163 
Q 2881 3666 2632 3958 
Q 2384 4250 1959 4250 
Q 1534 4250 1286 3958 
Q 1038 3666 1038 3163 
Q 1038 2656 1286 2365 
Q 1534 2075 1959 2075 
z
" transform="scale(0.015625)"/>
       </defs>
       <use xlink:href="#DejaVuSans-31"/>
       <use xlink:href="#DejaVuSans-38" x="63.623047"/>
       <use xlink:href="#DejaVuSans-2d" x="127.246094"/>
       <use xlink:href="#DejaVuSans-32" x="163.330078"/>
       <use xlink:href="#DejaVuSans-39" x="226.953125"/>
      </g>
     </g>
    </g>
    <g id="xtick_3">
     <g id="line2d_3">
      <g>
       <use xlink:href="#mdb63453fd9" x="132.60125" y="244.078125" style="stroke: #000000; stroke-width: 0.8"/>
      </g>
     </g>
     <g id="text_3">
      <!-- 30-39 -->
      <g transform="translate(135.360625 280.135938) rotate(-90) scale(0.1 -0.1)">
       <defs>
        <path id="DejaVuSans-33" d="M 2597 2516 
Q 3050 2419 3304 2112 
Q 3559 1806 3559 1356 
Q 3559 666 3084 287 
Q 2609 -91 1734 -91 
Q 1441 -91 1130 -33 
Q 819 25 488 141 
L 488 750 
Q 750 597 1062 519 
Q 1375 441 1716 441 
Q 2309 441 2620 675 
Q 2931 909 2931 1356 
Q 2931 1769 2642 2001 
Q 2353 2234 1838 2234 
L 1294 2234 
L 1294 2753 
L 1863 2753 
Q 2328 2753 2575 2939 
Q 2822 3125 2822 3475 
Q 2822 3834 2567 4026 
Q 2313 4219 1838 4219 
Q 1578 4219 1281 4162 
Q 984 4106 628 3988 
L 628 4550 
Q 988 4650 1302 4700 
Q 1616 4750 1894 4750 
Q 2613 4750 3031 4423 
Q 3450 4097 3450 3541 
Q 3450 3153 3228 2886 
Q 3006 2619 2597 2516 
z
" transform="scale(0.015625)"/>
        <path id="DejaVuSans-30" d="M 2034 4250 
Q 1547 4250 1301 3770 
Q 1056 3291 1056 2328 
Q 1056 1369 1301 889 
Q 1547 409 2034 409 
Q 2525 409 2770 889 
Q 3016 1369 3016 2328 
Q 3016 3291 2770 3770 
Q 2525 4250 2034 4250 
z
M 2034 4750 
Q 2819 4750 3233 4129 
Q 3647 3509 3647 2328 
Q 3647 1150 3233 529 
Q 2819 -91 2034 -91 
Q 1250 -91 836 529 
Q 422 1150 422 2328 
Q 422 3509 836 4129 
Q 1250 4750 2034 4750 
z
" transform="scale(0.015625)"/>
       </defs>
       <use xlink:href="#DejaVuSans-33"/>
       <use xlink:href="#DejaVuSans-30" x="63.623047"/>
       <use xlink:href="#DejaVuSans-2d" x="127.246094"/>
       <use xlink:href="#DejaVuSans-33" x="163.330078"/>
       <use xlink:href="#DejaVuSans-39" x="226.953125"/>
      </g>
     </g>
    </g>
    <g id="xtick_4">
     <g id="line2d_4">
      <g>
       <use xlink:href="#mdb63453fd9" x="166.08125" y="244.078125" style="stroke: #000000; stroke-width: 0.8"/>
      </g>
     </g>
     <g id="text_4">
      <!-- 40-49 -->
      <g transform="translate(168.840625 280.135938) rotate(-90) scale(0.1 -0.1)">
       <defs>
        <path id="DejaVuSans-34" d="M 2419 4116 
L 825 1625 
L 2419 1625 
L 2419 4116 
z
M 2253 4666 
L 3047 4666 
L 3047 1625 
L 3713 1625 
L 3713 1100 
L 3047 1100 
L 3047 0 
L 2419 0 
L 2419 1100 
L 313 1100 
L 313 1709 
L 2253 4666 
z
" transform="scale(0.015625)"/>
       </defs>
       <use xlink:href="#DejaVuSans-34"/>
       <use xlink:href="#DejaVuSans-30" x="63.623047"/>
       <use xlink:href="#DejaVuSans-2d" x="127.246094"/>
       <use xlink:href="#DejaVuSans-34" x="163.330078"/>
       <use xlink:href="#DejaVuSans-39" x="226.953125"/>
      </g>
     </g>
    </g>
    <g id="xtick_5">
     <g id="line2d_5">
      <g>
       <use xlink:href="#mdb63453fd9" x="199.56125" y="244.078125" style="stroke: #000000; stroke-width: 0.8"/>
      </g>
     </g>
     <g id="text_5">
      <!-- 50-59 -->
      <g transform="translate(202.320625 280.135938) rotate(-90) scale(0.1 -0.1)">
       <defs>
        <path id="DejaVuSans-35" d="M 691 4666 
L 3169 4666 
L 3169 4134 
L 1269 4134 
L 1269 2991 
Q 1406 3038 1543 3061 
Q 1681 3084 1819 3084 
Q 2600 3084 3056 2656 
Q 3513 2228 3513 1497 
Q 3513 744 3044 326 
Q 2575 -91 1722 -91 
Q 1428 -91 1123 -41 
Q 819 9 494 109 
L 494 744 
Q 775 591 1075 516 
Q 1375 441 1709 441 
Q 2250 441 2565 725 
Q 2881 1009 2881 1497 
Q 2881 1984 2565 2268 
Q 2250 2553 1709 2553 
Q 1456 2553 1204 2497 
Q 953 2441 691 2322 
L 691 4666 
z
" transform="scale(0.015625)"/>
       </defs>
       <use xlink:href="#DejaVuSans-35"/>
       <use xlink:href="#DejaVuSans-30" x="63.623047"/>
       <use xlink:href="#DejaVuSans-2d" x="127.246094"/>
       <use xlink:href="#DejaVuSans-35" x="163.330078"/>
       <use xlink:href="#DejaVuSans-39" x="226.953125"/>
      </g>
     </g>
    </g>
    <g id="xtick_6">
     <g id="line2d_6">
      <g>
       <use xlink:href="#mdb63453fd9" x="233.04125" y="244.078125" style="stroke: #000000; stroke-width: 0.8"/>
      </g>
     </g>
     <g id="text_6">
      <!-- 60-69 -->
      <g transform="translate(235.800625 280.135938) rotate(-90) scale(0.1 -0.1)">
       <defs>
        <path id="DejaVuSans-36" d="M 2113 2584 
Q 1688 2584 1439 2293 
Q 1191 2003 1191 1497 
Q 1191 994 1439 701 
Q 1688 409 2113 409 
Q 2538 409 2786 701 
Q 3034 994 3034 1497 
Q 3034 2003 2786 2293 
Q 2538 2584 2113 2584 
z
M 3366 4563 
L 3366 3988 
Q 3128 4100 2886 4159 
Q 2644 4219 2406 4219 
Q 1781 4219 1451 3797 
Q 1122 3375 1075 2522 
Q 1259 2794 1537 2939 
Q 1816 3084 2150 3084 
Q 2853 3084 3261 2657 
Q 3669 2231 3669 1497 
Q 3669 778 3244 343 
Q 2819 -91 2113 -91 
Q 1303 -91 875 529 
Q 447 1150 447 2328 
Q 447 3434 972 4092 
Q 1497 4750 2381 4750 
Q 2619 4750 2861 4703 
Q 3103 4656 3366 4563 
z
" transform="scale(0.015625)"/>
       </defs>
       <use xlink:href="#DejaVuSans-36"/>
       <use xlink:href="#DejaVuSans-30" x="63.623047"/>
       <use xlink:href="#DejaVuSans-2d" x="127.246094"/>
       <use xlink:href="#DejaVuSans-36" x="163.330078"/>
       <use xlink:href="#DejaVuSans-39" x="226.953125"/>
      </g>
     </g>
    </g>
    <g id="xtick_7">
     <g id="line2d_7">
      <g>
       <use xlink:href="#mdb63453fd9" x="266.52125" y="244.078125" style="stroke: #000000; stroke-width: 0.8"/>
      </g>
     </g>
     <g id="text_7">
      <!-- 70-79 -->
      <g transform="translate(269.280625 280.135938) rotate(-90) scale(0.1 -0.1)">
       <defs>
        <path id="DejaVuSans-37" d="M 525 4666 
L 3525 4666 
L 3525 4397 
L 1831 0 
L 1172 0 
L 2766 4134 
L 525 4134 
L 525 4666 
z
" transform="scale(0.015625)"/>
       </defs>
       <use xlink:href="#DejaVuSans-37"/>
       <use xlink:href="#DejaVuSans-30" x="63.623047"/>
       <use xlink:href="#DejaVuSans-2d" x="127.246094"/>
       <use xlink:href="#DejaVuSans-37" x="163.330078"/>
       <use xlink:href="#DejaVuSans-39" x="226.953125"/>
      </g>
     </g>
    </g>
    <g id="xtick_8">
     <g id="line2d_8">
      <g>
       <use xlink:href="#mdb63453fd9" x="300.00125" y="244.078125" style="stroke: #000000; stroke-width: 0.8"/>
      </g>
     </g>
     <g id="text_8">
      <!-- 80-89 -->
      <g transform="translate(302.760625 280.135938) rotate(-90) scale(0.1 -0.1)">
       <use xlink:href="#DejaVuSans-38"/>
       <use xlink:href="#DejaVuSans-30" x="63.623047"/>
       <use xlink:href="#DejaVuSans-2d" x="127.246094"/>
       <use xlink:href="#DejaVuSans-38" x="163.330078"/>
       <use xlink:href="#DejaVuSans-39" x="226.953125"/>
      </g>
     </g>
    </g>
    <g id="xtick_9">
     <g id="line2d_9">
      <g>
       <use xlink:href="#mdb63453fd9" x="333.48125" y="244.078125" style="stroke: #000000; stroke-width: 0.8"/>
      </g>
     </g>
     <g id="text_9">
      <!-- 90-99 -->
      <g transform="translate(336.240625 280.135938) rotate(-90) scale(0.1 -0.1)">
       <use xlink:href="#DejaVuSans-39"/>
       <use xlink:href="#DejaVuSans-30" x="63.623047"/>
       <use xlink:href="#DejaVuSans-2d" x="127.246094"/>
       <use xlink:href="#DejaVuSans-39" x="163.330078"/>
       <use xlink:href="#DejaVuSans-39" x="226.953125"/>
      </g>
     </g>
    </g>
    <g id="xtick_10">
     <g id="line2d_10">
      <g>
       <use xlink:href="#mdb63453fd9" x="366.96125" y="244.078125" style="stroke: #000000; stroke-width: 0.8"/>
      </g>
     </g>
     <g id="text_10">
      <!-- 100 + -->
      <g transform="translate(369.720625 281.723438) rotate(-90) scale(0.1 -0.1)">
       <defs>
        <path id="DejaVuSans-2b" d="M 2944 4013 
L 2944 2272 
L 4684 2272 
L 4684 1741 
L 2944 1741 
L 2944 0 
L 2419 0 
L 2419 1741 
L 678 1741 
L 678 2272 
L 2419 2272 
L 2419 4013 
L 2944 4013 
z
" transform="scale(0.015625)"/>
       </defs>
       <use xlink:href="#DejaVuSans-31"/>
       <use xlink:href="#DejaVuSans-30" x="63.623047"/>
       <use xlink:href="#DejaVuSans-30" x="127.246094"/>
       <use xlink:href="#DejaVuSans-20" x="190.869141"/>
       <use xlink:href="#DejaVuSans-2b" x="222.65625"/>
      </g>
     </g>
    </g>
    <g id="text_11">
     <!-- age_group -->
     <g transform="translate(184.7 294.507812) scale(0.12 -0.12)">
      <defs>
       <path id="DejaVuSans-61" d="M 2194 1759 
Q 1497 1759 1228 1600 
Q 959 1441 959 1056 
Q 959 750 1161 570 
Q 1363 391 1709 391 
Q 2188 391 2477 730 
Q 2766 1069 2766 1631 
L 2766 1759 
L 2194 1759 
z
M 3341 1997 
L 3341 0 
L 2766 0 
L 2766 531 
Q 2569 213 2275 61 
Q 1981 -91 1556 -91 
Q 1019 -91 701 211 
Q 384 513 384 1019 
Q 384 1609 779 1909 
Q 1175 2209 1959 2209 
L 2766 2209 
L 2766 2266 
Q 2766 2663 2505 2880 
Q 2244 3097 1772 3097 
Q 1472 3097 1187 3025 
Q 903 2953 641 2809 
L 641 3341 
Q 956 3463 1253 3523 
Q 1550 3584 1831 3584 
Q 2591 3584 2966 3190 
Q 3341 2797 3341 1997 
z
" transform="scale(0.015625)"/>
       <path id="DejaVuSans-67" d="M 2906 1791 
Q 2906 2416 2648 2759 
Q 2391 3103 1925 3103 
Q 1463 3103 1205 2759 
Q 947 2416 947 1791 
Q 947 1169 1205 825 
Q 1463 481 1925 481 
Q 2391 481 2648 825 
Q 2906 1169 2906 1791 
z
M 3481 434 
Q 3481 -459 3084 -895 
Q 2688 -1331 1869 -1331 
Q 1566 -1331 1297 -1286 
Q 1028 -1241 775 -1147 
L 775 -588 
Q 1028 -725 1275 -790 
Q 1522 -856 1778 -856 
Q 2344 -856 2625 -561 
Q 2906 -266 2906 331 
L 2906 616 
Q 2728 306 2450 153 
Q 2172 0 1784 0 
Q 1141 0 747 490 
Q 353 981 353 1791 
Q 353 2603 747 3093 
Q 1141 3584 1784 3584 
Q 2172 3584 2450 3431 
Q 2728 3278 2906 2969 
L 2906 3500 
L 3481 3500 
L 3481 434 
z
" transform="scale(0.015625)"/>
       <path id="DejaVuSans-65" d="M 3597 1894 
L 3597 1613 
L 953 1613 
Q 991 1019 1311 708 
Q 1631 397 2203 397 
Q 2534 397 2845 478 
Q 3156 559 3463 722 
L 3463 178 
Q 3153 47 2828 -22 
Q 2503 -91 2169 -91 
Q 1331 -91 842 396 
Q 353 884 353 1716 
Q 353 2575 817 3079 
Q 1281 3584 2069 3584 
Q 2775 3584 3186 3129 
Q 3597 2675 3597 1894 
z
M 3022 2063 
Q 3016 2534 2758 2815 
Q 2500 3097 2075 3097 
Q 1594 3097 1305 2825 
Q 1016 2553 972 2059 
L 3022 2063 
z
" transform="scale(0.015625)"/>
       <path id="DejaVuSans-5f" d="M 3263 -1063 
L 3263 -1509 
L -63 -1509 
L -63 -1063 
L 3263 -1063 
z
" transform="scale(0.015625)"/>
       <path id="DejaVuSans-72" d="M 2631 2963 
Q 2534 3019 2420 3045 
Q 2306 3072 2169 3072 
Q 1681 3072 1420 2755 
Q 1159 2438 1159 1844 
L 1159 0 
L 581 0 
L 581 3500 
L 1159 3500 
L 1159 2956 
Q 1341 3275 1631 3429 
Q 1922 3584 2338 3584 
Q 2397 3584 2469 3576 
Q 2541 3569 2628 3553 
L 2631 2963 
z
" transform="scale(0.015625)"/>
       <path id="DejaVuSans-6f" d="M 1959 3097 
Q 1497 3097 1228 2736 
Q 959 2375 959 1747 
Q 959 1119 1226 758 
Q 1494 397 1959 397 
Q 2419 397 2687 759 
Q 2956 1122 2956 1747 
Q 2956 2369 2687 2733 
Q 2419 3097 1959 3097 
z
M 1959 3584 
Q 2709 3584 3137 3096 
Q 3566 2609 3566 1747 
Q 3566 888 3137 398 
Q 2709 -91 1959 -91 
Q 1206 -91 779 398 
Q 353 888 353 1747 
Q 353 2609 779 3096 
Q 1206 3584 1959 3584 
z
" transform="scale(0.015625)"/>
       <path id="DejaVuSans-75" d="M 544 1381 
L 544 3500 
L 1119 3500 
L 1119 1403 
Q 1119 906 1312 657 
Q 1506 409 1894 409 
Q 2359 409 2629 706 
Q 2900 1003 2900 1516 
L 2900 3500 
L 3475 3500 
L 3475 0 
L 2900 0 
L 2900 538 
Q 2691 219 2414 64 
Q 2138 -91 1772 -91 
Q 1169 -91 856 284 
Q 544 659 544 1381 
z
M 1991 3584 
L 1991 3584 
z
" transform="scale(0.015625)"/>
       <path id="DejaVuSans-70" d="M 1159 525 
L 1159 -1331 
L 581 -1331 
L 581 3500 
L 1159 3500 
L 1159 2969 
Q 1341 3281 1617 3432 
Q 1894 3584 2278 3584 
Q 2916 3584 3314 3078 
Q 3713 2572 3713 1747 
Q 3713 922 3314 415 
Q 2916 -91 2278 -91 
Q 1894 -91 1617 61 
Q 1341 213 1159 525 
z
M 3116 1747 
Q 3116 2381 2855 2742 
Q 2594 3103 2138 3103 
Q 1681 3103 1420 2742 
Q 1159 2381 1159 1747 
Q 1159 1113 1420 752 
Q 1681 391 2138 391 
Q 2594 391 2855 752 
Q 3116 1113 3116 1747 
z
" transform="scale(0.015625)"/>
      </defs>
      <use xlink:href="#DejaVuSans-61"/>
      <use xlink:href="#DejaVuSans-67" x="61.279297"/>
      <use xlink:href="#DejaVuSans-65" x="124.755859"/>
      <use xlink:href="#DejaVuSans-5f" x="186.279297"/>
      <use xlink:href="#DejaVuSans-67" x="236.279297"/>
      <use xlink:href="#DejaVuSans-72" x="299.755859"/>
      <use xlink:href="#DejaVuSans-6f" x="338.619141"/>
      <use xlink:href="#DejaVuSans-75" x="399.800781"/>
      <use xlink:href="#DejaVuSans-70" x="463.179688"/>
     </g>
    </g>
   </g>
   <g id="matplotlib.axis_2">
    <g id="ytick_1">
     <g id="line2d_11">
      <defs>
       <path id="ma3532e6d1b" d="M 0 0 
L -3.5 0 
" style="stroke: #000000; stroke-width: 0.8"/>
      </defs>
      <g>
       <use xlink:href="#ma3532e6d1b" x="48.90125" y="213.657015" style="stroke: #000000; stroke-width: 0.8"/>
      </g>
     </g>
     <g id="text_12">
      <!-- 0 -->
      <g transform="translate(35.53875 217.456234) scale(0.1 -0.1)">
       <use xlink:href="#DejaVuSans-30"/>
      </g>
     </g>
    </g>
    <g id="ytick_2">
     <g id="line2d_12">
      <g>
       <use xlink:href="#ma3532e6d1b" x="48.90125" y="182.410844" style="stroke: #000000; stroke-width: 0.8"/>
      </g>
     </g>
     <g id="text_13">
      <!-- 20 -->
      <g transform="translate(29.17625 186.210063) scale(0.1 -0.1)">
       <use xlink:href="#DejaVuSans-32"/>
       <use xlink:href="#DejaVuSans-30" x="63.623047"/>
      </g>
     </g>
    </g>
    <g id="ytick_3">
     <g id="line2d_13">
      <g>
       <use xlink:href="#ma3532e6d1b" x="48.90125" y="151.164673" style="stroke: #000000; stroke-width: 0.8"/>
      </g>
     </g>
     <g id="text_14">
      <!-- 40 -->
      <g transform="translate(29.17625 154.963892) scale(0.1 -0.1)">
       <use xlink:href="#DejaVuSans-34"/>
       <use xlink:href="#DejaVuSans-30" x="63.623047"/>
      </g>
     </g>
    </g>
    <g id="ytick_4">
     <g id="line2d_14">
      <g>
       <use xlink:href="#ma3532e6d1b" x="48.90125" y="119.918502" style="stroke: #000000; stroke-width: 0.8"/>
      </g>
     </g>
     <g id="text_15">
      <!-- 60 -->
      <g transform="translate(29.17625 123.717721) scale(0.1 -0.1)">
       <use xlink:href="#DejaVuSans-36"/>
       <use xlink:href="#DejaVuSans-30" x="63.623047"/>
      </g>
     </g>
    </g>
    <g id="ytick_5">
     <g id="line2d_15">
      <g>
       <use xlink:href="#ma3532e6d1b" x="48.90125" y="88.672331" style="stroke: #000000; stroke-width: 0.8"/>
      </g>
     </g>
     <g id="text_16">
      <!-- 80 -->
      <g transform="translate(29.17625 92.47155) scale(0.1 -0.1)">
       <use xlink:href="#DejaVuSans-38"/>
       <use xlink:href="#DejaVuSans-30" x="63.623047"/>
      </g>
     </g>
    </g>
    <g id="ytick_6">
     <g id="line2d_16">
      <g>
       <use xlink:href="#ma3532e6d1b" x="48.90125" y="57.42616" style="stroke: #000000; stroke-width: 0.8"/>
      </g>
     </g>
     <g id="text_17">
      <!-- 100 -->
      <g transform="translate(22.81375 61.225379) scale(0.1 -0.1)">
       <use xlink:href="#DejaVuSans-31"/>
       <use xlink:href="#DejaVuSans-30" x="63.623047"/>
       <use xlink:href="#DejaVuSans-30" x="127.246094"/>
      </g>
     </g>
    </g>
    <g id="ytick_7">
     <g id="line2d_17">
      <g>
       <use xlink:href="#ma3532e6d1b" x="48.90125" y="26.17999" style="stroke: #000000; stroke-width: 0.8"/>
      </g>
     </g>
     <g id="text_18">
      <!-- 120 -->
      <g transform="translate(22.81375 29.979208) scale(0.1 -0.1)">
       <use xlink:href="#DejaVuSans-31"/>
       <use xlink:href="#DejaVuSans-32" x="63.623047"/>
       <use xlink:href="#DejaVuSans-30" x="127.246094"/>
      </g>
     </g>
    </g>
    <g id="text_19">
     <!-- hours-per-week -->
     <g transform="translate(16.318125 179.745937) rotate(-90) scale(0.12 -0.12)">
      <defs>
       <path id="DejaVuSans-68" d="M 3513 2113 
L 3513 0 
L 2938 0 
L 2938 2094 
Q 2938 2591 2744 2837 
Q 2550 3084 2163 3084 
Q 1697 3084 1428 2787 
Q 1159 2491 1159 1978 
L 1159 0 
L 581 0 
L 581 4863 
L 1159 4863 
L 1159 2956 
Q 1366 3272 1645 3428 
Q 1925 3584 2291 3584 
Q 2894 3584 3203 3211 
Q 3513 2838 3513 2113 
z
" transform="scale(0.015625)"/>
       <path id="DejaVuSans-73" d="M 2834 3397 
L 2834 2853 
Q 2591 2978 2328 3040 
Q 2066 3103 1784 3103 
Q 1356 3103 1142 2972 
Q 928 2841 928 2578 
Q 928 2378 1081 2264 
Q 1234 2150 1697 2047 
L 1894 2003 
Q 2506 1872 2764 1633 
Q 3022 1394 3022 966 
Q 3022 478 2636 193 
Q 2250 -91 1575 -91 
Q 1294 -91 989 -36 
Q 684 19 347 128 
L 347 722 
Q 666 556 975 473 
Q 1284 391 1588 391 
Q 1994 391 2212 530 
Q 2431 669 2431 922 
Q 2431 1156 2273 1281 
Q 2116 1406 1581 1522 
L 1381 1569 
Q 847 1681 609 1914 
Q 372 2147 372 2553 
Q 372 3047 722 3315 
Q 1072 3584 1716 3584 
Q 2034 3584 2315 3537 
Q 2597 3491 2834 3397 
z
" transform="scale(0.015625)"/>
       <path id="DejaVuSans-77" d="M 269 3500 
L 844 3500 
L 1563 769 
L 2278 3500 
L 2956 3500 
L 3675 769 
L 4391 3500 
L 4966 3500 
L 4050 0 
L 3372 0 
L 2619 2869 
L 1863 0 
L 1184 0 
L 269 3500 
z
" transform="scale(0.015625)"/>
       <path id="DejaVuSans-6b" d="M 581 4863 
L 1159 4863 
L 1159 1991 
L 2875 3500 
L 3609 3500 
L 1753 1863 
L 3688 0 
L 2938 0 
L 1159 1709 
L 1159 0 
L 581 0 
L 581 4863 
z
" transform="scale(0.015625)"/>
      </defs>
      <use xlink:href="#DejaVuSans-68"/>
      <use xlink:href="#DejaVuSans-6f" x="63.378906"/>
      <use xlink:href="#DejaVuSans-75" x="124.560547"/>
      <use xlink:href="#DejaVuSans-72" x="187.939453"/>
      <use xlink:href="#DejaVuSans-73" x="229.052734"/>
      <use xlink:href="#DejaVuSans-2d" x="281.152344"/>
      <use xlink:href="#DejaVuSans-70" x="317.236328"/>
      <use xlink:href="#DejaVuSans-65" x="380.712891"/>
      <use xlink:href="#DejaVuSans-72" x="442.236328"/>
      <use xlink:href="#DejaVuSans-2d" x="476.974609"/>
      <use xlink:href="#DejaVuSans-77" x="513.058594"/>
      <use xlink:href="#DejaVuSans-65" x="594.845703"/>
      <use xlink:href="#DejaVuSans-65" x="656.369141"/>
      <use xlink:href="#DejaVuSans-6b" x="717.892578"/>
     </g>
    </g>
   </g>
   <g id="line2d_18">
    <path d="M 65.64125 207.407781 
L 65.64125 151.164673 
" clip-path="url(#p5154ee21d2)" style="fill: none; stroke: #3d3d3d; stroke-width: 1.875; stroke-linecap: square"/>
   </g>
   <g id="line2d_19">
    <path d="M 65.64125 190.222387 
L 65.64125 174.599301 
" clip-path="url(#p5154ee21d2)" style="fill: none; stroke: #3d3d3d; stroke-width: 5.625; stroke-linecap: square"/>
   </g>
   <g id="line2d_20">
    <path d="M 65.64125 182.410844 
" clip-path="url(#p5154ee21d2)" style="fill: none; stroke: #3d3d3d; stroke-width: 1.5; stroke-linecap: square"/>
    <defs>
     <path id="m24b7bc756f" d="M 2.34375 0 
L -2.34375 -0 
" style="stroke: #ffffff; stroke-width: 1.125"/>
    </defs>
    <g clip-path="url(#p5154ee21d2)">
     <use xlink:href="#m24b7bc756f" x="65.64125" y="182.410844" style="fill: #ffffff; stroke: #ffffff; stroke-width: 1.125"/>
    </g>
   </g>
   <g id="line2d_21">
    <path d="M 99.12125 190.222387 
L 99.12125 127.730045 
" clip-path="url(#p5154ee21d2)" style="fill: none; stroke: #3d3d3d; stroke-width: 1.875; stroke-linecap: square"/>
   </g>
   <g id="line2d_22">
    <path d="M 99.12125 166.787759 
L 99.12125 151.164673 
" clip-path="url(#p5154ee21d2)" style="fill: none; stroke: #3d3d3d; stroke-width: 5.625; stroke-linecap: square"/>
   </g>
   <g id="line2d_23">
    <path d="M 99.12125 151.164673 
" clip-path="url(#p5154ee21d2)" style="fill: none; stroke: #3d3d3d; stroke-width: 1.5; stroke-linecap: square"/>
    <g clip-path="url(#p5154ee21d2)">
     <use xlink:href="#m24b7bc756f" x="99.12125" y="151.164673" style="fill: #ffffff; stroke: #ffffff; stroke-width: 1.125"/>
    </g>
   </g>
   <g id="line2d_24">
    <path d="M 132.60125 169.912376 
L 132.60125 119.918502 
" clip-path="url(#p5154ee21d2)" style="fill: none; stroke: #3d3d3d; stroke-width: 1.875; stroke-linecap: square"/>
   </g>
   <g id="line2d_25">
    <path d="M 132.60125 151.164673 
L 132.60125 138.666205 
" clip-path="url(#p5154ee21d2)" style="fill: none; stroke: #3d3d3d; stroke-width: 5.625; stroke-linecap: square"/>
   </g>
   <g id="line2d_26">
    <path d="M 132.60125 151.164673 
" clip-path="url(#p5154ee21d2)" style="fill: none; stroke: #3d3d3d; stroke-width: 1.5; stroke-linecap: square"/>
    <g clip-path="url(#p5154ee21d2)">
     <use xlink:href="#m24b7bc756f" x="132.60125" y="151.164673" style="fill: #ffffff; stroke: #ffffff; stroke-width: 1.125"/>
    </g>
   </g>
   <g id="line2d_27">
    <path d="M 166.08125 174.599301 
L 166.08125 112.10696 
" clip-path="url(#p5154ee21d2)" style="fill: none; stroke: #3d3d3d; stroke-width: 1.875; stroke-linecap: square"/>
   </g>
   <g id="line2d_28">
    <path d="M 166.08125 151.164673 
L 166.08125 135.541588 
" clip-path="url(#p5154ee21d2)" style="fill: none; stroke: #3d3d3d; stroke-width: 5.625; stroke-linecap: square"/>
   </g>
   <g id="line2d_29">
    <path d="M 166.08125 151.164673 
" clip-path="url(#p5154ee21d2)" style="fill: none; stroke: #3d3d3d; stroke-width: 1.5; stroke-linecap: square"/>
    <g clip-path="url(#p5154ee21d2)">
     <use xlink:href="#m24b7bc756f" x="166.08125" y="151.164673" style="fill: #ffffff; stroke: #ffffff; stroke-width: 1.125"/>
    </g>
   </g>
   <g id="line2d_30">
    <path d="M 199.56125 169.912376 
L 199.56125 119.918502 
" clip-path="url(#p5154ee21d2)" style="fill: none; stroke: #3d3d3d; stroke-width: 1.875; stroke-linecap: square"/>
   </g>
   <g id="line2d_31">
    <path d="M 199.56125 151.164673 
L 199.56125 138.666205 
" clip-path="url(#p5154ee21d2)" style="fill: none; stroke: #3d3d3d; stroke-width: 5.625; stroke-linecap: square"/>
   </g>
   <g id="line2d_32">
    <path d="M 199.56125 151.164673 
" clip-path="url(#p5154ee21d2)" style="fill: none; stroke: #3d3d3d; stroke-width: 1.5; stroke-linecap: square"/>
    <g clip-path="url(#p5154ee21d2)">
     <use xlink:href="#m24b7bc756f" x="199.56125" y="151.164673" style="fill: #ffffff; stroke: #ffffff; stroke-width: 1.125"/>
    </g>
   </g>
   <g id="line2d_33">
    <path d="M 233.04125 190.222387 
L 233.04125 127.730045 
" clip-path="url(#p5154ee21d2)" style="fill: none; stroke: #3d3d3d; stroke-width: 1.875; stroke-linecap: square"/>
   </g>
   <g id="line2d_34">
    <path d="M 233.04125 166.787759 
L 233.04125 151.164673 
" clip-path="url(#p5154ee21d2)" style="fill: none; stroke: #3d3d3d; stroke-width: 5.625; stroke-linecap: square"/>
   </g>
   <g id="line2d_35">
    <path d="M 233.04125 151.164673 
" clip-path="url(#p5154ee21d2)" style="fill: none; stroke: #3d3d3d; stroke-width: 1.5; stroke-linecap: square"/>
    <g clip-path="url(#p5154ee21d2)">
     <use xlink:href="#m24b7bc756f" x="233.04125" y="151.164673" style="fill: #ffffff; stroke: #ffffff; stroke-width: 1.125"/>
    </g>
   </g>
   <g id="line2d_36">
    <path d="M 266.52125 212.094707 
L 266.52125 93.359257 
" clip-path="url(#p5154ee21d2)" style="fill: none; stroke: #3d3d3d; stroke-width: 1.875; stroke-linecap: square"/>
   </g>
   <g id="line2d_37">
    <path d="M 266.52125 190.222387 
L 266.52125 151.164673 
" clip-path="url(#p5154ee21d2)" style="fill: none; stroke: #3d3d3d; stroke-width: 5.625; stroke-linecap: square"/>
   </g>
   <g id="line2d_38">
    <path d="M 266.52125 174.599301 
" clip-path="url(#p5154ee21d2)" style="fill: none; stroke: #3d3d3d; stroke-width: 1.5; stroke-linecap: square"/>
    <g clip-path="url(#p5154ee21d2)">
     <use xlink:href="#m24b7bc756f" x="266.52125" y="174.599301" style="fill: #ffffff; stroke: #ffffff; stroke-width: 1.125"/>
    </g>
   </g>
   <g id="line2d_39">
    <path d="M 300.00125 212.094707 
L 300.00125 110.544651 
" clip-path="url(#p5154ee21d2)" style="fill: none; stroke: #3d3d3d; stroke-width: 1.875; stroke-linecap: square"/>
   </g>
   <g id="line2d_40">
    <path d="M 300.00125 191.784696 
L 300.00125 158.976216 
" clip-path="url(#p5154ee21d2)" style="fill: none; stroke: #3d3d3d; stroke-width: 5.625; stroke-linecap: square"/>
   </g>
   <g id="line2d_41">
    <path d="M 300.00125 182.410844 
" clip-path="url(#p5154ee21d2)" style="fill: none; stroke: #3d3d3d; stroke-width: 1.5; stroke-linecap: square"/>
    <g clip-path="url(#p5154ee21d2)">
     <use xlink:href="#m24b7bc756f" x="300.00125" y="182.410844" style="fill: #ffffff; stroke: #ffffff; stroke-width: 1.125"/>
    </g>
   </g>
   <g id="line2d_42">
    <path d="M 333.48125 198.03393 
L 333.48125 127.730045 
" clip-path="url(#p5154ee21d2)" style="fill: none; stroke: #3d3d3d; stroke-width: 1.875; stroke-linecap: square"/>
   </g>
   <g id="line2d_43">
    <path d="M 333.48125 170.69353 
L 333.48125 151.164673 
" clip-path="url(#p5154ee21d2)" style="fill: none; stroke: #3d3d3d; stroke-width: 5.625; stroke-linecap: square"/>
   </g>
   <g id="line2d_44">
    <path d="M 333.48125 151.164673 
" clip-path="url(#p5154ee21d2)" style="fill: none; stroke: #3d3d3d; stroke-width: 1.5; stroke-linecap: square"/>
    <g clip-path="url(#p5154ee21d2)">
     <use xlink:href="#m24b7bc756f" x="333.48125" y="151.164673" style="fill: #ffffff; stroke: #ffffff; stroke-width: 1.125"/>
    </g>
   </g>
   <g id="patch_3">
    <path d="M 48.90125 244.078125 
L 48.90125 22.318125 
" style="fill: none; stroke: #000000; stroke-width: 0.8; stroke-linejoin: miter; stroke-linecap: square"/>
   </g>
   <g id="patch_4">
    <path d="M 383.70125 244.078125 
L 383.70125 22.318125 
" style="fill: none; stroke: #000000; stroke-width: 0.8; stroke-linejoin: miter; stroke-linecap: square"/>
   </g>
   <g id="patch_5">
    <path d="M 48.90125 244.078125 
L 383.70125 244.078125 
" style="fill: none; stroke: #000000; stroke-width: 0.8; stroke-linejoin: miter; stroke-linecap: square"/>
   </g>
   <g id="patch_6">
    <path d="M 48.90125 22.318125 
L 383.70125 22.318125 
" style="fill: none; stroke: #000000; stroke-width: 0.8; stroke-linejoin: miter; stroke-linecap: square"/>
   </g>
   <g id="text_20">
    <!-- Distribution of hours-per-week by age_group -->
    <g transform="translate(82.378438 16.318125) scale(0.12 -0.12)">
     <defs>
      <path id="DejaVuSans-44" d="M 1259 4147 
L 1259 519 
L 2022 519 
Q 2988 519 3436 956 
Q 3884 1394 3884 2338 
Q 3884 3275 3436 3711 
Q 2988 4147 2022 4147 
L 1259 4147 
z
M 628 4666 
L 1925 4666 
Q 3281 4666 3915 4102 
Q 4550 3538 4550 2338 
Q 4550 1131 3912 565 
Q 3275 0 1925 0 
L 628 0 
L 628 4666 
z
" transform="scale(0.015625)"/>
      <path id="DejaVuSans-69" d="M 603 3500 
L 1178 3500 
L 1178 0 
L 603 0 
L 603 3500 
z
M 603 4863 
L 1178 4863 
L 1178 4134 
L 603 4134 
L 603 4863 
z
" transform="scale(0.015625)"/>
      <path id="DejaVuSans-74" d="M 1172 4494 
L 1172 3500 
L 2356 3500 
L 2356 3053 
L 1172 3053 
L 1172 1153 
Q 1172 725 1289 603 
Q 1406 481 1766 481 
L 2356 481 
L 2356 0 
L 1766 0 
Q 1100 0 847 248 
Q 594 497 594 1153 
L 594 3053 
L 172 3053 
L 172 3500 
L 594 3500 
L 594 4494 
L 1172 4494 
z
" transform="scale(0.015625)"/>
      <path id="DejaVuSans-62" d="M 3116 1747 
Q 3116 2381 2855 2742 
Q 2594 3103 2138 3103 
Q 1681 3103 1420 2742 
Q 1159 2381 1159 1747 
Q 1159 1113 1420 752 
Q 1681 391 2138 391 
Q 2594 391 2855 752 
Q 3116 1113 3116 1747 
z
M 1159 2969 
Q 1341 3281 1617 3432 
Q 1894 3584 2278 3584 
Q 2916 3584 3314 3078 
Q 3713 2572 3713 1747 
Q 3713 922 3314 415 
Q 2916 -91 2278 -91 
Q 1894 -91 1617 61 
Q 1341 213 1159 525 
L 1159 0 
L 581 0 
L 581 4863 
L 1159 4863 
L 1159 2969 
z
" transform="scale(0.015625)"/>
      <path id="DejaVuSans-6e" d="M 3513 2113 
L 3513 0 
L 2938 0 
L 2938 2094 
Q 2938 2591 2744 2837 
Q 2550 3084 2163 3084 
Q 1697 3084 1428 2787 
Q 1159 2491 1159 1978 
L 1159 0 
L 581 0 
L 581 3500 
L 1159 3500 
L 1159 2956 
Q 1366 3272 1645 3428 
Q 1925 3584 2291 3584 
Q 2894 3584 3203 3211 
Q 3513 2838 3513 2113 
z
" transform="scale(0.015625)"/>
      <path id="DejaVuSans-66" d="M 2375 4863 
L 2375 4384 
L 1825 4384 
Q 1516 4384 1395 4259 
Q 1275 4134 1275 3809 
L 1275 3500 
L 2222 3500 
L 2222 3053 
L 1275 3053 
L 1275 0 
L 697 0 
L 697 3053 
L 147 3053 
L 147 3500 
L 697 3500 
L 697 3744 
Q 697 4328 969 4595 
Q 1241 4863 1831 4863 
L 2375 4863 
z
" transform="scale(0.015625)"/>
      <path id="DejaVuSans-79" d="M 2059 -325 
Q 1816 -950 1584 -1140 
Q 1353 -1331 966 -1331 
L 506 -1331 
L 506 -850 
L 844 -850 
Q 1081 -850 1212 -737 
Q 1344 -625 1503 -206 
L 1606 56 
L 191 3500 
L 800 3500 
L 1894 763 
L 2988 3500 
L 3597 3500 
L 2059 -325 
z
" transform="scale(0.015625)"/>
     </defs>
     <use xlink:href="#DejaVuSans-44"/>
     <use xlink:href="#DejaVuSans-69" x="77.001953"/>
     <use xlink:href="#DejaVuSans-73" x="104.785156"/>
     <use xlink:href="#DejaVuSans-74" x="156.884766"/>
     <use xlink:href="#DejaVuSans-72" x="196.09375"/>
     <use xlink:href="#DejaVuSans-69" x="237.207031"/>
     <use xlink:href="#DejaVuSans-62" x="264.990234"/>
     <use xlink:href="#DejaVuSans-75" x="328.466797"/>
     <use xlink:href="#DejaVuSans-74" x="391.845703"/>
     <use xlink:href="#DejaVuSans-69" x="431.054688"/>
     <use xlink:href="#DejaVuSans-6f" x="458.837891"/>
     <use xlink:href="#DejaVuSans-6e" x="520.019531"/>
     <use xlink:href="#DejaVuSans-20" x="583.398438"/>
     <use xlink:href="#DejaVuSans-6f" x="615.185547"/>
     <use xlink:href="#DejaVuSans-66" x="676.367188"/>
     <use xlink:href="#DejaVuSans-20" x="711.572266"/>
     <use xlink:href="#DejaVuSans-68" x="743.359375"/>
     <use xlink:href="#DejaVuSans-6f" x="806.738281"/>
     <use xlink:href="#DejaVuSans-75" x="867.919922"/>
     <use xlink:href="#DejaVuSans-72" x="931.298828"/>
     <use xlink:href="#DejaVuSans-73" x="972.412109"/>
     <use xlink:href="#DejaVuSans-2d" x="1024.511719"/>
     <use xlink:href="#DejaVuSans-70" x="1060.595703"/>
     <use xlink:href="#DejaVuSans-65" x="1124.072266"/>
     <use xlink:href="#DejaVuSans-72" x="1185.595703"/>
     <use xlink:href="#DejaVuSans-2d" x="1220.333984"/>
     <use xlink:href="#DejaVuSans-77" x="1256.417969"/>
     <use xlink:href="#DejaVuSans-65" x="1338.205078"/>
     <use xlink:href="#DejaVuSans-65" x="1399.728516"/>
     <use xlink:href="#DejaVuSans-6b" x="1461.251953"/>
     <use xlink:href="#DejaVuSans-20" x="1519.162109"/>
     <use xlink:href="#DejaVuSans-62" x="1550.949219"/>
     <use xlink:href="#DejaVuSans-79" x="1614.425781"/>
     <use xlink:href="#DejaVuSans-20" x="1673.605469"/>
     <use xlink:href="#DejaVuSans-61" x="1705.392578"/>
     <use xlink:href="#DejaVuSans-67" x="1766.671875"/>
     <use xlink:href="#DejaVuSans-65" x="1830.148438"/>
     <use xlink:href="#DejaVuSans-5f" x="1891.671875"/>
     <use xlink:href="#DejaVuSans-67" x="1941.671875"/>
     <use xlink:href="#DejaVuSans-72" x="2005.148438"/>
     <use xlink:href="#DejaVuSans-6f" x="2044.011719"/>
     <use xlink:href="#DejaVuSans-75" x="2105.193359"/>
     <use xlink:href="#DejaVuSans-70" x="2168.572266"/>
    </g>
   </g>
  </g>
 </g>
 <defs>
  <clipPath id="p5154ee21d2">
   <rect x="48.90125" y="22.318125" width="334.8" height="221.76"/>
  </clipPath>
 </defs>
</svg>
