<?xml version="1.0" encoding="utf-8" standalone="no"?>
<!DOCTYPE svg PUBLIC "-//W3C//DTD SVG 1.1//EN"
  "http://www.w3.org/Graphics/SVG/1.1/DTD/svg11.dtd">
<svg xmlns:xlink="http://www.w3.org/1999/xlink" width="1296pt" height="432pt" viewBox="0 0 1296 432" xmlns="http://www.w3.org/2000/svg" version="1.1">
 <metadata>
  <rdf:RDF xmlns:dc="http://purl.org/dc/elements/1.1/" xmlns:cc="http://creativecommons.org/ns#" xmlns:rdf="http://www.w3.org/1999/02/22-rdf-syntax-ns#">
   <cc:Work>
    <dc:type rdf:resource="http://purl.org/dc/dcmitype/StillImage"/>
    <dc:date>2024-10-24T11:21:13.695755</dc:date>
    <dc:format>image/svg+xml</dc:format>
    <dc:creator>
     <cc:Agent>
      <dc:title>Matplotlib v3.5.3, https://matplotlib.org/</dc:title>
     </cc:Agent>
    </dc:creator>
   </cc:Work>
  </rdf:RDF>
 </metadata>
 <defs>
  <style type="text/css">*{stroke-linejoin: round; stroke-linecap: butt}</style>
 </defs>
 <g id="figure_1">
  <g id="patch_1">
   <path d="M 0 432 
L 1296 432 
L 1296 0 
L 0 0 
z
" style="fill: #ffffff"/>
  </g>
  <g id="axes_1">
   <g id="patch_2">
    <path d="M 50.6 344.589091 
L 422.1 344.589091 
L 422.1 26.88 
L 50.6 26.88 
z
" style="fill: #ffffff"/>
   </g>
   <g id="matplotlib.axis_1">
    <g id="xtick_1">
     <g id="line2d_1">
      <defs>
       <path id="mdabfe6624f" d="M 0 0 
L 0 3.5 
" style="stroke: #000000; stroke-width: 0.8"/>
      </defs>
      <g>
       <use xlink:href="#mdabfe6624f" x="102.97725" y="344.589091" style="stroke: #000000; stroke-width: 0.8"/>
      </g>
     </g>
     <g id="text_1">
      <!-- 4.0 -->
      <g transform="translate(95.025687 359.187528)scale(0.1 -0.1)">
       <defs>
        <path id="DejaVuSans-34" d="M 2419 4116 
L 825 1625 
L 2419 1625 
L 2419 4116 
z
M 2253 4666 
L 3047 4666 
L 3047 1625 
L 3713 1625 
L 3713 1100 
L 3047 1100 
L 3047 0 
L 2419 0 
L 2419 1100 
L 313 1100 
L 313 1709 
L 2253 4666 
z
" transform="scale(0.015625)"/>
        <path id="DejaVuSans-2e" d="M 684 794 
L 1344 794 
L 1344 0 
L 684 0 
L 684 794 
z
" transform="scale(0.015625)"/>
        <path id="DejaVuSans-30" d="M 2034 4250 
Q 1547 4250 1301 3770 
Q 1056 3291 1056 2328 
Q 1056 1369 1301 889 
Q 1547 409 2034 409 
Q 2525 409 2770 889 
Q 3016 1369 3016 2328 
Q 3016 3291 2770 3770 
Q 2525 4250 2034 4250 
z
M 2034 4750 
Q 2819 4750 3233 4129 
Q 3647 3509 3647 2328 
Q 3647 1150 3233 529 
Q 2819 -91 2034 -91 
Q 1250 -91 836 529 
Q 422 1150 422 2328 
Q 422 3509 836 4129 
Q 1250 4750 2034 4750 
z
" transform="scale(0.015625)"/>
       </defs>
       <use xlink:href="#DejaVuSans-34"/>
       <use xlink:href="#DejaVuSans-2e" x="63.623047"/>
       <use xlink:href="#DejaVuSans-30" x="95.410156"/>
      </g>
     </g>
    </g>
    <g id="xtick_2">
     <g id="line2d_2">
      <g>
       <use xlink:href="#mdabfe6624f" x="156.171024" y="344.589091" style="stroke: #000000; stroke-width: 0.8"/>
      </g>
     </g>
     <g id="text_2">
      <!-- 4.5 -->
      <g transform="translate(148.219462 359.187528)scale(0.1 -0.1)">
       <defs>
        <path id="DejaVuSans-35" d="M 691 4666 
L 3169 4666 
L 3169 4134 
L 1269 4134 
L 1269 2991 
Q 1406 3038 1543 3061 
Q 1681 3084 1819 3084 
Q 2600 3084 3056 2656 
Q 3513 2228 3513 1497 
Q 3513 744 3044 326 
Q 2575 -91 1722 -91 
Q 1428 -91 1123 -41 
Q 819 9 494 109 
L 494 744 
Q 775 591 1075 516 
Q 1375 441 1709 441 
Q 2250 441 2565 725 
Q 2881 1009 2881 1497 
Q 2881 1984 2565 2268 
Q 2250 2553 1709 2553 
Q 1456 2553 1204 2497 
Q 953 2441 691 2322 
L 691 4666 
z
" transform="scale(0.015625)"/>
       </defs>
       <use xlink:href="#DejaVuSans-34"/>
       <use xlink:href="#DejaVuSans-2e" x="63.623047"/>
       <use xlink:href="#DejaVuSans-35" x="95.410156"/>
      </g>
     </g>
    </g>
    <g id="xtick_3">
     <g id="line2d_3">
      <g>
       <use xlink:href="#mdabfe6624f" x="209.364798" y="344.589091" style="stroke: #000000; stroke-width: 0.8"/>
      </g>
     </g>
     <g id="text_3">
      <!-- 5.0 -->
      <g transform="translate(201.413236 359.187528)scale(0.1 -0.1)">
       <use xlink:href="#DejaVuSans-35"/>
       <use xlink:href="#DejaVuSans-2e" x="63.623047"/>
       <use xlink:href="#DejaVuSans-30" x="95.410156"/>
      </g>
     </g>
    </g>
    <g id="xtick_4">
     <g id="line2d_4">
      <g>
       <use xlink:href="#mdabfe6624f" x="262.558573" y="344.589091" style="stroke: #000000; stroke-width: 0.8"/>
      </g>
     </g>
     <g id="text_4">
      <!-- 5.5 -->
      <g transform="translate(254.60701 359.187528)scale(0.1 -0.1)">
       <use xlink:href="#DejaVuSans-35"/>
       <use xlink:href="#DejaVuSans-2e" x="63.623047"/>
       <use xlink:href="#DejaVuSans-35" x="95.410156"/>
      </g>
     </g>
    </g>
    <g id="xtick_5">
     <g id="line2d_5">
      <g>
       <use xlink:href="#mdabfe6624f" x="315.752347" y="344.589091" style="stroke: #000000; stroke-width: 0.8"/>
      </g>
     </g>
     <g id="text_5">
      <!-- 6.0 -->
      <g transform="translate(307.800784 359.187528)scale(0.1 -0.1)">
       <defs>
        <path id="DejaVuSans-36" d="M 2113 2584 
Q 1688 2584 1439 2293 
Q 1191 2003 1191 1497 
Q 1191 994 1439 701 
Q 1688 409 2113 409 
Q 2538 409 2786 701 
Q 3034 994 3034 1497 
Q 3034 2003 2786 2293 
Q 2538 2584 2113 2584 
z
M 3366 4563 
L 3366 3988 
Q 3128 4100 2886 4159 
Q 2644 4219 2406 4219 
Q 1781 4219 1451 3797 
Q 1122 3375 1075 2522 
Q 1259 2794 1537 2939 
Q 1816 3084 2150 3084 
Q 2853 3084 3261 2657 
Q 3669 2231 3669 1497 
Q 3669 778 3244 343 
Q 2819 -91 2113 -91 
Q 1303 -91 875 529 
Q 447 1150 447 2328 
Q 447 3434 972 4092 
Q 1497 4750 2381 4750 
Q 2619 4750 2861 4703 
Q 3103 4656 3366 4563 
z
" transform="scale(0.015625)"/>
       </defs>
       <use xlink:href="#DejaVuSans-36"/>
       <use xlink:href="#DejaVuSans-2e" x="63.623047"/>
       <use xlink:href="#DejaVuSans-30" x="95.410156"/>
      </g>
     </g>
    </g>
    <g id="xtick_6">
     <g id="line2d_6">
      <g>
       <use xlink:href="#mdabfe6624f" x="368.946121" y="344.589091" style="stroke: #000000; stroke-width: 0.8"/>
      </g>
     </g>
     <g id="text_6">
      <!-- 6.5 -->
      <g transform="translate(360.994559 359.187528)scale(0.1 -0.1)">
       <use xlink:href="#DejaVuSans-36"/>
       <use xlink:href="#DejaVuSans-2e" x="63.623047"/>
       <use xlink:href="#DejaVuSans-35" x="95.410156"/>
      </g>
     </g>
    </g>
    <g id="text_7">
     <!-- age -->
     <g transform="translate(225.172188 374.385341)scale(0.12 -0.12)">
      <defs>
       <path id="DejaVuSans-61" d="M 2194 1759 
Q 1497 1759 1228 1600 
Q 959 1441 959 1056 
Q 959 750 1161 570 
Q 1363 391 1709 391 
Q 2188 391 2477 730 
Q 2766 1069 2766 1631 
L 2766 1759 
L 2194 1759 
z
M 3341 1997 
L 3341 0 
L 2766 0 
L 2766 531 
Q 2569 213 2275 61 
Q 1981 -91 1556 -91 
Q 1019 -91 701 211 
Q 384 513 384 1019 
Q 384 1609 779 1909 
Q 1175 2209 1959 2209 
L 2766 2209 
L 2766 2266 
Q 2766 2663 2505 2880 
Q 2244 3097 1772 3097 
Q 1472 3097 1187 3025 
Q 903 2953 641 2809 
L 641 3341 
Q 956 3463 1253 3523 
Q 1550 3584 1831 3584 
Q 2591 3584 2966 3190 
Q 3341 2797 3341 1997 
z
" transform="scale(0.015625)"/>
       <path id="DejaVuSans-67" d="M 2906 1791 
Q 2906 2416 2648 2759 
Q 2391 3103 1925 3103 
Q 1463 3103 1205 2759 
Q 947 2416 947 1791 
Q 947 1169 1205 825 
Q 1463 481 1925 481 
Q 2391 481 2648 825 
Q 2906 1169 2906 1791 
z
M 3481 434 
Q 3481 -459 3084 -895 
Q 2688 -1331 1869 -1331 
Q 1566 -1331 1297 -1286 
Q 1028 -1241 775 -1147 
L 775 -588 
Q 1028 -725 1275 -790 
Q 1522 -856 1778 -856 
Q 2344 -856 2625 -561 
Q 2906 -266 2906 331 
L 2906 616 
Q 2728 306 2450 153 
Q 2172 0 1784 0 
Q 1141 0 747 490 
Q 353 981 353 1791 
Q 353 2603 747 3093 
Q 1141 3584 1784 3584 
Q 2172 3584 2450 3431 
Q 2728 3278 2906 2969 
L 2906 3500 
L 3481 3500 
L 3481 434 
z
" transform="scale(0.015625)"/>
       <path id="DejaVuSans-65" d="M 3597 1894 
L 3597 1613 
L 953 1613 
Q 991 1019 1311 708 
Q 1631 397 2203 397 
Q 2534 397 2845 478 
Q 3156 559 3463 722 
L 3463 178 
Q 3153 47 2828 -22 
Q 2503 -91 2169 -91 
Q 1331 -91 842 396 
Q 353 884 353 1716 
Q 353 2575 817 3079 
Q 1281 3584 2069 3584 
Q 2775 3584 3186 3129 
Q 3597 2675 3597 1894 
z
M 3022 2063 
Q 3016 2534 2758 2815 
Q 2500 3097 2075 3097 
Q 1594 3097 1305 2825 
Q 1016 2553 972 2059 
L 3022 2063 
z
" transform="scale(0.015625)"/>
      </defs>
      <use xlink:href="#DejaVuSans-61"/>
      <use xlink:href="#DejaVuSans-67" x="61.279297"/>
      <use xlink:href="#DejaVuSans-65" x="124.755859"/>
     </g>
    </g>
   </g>
   <g id="matplotlib.axis_2">
    <g id="ytick_1">
     <g id="line2d_7">
      <defs>
       <path id="mb914937b7f" d="M 0 0 
L -3.5 0 
" style="stroke: #000000; stroke-width: 0.8"/>
      </defs>
      <g>
       <use xlink:href="#mb914937b7f" x="50.6" y="344.589091" style="stroke: #000000; stroke-width: 0.8"/>
      </g>
     </g>
     <g id="text_8">
      <!-- 0.0 -->
      <g transform="translate(27.696875 348.38831)scale(0.1 -0.1)">
       <use xlink:href="#DejaVuSans-30"/>
       <use xlink:href="#DejaVuSans-2e" x="63.623047"/>
       <use xlink:href="#DejaVuSans-30" x="95.410156"/>
      </g>
     </g>
    </g>
    <g id="ytick_2">
     <g id="line2d_8">
      <g>
       <use xlink:href="#mb914937b7f" x="50.6" y="286.249831" style="stroke: #000000; stroke-width: 0.8"/>
      </g>
     </g>
     <g id="text_9">
      <!-- 0.1 -->
      <g transform="translate(27.696875 290.04905)scale(0.1 -0.1)">
       <defs>
        <path id="DejaVuSans-31" d="M 794 531 
L 1825 531 
L 1825 4091 
L 703 3866 
L 703 4441 
L 1819 4666 
L 2450 4666 
L 2450 531 
L 3481 531 
L 3481 0 
L 794 0 
L 794 531 
z
" transform="scale(0.015625)"/>
       </defs>
       <use xlink:href="#DejaVuSans-30"/>
       <use xlink:href="#DejaVuSans-2e" x="63.623047"/>
       <use xlink:href="#DejaVuSans-31" x="95.410156"/>
      </g>
     </g>
    </g>
    <g id="ytick_3">
     <g id="line2d_9">
      <g>
       <use xlink:href="#mb914937b7f" x="50.6" y="227.910571" style="stroke: #000000; stroke-width: 0.8"/>
      </g>
     </g>
     <g id="text_10">
      <!-- 0.2 -->
      <g transform="translate(27.696875 231.70979)scale(0.1 -0.1)">
       <defs>
        <path id="DejaVuSans-32" d="M 1228 531 
L 3431 531 
L 3431 0 
L 469 0 
L 469 531 
Q 828 903 1448 1529 
Q 2069 2156 2228 2338 
Q 2531 2678 2651 2914 
Q 2772 3150 2772 3378 
Q 2772 3750 2511 3984 
Q 2250 4219 1831 4219 
Q 1534 4219 1204 4116 
Q 875 4013 500 3803 
L 500 4441 
Q 881 4594 1212 4672 
Q 1544 4750 1819 4750 
Q 2544 4750 2975 4387 
Q 3406 4025 3406 3419 
Q 3406 3131 3298 2873 
Q 3191 2616 2906 2266 
Q 2828 2175 2409 1742 
Q 1991 1309 1228 531 
z
" transform="scale(0.015625)"/>
       </defs>
       <use xlink:href="#DejaVuSans-30"/>
       <use xlink:href="#DejaVuSans-2e" x="63.623047"/>
       <use xlink:href="#DejaVuSans-32" x="95.410156"/>
      </g>
     </g>
    </g>
    <g id="ytick_4">
     <g id="line2d_10">
      <g>
       <use xlink:href="#mb914937b7f" x="50.6" y="169.571311" style="stroke: #000000; stroke-width: 0.8"/>
      </g>
     </g>
     <g id="text_11">
      <!-- 0.3 -->
      <g transform="translate(27.696875 173.37053)scale(0.1 -0.1)">
       <defs>
        <path id="DejaVuSans-33" d="M 2597 2516 
Q 3050 2419 3304 2112 
Q 3559 1806 3559 1356 
Q 3559 666 3084 287 
Q 2609 -91 1734 -91 
Q 1441 -91 1130 -33 
Q 819 25 488 141 
L 488 750 
Q 750 597 1062 519 
Q 1375 441 1716 441 
Q 2309 441 2620 675 
Q 2931 909 2931 1356 
Q 2931 1769 2642 2001 
Q 2353 2234 1838 2234 
L 1294 2234 
L 1294 2753 
L 1863 2753 
Q 2328 2753 2575 2939 
Q 2822 3125 2822 3475 
Q 2822 3834 2567 4026 
Q 2313 4219 1838 4219 
Q 1578 4219 1281 4162 
Q 984 4106 628 3988 
L 628 4550 
Q 988 4650 1302 4700 
Q 1616 4750 1894 4750 
Q 2613 4750 3031 4423 
Q 3450 4097 3450 3541 
Q 3450 3153 3228 2886 
Q 3006 2619 2597 2516 
z
" transform="scale(0.015625)"/>
       </defs>
       <use xlink:href="#DejaVuSans-30"/>
       <use xlink:href="#DejaVuSans-2e" x="63.623047"/>
       <use xlink:href="#DejaVuSans-33" x="95.410156"/>
      </g>
     </g>
    </g>
    <g id="ytick_5">
     <g id="line2d_11">
      <g>
       <use xlink:href="#mb914937b7f" x="50.6" y="111.232051" style="stroke: #000000; stroke-width: 0.8"/>
      </g>
     </g>
     <g id="text_12">
      <!-- 0.4 -->
      <g transform="translate(27.696875 115.03127)scale(0.1 -0.1)">
       <use xlink:href="#DejaVuSans-30"/>
       <use xlink:href="#DejaVuSans-2e" x="63.623047"/>
       <use xlink:href="#DejaVuSans-34" x="95.410156"/>
      </g>
     </g>
    </g>
    <g id="ytick_6">
     <g id="line2d_12">
      <g>
       <use xlink:href="#mb914937b7f" x="50.6" y="52.892791" style="stroke: #000000; stroke-width: 0.8"/>
      </g>
     </g>
     <g id="text_13">
      <!-- 0.5 -->
      <g transform="translate(27.696875 56.69201)scale(0.1 -0.1)">
       <use xlink:href="#DejaVuSans-30"/>
       <use xlink:href="#DejaVuSans-2e" x="63.623047"/>
       <use xlink:href="#DejaVuSans-35" x="95.410156"/>
      </g>
     </g>
    </g>
    <g id="text_14">
     <!-- Density -->
     <g transform="translate(21.20125 208.544858)rotate(-90)scale(0.12 -0.12)">
      <defs>
       <path id="DejaVuSans-44" d="M 1259 4147 
L 1259 519 
L 2022 519 
Q 2988 519 3436 956 
Q 3884 1394 3884 2338 
Q 3884 3275 3436 3711 
Q 2988 4147 2022 4147 
L 1259 4147 
z
M 628 4666 
L 1925 4666 
Q 3281 4666 3915 4102 
Q 4550 3538 4550 2338 
Q 4550 1131 3912 565 
Q 3275 0 1925 0 
L 628 0 
L 628 4666 
z
" transform="scale(0.015625)"/>
       <path id="DejaVuSans-6e" d="M 3513 2113 
L 3513 0 
L 2938 0 
L 2938 2094 
Q 2938 2591 2744 2837 
Q 2550 3084 2163 3084 
Q 1697 3084 1428 2787 
Q 1159 2491 1159 1978 
L 1159 0 
L 581 0 
L 581 3500 
L 1159 3500 
L 1159 2956 
Q 1366 3272 1645 3428 
Q 1925 3584 2291 3584 
Q 2894 3584 3203 3211 
Q 3513 2838 3513 2113 
z
" transform="scale(0.015625)"/>
       <path id="DejaVuSans-73" d="M 2834 3397 
L 2834 2853 
Q 2591 2978 2328 3040 
Q 2066 3103 1784 3103 
Q 1356 3103 1142 2972 
Q 928 2841 928 2578 
Q 928 2378 1081 2264 
Q 1234 2150 1697 2047 
L 1894 2003 
Q 2506 1872 2764 1633 
Q 3022 1394 3022 966 
Q 3022 478 2636 193 
Q 2250 -91 1575 -91 
Q 1294 -91 989 -36 
Q 684 19 347 128 
L 347 722 
Q 666 556 975 473 
Q 1284 391 1588 391 
Q 1994 391 2212 530 
Q 2431 669 2431 922 
Q 2431 1156 2273 1281 
Q 2116 1406 1581 1522 
L 1381 1569 
Q 847 1681 609 1914 
Q 372 2147 372 2553 
Q 372 3047 722 3315 
Q 1072 3584 1716 3584 
Q 2034 3584 2315 3537 
Q 2597 3491 2834 3397 
z
" transform="scale(0.015625)"/>
       <path id="DejaVuSans-69" d="M 603 3500 
L 1178 3500 
L 1178 0 
L 603 0 
L 603 3500 
z
M 603 4863 
L 1178 4863 
L 1178 4134 
L 603 4134 
L 603 4863 
z
" transform="scale(0.015625)"/>
       <path id="DejaVuSans-74" d="M 1172 4494 
L 1172 3500 
L 2356 3500 
L 2356 3053 
L 1172 3053 
L 1172 1153 
Q 1172 725 1289 603 
Q 1406 481 1766 481 
L 2356 481 
L 2356 0 
L 1766 0 
Q 1100 0 847 248 
Q 594 497 594 1153 
L 594 3053 
L 172 3053 
L 172 3500 
L 594 3500 
L 594 4494 
L 1172 4494 
z
" transform="scale(0.015625)"/>
       <path id="DejaVuSans-79" d="M 2059 -325 
Q 1816 -950 1584 -1140 
Q 1353 -1331 966 -1331 
L 506 -1331 
L 506 -850 
L 844 -850 
Q 1081 -850 1212 -737 
Q 1344 -625 1503 -206 
L 1606 56 
L 191 3500 
L 800 3500 
L 1894 763 
L 2988 3500 
L 3597 3500 
L 2059 -325 
z
" transform="scale(0.015625)"/>
      </defs>
      <use xlink:href="#DejaVuSans-44"/>
      <use xlink:href="#DejaVuSans-65" x="77.001953"/>
      <use xlink:href="#DejaVuSans-6e" x="138.525391"/>
      <use xlink:href="#DejaVuSans-73" x="201.904297"/>
      <use xlink:href="#DejaVuSans-69" x="254.003906"/>
      <use xlink:href="#DejaVuSans-74" x="281.787109"/>
      <use xlink:href="#DejaVuSans-79" x="320.996094"/>
     </g>
    </g>
   </g>
   <g id="line2d_13">
    <path d="M 67.486364 278.744869 
L 70.880608 262.707819 
L 74.274852 248.16205 
L 77.669095 235.237106 
L 81.063339 223.829285 
L 82.760461 218.671736 
L 84.457583 213.879385 
L 86.154705 209.457237 
L 87.851827 205.408207 
L 89.548949 201.728041 
L 91.246071 198.401037 
L 92.943193 195.397181 
L 94.640315 192.670978 
L 98.034559 187.796827 
L 103.125925 180.736508 
L 104.823047 178.135218 
L 106.520169 175.317791 
L 109.914413 169.005819 
L 116.702901 155.342497 
L 118.400023 152.330411 
L 120.097145 149.697851 
L 121.794267 147.508893 
L 123.491389 145.784103 
L 125.188511 144.498721 
L 126.885633 143.588174 
L 128.582755 142.959284 
L 135.371243 141.134322 
L 137.068365 140.388094 
L 138.765487 139.391955 
L 140.462608 138.106704 
L 142.15973 136.510023 
L 143.856852 134.598643 
L 145.553974 132.390593 
L 147.251096 129.925895 
L 150.64534 124.478648 
L 155.736706 116.105885 
L 159.13095 110.954028 
L 169.313682 96.135361 
L 177.799292 83.109622 
L 189.679146 65.642104 
L 196.467634 55.269423 
L 199.861878 50.629731 
L 201.559 48.604065 
L 203.256122 46.833832 
L 204.953243 45.35423 
L 206.650365 44.18674 
L 208.347487 43.334894 
L 210.044609 42.782174 
L 211.741731 42.492566 
L 213.438853 42.413654 
L 216.833097 42.627901 
L 220.227341 42.897182 
L 223.621585 42.838725 
L 227.015829 42.402741 
L 230.410073 41.913526 
L 232.107195 41.806379 
L 233.804317 41.863001 
L 235.501439 42.108341 
L 237.198561 42.535055 
L 240.592805 43.752968 
L 243.987049 45.017347 
L 247.381293 45.991351 
L 250.775537 46.962665 
L 252.472659 47.725084 
L 254.169781 48.862159 
L 255.866903 50.499368 
L 257.564025 52.716712 
L 259.261147 55.529487 
L 260.958269 58.881248 
L 264.352513 66.678653 
L 269.443878 78.726901 
L 272.838122 85.994463 
L 276.232366 93.104435 
L 277.929488 96.890271 
L 279.62661 100.953574 
L 283.020854 109.993117 
L 291.506464 134.328636 
L 293.203586 138.662878 
L 294.900708 142.676923 
L 296.59783 146.379749 
L 299.992074 153.048923 
L 305.08344 162.468742 
L 308.477684 169.401714 
L 310.174806 173.256303 
L 313.56905 181.840612 
L 316.963294 191.488631 
L 320.357538 201.921433 
L 325.448904 218.396499 
L 337.328757 257.394785 
L 340.723001 267.721236 
L 344.117245 277.101207 
L 345.814367 281.358847 
L 347.511489 285.315228 
L 350.905733 292.385108 
L 354.299977 298.556096 
L 357.694221 304.147281 
L 361.088465 309.384421 
L 364.482709 314.328202 
L 367.876953 318.915611 
L 371.271197 323.05732 
L 374.665441 326.723175 
L 378.059685 329.964094 
L 381.453929 332.853267 
L 384.848173 335.39264 
L 386.545295 336.500198 
L 388.242417 337.472778 
L 389.939539 338.290332 
L 391.636661 338.938865 
L 393.333783 339.415131 
L 395.030905 339.729975 
L 398.425148 339.993224 
L 403.516514 340.161011 
L 405.213636 340.333967 
L 405.213636 340.333967 
" clip-path="url(#p4698467145)" style="fill: none; stroke: #1f77b4; stroke-width: 1.5; stroke-linecap: square"/>
   </g>
   <g id="patch_3">
    <path d="M 50.6 344.589091 
L 50.6 26.88 
" style="fill: none; stroke: #000000; stroke-width: 0.8; stroke-linejoin: miter; stroke-linecap: square"/>
   </g>
   <g id="patch_4">
    <path d="M 422.1 344.589091 
L 422.1 26.88 
" style="fill: none; stroke: #000000; stroke-width: 0.8; stroke-linejoin: miter; stroke-linecap: square"/>
   </g>
   <g id="patch_5">
    <path d="M 50.6 344.589091 
L 422.1 344.589091 
" style="fill: none; stroke: #000000; stroke-width: 0.8; stroke-linejoin: miter; stroke-linecap: square"/>
   </g>
   <g id="patch_6">
    <path d="M 50.6 26.88 
L 422.1 26.88 
" style="fill: none; stroke: #000000; stroke-width: 0.8; stroke-linejoin: miter; stroke-linecap: square"/>
   </g>
   <g id="text_15">
    <!-- KDE Plot: age (Scale: boxcox) -->
    <g transform="translate(147.949375 20.88)scale(0.12 -0.12)">
     <defs>
      <path id="DejaVuSans-4b" d="M 628 4666 
L 1259 4666 
L 1259 2694 
L 3353 4666 
L 4166 4666 
L 1850 2491 
L 4331 0 
L 3500 0 
L 1259 2247 
L 1259 0 
L 628 0 
L 628 4666 
z
" transform="scale(0.015625)"/>
      <path id="DejaVuSans-45" d="M 628 4666 
L 3578 4666 
L 3578 4134 
L 1259 4134 
L 1259 2753 
L 3481 2753 
L 3481 2222 
L 1259 2222 
L 1259 531 
L 3634 531 
L 3634 0 
L 628 0 
L 628 4666 
z
" transform="scale(0.015625)"/>
      <path id="DejaVuSans-20" transform="scale(0.015625)"/>
      <path id="DejaVuSans-50" d="M 1259 4147 
L 1259 2394 
L 2053 2394 
Q 2494 2394 2734 2622 
Q 2975 2850 2975 3272 
Q 2975 3691 2734 3919 
Q 2494 4147 2053 4147 
L 1259 4147 
z
M 628 4666 
L 2053 4666 
Q 2838 4666 3239 4311 
Q 3641 3956 3641 3272 
Q 3641 2581 3239 2228 
Q 2838 1875 2053 1875 
L 1259 1875 
L 1259 0 
L 628 0 
L 628 4666 
z
" transform="scale(0.015625)"/>
      <path id="DejaVuSans-6c" d="M 603 4863 
L 1178 4863 
L 1178 0 
L 603 0 
L 603 4863 
z
" transform="scale(0.015625)"/>
      <path id="DejaVuSans-6f" d="M 1959 3097 
Q 1497 3097 1228 2736 
Q 959 2375 959 1747 
Q 959 1119 1226 758 
Q 1494 397 1959 397 
Q 2419 397 2687 759 
Q 2956 1122 2956 1747 
Q 2956 2369 2687 2733 
Q 2419 3097 1959 3097 
z
M 1959 3584 
Q 2709 3584 3137 3096 
Q 3566 2609 3566 1747 
Q 3566 888 3137 398 
Q 2709 -91 1959 -91 
Q 1206 -91 779 398 
Q 353 888 353 1747 
Q 353 2609 779 3096 
Q 1206 3584 1959 3584 
z
" transform="scale(0.015625)"/>
      <path id="DejaVuSans-3a" d="M 750 794 
L 1409 794 
L 1409 0 
L 750 0 
L 750 794 
z
M 750 3309 
L 1409 3309 
L 1409 2516 
L 750 2516 
L 750 3309 
z
" transform="scale(0.015625)"/>
      <path id="DejaVuSans-28" d="M 1984 4856 
Q 1566 4138 1362 3434 
Q 1159 2731 1159 2009 
Q 1159 1288 1364 580 
Q 1569 -128 1984 -844 
L 1484 -844 
Q 1016 -109 783 600 
Q 550 1309 550 2009 
Q 550 2706 781 3412 
Q 1013 4119 1484 4856 
L 1984 4856 
z
" transform="scale(0.015625)"/>
      <path id="DejaVuSans-53" d="M 3425 4513 
L 3425 3897 
Q 3066 4069 2747 4153 
Q 2428 4238 2131 4238 
Q 1616 4238 1336 4038 
Q 1056 3838 1056 3469 
Q 1056 3159 1242 3001 
Q 1428 2844 1947 2747 
L 2328 2669 
Q 3034 2534 3370 2195 
Q 3706 1856 3706 1288 
Q 3706 609 3251 259 
Q 2797 -91 1919 -91 
Q 1588 -91 1214 -16 
Q 841 59 441 206 
L 441 856 
Q 825 641 1194 531 
Q 1563 422 1919 422 
Q 2459 422 2753 634 
Q 3047 847 3047 1241 
Q 3047 1584 2836 1778 
Q 2625 1972 2144 2069 
L 1759 2144 
Q 1053 2284 737 2584 
Q 422 2884 422 3419 
Q 422 4038 858 4394 
Q 1294 4750 2059 4750 
Q 2388 4750 2728 4690 
Q 3069 4631 3425 4513 
z
" transform="scale(0.015625)"/>
      <path id="DejaVuSans-63" d="M 3122 3366 
L 3122 2828 
Q 2878 2963 2633 3030 
Q 2388 3097 2138 3097 
Q 1578 3097 1268 2742 
Q 959 2388 959 1747 
Q 959 1106 1268 751 
Q 1578 397 2138 397 
Q 2388 397 2633 464 
Q 2878 531 3122 666 
L 3122 134 
Q 2881 22 2623 -34 
Q 2366 -91 2075 -91 
Q 1284 -91 818 406 
Q 353 903 353 1747 
Q 353 2603 823 3093 
Q 1294 3584 2113 3584 
Q 2378 3584 2631 3529 
Q 2884 3475 3122 3366 
z
" transform="scale(0.015625)"/>
      <path id="DejaVuSans-62" d="M 3116 1747 
Q 3116 2381 2855 2742 
Q 2594 3103 2138 3103 
Q 1681 3103 1420 2742 
Q 1159 2381 1159 1747 
Q 1159 1113 1420 752 
Q 1681 391 2138 391 
Q 2594 391 2855 752 
Q 3116 1113 3116 1747 
z
M 1159 2969 
Q 1341 3281 1617 3432 
Q 1894 3584 2278 3584 
Q 2916 3584 3314 3078 
Q 3713 2572 3713 1747 
Q 3713 922 3314 415 
Q 2916 -91 2278 -91 
Q 1894 -91 1617 61 
Q 1341 213 1159 525 
L 1159 0 
L 581 0 
L 581 4863 
L 1159 4863 
L 1159 2969 
z
" transform="scale(0.015625)"/>
      <path id="DejaVuSans-78" d="M 3513 3500 
L 2247 1797 
L 3578 0 
L 2900 0 
L 1881 1375 
L 863 0 
L 184 0 
L 1544 1831 
L 300 3500 
L 978 3500 
L 1906 2253 
L 2834 3500 
L 3513 3500 
z
" transform="scale(0.015625)"/>
      <path id="DejaVuSans-29" d="M 513 4856 
L 1013 4856 
Q 1481 4119 1714 3412 
Q 1947 2706 1947 2009 
Q 1947 1309 1714 600 
Q 1481 -109 1013 -844 
L 513 -844 
Q 928 -128 1133 580 
Q 1338 1288 1338 2009 
Q 1338 2731 1133 3434 
Q 928 4138 513 4856 
z
" transform="scale(0.015625)"/>
     </defs>
     <use xlink:href="#DejaVuSans-4b"/>
     <use xlink:href="#DejaVuSans-44" x="65.576172"/>
     <use xlink:href="#DejaVuSans-45" x="142.578125"/>
     <use xlink:href="#DejaVuSans-20" x="205.761719"/>
     <use xlink:href="#DejaVuSans-50" x="237.548828"/>
     <use xlink:href="#DejaVuSans-6c" x="297.851562"/>
     <use xlink:href="#DejaVuSans-6f" x="325.634766"/>
     <use xlink:href="#DejaVuSans-74" x="386.816406"/>
     <use xlink:href="#DejaVuSans-3a" x="426.025391"/>
     <use xlink:href="#DejaVuSans-20" x="459.716797"/>
     <use xlink:href="#DejaVuSans-61" x="491.503906"/>
     <use xlink:href="#DejaVuSans-67" x="552.783203"/>
     <use xlink:href="#DejaVuSans-65" x="616.259766"/>
     <use xlink:href="#DejaVuSans-20" x="677.783203"/>
     <use xlink:href="#DejaVuSans-28" x="709.570312"/>
     <use xlink:href="#DejaVuSans-53" x="748.583984"/>
     <use xlink:href="#DejaVuSans-63" x="812.060547"/>
     <use xlink:href="#DejaVuSans-61" x="867.041016"/>
     <use xlink:href="#DejaVuSans-6c" x="928.320312"/>
     <use xlink:href="#DejaVuSans-65" x="956.103516"/>
     <use xlink:href="#DejaVuSans-3a" x="1017.626953"/>
     <use xlink:href="#DejaVuSans-20" x="1051.318359"/>
     <use xlink:href="#DejaVuSans-62" x="1083.105469"/>
     <use xlink:href="#DejaVuSans-6f" x="1146.582031"/>
     <use xlink:href="#DejaVuSans-78" x="1204.638672"/>
     <use xlink:href="#DejaVuSans-63" x="1262.068359"/>
     <use xlink:href="#DejaVuSans-6f" x="1317.048828"/>
     <use xlink:href="#DejaVuSans-78" x="1375.105469"/>
     <use xlink:href="#DejaVuSans-29" x="1434.285156"/>
    </g>
   </g>
  </g>
  <g id="axes_2">
   <g id="patch_7">
    <path d="M 482.15 344.589091 
L 853.65 344.589091 
L 853.65 26.88 
L 482.15 26.88 
z
" style="fill: #ffffff"/>
   </g>
   <g id="patch_8">
    <path d="M 499.036364 344.589091 
L 504.859248 344.589091 
L 504.859248 276.082564 
L 499.036364 276.082564 
z
" clip-path="url(#pd6d302cf8e)" style="fill: #1f77b4; fill-opacity: 0.75; stroke: #000000; stroke-width: 0.463028; stroke-linejoin: miter"/>
   </g>
   <g id="patch_9">
    <path d="M 504.859248 344.589091 
L 510.682132 344.589091 
L 510.682132 245.34098 
L 504.859248 245.34098 
z
" clip-path="url(#pd6d302cf8e)" style="fill: #1f77b4; fill-opacity: 0.75; stroke: #000000; stroke-width: 0.463028; stroke-linejoin: miter"/>
   </g>
   <g id="patch_10">
    <path d="M 510.682132 344.589091 
L 516.505016 344.589091 
L 516.505016 344.589091 
L 510.682132 344.589091 
z
" clip-path="url(#pd6d302cf8e)" style="fill: #1f77b4; fill-opacity: 0.75; stroke: #000000; stroke-width: 0.463028; stroke-linejoin: miter"/>
   </g>
   <g id="patch_11">
    <path d="M 516.505016 344.589091 
L 522.3279 344.589091 
L 522.3279 223.34981 
L 516.505016 223.34981 
z
" clip-path="url(#pd6d302cf8e)" style="fill: #1f77b4; fill-opacity: 0.75; stroke: #000000; stroke-width: 0.463028; stroke-linejoin: miter"/>
   </g>
   <g id="patch_12">
    <path d="M 522.3279 344.589091 
L 528.150784 344.589091 
L 528.150784 216.441588 
L 522.3279 216.441588 
z
" clip-path="url(#pd6d302cf8e)" style="fill: #1f77b4; fill-opacity: 0.75; stroke: #000000; stroke-width: 0.463028; stroke-linejoin: miter"/>
   </g>
   <g id="patch_13">
    <path d="M 528.150784 344.589091 
L 533.973668 344.589091 
L 533.973668 344.589091 
L 528.150784 344.589091 
z
" clip-path="url(#pd6d302cf8e)" style="fill: #1f77b4; fill-opacity: 0.75; stroke: #000000; stroke-width: 0.463028; stroke-linejoin: miter"/>
   </g>
   <g id="patch_14">
    <path d="M 533.973668 344.589091 
L 539.796552 344.589091 
L 539.796552 218.398918 
L 533.973668 218.398918 
z
" clip-path="url(#pd6d302cf8e)" style="fill: #1f77b4; fill-opacity: 0.75; stroke: #000000; stroke-width: 0.463028; stroke-linejoin: miter"/>
   </g>
   <g id="patch_15">
    <path d="M 539.796552 344.589091 
L 545.619436 344.589091 
L 545.619436 208.957682 
L 539.796552 208.957682 
z
" clip-path="url(#pd6d302cf8e)" style="fill: #1f77b4; fill-opacity: 0.75; stroke: #000000; stroke-width: 0.463028; stroke-linejoin: miter"/>
   </g>
   <g id="patch_16">
    <path d="M 545.619436 344.589091 
L 551.44232 344.589091 
L 551.44232 344.589091 
L 545.619436 344.589091 
z
" clip-path="url(#pd6d302cf8e)" style="fill: #1f77b4; fill-opacity: 0.75; stroke: #000000; stroke-width: 0.463028; stroke-linejoin: miter"/>
   </g>
   <g id="patch_17">
    <path d="M 551.44232 344.589091 
L 557.265204 344.589091 
L 557.265204 191.571992 
L 551.44232 191.571992 
z
" clip-path="url(#pd6d302cf8e)" style="fill: #1f77b4; fill-opacity: 0.75; stroke: #000000; stroke-width: 0.463028; stroke-linejoin: miter"/>
   </g>
   <g id="patch_18">
    <path d="M 557.265204 344.589091 
L 563.088088 344.589091 
L 563.088088 205.733846 
L 557.265204 205.733846 
z
" clip-path="url(#pd6d302cf8e)" style="fill: #1f77b4; fill-opacity: 0.75; stroke: #000000; stroke-width: 0.463028; stroke-linejoin: miter"/>
   </g>
   <g id="patch_19">
    <path d="M 563.088088 344.589091 
L 568.910972 344.589091 
L 568.910972 207.000353 
L 563.088088 207.000353 
z
" clip-path="url(#pd6d302cf8e)" style="fill: #1f77b4; fill-opacity: 0.75; stroke: #000000; stroke-width: 0.463028; stroke-linejoin: miter"/>
   </g>
   <g id="patch_20">
    <path d="M 568.910972 344.589091 
L 574.733856 344.589091 
L 574.733856 344.589091 
L 568.910972 344.589091 
z
" clip-path="url(#pd6d302cf8e)" style="fill: #1f77b4; fill-opacity: 0.75; stroke: #000000; stroke-width: 0.463028; stroke-linejoin: miter"/>
   </g>
   <g id="patch_21">
    <path d="M 574.733856 344.589091 
L 580.55674 344.589091 
L 580.55674 211.836108 
L 574.733856 211.836108 
z
" clip-path="url(#pd6d302cf8e)" style="fill: #1f77b4; fill-opacity: 0.75; stroke: #000000; stroke-width: 0.463028; stroke-linejoin: miter"/>
   </g>
   <g id="patch_22">
    <path d="M 580.55674 344.589091 
L 586.379624 344.589091 
L 586.379624 202.740283 
L 580.55674 202.740283 
z
" clip-path="url(#pd6d302cf8e)" style="fill: #1f77b4; fill-opacity: 0.75; stroke: #000000; stroke-width: 0.463028; stroke-linejoin: miter"/>
   </g>
   <g id="patch_23">
    <path d="M 586.379624 344.589091 
L 592.202508 344.589091 
L 592.202508 197.213706 
L 586.379624 197.213706 
z
" clip-path="url(#pd6d302cf8e)" style="fill: #1f77b4; fill-opacity: 0.75; stroke: #000000; stroke-width: 0.463028; stroke-linejoin: miter"/>
   </g>
   <g id="patch_24">
    <path d="M 592.202508 344.589091 
L 598.025392 344.589091 
L 598.025392 203.776516 
L 592.202508 203.776516 
z
" clip-path="url(#pd6d302cf8e)" style="fill: #1f77b4; fill-opacity: 0.75; stroke: #000000; stroke-width: 0.463028; stroke-linejoin: miter"/>
   </g>
   <g id="patch_25">
    <path d="M 598.025392 344.589091 
L 603.848276 344.589091 
L 603.848276 197.44398 
L 598.025392 197.44398 
z
" clip-path="url(#pd6d302cf8e)" style="fill: #1f77b4; fill-opacity: 0.75; stroke: #000000; stroke-width: 0.463028; stroke-linejoin: miter"/>
   </g>
   <g id="patch_26">
    <path d="M 603.848276 344.589091 
L 609.67116 344.589091 
L 609.67116 192.03254 
L 603.848276 192.03254 
z
" clip-path="url(#pd6d302cf8e)" style="fill: #1f77b4; fill-opacity: 0.75; stroke: #000000; stroke-width: 0.463028; stroke-linejoin: miter"/>
   </g>
   <g id="patch_27">
    <path d="M 609.67116 344.589091 
L 615.494044 344.589091 
L 615.494044 344.589091 
L 609.67116 344.589091 
z
" clip-path="url(#pd6d302cf8e)" style="fill: #1f77b4; fill-opacity: 0.75; stroke: #000000; stroke-width: 0.463028; stroke-linejoin: miter"/>
   </g>
   <g id="patch_28">
    <path d="M 615.494044 344.589091 
L 621.316928 344.589091 
L 621.316928 200.322406 
L 615.494044 200.322406 
z
" clip-path="url(#pd6d302cf8e)" style="fill: #1f77b4; fill-opacity: 0.75; stroke: #000000; stroke-width: 0.463028; stroke-linejoin: miter"/>
   </g>
   <g id="patch_29">
    <path d="M 621.316928 344.589091 
L 627.139812 344.589091 
L 627.139812 190.88117 
L 621.316928 190.88117 
z
" clip-path="url(#pd6d302cf8e)" style="fill: #1f77b4; fill-opacity: 0.75; stroke: #000000; stroke-width: 0.463028; stroke-linejoin: miter"/>
   </g>
   <g id="patch_30">
    <path d="M 627.139812 344.589091 
L 632.962696 344.589091 
L 632.962696 194.565555 
L 627.139812 194.565555 
z
" clip-path="url(#pd6d302cf8e)" style="fill: #1f77b4; fill-opacity: 0.75; stroke: #000000; stroke-width: 0.463028; stroke-linejoin: miter"/>
   </g>
   <g id="patch_31">
    <path d="M 632.962696 344.589091 
L 638.78558 344.589091 
L 638.78558 190.650896 
L 632.962696 190.650896 
z
" clip-path="url(#pd6d302cf8e)" style="fill: #1f77b4; fill-opacity: 0.75; stroke: #000000; stroke-width: 0.463028; stroke-linejoin: miter"/>
   </g>
   <g id="patch_32">
    <path d="M 638.78558 344.589091 
L 644.608464 344.589091 
L 644.608464 42.009004 
L 638.78558 42.009004 
z
" clip-path="url(#pd6d302cf8e)" style="fill: #1f77b4; fill-opacity: 0.75; stroke: #000000; stroke-width: 0.463028; stroke-linejoin: miter"/>
   </g>
   <g id="patch_33">
    <path d="M 644.608464 344.589091 
L 650.431348 344.589091 
L 650.431348 199.055899 
L 644.608464 199.055899 
z
" clip-path="url(#pd6d302cf8e)" style="fill: #1f77b4; fill-opacity: 0.75; stroke: #000000; stroke-width: 0.463028; stroke-linejoin: miter"/>
   </g>
   <g id="patch_34">
    <path d="M 650.431348 344.589091 
L 656.254232 344.589091 
L 656.254232 205.733846 
L 650.431348 205.733846 
z
" clip-path="url(#pd6d302cf8e)" style="fill: #1f77b4; fill-opacity: 0.75; stroke: #000000; stroke-width: 0.463028; stroke-linejoin: miter"/>
   </g>
   <g id="patch_35">
    <path d="M 656.254232 344.589091 
L 662.077116 344.589091 
L 662.077116 207.921449 
L 656.254232 207.921449 
z
" clip-path="url(#pd6d302cf8e)" style="fill: #1f77b4; fill-opacity: 0.75; stroke: #000000; stroke-width: 0.463028; stroke-linejoin: miter"/>
   </g>
   <g id="patch_36">
    <path d="M 662.077116 344.589091 
L 667.9 344.589091 
L 667.9 202.394872 
L 662.077116 202.394872 
z
" clip-path="url(#pd6d302cf8e)" style="fill: #1f77b4; fill-opacity: 0.75; stroke: #000000; stroke-width: 0.463028; stroke-linejoin: miter"/>
   </g>
   <g id="patch_37">
    <path d="M 667.9 344.589091 
L 673.722884 344.589091 
L 673.722884 210.454463 
L 667.9 210.454463 
z
" clip-path="url(#pd6d302cf8e)" style="fill: #1f77b4; fill-opacity: 0.75; stroke: #000000; stroke-width: 0.463028; stroke-linejoin: miter"/>
   </g>
   <g id="patch_38">
    <path d="M 673.722884 344.589091 
L 679.545768 344.589091 
L 679.545768 217.477822 
L 673.722884 217.477822 
z
" clip-path="url(#pd6d302cf8e)" style="fill: #1f77b4; fill-opacity: 0.75; stroke: #000000; stroke-width: 0.463028; stroke-linejoin: miter"/>
   </g>
   <g id="patch_39">
    <path d="M 679.545768 344.589091 
L 685.368652 344.589091 
L 685.368652 95.547718 
L 679.545768 95.547718 
z
" clip-path="url(#pd6d302cf8e)" style="fill: #1f77b4; fill-opacity: 0.75; stroke: #000000; stroke-width: 0.463028; stroke-linejoin: miter"/>
   </g>
   <g id="patch_40">
    <path d="M 685.368652 344.589091 
L 691.191536 344.589091 
L 691.191536 218.283781 
L 685.368652 218.283781 
z
" clip-path="url(#pd6d302cf8e)" style="fill: #1f77b4; fill-opacity: 0.75; stroke: #000000; stroke-width: 0.463028; stroke-linejoin: miter"/>
   </g>
   <g id="patch_41">
    <path d="M 691.191536 344.589091 
L 697.01442 344.589091 
L 697.01442 220.125973 
L 691.191536 220.125973 
z
" clip-path="url(#pd6d302cf8e)" style="fill: #1f77b4; fill-opacity: 0.75; stroke: #000000; stroke-width: 0.463028; stroke-linejoin: miter"/>
   </g>
   <g id="patch_42">
    <path d="M 697.01442 344.589091 
L 702.837304 344.589091 
L 702.837304 149.777254 
L 697.01442 149.777254 
z
" clip-path="url(#pd6d302cf8e)" style="fill: #1f77b4; fill-opacity: 0.75; stroke: #000000; stroke-width: 0.463028; stroke-linejoin: miter"/>
   </g>
   <g id="patch_43">
    <path d="M 702.837304 344.589091 
L 708.660188 344.589091 
L 708.660188 244.880432 
L 702.837304 244.880432 
z
" clip-path="url(#pd6d302cf8e)" style="fill: #1f77b4; fill-opacity: 0.75; stroke: #000000; stroke-width: 0.463028; stroke-linejoin: miter"/>
   </g>
   <g id="patch_44">
    <path d="M 708.660188 344.589091 
L 714.483072 344.589091 
L 714.483072 243.613925 
L 708.660188 243.613925 
z
" clip-path="url(#pd6d302cf8e)" style="fill: #1f77b4; fill-opacity: 0.75; stroke: #000000; stroke-width: 0.463028; stroke-linejoin: miter"/>
   </g>
   <g id="patch_45">
    <path d="M 714.483072 344.589091 
L 720.305956 344.589091 
L 720.305956 177.75555 
L 714.483072 177.75555 
z
" clip-path="url(#pd6d302cf8e)" style="fill: #1f77b4; fill-opacity: 0.75; stroke: #000000; stroke-width: 0.463028; stroke-linejoin: miter"/>
   </g>
   <g id="patch_46">
    <path d="M 720.305956 344.589091 
L 726.12884 344.589091 
L 726.12884 274.010098 
L 720.305956 274.010098 
z
" clip-path="url(#pd6d302cf8e)" style="fill: #1f77b4; fill-opacity: 0.75; stroke: #000000; stroke-width: 0.463028; stroke-linejoin: miter"/>
   </g>
   <g id="patch_47">
    <path d="M 726.12884 344.589091 
L 731.951724 344.589091 
L 731.951724 208.151723 
L 726.12884 208.151723 
z
" clip-path="url(#pd6d302cf8e)" style="fill: #1f77b4; fill-opacity: 0.75; stroke: #000000; stroke-width: 0.463028; stroke-linejoin: miter"/>
   </g>
   <g id="patch_48">
    <path d="M 731.951724 344.589091 
L 737.774608 344.589091 
L 737.774608 281.148593 
L 731.951724 281.148593 
z
" clip-path="url(#pd6d302cf8e)" style="fill: #1f77b4; fill-opacity: 0.75; stroke: #000000; stroke-width: 0.463028; stroke-linejoin: miter"/>
   </g>
   <g id="patch_49">
    <path d="M 737.774608 344.589091 
L 743.597492 344.589091 
L 743.597492 220.471384 
L 737.774608 220.471384 
z
" clip-path="url(#pd6d302cf8e)" style="fill: #1f77b4; fill-opacity: 0.75; stroke: #000000; stroke-width: 0.463028; stroke-linejoin: miter"/>
   </g>
   <g id="patch_50">
    <path d="M 743.597492 344.589091 
L 749.420376 344.589091 
L 749.420376 241.080911 
L 743.597492 241.080911 
z
" clip-path="url(#pd6d302cf8e)" style="fill: #1f77b4; fill-opacity: 0.75; stroke: #000000; stroke-width: 0.463028; stroke-linejoin: miter"/>
   </g>
   <g id="patch_51">
    <path d="M 749.420376 344.589091 
L 755.24326 344.589091 
L 755.24326 299.225105 
L 749.420376 299.225105 
z
" clip-path="url(#pd6d302cf8e)" style="fill: #1f77b4; fill-opacity: 0.75; stroke: #000000; stroke-width: 0.463028; stroke-linejoin: miter"/>
   </g>
   <g id="patch_52">
    <path d="M 755.24326 344.589091 
L 761.066144 344.589091 
L 761.066144 266.871603 
L 755.24326 266.871603 
z
" clip-path="url(#pd6d302cf8e)" style="fill: #1f77b4; fill-opacity: 0.75; stroke: #000000; stroke-width: 0.463028; stroke-linejoin: miter"/>
   </g>
   <g id="patch_53">
    <path d="M 761.066144 344.589091 
L 766.889028 344.589091 
L 766.889028 284.602704 
L 761.066144 284.602704 
z
" clip-path="url(#pd6d302cf8e)" style="fill: #1f77b4; fill-opacity: 0.75; stroke: #000000; stroke-width: 0.463028; stroke-linejoin: miter"/>
   </g>
   <g id="patch_54">
    <path d="M 766.889028 344.589091 
L 772.711912 344.589091 
L 772.711912 317.18648 
L 766.889028 317.18648 
z
" clip-path="url(#pd6d302cf8e)" style="fill: #1f77b4; fill-opacity: 0.75; stroke: #000000; stroke-width: 0.463028; stroke-linejoin: miter"/>
   </g>
   <g id="patch_55">
    <path d="M 772.711912 344.589091 
L 778.534796 344.589091 
L 778.534796 306.939286 
L 772.711912 306.939286 
z
" clip-path="url(#pd6d302cf8e)" style="fill: #1f77b4; fill-opacity: 0.75; stroke: #000000; stroke-width: 0.463028; stroke-linejoin: miter"/>
   </g>
   <g id="patch_56">
    <path d="M 778.534796 344.589091 
L 784.35768 344.589091 
L 784.35768 315.689699 
L 778.534796 315.689699 
z
" clip-path="url(#pd6d302cf8e)" style="fill: #1f77b4; fill-opacity: 0.75; stroke: #000000; stroke-width: 0.463028; stroke-linejoin: miter"/>
   </g>
   <g id="patch_57">
    <path d="M 784.35768 344.589091 
L 790.180564 344.589091 
L 790.180564 318.337851 
L 784.35768 318.337851 
z
" clip-path="url(#pd6d302cf8e)" style="fill: #1f77b4; fill-opacity: 0.75; stroke: #000000; stroke-width: 0.463028; stroke-linejoin: miter"/>
   </g>
   <g id="patch_58">
    <path d="M 790.180564 344.589091 
L 796.003448 344.589091 
L 796.003448 327.433675 
L 790.180564 327.433675 
z
" clip-path="url(#pd6d302cf8e)" style="fill: #1f77b4; fill-opacity: 0.75; stroke: #000000; stroke-width: 0.463028; stroke-linejoin: miter"/>
   </g>
   <g id="patch_59">
    <path d="M 796.003448 344.589091 
L 801.826332 344.589091 
L 801.826332 330.427238 
L 796.003448 330.427238 
z
" clip-path="url(#pd6d302cf8e)" style="fill: #1f77b4; fill-opacity: 0.75; stroke: #000000; stroke-width: 0.463028; stroke-linejoin: miter"/>
   </g>
   <g id="patch_60">
    <path d="M 801.826332 344.589091 
L 807.649216 344.589091 
L 807.649216 337.220322 
L 801.826332 337.220322 
z
" clip-path="url(#pd6d302cf8e)" style="fill: #1f77b4; fill-opacity: 0.75; stroke: #000000; stroke-width: 0.463028; stroke-linejoin: miter"/>
   </g>
   <g id="patch_61">
    <path d="M 807.649216 344.589091 
L 813.4721 344.589091 
L 813.4721 335.953814 
L 807.649216 335.953814 
z
" clip-path="url(#pd6d302cf8e)" style="fill: #1f77b4; fill-opacity: 0.75; stroke: #000000; stroke-width: 0.463028; stroke-linejoin: miter"/>
   </g>
   <g id="patch_62">
    <path d="M 813.4721 344.589091 
L 819.294984 344.589091 
L 819.294984 341.595528 
L 813.4721 341.595528 
z
" clip-path="url(#pd6d302cf8e)" style="fill: #1f77b4; fill-opacity: 0.75; stroke: #000000; stroke-width: 0.463028; stroke-linejoin: miter"/>
   </g>
   <g id="patch_63">
    <path d="M 819.294984 344.589091 
L 825.117868 344.589091 
L 825.117868 342.516625 
L 819.294984 342.516625 
z
" clip-path="url(#pd6d302cf8e)" style="fill: #1f77b4; fill-opacity: 0.75; stroke: #000000; stroke-width: 0.463028; stroke-linejoin: miter"/>
   </g>
   <g id="patch_64">
    <path d="M 825.117868 344.589091 
L 830.940752 344.589091 
L 830.940752 344.128543 
L 825.117868 344.128543 
z
" clip-path="url(#pd6d302cf8e)" style="fill: #1f77b4; fill-opacity: 0.75; stroke: #000000; stroke-width: 0.463028; stroke-linejoin: miter"/>
   </g>
   <g id="patch_65">
    <path d="M 830.940752 344.589091 
L 836.763636 344.589091 
L 836.763636 337.335459 
L 830.940752 337.335459 
z
" clip-path="url(#pd6d302cf8e)" style="fill: #1f77b4; fill-opacity: 0.75; stroke: #000000; stroke-width: 0.463028; stroke-linejoin: miter"/>
   </g>
   <g id="matplotlib.axis_3">
    <g id="xtick_7">
     <g id="line2d_14">
      <g>
       <use xlink:href="#mdabfe6624f" x="534.528252" y="344.589091" style="stroke: #000000; stroke-width: 0.8"/>
      </g>
     </g>
     <g id="text_16">
      <!-- 4.0 -->
      <g transform="translate(526.576689 359.187528)scale(0.1 -0.1)">
       <use xlink:href="#DejaVuSans-34"/>
       <use xlink:href="#DejaVuSans-2e" x="63.623047"/>
       <use xlink:href="#DejaVuSans-30" x="95.410156"/>
      </g>
     </g>
    </g>
    <g id="xtick_8">
     <g id="line2d_15">
      <g>
       <use xlink:href="#mdabfe6624f" x="587.721513" y="344.589091" style="stroke: #000000; stroke-width: 0.8"/>
      </g>
     </g>
     <g id="text_17">
      <!-- 4.5 -->
      <g transform="translate(579.769951 359.187528)scale(0.1 -0.1)">
       <use xlink:href="#DejaVuSans-34"/>
       <use xlink:href="#DejaVuSans-2e" x="63.623047"/>
       <use xlink:href="#DejaVuSans-35" x="95.410156"/>
      </g>
     </g>
    </g>
    <g id="xtick_9">
     <g id="line2d_16">
      <g>
       <use xlink:href="#mdabfe6624f" x="640.914775" y="344.589091" style="stroke: #000000; stroke-width: 0.8"/>
      </g>
     </g>
     <g id="text_18">
      <!-- 5.0 -->
      <g transform="translate(632.963212 359.187528)scale(0.1 -0.1)">
       <use xlink:href="#DejaVuSans-35"/>
       <use xlink:href="#DejaVuSans-2e" x="63.623047"/>
       <use xlink:href="#DejaVuSans-30" x="95.410156"/>
      </g>
     </g>
    </g>
    <g id="xtick_10">
     <g id="line2d_17">
      <g>
       <use xlink:href="#mdabfe6624f" x="694.108036" y="344.589091" style="stroke: #000000; stroke-width: 0.8"/>
      </g>
     </g>
     <g id="text_19">
      <!-- 5.5 -->
      <g transform="translate(686.156474 359.187528)scale(0.1 -0.1)">
       <use xlink:href="#DejaVuSans-35"/>
       <use xlink:href="#DejaVuSans-2e" x="63.623047"/>
       <use xlink:href="#DejaVuSans-35" x="95.410156"/>
      </g>
     </g>
    </g>
    <g id="xtick_11">
     <g id="line2d_18">
      <g>
       <use xlink:href="#mdabfe6624f" x="747.301298" y="344.589091" style="stroke: #000000; stroke-width: 0.8"/>
      </g>
     </g>
     <g id="text_20">
      <!-- 6.0 -->
      <g transform="translate(739.349735 359.187528)scale(0.1 -0.1)">
       <use xlink:href="#DejaVuSans-36"/>
       <use xlink:href="#DejaVuSans-2e" x="63.623047"/>
       <use xlink:href="#DejaVuSans-30" x="95.410156"/>
      </g>
     </g>
    </g>
    <g id="xtick_12">
     <g id="line2d_19">
      <g>
       <use xlink:href="#mdabfe6624f" x="800.494559" y="344.589091" style="stroke: #000000; stroke-width: 0.8"/>
      </g>
     </g>
     <g id="text_21">
      <!-- 6.5 -->
      <g transform="translate(792.542996 359.187528)scale(0.1 -0.1)">
       <use xlink:href="#DejaVuSans-36"/>
       <use xlink:href="#DejaVuSans-2e" x="63.623047"/>
       <use xlink:href="#DejaVuSans-35" x="95.410156"/>
      </g>
     </g>
    </g>
    <g id="text_22">
     <!-- age -->
     <g transform="translate(656.722187 374.385341)scale(0.12 -0.12)">
      <use xlink:href="#DejaVuSans-61"/>
      <use xlink:href="#DejaVuSans-67" x="61.279297"/>
      <use xlink:href="#DejaVuSans-65" x="124.755859"/>
     </g>
    </g>
   </g>
   <g id="matplotlib.axis_4">
    <g id="ytick_7">
     <g id="line2d_20">
      <g>
       <use xlink:href="#mb914937b7f" x="482.15" y="344.589091" style="stroke: #000000; stroke-width: 0.8"/>
      </g>
     </g>
     <g id="text_23">
      <!-- 0 -->
      <g transform="translate(468.7875 348.38831)scale(0.1 -0.1)">
       <use xlink:href="#DejaVuSans-30"/>
      </g>
     </g>
    </g>
    <g id="ytick_8">
     <g id="line2d_21">
      <g>
       <use xlink:href="#mb914937b7f" x="482.15" y="287.020581" style="stroke: #000000; stroke-width: 0.8"/>
      </g>
     </g>
     <g id="text_24">
      <!-- 500 -->
      <g transform="translate(456.0625 290.8198)scale(0.1 -0.1)">
       <use xlink:href="#DejaVuSans-35"/>
       <use xlink:href="#DejaVuSans-30" x="63.623047"/>
       <use xlink:href="#DejaVuSans-30" x="127.246094"/>
      </g>
     </g>
    </g>
    <g id="ytick_9">
     <g id="line2d_22">
      <g>
       <use xlink:href="#mb914937b7f" x="482.15" y="229.452072" style="stroke: #000000; stroke-width: 0.8"/>
      </g>
     </g>
     <g id="text_25">
      <!-- 1000 -->
      <g transform="translate(449.7 233.25129)scale(0.1 -0.1)">
       <use xlink:href="#DejaVuSans-31"/>
       <use xlink:href="#DejaVuSans-30" x="63.623047"/>
       <use xlink:href="#DejaVuSans-30" x="127.246094"/>
       <use xlink:href="#DejaVuSans-30" x="190.869141"/>
      </g>
     </g>
    </g>
    <g id="ytick_10">
     <g id="line2d_23">
      <g>
       <use xlink:href="#mb914937b7f" x="482.15" y="171.883562" style="stroke: #000000; stroke-width: 0.8"/>
      </g>
     </g>
     <g id="text_26">
      <!-- 1500 -->
      <g transform="translate(449.7 175.682781)scale(0.1 -0.1)">
       <use xlink:href="#DejaVuSans-31"/>
       <use xlink:href="#DejaVuSans-35" x="63.623047"/>
       <use xlink:href="#DejaVuSans-30" x="127.246094"/>
       <use xlink:href="#DejaVuSans-30" x="190.869141"/>
      </g>
     </g>
    </g>
    <g id="ytick_11">
     <g id="line2d_24">
      <g>
       <use xlink:href="#mb914937b7f" x="482.15" y="114.315052" style="stroke: #000000; stroke-width: 0.8"/>
      </g>
     </g>
     <g id="text_27">
      <!-- 2000 -->
      <g transform="translate(449.7 118.114271)scale(0.1 -0.1)">
       <use xlink:href="#DejaVuSans-32"/>
       <use xlink:href="#DejaVuSans-30" x="63.623047"/>
       <use xlink:href="#DejaVuSans-30" x="127.246094"/>
       <use xlink:href="#DejaVuSans-30" x="190.869141"/>
      </g>
     </g>
    </g>
    <g id="ytick_12">
     <g id="line2d_25">
      <g>
       <use xlink:href="#mb914937b7f" x="482.15" y="56.746543" style="stroke: #000000; stroke-width: 0.8"/>
      </g>
     </g>
     <g id="text_28">
      <!-- 2500 -->
      <g transform="translate(449.7 60.545762)scale(0.1 -0.1)">
       <use xlink:href="#DejaVuSans-32"/>
       <use xlink:href="#DejaVuSans-35" x="63.623047"/>
       <use xlink:href="#DejaVuSans-30" x="127.246094"/>
       <use xlink:href="#DejaVuSans-30" x="190.869141"/>
      </g>
     </g>
    </g>
    <g id="text_29">
     <!-- Count -->
     <g transform="translate(443.204375 203.55267)rotate(-90)scale(0.12 -0.12)">
      <defs>
       <path id="DejaVuSans-43" d="M 4122 4306 
L 4122 3641 
Q 3803 3938 3442 4084 
Q 3081 4231 2675 4231 
Q 1875 4231 1450 3742 
Q 1025 3253 1025 2328 
Q 1025 1406 1450 917 
Q 1875 428 2675 428 
Q 3081 428 3442 575 
Q 3803 722 4122 1019 
L 4122 359 
Q 3791 134 3420 21 
Q 3050 -91 2638 -91 
Q 1578 -91 968 557 
Q 359 1206 359 2328 
Q 359 3453 968 4101 
Q 1578 4750 2638 4750 
Q 3056 4750 3426 4639 
Q 3797 4528 4122 4306 
z
" transform="scale(0.015625)"/>
       <path id="DejaVuSans-75" d="M 544 1381 
L 544 3500 
L 1119 3500 
L 1119 1403 
Q 1119 906 1312 657 
Q 1506 409 1894 409 
Q 2359 409 2629 706 
Q 2900 1003 2900 1516 
L 2900 3500 
L 3475 3500 
L 3475 0 
L 2900 0 
L 2900 538 
Q 2691 219 2414 64 
Q 2138 -91 1772 -91 
Q 1169 -91 856 284 
Q 544 659 544 1381 
z
M 1991 3584 
L 1991 3584 
z
" transform="scale(0.015625)"/>
      </defs>
      <use xlink:href="#DejaVuSans-43"/>
      <use xlink:href="#DejaVuSans-6f" x="69.824219"/>
      <use xlink:href="#DejaVuSans-75" x="131.005859"/>
      <use xlink:href="#DejaVuSans-6e" x="194.384766"/>
      <use xlink:href="#DejaVuSans-74" x="257.763672"/>
     </g>
    </g>
   </g>
   <g id="patch_66">
    <path d="M 482.15 344.589091 
L 482.15 26.88 
" style="fill: none; stroke: #000000; stroke-width: 0.8; stroke-linejoin: miter; stroke-linecap: square"/>
   </g>
   <g id="patch_67">
    <path d="M 853.65 344.589091 
L 853.65 26.88 
" style="fill: none; stroke: #000000; stroke-width: 0.8; stroke-linejoin: miter; stroke-linecap: square"/>
   </g>
   <g id="patch_68">
    <path d="M 482.15 344.589091 
L 853.65 344.589091 
" style="fill: none; stroke: #000000; stroke-width: 0.8; stroke-linejoin: miter; stroke-linecap: square"/>
   </g>
   <g id="patch_69">
    <path d="M 482.15 26.88 
L 853.65 26.88 
" style="fill: none; stroke: #000000; stroke-width: 0.8; stroke-linejoin: miter; stroke-linecap: square"/>
   </g>
   <g id="text_30">
    <!-- Histplot: age (Scale: boxcox) -->
    <g transform="translate(581.904062 20.88)scale(0.12 -0.12)">
     <defs>
      <path id="DejaVuSans-48" d="M 628 4666 
L 1259 4666 
L 1259 2753 
L 3553 2753 
L 3553 4666 
L 4184 4666 
L 4184 0 
L 3553 0 
L 3553 2222 
L 1259 2222 
L 1259 0 
L 628 0 
L 628 4666 
z
" transform="scale(0.015625)"/>
      <path id="DejaVuSans-70" d="M 1159 525 
L 1159 -1331 
L 581 -1331 
L 581 3500 
L 1159 3500 
L 1159 2969 
Q 1341 3281 1617 3432 
Q 1894 3584 2278 3584 
Q 2916 3584 3314 3078 
Q 3713 2572 3713 1747 
Q 3713 922 3314 415 
Q 2916 -91 2278 -91 
Q 1894 -91 1617 61 
Q 1341 213 1159 525 
z
M 3116 1747 
Q 3116 2381 2855 2742 
Q 2594 3103 2138 3103 
Q 1681 3103 1420 2742 
Q 1159 2381 1159 1747 
Q 1159 1113 1420 752 
Q 1681 391 2138 391 
Q 2594 391 2855 752 
Q 3116 1113 3116 1747 
z
" transform="scale(0.015625)"/>
     </defs>
     <use xlink:href="#DejaVuSans-48"/>
     <use xlink:href="#DejaVuSans-69" x="75.195312"/>
     <use xlink:href="#DejaVuSans-73" x="102.978516"/>
     <use xlink:href="#DejaVuSans-74" x="155.078125"/>
     <use xlink:href="#DejaVuSans-70" x="194.287109"/>
     <use xlink:href="#DejaVuSans-6c" x="257.763672"/>
     <use xlink:href="#DejaVuSans-6f" x="285.546875"/>
     <use xlink:href="#DejaVuSans-74" x="346.728516"/>
     <use xlink:href="#DejaVuSans-3a" x="385.9375"/>
     <use xlink:href="#DejaVuSans-20" x="419.628906"/>
     <use xlink:href="#DejaVuSans-61" x="451.416016"/>
     <use xlink:href="#DejaVuSans-67" x="512.695312"/>
     <use xlink:href="#DejaVuSans-65" x="576.171875"/>
     <use xlink:href="#DejaVuSans-20" x="637.695312"/>
     <use xlink:href="#DejaVuSans-28" x="669.482422"/>
     <use xlink:href="#DejaVuSans-53" x="708.496094"/>
     <use xlink:href="#DejaVuSans-63" x="771.972656"/>
     <use xlink:href="#DejaVuSans-61" x="826.953125"/>
     <use xlink:href="#DejaVuSans-6c" x="888.232422"/>
     <use xlink:href="#DejaVuSans-65" x="916.015625"/>
     <use xlink:href="#DejaVuSans-3a" x="977.539062"/>
     <use xlink:href="#DejaVuSans-20" x="1011.230469"/>
     <use xlink:href="#DejaVuSans-62" x="1043.017578"/>
     <use xlink:href="#DejaVuSans-6f" x="1106.494141"/>
     <use xlink:href="#DejaVuSans-78" x="1164.550781"/>
     <use xlink:href="#DejaVuSans-63" x="1221.980469"/>
     <use xlink:href="#DejaVuSans-6f" x="1276.960938"/>
     <use xlink:href="#DejaVuSans-78" x="1335.017578"/>
     <use xlink:href="#DejaVuSans-29" x="1394.197266"/>
    </g>
   </g>
  </g>
  <g id="axes_3">
   <g id="patch_70">
    <path d="M 913.7 344.589091 
L 1285.2 344.589091 
L 1285.2 26.88 
L 913.7 26.88 
z
" style="fill: #ffffff"/>
   </g>
   <g id="patch_71">
    <path d="M 1021.602211 58.650909 
L 1021.602211 312.818182 
L 1129.255782 312.818182 
L 1129.255782 58.650909 
L 1021.602211 58.650909 
z
" clip-path="url(#p2bfdd0f7f5)" style="fill: #3274a1; stroke: #3f3f3f; stroke-width: 1.5; stroke-linejoin: miter"/>
   </g>
   <g id="matplotlib.axis_5">
    <g id="xtick_13">
     <g id="line2d_26">
      <g>
       <use xlink:href="#mdabfe6624f" x="966.078252" y="344.589091" style="stroke: #000000; stroke-width: 0.8"/>
      </g>
     </g>
     <g id="text_31">
      <!-- 4.0 -->
      <g transform="translate(958.126689 359.187528)scale(0.1 -0.1)">
       <use xlink:href="#DejaVuSans-34"/>
       <use xlink:href="#DejaVuSans-2e" x="63.623047"/>
       <use xlink:href="#DejaVuSans-30" x="95.410156"/>
      </g>
     </g>
    </g>
    <g id="xtick_14">
     <g id="line2d_27">
      <g>
       <use xlink:href="#mdabfe6624f" x="1019.271513" y="344.589091" style="stroke: #000000; stroke-width: 0.8"/>
      </g>
     </g>
     <g id="text_32">
      <!-- 4.5 -->
      <g transform="translate(1011.319951 359.187528)scale(0.1 -0.1)">
       <use xlink:href="#DejaVuSans-34"/>
       <use xlink:href="#DejaVuSans-2e" x="63.623047"/>
       <use xlink:href="#DejaVuSans-35" x="95.410156"/>
      </g>
     </g>
    </g>
    <g id="xtick_15">
     <g id="line2d_28">
      <g>
       <use xlink:href="#mdabfe6624f" x="1072.464775" y="344.589091" style="stroke: #000000; stroke-width: 0.8"/>
      </g>
     </g>
     <g id="text_33">
      <!-- 5.0 -->
      <g transform="translate(1064.513212 359.187528)scale(0.1 -0.1)">
       <use xlink:href="#DejaVuSans-35"/>
       <use xlink:href="#DejaVuSans-2e" x="63.623047"/>
       <use xlink:href="#DejaVuSans-30" x="95.410156"/>
      </g>
     </g>
    </g>
    <g id="xtick_16">
     <g id="line2d_29">
      <g>
       <use xlink:href="#mdabfe6624f" x="1125.658036" y="344.589091" style="stroke: #000000; stroke-width: 0.8"/>
      </g>
     </g>
     <g id="text_34">
      <!-- 5.5 -->
      <g transform="translate(1117.706474 359.187528)scale(0.1 -0.1)">
       <use xlink:href="#DejaVuSans-35"/>
       <use xlink:href="#DejaVuSans-2e" x="63.623047"/>
       <use xlink:href="#DejaVuSans-35" x="95.410156"/>
      </g>
     </g>
    </g>
    <g id="xtick_17">
     <g id="line2d_30">
      <g>
       <use xlink:href="#mdabfe6624f" x="1178.851298" y="344.589091" style="stroke: #000000; stroke-width: 0.8"/>
      </g>
     </g>
     <g id="text_35">
      <!-- 6.0 -->
      <g transform="translate(1170.899735 359.187528)scale(0.1 -0.1)">
       <use xlink:href="#DejaVuSans-36"/>
       <use xlink:href="#DejaVuSans-2e" x="63.623047"/>
       <use xlink:href="#DejaVuSans-30" x="95.410156"/>
      </g>
     </g>
    </g>
    <g id="xtick_18">
     <g id="line2d_31">
      <g>
       <use xlink:href="#mdabfe6624f" x="1232.044559" y="344.589091" style="stroke: #000000; stroke-width: 0.8"/>
      </g>
     </g>
     <g id="text_36">
      <!-- 6.5 -->
      <g transform="translate(1224.092996 359.187528)scale(0.1 -0.1)">
       <use xlink:href="#DejaVuSans-36"/>
       <use xlink:href="#DejaVuSans-2e" x="63.623047"/>
       <use xlink:href="#DejaVuSans-35" x="95.410156"/>
      </g>
     </g>
    </g>
    <g id="text_37">
     <!-- age -->
     <g transform="translate(1088.272187 374.385341)scale(0.12 -0.12)">
      <use xlink:href="#DejaVuSans-61"/>
      <use xlink:href="#DejaVuSans-67" x="61.279297"/>
      <use xlink:href="#DejaVuSans-65" x="124.755859"/>
     </g>
    </g>
   </g>
   <g id="matplotlib.axis_6">
    <g id="ytick_13">
     <g id="line2d_32">
      <g>
       <use xlink:href="#mb914937b7f" x="913.7" y="185.734545" style="stroke: #000000; stroke-width: 0.8"/>
      </g>
     </g>
    </g>
   </g>
   <g id="line2d_33">
    <path d="M 1021.602211 185.734545 
L 930.586364 185.734545 
" clip-path="url(#p2bfdd0f7f5)" style="fill: none; stroke: #3f3f3f; stroke-width: 1.5; stroke-linecap: square"/>
   </g>
   <g id="line2d_34">
    <path d="M 1129.255782 185.734545 
L 1268.313636 185.734545 
" clip-path="url(#p2bfdd0f7f5)" style="fill: none; stroke: #3f3f3f; stroke-width: 1.5; stroke-linecap: square"/>
   </g>
   <g id="line2d_35">
    <path d="M 930.586364 122.192727 
L 930.586364 249.276364 
" clip-path="url(#p2bfdd0f7f5)" style="fill: none; stroke: #3f3f3f; stroke-width: 1.5; stroke-linecap: square"/>
   </g>
   <g id="line2d_36">
    <path d="M 1268.313636 122.192727 
L 1268.313636 249.276364 
" clip-path="url(#p2bfdd0f7f5)" style="fill: none; stroke: #3f3f3f; stroke-width: 1.5; stroke-linecap: square"/>
   </g>
   <g id="line2d_37"/>
   <g id="line2d_38">
    <path d="M 1076.002852 58.650909 
L 1076.002852 312.818182 
" clip-path="url(#p2bfdd0f7f5)" style="fill: none; stroke: #3f3f3f; stroke-width: 1.5; stroke-linecap: square"/>
   </g>
   <g id="patch_72">
    <path d="M 913.7 344.589091 
L 913.7 26.88 
" style="fill: none; stroke: #000000; stroke-width: 0.8; stroke-linejoin: miter; stroke-linecap: square"/>
   </g>
   <g id="patch_73">
    <path d="M 1285.2 344.589091 
L 1285.2 26.88 
" style="fill: none; stroke: #000000; stroke-width: 0.8; stroke-linejoin: miter; stroke-linecap: square"/>
   </g>
   <g id="patch_74">
    <path d="M 913.7 344.589091 
L 1285.2 344.589091 
" style="fill: none; stroke: #000000; stroke-width: 0.8; stroke-linejoin: miter; stroke-linecap: square"/>
   </g>
   <g id="patch_75">
    <path d="M 913.7 26.88 
L 1285.2 26.88 
" style="fill: none; stroke: #000000; stroke-width: 0.8; stroke-linejoin: miter; stroke-linecap: square"/>
   </g>
   <g id="text_38">
    <!-- Boxplot: age (Scale: boxcox) -->
    <g transform="translate(1013.959375 20.88)scale(0.12 -0.12)">
     <defs>
      <path id="DejaVuSans-42" d="M 1259 2228 
L 1259 519 
L 2272 519 
Q 2781 519 3026 730 
Q 3272 941 3272 1375 
Q 3272 1813 3026 2020 
Q 2781 2228 2272 2228 
L 1259 2228 
z
M 1259 4147 
L 1259 2741 
L 2194 2741 
Q 2656 2741 2882 2914 
Q 3109 3088 3109 3444 
Q 3109 3797 2882 3972 
Q 2656 4147 2194 4147 
L 1259 4147 
z
M 628 4666 
L 2241 4666 
Q 2963 4666 3353 4366 
Q 3744 4066 3744 3513 
Q 3744 3084 3544 2831 
Q 3344 2578 2956 2516 
Q 3422 2416 3680 2098 
Q 3938 1781 3938 1306 
Q 3938 681 3513 340 
Q 3088 0 2303 0 
L 628 0 
L 628 4666 
z
" transform="scale(0.015625)"/>
     </defs>
     <use xlink:href="#DejaVuSans-42"/>
     <use xlink:href="#DejaVuSans-6f" x="68.603516"/>
     <use xlink:href="#DejaVuSans-78" x="126.660156"/>
     <use xlink:href="#DejaVuSans-70" x="185.839844"/>
     <use xlink:href="#DejaVuSans-6c" x="249.316406"/>
     <use xlink:href="#DejaVuSans-6f" x="277.099609"/>
     <use xlink:href="#DejaVuSans-74" x="338.28125"/>
     <use xlink:href="#DejaVuSans-3a" x="377.490234"/>
     <use xlink:href="#DejaVuSans-20" x="411.181641"/>
     <use xlink:href="#DejaVuSans-61" x="442.96875"/>
     <use xlink:href="#DejaVuSans-67" x="504.248047"/>
     <use xlink:href="#DejaVuSans-65" x="567.724609"/>
     <use xlink:href="#DejaVuSans-20" x="629.248047"/>
     <use xlink:href="#DejaVuSans-28" x="661.035156"/>
     <use xlink:href="#DejaVuSans-53" x="700.048828"/>
     <use xlink:href="#DejaVuSans-63" x="763.525391"/>
     <use xlink:href="#DejaVuSans-61" x="818.505859"/>
     <use xlink:href="#DejaVuSans-6c" x="879.785156"/>
     <use xlink:href="#DejaVuSans-65" x="907.568359"/>
     <use xlink:href="#DejaVuSans-3a" x="969.091797"/>
     <use xlink:href="#DejaVuSans-20" x="1002.783203"/>
     <use xlink:href="#DejaVuSans-62" x="1034.570312"/>
     <use xlink:href="#DejaVuSans-6f" x="1098.046875"/>
     <use xlink:href="#DejaVuSans-78" x="1156.103516"/>
     <use xlink:href="#DejaVuSans-63" x="1213.533203"/>
     <use xlink:href="#DejaVuSans-6f" x="1268.513672"/>
     <use xlink:href="#DejaVuSans-78" x="1326.570312"/>
     <use xlink:href="#DejaVuSans-29" x="1385.75"/>
    </g>
   </g>
  </g>
  <g id="axes_4">
   <g id="text_39">
    <!-- Lower cutoff: 3.67 | Upper cutoff: 6.84 -->
    <g transform="translate(50.6 408.48517)scale(0.12 -0.12)">
     <defs>
      <path id="DejaVuSans-4c" d="M 628 4666 
L 1259 4666 
L 1259 531 
L 3531 531 
L 3531 0 
L 628 0 
L 628 4666 
z
" transform="scale(0.015625)"/>
      <path id="DejaVuSans-77" d="M 269 3500 
L 844 3500 
L 1563 769 
L 2278 3500 
L 2956 3500 
L 3675 769 
L 4391 3500 
L 4966 3500 
L 4050 0 
L 3372 0 
L 2619 2869 
L 1863 0 
L 1184 0 
L 269 3500 
z
" transform="scale(0.015625)"/>
      <path id="DejaVuSans-72" d="M 2631 2963 
Q 2534 3019 2420 3045 
Q 2306 3072 2169 3072 
Q 1681 3072 1420 2755 
Q 1159 2438 1159 1844 
L 1159 0 
L 581 0 
L 581 3500 
L 1159 3500 
L 1159 2956 
Q 1341 3275 1631 3429 
Q 1922 3584 2338 3584 
Q 2397 3584 2469 3576 
Q 2541 3569 2628 3553 
L 2631 2963 
z
" transform="scale(0.015625)"/>
      <path id="DejaVuSans-66" d="M 2375 4863 
L 2375 4384 
L 1825 4384 
Q 1516 4384 1395 4259 
Q 1275 4134 1275 3809 
L 1275 3500 
L 2222 3500 
L 2222 3053 
L 1275 3053 
L 1275 0 
L 697 0 
L 697 3053 
L 147 3053 
L 147 3500 
L 697 3500 
L 697 3744 
Q 697 4328 969 4595 
Q 1241 4863 1831 4863 
L 2375 4863 
z
" transform="scale(0.015625)"/>
      <path id="DejaVuSans-37" d="M 525 4666 
L 3525 4666 
L 3525 4397 
L 1831 0 
L 1172 0 
L 2766 4134 
L 525 4134 
L 525 4666 
z
" transform="scale(0.015625)"/>
      <path id="DejaVuSans-7c" d="M 1344 4891 
L 1344 -1509 
L 813 -1509 
L 813 4891 
L 1344 4891 
z
" transform="scale(0.015625)"/>
      <path id="DejaVuSans-55" d="M 556 4666 
L 1191 4666 
L 1191 1831 
Q 1191 1081 1462 751 
Q 1734 422 2344 422 
Q 2950 422 3222 751 
Q 3494 1081 3494 1831 
L 3494 4666 
L 4128 4666 
L 4128 1753 
Q 4128 841 3676 375 
Q 3225 -91 2344 -91 
Q 1459 -91 1007 375 
Q 556 841 556 1753 
L 556 4666 
z
" transform="scale(0.015625)"/>
      <path id="DejaVuSans-38" d="M 2034 2216 
Q 1584 2216 1326 1975 
Q 1069 1734 1069 1313 
Q 1069 891 1326 650 
Q 1584 409 2034 409 
Q 2484 409 2743 651 
Q 3003 894 3003 1313 
Q 3003 1734 2745 1975 
Q 2488 2216 2034 2216 
z
M 1403 2484 
Q 997 2584 770 2862 
Q 544 3141 544 3541 
Q 544 4100 942 4425 
Q 1341 4750 2034 4750 
Q 2731 4750 3128 4425 
Q 3525 4100 3525 3541 
Q 3525 3141 3298 2862 
Q 3072 2584 2669 2484 
Q 3125 2378 3379 2068 
Q 3634 1759 3634 1313 
Q 3634 634 3220 271 
Q 2806 -91 2034 -91 
Q 1263 -91 848 271 
Q 434 634 434 1313 
Q 434 1759 690 2068 
Q 947 2378 1403 2484 
z
M 1172 3481 
Q 1172 3119 1398 2916 
Q 1625 2713 2034 2713 
Q 2441 2713 2670 2916 
Q 2900 3119 2900 3481 
Q 2900 3844 2670 4047 
Q 2441 4250 2034 4250 
Q 1625 4250 1398 4047 
Q 1172 3844 1172 3481 
z
" transform="scale(0.015625)"/>
     </defs>
     <use xlink:href="#DejaVuSans-4c"/>
     <use xlink:href="#DejaVuSans-6f" x="53.962891"/>
     <use xlink:href="#DejaVuSans-77" x="115.144531"/>
     <use xlink:href="#DejaVuSans-65" x="196.931641"/>
     <use xlink:href="#DejaVuSans-72" x="258.455078"/>
     <use xlink:href="#DejaVuSans-20" x="299.568359"/>
     <use xlink:href="#DejaVuSans-63" x="331.355469"/>
     <use xlink:href="#DejaVuSans-75" x="386.335938"/>
     <use xlink:href="#DejaVuSans-74" x="449.714844"/>
     <use xlink:href="#DejaVuSans-6f" x="488.923828"/>
     <use xlink:href="#DejaVuSans-66" x="550.105469"/>
     <use xlink:href="#DejaVuSans-66" x="585.310547"/>
     <use xlink:href="#DejaVuSans-3a" x="616.890625"/>
     <use xlink:href="#DejaVuSans-20" x="650.582031"/>
     <use xlink:href="#DejaVuSans-33" x="682.369141"/>
     <use xlink:href="#DejaVuSans-2e" x="745.992188"/>
     <use xlink:href="#DejaVuSans-36" x="777.779297"/>
     <use xlink:href="#DejaVuSans-37" x="841.402344"/>
     <use xlink:href="#DejaVuSans-20" x="905.025391"/>
     <use xlink:href="#DejaVuSans-7c" x="936.8125"/>
     <use xlink:href="#DejaVuSans-20" x="970.503906"/>
     <use xlink:href="#DejaVuSans-55" x="1002.291016"/>
     <use xlink:href="#DejaVuSans-70" x="1075.484375"/>
     <use xlink:href="#DejaVuSans-70" x="1138.960938"/>
     <use xlink:href="#DejaVuSans-65" x="1202.4375"/>
     <use xlink:href="#DejaVuSans-72" x="1263.960938"/>
     <use xlink:href="#DejaVuSans-20" x="1305.074219"/>
     <use xlink:href="#DejaVuSans-63" x="1336.861328"/>
     <use xlink:href="#DejaVuSans-75" x="1391.841797"/>
     <use xlink:href="#DejaVuSans-74" x="1455.220703"/>
     <use xlink:href="#DejaVuSans-6f" x="1494.429688"/>
     <use xlink:href="#DejaVuSans-66" x="1555.611328"/>
     <use xlink:href="#DejaVuSans-66" x="1590.816406"/>
     <use xlink:href="#DejaVuSans-3a" x="1622.396484"/>
     <use xlink:href="#DejaVuSans-20" x="1656.087891"/>
     <use xlink:href="#DejaVuSans-36" x="1687.875"/>
     <use xlink:href="#DejaVuSans-2e" x="1751.498047"/>
     <use xlink:href="#DejaVuSans-38" x="1783.285156"/>
     <use xlink:href="#DejaVuSans-34" x="1846.908203"/>
    </g>
   </g>
  </g>
  <g id="axes_5"/>
  <g id="axes_6"/>
 </g>
 <defs>
  <clipPath id="p4698467145">
   <rect x="50.6" y="26.88" width="371.5" height="317.709091"/>
  </clipPath>
  <clipPath id="pd6d302cf8e">
   <rect x="482.15" y="26.88" width="371.5" height="317.709091"/>
  </clipPath>
  <clipPath id="p2bfdd0f7f5">
   <rect x="913.7" y="26.88" width="371.5" height="317.709091"/>
  </clipPath>
 </defs>
</svg>
