<?xml version="1.0" encoding="utf-8" standalone="no"?>
<!DOCTYPE svg PUBLIC "-//W3C//DTD SVG 1.1//EN"
  "http://www.w3.org/Graphics/SVG/1.1/DTD/svg11.dtd">
<svg xmlns:xlink="http://www.w3.org/1999/xlink" width="1001.914375pt" height="282.391875pt" viewBox="0 0 1001.914375 282.391875" xmlns="http://www.w3.org/2000/svg" version="1.1">
 <metadata>
  <rdf:RDF xmlns:dc="http://purl.org/dc/elements/1.1/" xmlns:cc="http://creativecommons.org/ns#" xmlns:rdf="http://www.w3.org/1999/02/22-rdf-syntax-ns#">
   <cc:Work>
    <dc:type rdf:resource="http://purl.org/dc/dcmitype/StillImage"/>
    <dc:date>2024-07-31T18:08:35.979182</dc:date>
    <dc:format>image/svg+xml</dc:format>
    <dc:creator>
     <cc:Agent>
      <dc:title>Matplotlib v3.5.3, https://matplotlib.org/</dc:title>
     </cc:Agent>
    </dc:creator>
   </cc:Work>
  </rdf:RDF>
 </metadata>
 <defs>
  <style type="text/css">*{stroke-linejoin: round; stroke-linecap: butt}</style>
 </defs>
 <g id="figure_1">
  <g id="patch_1">
   <path d="M 0 282.391875 
L 1001.914375 282.391875 
L 1001.914375 0 
L 0 0 
z
" style="fill: #ffffff"/>
  </g>
  <g id="axes_1">
   <g id="patch_2">
    <path d="M 73.764375 235.1575 
L 336.387708 235.1575 
L 336.387708 25.3575 
L 73.764375 25.3575 
z
" style="fill: #ffffff"/>
   </g>
   <g id="patch_3">
    <path d="M 99.440156 235.1575 
L 120.567333 235.1575 
L 120.567333 59.97646 
L 99.440156 59.97646 
z
" clip-path="url(#pe55b22d8db)" style="fill: #0000ff; fill-opacity: 0.6; stroke: #000000; stroke-linejoin: miter"/>
   </g>
   <g id="patch_4">
    <path d="M 120.567333 235.1575 
L 141.69451 235.1575 
L 141.69451 54.699422 
L 120.567333 54.699422 
z
" clip-path="url(#pe55b22d8db)" style="fill: #0000ff; fill-opacity: 0.6; stroke: #000000; stroke-linejoin: miter"/>
   </g>
   <g id="patch_5">
    <path d="M 141.69451 235.1575 
L 162.821687 235.1575 
L 162.821687 45.68275 
L 141.69451 45.68275 
z
" clip-path="url(#pe55b22d8db)" style="fill: #0000ff; fill-opacity: 0.6; stroke: #000000; stroke-linejoin: miter"/>
   </g>
   <g id="patch_6">
    <path d="M 162.821687 235.1575 
L 183.948865 235.1575 
L 183.948865 44.914048 
L 162.821687 44.914048 
z
" clip-path="url(#pe55b22d8db)" style="fill: #0000ff; fill-opacity: 0.6; stroke: #000000; stroke-linejoin: miter"/>
   </g>
   <g id="patch_7">
    <path d="M 183.948865 235.1575 
L 205.076042 235.1575 
L 205.076042 111.23021 
L 183.948865 111.23021 
z
" clip-path="url(#pe55b22d8db)" style="fill: #0000ff; fill-opacity: 0.6; stroke: #000000; stroke-linejoin: miter"/>
   </g>
   <g id="patch_8">
    <path d="M 205.076042 235.1575 
L 226.203219 235.1575 
L 226.203219 154.630731 
L 205.076042 154.630731 
z
" clip-path="url(#pe55b22d8db)" style="fill: #0000ff; fill-opacity: 0.6; stroke: #000000; stroke-linejoin: miter"/>
   </g>
   <g id="patch_9">
    <path d="M 226.203219 235.1575 
L 247.330396 235.1575 
L 247.330396 184.132282 
L 226.203219 184.132282 
z
" clip-path="url(#pe55b22d8db)" style="fill: #0000ff; fill-opacity: 0.6; stroke: #000000; stroke-linejoin: miter"/>
   </g>
   <g id="patch_10">
    <path d="M 247.330396 235.1575 
L 268.457573 235.1575 
L 268.457573 219.01475 
L 247.330396 219.01475 
z
" clip-path="url(#pe55b22d8db)" style="fill: #0000ff; fill-opacity: 0.6; stroke: #000000; stroke-linejoin: miter"/>
   </g>
   <g id="patch_11">
    <path d="M 268.457573 235.1575 
L 289.58475 235.1575 
L 289.58475 229.40262 
L 268.457573 229.40262 
z
" clip-path="url(#pe55b22d8db)" style="fill: #0000ff; fill-opacity: 0.6; stroke: #000000; stroke-linejoin: miter"/>
   </g>
   <g id="patch_12">
    <path d="M 289.58475 235.1575 
L 310.711927 235.1575 
L 310.711927 233.163029 
L 289.58475 233.163029 
z
" clip-path="url(#pe55b22d8db)" style="fill: #0000ff; fill-opacity: 0.6; stroke: #000000; stroke-linejoin: miter"/>
   </g>
   <g id="matplotlib.axis_1">
    <g id="xtick_1">
     <g id="line2d_1">
      <defs>
       <path id="m88cab2971f" d="M 0 0 
L 0 3.5 
" style="stroke: #000000; stroke-width: 0.8"/>
      </defs>
      <g>
       <use xlink:href="#m88cab2971f" x="108.122558" y="235.1575" style="stroke: #000000; stroke-width: 0.8"/>
      </g>
     </g>
     <g id="text_1">
      <!-- 20 -->
      <g transform="translate(99.215058 252.795313)scale(0.14 -0.14)">
       <defs>
        <path id="DejaVuSans-32" d="M 1228 531 
L 3431 531 
L 3431 0 
L 469 0 
L 469 531 
Q 828 903 1448 1529 
Q 2069 2156 2228 2338 
Q 2531 2678 2651 2914 
Q 2772 3150 2772 3378 
Q 2772 3750 2511 3984 
Q 2250 4219 1831 4219 
Q 1534 4219 1204 4116 
Q 875 4013 500 3803 
L 500 4441 
Q 881 4594 1212 4672 
Q 1544 4750 1819 4750 
Q 2544 4750 2975 4387 
Q 3406 4025 3406 3419 
Q 3406 3131 3298 2873 
Q 3191 2616 2906 2266 
Q 2828 2175 2409 1742 
Q 1991 1309 1228 531 
z
" transform="scale(0.015625)"/>
        <path id="DejaVuSans-30" d="M 2034 4250 
Q 1547 4250 1301 3770 
Q 1056 3291 1056 2328 
Q 1056 1369 1301 889 
Q 1547 409 2034 409 
Q 2525 409 2770 889 
Q 3016 1369 3016 2328 
Q 3016 3291 2770 3770 
Q 2525 4250 2034 4250 
z
M 2034 4750 
Q 2819 4750 3233 4129 
Q 3647 3509 3647 2328 
Q 3647 1150 3233 529 
Q 2819 -91 2034 -91 
Q 1250 -91 836 529 
Q 422 1150 422 2328 
Q 422 3509 836 4129 
Q 1250 4750 2034 4750 
z
" transform="scale(0.015625)"/>
       </defs>
       <use xlink:href="#DejaVuSans-32"/>
       <use xlink:href="#DejaVuSans-30" x="63.623047"/>
      </g>
     </g>
    </g>
    <g id="xtick_2">
     <g id="line2d_2">
      <g>
       <use xlink:href="#m88cab2971f" x="166.005235" y="235.1575" style="stroke: #000000; stroke-width: 0.8"/>
      </g>
     </g>
     <g id="text_2">
      <!-- 40 -->
      <g transform="translate(157.097735 252.795313)scale(0.14 -0.14)">
       <defs>
        <path id="DejaVuSans-34" d="M 2419 4116 
L 825 1625 
L 2419 1625 
L 2419 4116 
z
M 2253 4666 
L 3047 4666 
L 3047 1625 
L 3713 1625 
L 3713 1100 
L 3047 1100 
L 3047 0 
L 2419 0 
L 2419 1100 
L 313 1100 
L 313 1709 
L 2253 4666 
z
" transform="scale(0.015625)"/>
       </defs>
       <use xlink:href="#DejaVuSans-34"/>
       <use xlink:href="#DejaVuSans-30" x="63.623047"/>
      </g>
     </g>
    </g>
    <g id="xtick_3">
     <g id="line2d_3">
      <g>
       <use xlink:href="#m88cab2971f" x="223.887912" y="235.1575" style="stroke: #000000; stroke-width: 0.8"/>
      </g>
     </g>
     <g id="text_3">
      <!-- 60 -->
      <g transform="translate(214.980412 252.795313)scale(0.14 -0.14)">
       <defs>
        <path id="DejaVuSans-36" d="M 2113 2584 
Q 1688 2584 1439 2293 
Q 1191 2003 1191 1497 
Q 1191 994 1439 701 
Q 1688 409 2113 409 
Q 2538 409 2786 701 
Q 3034 994 3034 1497 
Q 3034 2003 2786 2293 
Q 2538 2584 2113 2584 
z
M 3366 4563 
L 3366 3988 
Q 3128 4100 2886 4159 
Q 2644 4219 2406 4219 
Q 1781 4219 1451 3797 
Q 1122 3375 1075 2522 
Q 1259 2794 1537 2939 
Q 1816 3084 2150 3084 
Q 2853 3084 3261 2657 
Q 3669 2231 3669 1497 
Q 3669 778 3244 343 
Q 2819 -91 2113 -91 
Q 1303 -91 875 529 
Q 447 1150 447 2328 
Q 447 3434 972 4092 
Q 1497 4750 2381 4750 
Q 2619 4750 2861 4703 
Q 3103 4656 3366 4563 
z
" transform="scale(0.015625)"/>
       </defs>
       <use xlink:href="#DejaVuSans-36"/>
       <use xlink:href="#DejaVuSans-30" x="63.623047"/>
      </g>
     </g>
    </g>
    <g id="xtick_4">
     <g id="line2d_4">
      <g>
       <use xlink:href="#m88cab2971f" x="281.770589" y="235.1575" style="stroke: #000000; stroke-width: 0.8"/>
      </g>
     </g>
     <g id="text_4">
      <!-- 80 -->
      <g transform="translate(272.863089 252.795313)scale(0.14 -0.14)">
       <defs>
        <path id="DejaVuSans-38" d="M 2034 2216 
Q 1584 2216 1326 1975 
Q 1069 1734 1069 1313 
Q 1069 891 1326 650 
Q 1584 409 2034 409 
Q 2484 409 2743 651 
Q 3003 894 3003 1313 
Q 3003 1734 2745 1975 
Q 2488 2216 2034 2216 
z
M 1403 2484 
Q 997 2584 770 2862 
Q 544 3141 544 3541 
Q 544 4100 942 4425 
Q 1341 4750 2034 4750 
Q 2731 4750 3128 4425 
Q 3525 4100 3525 3541 
Q 3525 3141 3298 2862 
Q 3072 2584 2669 2484 
Q 3125 2378 3379 2068 
Q 3634 1759 3634 1313 
Q 3634 634 3220 271 
Q 2806 -91 2034 -91 
Q 1263 -91 848 271 
Q 434 634 434 1313 
Q 434 1759 690 2068 
Q 947 2378 1403 2484 
z
M 1172 3481 
Q 1172 3119 1398 2916 
Q 1625 2713 2034 2713 
Q 2441 2713 2670 2916 
Q 2900 3119 2900 3481 
Q 2900 3844 2670 4047 
Q 2441 4250 2034 4250 
Q 1625 4250 1398 4047 
Q 1172 3844 1172 3481 
z
" transform="scale(0.015625)"/>
       </defs>
       <use xlink:href="#DejaVuSans-38"/>
       <use xlink:href="#DejaVuSans-30" x="63.623047"/>
      </g>
     </g>
    </g>
    <g id="text_5">
     <!-- age -->
     <g transform="translate(190.172292 271.864375)scale(0.16 -0.16)">
      <defs>
       <path id="DejaVuSans-61" d="M 2194 1759 
Q 1497 1759 1228 1600 
Q 959 1441 959 1056 
Q 959 750 1161 570 
Q 1363 391 1709 391 
Q 2188 391 2477 730 
Q 2766 1069 2766 1631 
L 2766 1759 
L 2194 1759 
z
M 3341 1997 
L 3341 0 
L 2766 0 
L 2766 531 
Q 2569 213 2275 61 
Q 1981 -91 1556 -91 
Q 1019 -91 701 211 
Q 384 513 384 1019 
Q 384 1609 779 1909 
Q 1175 2209 1959 2209 
L 2766 2209 
L 2766 2266 
Q 2766 2663 2505 2880 
Q 2244 3097 1772 3097 
Q 1472 3097 1187 3025 
Q 903 2953 641 2809 
L 641 3341 
Q 956 3463 1253 3523 
Q 1550 3584 1831 3584 
Q 2591 3584 2966 3190 
Q 3341 2797 3341 1997 
z
" transform="scale(0.015625)"/>
       <path id="DejaVuSans-67" d="M 2906 1791 
Q 2906 2416 2648 2759 
Q 2391 3103 1925 3103 
Q 1463 3103 1205 2759 
Q 947 2416 947 1791 
Q 947 1169 1205 825 
Q 1463 481 1925 481 
Q 2391 481 2648 825 
Q 2906 1169 2906 1791 
z
M 3481 434 
Q 3481 -459 3084 -895 
Q 2688 -1331 1869 -1331 
Q 1566 -1331 1297 -1286 
Q 1028 -1241 775 -1147 
L 775 -588 
Q 1028 -725 1275 -790 
Q 1522 -856 1778 -856 
Q 2344 -856 2625 -561 
Q 2906 -266 2906 331 
L 2906 616 
Q 2728 306 2450 153 
Q 2172 0 1784 0 
Q 1141 0 747 490 
Q 353 981 353 1791 
Q 353 2603 747 3093 
Q 1141 3584 1784 3584 
Q 2172 3584 2450 3431 
Q 2728 3278 2906 2969 
L 2906 3500 
L 3481 3500 
L 3481 434 
z
" transform="scale(0.015625)"/>
       <path id="DejaVuSans-65" d="M 3597 1894 
L 3597 1613 
L 953 1613 
Q 991 1019 1311 708 
Q 1631 397 2203 397 
Q 2534 397 2845 478 
Q 3156 559 3463 722 
L 3463 178 
Q 3153 47 2828 -22 
Q 2503 -91 2169 -91 
Q 1331 -91 842 396 
Q 353 884 353 1716 
Q 353 2575 817 3079 
Q 1281 3584 2069 3584 
Q 2775 3584 3186 3129 
Q 3597 2675 3597 1894 
z
M 3022 2063 
Q 3016 2534 2758 2815 
Q 2500 3097 2075 3097 
Q 1594 3097 1305 2825 
Q 1016 2553 972 2059 
L 3022 2063 
z
" transform="scale(0.015625)"/>
      </defs>
      <use xlink:href="#DejaVuSans-61"/>
      <use xlink:href="#DejaVuSans-67" x="61.279297"/>
      <use xlink:href="#DejaVuSans-65" x="124.755859"/>
     </g>
    </g>
   </g>
   <g id="matplotlib.axis_2">
    <g id="ytick_1">
     <g id="line2d_5">
      <defs>
       <path id="m49ba2ba0cc" d="M 0 0 
L -3.5 0 
" style="stroke: #000000; stroke-width: 0.8"/>
      </defs>
      <g>
       <use xlink:href="#m49ba2ba0cc" x="73.764375" y="235.1575" style="stroke: #000000; stroke-width: 0.8"/>
      </g>
     </g>
     <g id="text_6">
      <!-- 0.000 -->
      <g transform="translate(26.685 240.476406)scale(0.14 -0.14)">
       <defs>
        <path id="DejaVuSans-2e" d="M 684 794 
L 1344 794 
L 1344 0 
L 684 0 
L 684 794 
z
" transform="scale(0.015625)"/>
       </defs>
       <use xlink:href="#DejaVuSans-30"/>
       <use xlink:href="#DejaVuSans-2e" x="63.623047"/>
       <use xlink:href="#DejaVuSans-30" x="95.410156"/>
       <use xlink:href="#DejaVuSans-30" x="159.033203"/>
       <use xlink:href="#DejaVuSans-30" x="222.65625"/>
      </g>
     </g>
    </g>
    <g id="ytick_2">
     <g id="line2d_6">
      <g>
       <use xlink:href="#m49ba2ba0cc" x="73.764375" y="198.119903" style="stroke: #000000; stroke-width: 0.8"/>
      </g>
     </g>
     <g id="text_7">
      <!-- 0.005 -->
      <g transform="translate(26.685 203.438809)scale(0.14 -0.14)">
       <defs>
        <path id="DejaVuSans-35" d="M 691 4666 
L 3169 4666 
L 3169 4134 
L 1269 4134 
L 1269 2991 
Q 1406 3038 1543 3061 
Q 1681 3084 1819 3084 
Q 2600 3084 3056 2656 
Q 3513 2228 3513 1497 
Q 3513 744 3044 326 
Q 2575 -91 1722 -91 
Q 1428 -91 1123 -41 
Q 819 9 494 109 
L 494 744 
Q 775 591 1075 516 
Q 1375 441 1709 441 
Q 2250 441 2565 725 
Q 2881 1009 2881 1497 
Q 2881 1984 2565 2268 
Q 2250 2553 1709 2553 
Q 1456 2553 1204 2497 
Q 953 2441 691 2322 
L 691 4666 
z
" transform="scale(0.015625)"/>
       </defs>
       <use xlink:href="#DejaVuSans-30"/>
       <use xlink:href="#DejaVuSans-2e" x="63.623047"/>
       <use xlink:href="#DejaVuSans-30" x="95.410156"/>
       <use xlink:href="#DejaVuSans-30" x="159.033203"/>
       <use xlink:href="#DejaVuSans-35" x="222.65625"/>
      </g>
     </g>
    </g>
    <g id="ytick_3">
     <g id="line2d_7">
      <g>
       <use xlink:href="#m49ba2ba0cc" x="73.764375" y="161.082305" style="stroke: #000000; stroke-width: 0.8"/>
      </g>
     </g>
     <g id="text_8">
      <!-- 0.010 -->
      <g transform="translate(26.685 166.401211)scale(0.14 -0.14)">
       <defs>
        <path id="DejaVuSans-31" d="M 794 531 
L 1825 531 
L 1825 4091 
L 703 3866 
L 703 4441 
L 1819 4666 
L 2450 4666 
L 2450 531 
L 3481 531 
L 3481 0 
L 794 0 
L 794 531 
z
" transform="scale(0.015625)"/>
       </defs>
       <use xlink:href="#DejaVuSans-30"/>
       <use xlink:href="#DejaVuSans-2e" x="63.623047"/>
       <use xlink:href="#DejaVuSans-30" x="95.410156"/>
       <use xlink:href="#DejaVuSans-31" x="159.033203"/>
       <use xlink:href="#DejaVuSans-30" x="222.65625"/>
      </g>
     </g>
    </g>
    <g id="ytick_4">
     <g id="line2d_8">
      <g>
       <use xlink:href="#m49ba2ba0cc" x="73.764375" y="124.044708" style="stroke: #000000; stroke-width: 0.8"/>
      </g>
     </g>
     <g id="text_9">
      <!-- 0.015 -->
      <g transform="translate(26.685 129.363614)scale(0.14 -0.14)">
       <use xlink:href="#DejaVuSans-30"/>
       <use xlink:href="#DejaVuSans-2e" x="63.623047"/>
       <use xlink:href="#DejaVuSans-30" x="95.410156"/>
       <use xlink:href="#DejaVuSans-31" x="159.033203"/>
       <use xlink:href="#DejaVuSans-35" x="222.65625"/>
      </g>
     </g>
    </g>
    <g id="ytick_5">
     <g id="line2d_9">
      <g>
       <use xlink:href="#m49ba2ba0cc" x="73.764375" y="87.00711" style="stroke: #000000; stroke-width: 0.8"/>
      </g>
     </g>
     <g id="text_10">
      <!-- 0.020 -->
      <g transform="translate(26.685 92.326016)scale(0.14 -0.14)">
       <use xlink:href="#DejaVuSans-30"/>
       <use xlink:href="#DejaVuSans-2e" x="63.623047"/>
       <use xlink:href="#DejaVuSans-30" x="95.410156"/>
       <use xlink:href="#DejaVuSans-32" x="159.033203"/>
       <use xlink:href="#DejaVuSans-30" x="222.65625"/>
      </g>
     </g>
    </g>
    <g id="ytick_6">
     <g id="line2d_10">
      <g>
       <use xlink:href="#m49ba2ba0cc" x="73.764375" y="49.969513" style="stroke: #000000; stroke-width: 0.8"/>
      </g>
     </g>
     <g id="text_11">
      <!-- 0.025 -->
      <g transform="translate(26.685 55.288419)scale(0.14 -0.14)">
       <use xlink:href="#DejaVuSans-30"/>
       <use xlink:href="#DejaVuSans-2e" x="63.623047"/>
       <use xlink:href="#DejaVuSans-30" x="95.410156"/>
       <use xlink:href="#DejaVuSans-32" x="159.033203"/>
       <use xlink:href="#DejaVuSans-35" x="222.65625"/>
      </g>
     </g>
    </g>
    <g id="text_12">
     <!-- Density -->
     <g transform="translate(19.3575 160.67125)rotate(-90)scale(0.16 -0.16)">
      <defs>
       <path id="DejaVuSans-44" d="M 1259 4147 
L 1259 519 
L 2022 519 
Q 2988 519 3436 956 
Q 3884 1394 3884 2338 
Q 3884 3275 3436 3711 
Q 2988 4147 2022 4147 
L 1259 4147 
z
M 628 4666 
L 1925 4666 
Q 3281 4666 3915 4102 
Q 4550 3538 4550 2338 
Q 4550 1131 3912 565 
Q 3275 0 1925 0 
L 628 0 
L 628 4666 
z
" transform="scale(0.015625)"/>
       <path id="DejaVuSans-6e" d="M 3513 2113 
L 3513 0 
L 2938 0 
L 2938 2094 
Q 2938 2591 2744 2837 
Q 2550 3084 2163 3084 
Q 1697 3084 1428 2787 
Q 1159 2491 1159 1978 
L 1159 0 
L 581 0 
L 581 3500 
L 1159 3500 
L 1159 2956 
Q 1366 3272 1645 3428 
Q 1925 3584 2291 3584 
Q 2894 3584 3203 3211 
Q 3513 2838 3513 2113 
z
" transform="scale(0.015625)"/>
       <path id="DejaVuSans-73" d="M 2834 3397 
L 2834 2853 
Q 2591 2978 2328 3040 
Q 2066 3103 1784 3103 
Q 1356 3103 1142 2972 
Q 928 2841 928 2578 
Q 928 2378 1081 2264 
Q 1234 2150 1697 2047 
L 1894 2003 
Q 2506 1872 2764 1633 
Q 3022 1394 3022 966 
Q 3022 478 2636 193 
Q 2250 -91 1575 -91 
Q 1294 -91 989 -36 
Q 684 19 347 128 
L 347 722 
Q 666 556 975 473 
Q 1284 391 1588 391 
Q 1994 391 2212 530 
Q 2431 669 2431 922 
Q 2431 1156 2273 1281 
Q 2116 1406 1581 1522 
L 1381 1569 
Q 847 1681 609 1914 
Q 372 2147 372 2553 
Q 372 3047 722 3315 
Q 1072 3584 1716 3584 
Q 2034 3584 2315 3537 
Q 2597 3491 2834 3397 
z
" transform="scale(0.015625)"/>
       <path id="DejaVuSans-69" d="M 603 3500 
L 1178 3500 
L 1178 0 
L 603 0 
L 603 3500 
z
M 603 4863 
L 1178 4863 
L 1178 4134 
L 603 4134 
L 603 4863 
z
" transform="scale(0.015625)"/>
       <path id="DejaVuSans-74" d="M 1172 4494 
L 1172 3500 
L 2356 3500 
L 2356 3053 
L 1172 3053 
L 1172 1153 
Q 1172 725 1289 603 
Q 1406 481 1766 481 
L 2356 481 
L 2356 0 
L 1766 0 
Q 1100 0 847 248 
Q 594 497 594 1153 
L 594 3053 
L 172 3053 
L 172 3500 
L 594 3500 
L 594 4494 
L 1172 4494 
z
" transform="scale(0.015625)"/>
       <path id="DejaVuSans-79" d="M 2059 -325 
Q 1816 -950 1584 -1140 
Q 1353 -1331 966 -1331 
L 506 -1331 
L 506 -850 
L 844 -850 
Q 1081 -850 1212 -737 
Q 1344 -625 1503 -206 
L 1606 56 
L 191 3500 
L 800 3500 
L 1894 763 
L 2988 3500 
L 3597 3500 
L 2059 -325 
z
" transform="scale(0.015625)"/>
      </defs>
      <use xlink:href="#DejaVuSans-44"/>
      <use xlink:href="#DejaVuSans-65" x="77.001953"/>
      <use xlink:href="#DejaVuSans-6e" x="138.525391"/>
      <use xlink:href="#DejaVuSans-73" x="201.904297"/>
      <use xlink:href="#DejaVuSans-69" x="254.003906"/>
      <use xlink:href="#DejaVuSans-74" x="281.787109"/>
      <use xlink:href="#DejaVuSans-79" x="320.996094"/>
     </g>
    </g>
   </g>
   <g id="line2d_11">
    <path d="M 99.440156 158.180664 
L 101.56349 131.351942 
L 103.686825 107.814006 
L 104.748492 98.01819 
L 105.810159 89.640979 
L 106.871826 82.598871 
L 107.933493 76.72072 
L 108.995161 71.791235 
L 110.056828 67.594678 
L 111.118495 63.952244 
L 112.180162 60.747066 
L 113.241829 57.932444 
L 114.303497 55.521968 
L 115.365164 53.564537 
L 116.426831 52.111324 
L 117.488498 51.184023 
L 118.550165 50.753164 
L 119.611833 50.731904 
L 120.6735 50.985936 
L 122.796834 51.683635 
L 123.858501 51.840981 
L 124.920169 51.745405 
L 125.981836 51.368887 
L 127.043503 50.733475 
L 129.166837 48.936088 
L 133.413506 44.996611 
L 136.598508 42.420595 
L 138.721842 40.900299 
L 140.845176 39.5823 
L 145.091845 37.308623 
L 147.21518 36.273294 
L 149.338514 35.519598 
L 150.400181 35.353296 
L 151.461848 35.388538 
L 152.523516 35.664581 
L 153.585183 36.20773 
L 154.64685 37.025843 
L 155.708517 38.105164 
L 157.831852 40.888249 
L 163.140188 48.620958 
L 165.263522 51.128015 
L 168.448524 54.761146 
L 170.571858 57.700969 
L 175.880194 65.989704 
L 178.003528 68.561498 
L 180.126863 70.88175 
L 181.18853 72.220946 
L 182.250197 73.849975 
L 183.311864 75.868544 
L 184.373531 78.324381 
L 185.435199 81.197603 
L 187.558533 87.782203 
L 189.681867 94.411544 
L 190.743535 97.369436 
L 191.805202 99.993512 
L 193.928536 104.388407 
L 197.113538 110.578633 
L 199.236872 115.654367 
L 201.360206 121.590616 
L 204.545208 130.810071 
L 206.668542 136.283808 
L 208.791877 140.886642 
L 210.915211 144.643277 
L 213.038546 147.731625 
L 219.408549 156.1043 
L 221.531883 159.575875 
L 224.716885 165.500271 
L 235.333557 186.139219 
L 241.70356 197.566322 
L 245.950229 204.73793 
L 248.073563 208.032625 
L 250.196897 210.929756 
L 252.320232 213.304742 
L 254.443566 215.170531 
L 256.566901 216.681444 
L 263.998571 221.643417 
L 267.183572 223.716093 
L 271.430241 226.201742 
L 274.615243 227.899444 
L 276.738577 228.815834 
L 278.861912 229.497019 
L 286.293582 231.485335 
L 290.540251 232.8514 
L 293.725252 233.629867 
L 296.910254 234.155894 
L 299.033588 234.334962 
L 301.156923 234.32121 
L 303.280257 234.079796 
L 306.465259 233.391907 
L 308.588593 232.973942 
L 310.711927 232.866292 
L 310.711927 232.866292 
" clip-path="url(#pe55b22d8db)" style="fill: none; stroke: #0000ff; stroke-width: 1.5; stroke-linecap: square"/>
   </g>
   <g id="line2d_12">
    <path d="M 85.701799 234.854905 
L 86.90154 234.494504 
L 88.101282 233.793055 
L 89.301023 232.517058 
L 90.500764 230.346468 
L 91.700505 226.891295 
L 92.900246 221.74038 
L 94.099987 214.541506 
L 95.299728 205.097607 
L 96.499469 193.451 
L 97.699211 179.924293 
L 102.498175 120.409183 
L 103.697916 107.704351 
L 104.897657 96.756262 
L 106.097398 87.609869 
L 107.29714 80.115849 
L 108.496881 74.000874 
L 109.696622 68.948553 
L 110.896363 64.675328 
L 112.096104 60.986416 
L 113.295845 57.799725 
L 114.495586 55.132575 
L 115.695327 53.056736 
L 116.895069 51.637935 
L 118.09481 50.881463 
L 119.294551 50.702602 
L 120.494292 50.930455 
L 122.893774 51.7067 
L 124.093515 51.843457 
L 125.293257 51.644933 
L 126.492998 51.092316 
L 127.692739 50.241403 
L 130.092221 48.052827 
L 133.691444 44.758897 
L 137.290668 41.904463 
L 139.69015 40.274452 
L 143.289373 38.247766 
L 146.888597 36.421498 
L 148.088338 35.911574 
L 149.288079 35.531746 
L 150.48782 35.347976 
L 151.687561 35.425942 
L 152.887303 35.819788 
L 154.087044 36.560513 
L 155.286785 37.646948 
L 156.486526 39.042302 
L 158.886008 42.461966 
L 162.485232 47.764882 
L 164.884714 50.703971 
L 168.483937 54.805611 
L 170.883419 58.177868 
L 175.682384 65.719258 
L 178.081866 68.647248 
L 180.481349 71.304269 
L 181.68109 72.933689 
L 182.880831 74.997575 
L 184.080572 77.602851 
L 185.280313 80.755159 
L 187.679795 88.172569 
L 190.079278 95.555995 
L 191.279019 98.735146 
L 192.47876 101.491645 
L 194.878242 106.164779 
L 197.277724 110.935306 
L 198.477465 113.723285 
L 200.876948 120.189075 
L 204.476171 130.619342 
L 206.875653 136.772363 
L 208.075394 139.433478 
L 209.275136 141.811396 
L 210.474877 143.926629 
L 212.874359 147.510861 
L 218.873065 155.306035 
L 221.272547 159.126914 
L 223.672029 163.48966 
L 228.470994 172.95294 
L 233.269958 182.307634 
L 239.268664 193.269737 
L 244.067628 201.620815 
L 247.666852 207.426986 
L 250.066334 210.765973 
L 251.266075 212.193863 
L 252.465816 213.447843 
L 254.865299 215.492176 
L 257.264781 217.137687 
L 262.063745 220.308589 
L 266.86271 223.517615 
L 271.661674 226.332099 
L 275.260898 228.202248 
L 277.66038 229.138908 
L 280.059862 229.801397 
L 284.858827 231.02577 
L 292.057274 233.254303 
L 295.656497 233.98036 
L 298.055979 234.273329 
L 300.455461 234.35002 
L 302.854944 234.146319 
L 305.254426 233.677119 
L 308.853649 232.939449 
L 310.053391 232.855993 
L 311.253132 232.905672 
L 313.652614 233.369983 
L 318.451578 234.645026 
L 320.851061 234.9743 
L 324.450284 235.134006 
L 324.450284 235.134006 
" clip-path="url(#pe55b22d8db)" style="fill: none; stroke: #ff0000; stroke-width: 1.5; stroke-linecap: square"/>
   </g>
   <g id="patch_13">
    <path d="M 73.764375 235.1575 
L 73.764375 25.3575 
" style="fill: none; stroke: #000000; stroke-width: 0.8; stroke-linejoin: miter; stroke-linecap: square"/>
   </g>
   <g id="patch_14">
    <path d="M 336.387708 235.1575 
L 336.387708 25.3575 
" style="fill: none; stroke: #000000; stroke-width: 0.8; stroke-linejoin: miter; stroke-linecap: square"/>
   </g>
   <g id="patch_15">
    <path d="M 73.764375 235.1575 
L 336.387708 235.1575 
" style="fill: none; stroke: #000000; stroke-width: 0.8; stroke-linejoin: miter; stroke-linecap: square"/>
   </g>
   <g id="patch_16">
    <path d="M 73.764375 25.3575 
L 336.387708 25.3575 
" style="fill: none; stroke: #000000; stroke-width: 0.8; stroke-linejoin: miter; stroke-linecap: square"/>
   </g>
   <g id="text_13">
    <!-- Distribution of age -->
    <g transform="translate(130.706042 19.3575)scale(0.16 -0.16)">
     <defs>
      <path id="DejaVuSans-72" d="M 2631 2963 
Q 2534 3019 2420 3045 
Q 2306 3072 2169 3072 
Q 1681 3072 1420 2755 
Q 1159 2438 1159 1844 
L 1159 0 
L 581 0 
L 581 3500 
L 1159 3500 
L 1159 2956 
Q 1341 3275 1631 3429 
Q 1922 3584 2338 3584 
Q 2397 3584 2469 3576 
Q 2541 3569 2628 3553 
L 2631 2963 
z
" transform="scale(0.015625)"/>
      <path id="DejaVuSans-62" d="M 3116 1747 
Q 3116 2381 2855 2742 
Q 2594 3103 2138 3103 
Q 1681 3103 1420 2742 
Q 1159 2381 1159 1747 
Q 1159 1113 1420 752 
Q 1681 391 2138 391 
Q 2594 391 2855 752 
Q 3116 1113 3116 1747 
z
M 1159 2969 
Q 1341 3281 1617 3432 
Q 1894 3584 2278 3584 
Q 2916 3584 3314 3078 
Q 3713 2572 3713 1747 
Q 3713 922 3314 415 
Q 2916 -91 2278 -91 
Q 1894 -91 1617 61 
Q 1341 213 1159 525 
L 1159 0 
L 581 0 
L 581 4863 
L 1159 4863 
L 1159 2969 
z
" transform="scale(0.015625)"/>
      <path id="DejaVuSans-75" d="M 544 1381 
L 544 3500 
L 1119 3500 
L 1119 1403 
Q 1119 906 1312 657 
Q 1506 409 1894 409 
Q 2359 409 2629 706 
Q 2900 1003 2900 1516 
L 2900 3500 
L 3475 3500 
L 3475 0 
L 2900 0 
L 2900 538 
Q 2691 219 2414 64 
Q 2138 -91 1772 -91 
Q 1169 -91 856 284 
Q 544 659 544 1381 
z
M 1991 3584 
L 1991 3584 
z
" transform="scale(0.015625)"/>
      <path id="DejaVuSans-6f" d="M 1959 3097 
Q 1497 3097 1228 2736 
Q 959 2375 959 1747 
Q 959 1119 1226 758 
Q 1494 397 1959 397 
Q 2419 397 2687 759 
Q 2956 1122 2956 1747 
Q 2956 2369 2687 2733 
Q 2419 3097 1959 3097 
z
M 1959 3584 
Q 2709 3584 3137 3096 
Q 3566 2609 3566 1747 
Q 3566 888 3137 398 
Q 2709 -91 1959 -91 
Q 1206 -91 779 398 
Q 353 888 353 1747 
Q 353 2609 779 3096 
Q 1206 3584 1959 3584 
z
" transform="scale(0.015625)"/>
      <path id="DejaVuSans-20" transform="scale(0.015625)"/>
      <path id="DejaVuSans-66" d="M 2375 4863 
L 2375 4384 
L 1825 4384 
Q 1516 4384 1395 4259 
Q 1275 4134 1275 3809 
L 1275 3500 
L 2222 3500 
L 2222 3053 
L 1275 3053 
L 1275 0 
L 697 0 
L 697 3053 
L 147 3053 
L 147 3500 
L 697 3500 
L 697 3744 
Q 697 4328 969 4595 
Q 1241 4863 1831 4863 
L 2375 4863 
z
" transform="scale(0.015625)"/>
     </defs>
     <use xlink:href="#DejaVuSans-44"/>
     <use xlink:href="#DejaVuSans-69" x="77.001953"/>
     <use xlink:href="#DejaVuSans-73" x="104.785156"/>
     <use xlink:href="#DejaVuSans-74" x="156.884766"/>
     <use xlink:href="#DejaVuSans-72" x="196.09375"/>
     <use xlink:href="#DejaVuSans-69" x="237.207031"/>
     <use xlink:href="#DejaVuSans-62" x="264.990234"/>
     <use xlink:href="#DejaVuSans-75" x="328.466797"/>
     <use xlink:href="#DejaVuSans-74" x="391.845703"/>
     <use xlink:href="#DejaVuSans-69" x="431.054688"/>
     <use xlink:href="#DejaVuSans-6f" x="458.837891"/>
     <use xlink:href="#DejaVuSans-6e" x="520.019531"/>
     <use xlink:href="#DejaVuSans-20" x="583.398438"/>
     <use xlink:href="#DejaVuSans-6f" x="615.185547"/>
     <use xlink:href="#DejaVuSans-66" x="676.367188"/>
     <use xlink:href="#DejaVuSans-20" x="711.572266"/>
     <use xlink:href="#DejaVuSans-61" x="743.359375"/>
     <use xlink:href="#DejaVuSans-67" x="804.638672"/>
     <use xlink:href="#DejaVuSans-65" x="868.115234"/>
    </g>
   </g>
  </g>
  <g id="axes_2">
   <g id="patch_17">
    <path d="M 402.927708 235.1575 
L 665.551042 235.1575 
L 665.551042 25.3575 
L 402.927708 25.3575 
z
" style="fill: #ffffff"/>
   </g>
   <g id="patch_18">
    <path d="M 427.530018 235.1575 
L 448.87189 235.1575 
L 448.87189 233.089648 
L 427.530018 233.089648 
z
" clip-path="url(#p21d44aa014)" style="fill: #0000ff; fill-opacity: 0.6; stroke: #000000; stroke-linejoin: miter"/>
   </g>
   <g id="patch_19">
    <path d="M 448.87189 235.1575 
L 470.213761 235.1575 
L 470.213761 231.967995 
L 448.87189 231.967995 
z
" clip-path="url(#p21d44aa014)" style="fill: #0000ff; fill-opacity: 0.6; stroke: #000000; stroke-linejoin: miter"/>
   </g>
   <g id="patch_20">
    <path d="M 470.213761 235.1575 
L 491.555632 235.1575 
L 491.555632 224.436002 
L 470.213761 224.436002 
z
" clip-path="url(#p21d44aa014)" style="fill: #0000ff; fill-opacity: 0.6; stroke: #000000; stroke-linejoin: miter"/>
   </g>
   <g id="patch_21">
    <path d="M 491.555632 235.1575 
L 512.897504 235.1575 
L 512.897504 226.453724 
L 491.555632 226.453724 
z
" clip-path="url(#p21d44aa014)" style="fill: #0000ff; fill-opacity: 0.6; stroke: #000000; stroke-linejoin: miter"/>
   </g>
   <g id="patch_22">
    <path d="M 512.897504 235.1575 
L 534.239375 235.1575 
L 534.239375 219.68621 
L 512.897504 219.68621 
z
" clip-path="url(#p21d44aa014)" style="fill: #0000ff; fill-opacity: 0.6; stroke: #000000; stroke-linejoin: miter"/>
   </g>
   <g id="patch_23">
    <path d="M 534.239375 235.1575 
L 555.581246 235.1575 
L 555.581246 136.251527 
L 534.239375 136.251527 
z
" clip-path="url(#p21d44aa014)" style="fill: #0000ff; fill-opacity: 0.6; stroke: #000000; stroke-linejoin: miter"/>
   </g>
   <g id="patch_24">
    <path d="M 555.581246 235.1575 
L 576.923118 235.1575 
L 576.923118 154.078915 
L 555.581246 154.078915 
z
" clip-path="url(#p21d44aa014)" style="fill: #0000ff; fill-opacity: 0.6; stroke: #000000; stroke-linejoin: miter"/>
   </g>
   <g id="patch_25">
    <path d="M 576.923118 235.1575 
L 598.264989 235.1575 
L 598.264989 225.125286 
L 576.923118 225.125286 
z
" clip-path="url(#p21d44aa014)" style="fill: #0000ff; fill-opacity: 0.6; stroke: #000000; stroke-linejoin: miter"/>
   </g>
   <g id="patch_26">
    <path d="M 598.264989 235.1575 
L 619.60686 235.1575 
L 619.60686 168.221767 
L 598.264989 168.221767 
z
" clip-path="url(#p21d44aa014)" style="fill: #0000ff; fill-opacity: 0.6; stroke: #000000; stroke-linejoin: miter"/>
   </g>
   <g id="patch_27">
    <path d="M 619.60686 235.1575 
L 640.948732 235.1575 
L 640.948732 226.209342 
L 619.60686 226.209342 
z
" clip-path="url(#p21d44aa014)" style="fill: #0000ff; fill-opacity: 0.6; stroke: #000000; stroke-linejoin: miter"/>
   </g>
   <g id="matplotlib.axis_3">
    <g id="xtick_5">
     <g id="line2d_13">
      <g>
       <use xlink:href="#m88cab2971f" x="413.302104" y="235.1575" style="stroke: #000000; stroke-width: 0.8"/>
      </g>
     </g>
     <g id="text_14">
      <!-- 0 -->
      <g transform="translate(408.848354 252.795313)scale(0.14 -0.14)">
       <use xlink:href="#DejaVuSans-30"/>
      </g>
     </g>
    </g>
    <g id="xtick_6">
     <g id="line2d_14">
      <g>
       <use xlink:href="#m88cab2971f" x="484.441675" y="235.1575" style="stroke: #000000; stroke-width: 0.8"/>
      </g>
     </g>
     <g id="text_15">
      <!-- 5 -->
      <g transform="translate(479.987925 252.795313)scale(0.14 -0.14)">
       <use xlink:href="#DejaVuSans-35"/>
      </g>
     </g>
    </g>
    <g id="xtick_7">
     <g id="line2d_15">
      <g>
       <use xlink:href="#m88cab2971f" x="555.581246" y="235.1575" style="stroke: #000000; stroke-width: 0.8"/>
      </g>
     </g>
     <g id="text_16">
      <!-- 10 -->
      <g transform="translate(546.673746 252.795313)scale(0.14 -0.14)">
       <use xlink:href="#DejaVuSans-31"/>
       <use xlink:href="#DejaVuSans-30" x="63.623047"/>
      </g>
     </g>
    </g>
    <g id="xtick_8">
     <g id="line2d_16">
      <g>
       <use xlink:href="#m88cab2971f" x="626.720817" y="235.1575" style="stroke: #000000; stroke-width: 0.8"/>
      </g>
     </g>
     <g id="text_17">
      <!-- 15 -->
      <g transform="translate(617.813317 252.795313)scale(0.14 -0.14)">
       <use xlink:href="#DejaVuSans-31"/>
       <use xlink:href="#DejaVuSans-35" x="63.623047"/>
      </g>
     </g>
    </g>
    <g id="text_18">
     <!-- education-num -->
     <g transform="translate(473.724375 271.864375)scale(0.16 -0.16)">
      <defs>
       <path id="DejaVuSans-64" d="M 2906 2969 
L 2906 4863 
L 3481 4863 
L 3481 0 
L 2906 0 
L 2906 525 
Q 2725 213 2448 61 
Q 2172 -91 1784 -91 
Q 1150 -91 751 415 
Q 353 922 353 1747 
Q 353 2572 751 3078 
Q 1150 3584 1784 3584 
Q 2172 3584 2448 3432 
Q 2725 3281 2906 2969 
z
M 947 1747 
Q 947 1113 1208 752 
Q 1469 391 1925 391 
Q 2381 391 2643 752 
Q 2906 1113 2906 1747 
Q 2906 2381 2643 2742 
Q 2381 3103 1925 3103 
Q 1469 3103 1208 2742 
Q 947 2381 947 1747 
z
" transform="scale(0.015625)"/>
       <path id="DejaVuSans-63" d="M 3122 3366 
L 3122 2828 
Q 2878 2963 2633 3030 
Q 2388 3097 2138 3097 
Q 1578 3097 1268 2742 
Q 959 2388 959 1747 
Q 959 1106 1268 751 
Q 1578 397 2138 397 
Q 2388 397 2633 464 
Q 2878 531 3122 666 
L 3122 134 
Q 2881 22 2623 -34 
Q 2366 -91 2075 -91 
Q 1284 -91 818 406 
Q 353 903 353 1747 
Q 353 2603 823 3093 
Q 1294 3584 2113 3584 
Q 2378 3584 2631 3529 
Q 2884 3475 3122 3366 
z
" transform="scale(0.015625)"/>
       <path id="DejaVuSans-2d" d="M 313 2009 
L 1997 2009 
L 1997 1497 
L 313 1497 
L 313 2009 
z
" transform="scale(0.015625)"/>
       <path id="DejaVuSans-6d" d="M 3328 2828 
Q 3544 3216 3844 3400 
Q 4144 3584 4550 3584 
Q 5097 3584 5394 3201 
Q 5691 2819 5691 2113 
L 5691 0 
L 5113 0 
L 5113 2094 
Q 5113 2597 4934 2840 
Q 4756 3084 4391 3084 
Q 3944 3084 3684 2787 
Q 3425 2491 3425 1978 
L 3425 0 
L 2847 0 
L 2847 2094 
Q 2847 2600 2669 2842 
Q 2491 3084 2119 3084 
Q 1678 3084 1418 2786 
Q 1159 2488 1159 1978 
L 1159 0 
L 581 0 
L 581 3500 
L 1159 3500 
L 1159 2956 
Q 1356 3278 1631 3431 
Q 1906 3584 2284 3584 
Q 2666 3584 2933 3390 
Q 3200 3197 3328 2828 
z
" transform="scale(0.015625)"/>
      </defs>
      <use xlink:href="#DejaVuSans-65"/>
      <use xlink:href="#DejaVuSans-64" x="61.523438"/>
      <use xlink:href="#DejaVuSans-75" x="125"/>
      <use xlink:href="#DejaVuSans-63" x="188.378906"/>
      <use xlink:href="#DejaVuSans-61" x="243.359375"/>
      <use xlink:href="#DejaVuSans-74" x="304.638672"/>
      <use xlink:href="#DejaVuSans-69" x="343.847656"/>
      <use xlink:href="#DejaVuSans-6f" x="371.630859"/>
      <use xlink:href="#DejaVuSans-6e" x="432.8125"/>
      <use xlink:href="#DejaVuSans-2d" x="496.191406"/>
      <use xlink:href="#DejaVuSans-6e" x="532.275391"/>
      <use xlink:href="#DejaVuSans-75" x="595.654297"/>
      <use xlink:href="#DejaVuSans-6d" x="659.033203"/>
     </g>
    </g>
   </g>
   <g id="matplotlib.axis_4">
    <g id="ytick_7">
     <g id="line2d_17">
      <g>
       <use xlink:href="#m49ba2ba0cc" x="402.927708" y="235.1575" style="stroke: #000000; stroke-width: 0.8"/>
      </g>
     </g>
     <g id="text_19">
      <!-- 0.0 -->
      <g transform="translate(373.663333 240.476406)scale(0.14 -0.14)">
       <use xlink:href="#DejaVuSans-30"/>
       <use xlink:href="#DejaVuSans-2e" x="63.623047"/>
       <use xlink:href="#DejaVuSans-30" x="95.410156"/>
      </g>
     </g>
    </g>
    <g id="ytick_8">
     <g id="line2d_18">
      <g>
       <use xlink:href="#m49ba2ba0cc" x="402.927708" y="189.249312" style="stroke: #000000; stroke-width: 0.8"/>
      </g>
     </g>
     <g id="text_20">
      <!-- 0.1 -->
      <g transform="translate(373.663333 194.568219)scale(0.14 -0.14)">
       <use xlink:href="#DejaVuSans-30"/>
       <use xlink:href="#DejaVuSans-2e" x="63.623047"/>
       <use xlink:href="#DejaVuSans-31" x="95.410156"/>
      </g>
     </g>
    </g>
    <g id="ytick_9">
     <g id="line2d_19">
      <g>
       <use xlink:href="#m49ba2ba0cc" x="402.927708" y="143.341125" style="stroke: #000000; stroke-width: 0.8"/>
      </g>
     </g>
     <g id="text_21">
      <!-- 0.2 -->
      <g transform="translate(373.663333 148.660031)scale(0.14 -0.14)">
       <use xlink:href="#DejaVuSans-30"/>
       <use xlink:href="#DejaVuSans-2e" x="63.623047"/>
       <use xlink:href="#DejaVuSans-32" x="95.410156"/>
      </g>
     </g>
    </g>
    <g id="ytick_10">
     <g id="line2d_20">
      <g>
       <use xlink:href="#m49ba2ba0cc" x="402.927708" y="97.432937" style="stroke: #000000; stroke-width: 0.8"/>
      </g>
     </g>
     <g id="text_22">
      <!-- 0.3 -->
      <g transform="translate(373.663333 102.751844)scale(0.14 -0.14)">
       <defs>
        <path id="DejaVuSans-33" d="M 2597 2516 
Q 3050 2419 3304 2112 
Q 3559 1806 3559 1356 
Q 3559 666 3084 287 
Q 2609 -91 1734 -91 
Q 1441 -91 1130 -33 
Q 819 25 488 141 
L 488 750 
Q 750 597 1062 519 
Q 1375 441 1716 441 
Q 2309 441 2620 675 
Q 2931 909 2931 1356 
Q 2931 1769 2642 2001 
Q 2353 2234 1838 2234 
L 1294 2234 
L 1294 2753 
L 1863 2753 
Q 2328 2753 2575 2939 
Q 2822 3125 2822 3475 
Q 2822 3834 2567 4026 
Q 2313 4219 1838 4219 
Q 1578 4219 1281 4162 
Q 984 4106 628 3988 
L 628 4550 
Q 988 4650 1302 4700 
Q 1616 4750 1894 4750 
Q 2613 4750 3031 4423 
Q 3450 4097 3450 3541 
Q 3450 3153 3228 2886 
Q 3006 2619 2597 2516 
z
" transform="scale(0.015625)"/>
       </defs>
       <use xlink:href="#DejaVuSans-30"/>
       <use xlink:href="#DejaVuSans-2e" x="63.623047"/>
       <use xlink:href="#DejaVuSans-33" x="95.410156"/>
      </g>
     </g>
    </g>
    <g id="ytick_11">
     <g id="line2d_21">
      <g>
       <use xlink:href="#m49ba2ba0cc" x="402.927708" y="51.52475" style="stroke: #000000; stroke-width: 0.8"/>
      </g>
     </g>
     <g id="text_23">
      <!-- 0.4 -->
      <g transform="translate(373.663333 56.843656)scale(0.14 -0.14)">
       <use xlink:href="#DejaVuSans-30"/>
       <use xlink:href="#DejaVuSans-2e" x="63.623047"/>
       <use xlink:href="#DejaVuSans-34" x="95.410156"/>
      </g>
     </g>
    </g>
    <g id="text_24">
     <!-- Density -->
     <g transform="translate(366.335833 160.67125)rotate(-90)scale(0.16 -0.16)">
      <use xlink:href="#DejaVuSans-44"/>
      <use xlink:href="#DejaVuSans-65" x="77.001953"/>
      <use xlink:href="#DejaVuSans-6e" x="138.525391"/>
      <use xlink:href="#DejaVuSans-73" x="201.904297"/>
      <use xlink:href="#DejaVuSans-69" x="254.003906"/>
      <use xlink:href="#DejaVuSans-74" x="281.787109"/>
      <use xlink:href="#DejaVuSans-79" x="320.996094"/>
     </g>
    </g>
   </g>
   <g id="line2d_22">
    <path d="M 427.530018 234.097908 
L 429.67493 234.183645 
L 432.892298 234.345217 
L 433.964753 234.261166 
L 435.037209 234.062574 
L 437.182121 233.34552 
L 439.327033 232.489053 
L 440.399489 232.176365 
L 441.471944 232.021202 
L 442.5444 232.047347 
L 444.689312 232.525114 
L 446.834224 233.028851 
L 447.906679 233.046142 
L 448.979135 232.812039 
L 450.051591 232.309108 
L 452.196503 230.709715 
L 453.268959 229.848461 
L 454.341415 229.14785 
L 455.41387 228.741125 
L 456.486326 228.701808 
L 457.558782 229.018408 
L 460.77615 230.786452 
L 461.848605 231.010403 
L 462.921061 230.774401 
L 463.993517 230.016868 
L 465.065973 228.78225 
L 468.283341 224.187841 
L 469.355796 223.276369 
L 470.428252 223.046891 
L 471.500708 223.541911 
L 472.573164 224.647095 
L 475.790531 228.943472 
L 476.862987 229.75905 
L 477.935443 229.978145 
L 479.007899 229.605769 
L 480.080355 228.767011 
L 482.225267 226.613765 
L 483.297722 225.825559 
L 484.370178 225.504497 
L 485.442634 225.72055 
L 486.51509 226.403738 
L 488.660002 228.301354 
L 489.732457 228.933601 
L 490.804913 228.993871 
L 491.877369 228.320543 
L 492.949825 226.89281 
L 494.022281 224.852076 
L 496.167192 220.221139 
L 497.239648 218.462272 
L 498.312104 217.564705 
L 499.38456 217.699041 
L 500.457016 218.803563 
L 501.529472 220.590379 
L 502.601928 222.610893 
L 503.674383 224.358356 
L 504.746839 225.377675 
L 505.819295 225.358453 
L 506.891751 224.198582 
L 507.964207 222.033017 
L 511.181574 213.849712 
L 512.25403 212.406617 
L 513.326486 212.293814 
L 514.398942 213.556162 
L 515.471398 215.951806 
L 518.688765 225.093066 
L 519.761221 227.236756 
L 520.833677 228.508956 
L 521.906133 228.936266 
L 522.978589 228.693878 
L 525.1235 227.268717 
L 526.195956 226.576308 
L 528.340868 225.438069 
L 529.413324 224.322824 
L 530.48578 221.845764 
L 531.558235 216.854513 
L 532.630691 208.01194 
L 533.703147 194.071371 
L 534.775603 174.294846 
L 535.848059 148.939698 
L 539.065426 62.710767 
L 540.137882 43.539943 
L 541.210338 35.347976 
L 542.282794 39.48469 
L 543.35525 54.817004 
L 544.427706 77.951624 
L 546.572617 128.159137 
L 547.645073 145.970637 
L 548.717529 154.931906 
L 549.789985 154.425862 
L 550.862441 145.7688 
L 554.079808 103.963809 
L 555.152264 97.374917 
L 556.22472 98.722349 
L 557.297176 108.102455 
L 558.369632 123.904617 
L 561.586999 181.27222 
L 562.659455 195.237752 
L 563.731911 204.595585 
L 564.804367 209.61729 
L 565.876822 211.250745 
L 566.949278 210.78474 
L 568.021734 209.540384 
L 569.09419 208.624353 
L 570.166646 208.761049 
L 571.239102 210.217319 
L 572.311558 212.826723 
L 574.456469 219.400387 
L 575.528925 222.098074 
L 576.601381 223.728205 
L 577.673837 224.066381 
L 578.746293 223.158915 
L 579.818748 221.301997 
L 581.96366 216.751928 
L 583.036116 215.141503 
L 584.108572 214.476674 
L 585.181028 214.787123 
L 587.325939 216.682717 
L 588.398395 216.683087 
L 589.470851 214.736568 
L 590.543307 209.948278 
L 591.615763 201.780856 
L 592.688219 190.296443 
L 595.905586 148.000295 
L 596.978042 138.121062 
L 598.050498 133.692338 
L 599.122954 135.555887 
L 600.195409 143.311681 
L 601.267865 155.424394 
L 603.412777 183.613126 
L 604.485233 195.348638 
L 605.557689 203.637357 
L 606.630145 208.115367 
L 607.7026 209.183499 
L 608.775056 207.798038 
L 610.919968 202.686639 
L 611.992424 201.277306 
L 613.06488 201.612156 
L 614.137335 203.821884 
L 615.209791 207.571732 
L 618.427159 221.123823 
L 619.499615 224.246459 
L 620.572071 226.128431 
L 621.644526 226.838629 
L 622.716982 226.646322 
L 625.93435 224.574312 
L 627.006806 224.518588 
L 628.079261 225.040595 
L 629.151717 226.062603 
L 632.369085 229.898611 
L 633.441541 230.64462 
L 634.513997 230.89004 
L 635.586452 230.645075 
L 636.658908 230.018066 
L 638.80382 228.384319 
L 639.876276 227.807 
L 640.948732 227.614702 
L 640.948732 227.614702 
" clip-path="url(#p21d44aa014)" style="fill: none; stroke: #0000ff; stroke-width: 1.5; stroke-linecap: square"/>
   </g>
   <g id="line2d_23">
    <path d="M 414.865133 235.145847 
L 418.464356 235.052936 
L 422.063579 234.703854 
L 425.662803 234.204134 
L 428.062285 234.100695 
L 432.86125 234.346119 
L 434.060991 234.248198 
L 435.260732 234.006262 
L 437.660214 233.149194 
L 440.059696 232.26056 
L 441.259437 232.03772 
L 442.459179 232.038802 
L 443.65892 232.245668 
L 446.058402 232.894366 
L 447.258143 233.062519 
L 448.457884 232.959563 
L 449.657625 232.523907 
L 450.857366 231.775728 
L 453.256849 229.857576 
L 454.45659 229.088165 
L 455.656331 228.699051 
L 456.856072 228.774073 
L 458.055813 229.260847 
L 460.455296 230.650077 
L 461.655037 231.000707 
L 462.854778 230.803972 
L 464.054519 229.958468 
L 465.25426 228.526286 
L 467.653742 224.970842 
L 468.853483 223.626776 
L 470.053225 223.04357 
L 471.252966 223.366793 
L 472.452707 224.499296 
L 474.852189 227.833382 
L 476.05193 229.192731 
L 477.251671 229.909857 
L 478.451412 229.867705 
L 479.651154 229.146324 
L 482.050636 226.77477 
L 483.250377 225.851514 
L 484.450118 225.502098 
L 485.649859 225.820665 
L 486.8496 226.684164 
L 488.049341 227.782888 
L 489.249083 228.705562 
L 490.448824 229.049813 
L 491.648565 228.529188 
L 492.848306 227.057663 
L 494.048047 224.797685 
L 496.447529 219.695398 
L 497.647271 218.005691 
L 498.847012 217.500881 
L 500.046753 218.280326 
L 501.246494 220.075925 
L 502.446235 222.322576 
L 503.645976 224.319694 
L 504.845717 225.422575 
L 506.045458 225.207851 
L 507.2452 223.582595 
L 508.444941 220.824309 
L 510.844423 214.532721 
L 512.044164 212.59089 
L 513.243905 212.252353 
L 514.443646 213.635968 
L 515.643387 216.412947 
L 518.04287 223.440708 
L 519.242611 226.303645 
L 520.442352 228.147771 
L 521.642093 228.90196 
L 522.841834 228.753367 
L 524.041575 228.051857 
L 526.441058 226.440158 
L 527.640799 225.844107 
L 528.84054 225.026653 
L 530.040281 223.107743 
L 531.240022 218.675716 
L 532.439763 209.927304 
L 533.639504 195.058065 
L 534.839246 172.936884 
L 536.038987 143.942026 
L 538.438469 77.724595 
L 539.63821 51.272516 
L 540.837951 36.813615 
L 542.037692 37.471295 
L 543.237433 52.67382 
L 544.437175 78.176848 
L 545.636916 107.368674 
L 546.836657 133.256775 
L 548.036398 150.342154 
L 549.236139 155.830614 
L 550.43588 150.03226 
L 551.635621 136.056679 
L 552.835363 118.948415 
L 554.035104 104.388421 
L 555.234845 97.183914 
L 556.434586 99.954497 
L 557.634327 112.49244 
L 558.834068 132.068151 
L 561.23355 175.746713 
L 562.433292 192.668781 
L 563.633033 203.924336 
L 564.832774 209.699006 
L 566.032515 211.281105 
L 567.232256 210.481247 
L 568.431997 209.102103 
L 569.631738 208.533665 
L 570.831479 209.510385 
L 572.031221 212.056418 
L 574.430703 219.325904 
L 575.630444 222.303611 
L 576.830185 223.911302 
L 578.029926 223.893317 
L 579.229667 222.413954 
L 582.828891 215.38557 
L 584.028632 214.490888 
L 585.228373 214.81952 
L 586.428114 215.921075 
L 587.627855 216.821081 
L 588.827596 216.192949 
L 590.027338 212.651998 
L 591.227079 205.142773 
L 592.42682 193.370112 
L 596.026043 146.669996 
L 597.225784 136.564361 
L 598.425525 133.622217 
L 599.625267 138.525658 
L 600.825008 150.028942 
L 604.424231 194.765988 
L 605.623972 204.02395 
L 606.823713 208.538428 
L 608.023454 208.972718 
L 609.223196 206.786939 
L 610.422937 203.77262 
L 611.622678 201.588013 
L 612.822419 201.369068 
L 614.02216 203.501487 
L 615.221901 207.620551 
L 617.621384 218.067333 
L 618.821125 222.408984 
L 620.020866 225.317442 
L 621.220607 226.684286 
L 622.420348 226.768864 
L 623.620089 226.066724 
L 624.81983 225.156002 
L 626.019571 224.549593 
L 627.219313 224.57646 
L 628.419054 225.317834 
L 629.618795 226.616317 
L 632.018277 229.559212 
L 633.218018 230.528809 
L 634.417759 230.888941 
L 635.6175 230.631559 
L 636.817242 229.90351 
L 639.216724 228.124709 
L 640.416465 227.655504 
L 641.616206 227.723082 
L 642.815947 228.342852 
L 644.015688 229.389466 
L 646.415171 231.911149 
L 647.614912 232.999621 
L 648.814653 233.834397 
L 650.014394 234.409178 
L 651.214135 234.7671 
L 653.613617 235.074107 
L 653.613617 235.074107 
" clip-path="url(#p21d44aa014)" style="fill: none; stroke: #ff0000; stroke-width: 1.5; stroke-linecap: square"/>
   </g>
   <g id="patch_28">
    <path d="M 402.927708 235.1575 
L 402.927708 25.3575 
" style="fill: none; stroke: #000000; stroke-width: 0.8; stroke-linejoin: miter; stroke-linecap: square"/>
   </g>
   <g id="patch_29">
    <path d="M 665.551042 235.1575 
L 665.551042 25.3575 
" style="fill: none; stroke: #000000; stroke-width: 0.8; stroke-linejoin: miter; stroke-linecap: square"/>
   </g>
   <g id="patch_30">
    <path d="M 402.927708 235.1575 
L 665.551042 235.1575 
" style="fill: none; stroke: #000000; stroke-width: 0.8; stroke-linejoin: miter; stroke-linecap: square"/>
   </g>
   <g id="patch_31">
    <path d="M 402.927708 25.3575 
L 665.551042 25.3575 
" style="fill: none; stroke: #000000; stroke-width: 0.8; stroke-linejoin: miter; stroke-linecap: square"/>
   </g>
   <g id="text_25">
    <!-- Distribution of education-num -->
    <g transform="translate(414.258125 19.3575)scale(0.16 -0.16)">
     <use xlink:href="#DejaVuSans-44"/>
     <use xlink:href="#DejaVuSans-69" x="77.001953"/>
     <use xlink:href="#DejaVuSans-73" x="104.785156"/>
     <use xlink:href="#DejaVuSans-74" x="156.884766"/>
     <use xlink:href="#DejaVuSans-72" x="196.09375"/>
     <use xlink:href="#DejaVuSans-69" x="237.207031"/>
     <use xlink:href="#DejaVuSans-62" x="264.990234"/>
     <use xlink:href="#DejaVuSans-75" x="328.466797"/>
     <use xlink:href="#DejaVuSans-74" x="391.845703"/>
     <use xlink:href="#DejaVuSans-69" x="431.054688"/>
     <use xlink:href="#DejaVuSans-6f" x="458.837891"/>
     <use xlink:href="#DejaVuSans-6e" x="520.019531"/>
     <use xlink:href="#DejaVuSans-20" x="583.398438"/>
     <use xlink:href="#DejaVuSans-6f" x="615.185547"/>
     <use xlink:href="#DejaVuSans-66" x="676.367188"/>
     <use xlink:href="#DejaVuSans-20" x="711.572266"/>
     <use xlink:href="#DejaVuSans-65" x="743.359375"/>
     <use xlink:href="#DejaVuSans-64" x="804.882812"/>
     <use xlink:href="#DejaVuSans-75" x="868.359375"/>
     <use xlink:href="#DejaVuSans-63" x="931.738281"/>
     <use xlink:href="#DejaVuSans-61" x="986.71875"/>
     <use xlink:href="#DejaVuSans-74" x="1047.998047"/>
     <use xlink:href="#DejaVuSans-69" x="1087.207031"/>
     <use xlink:href="#DejaVuSans-6f" x="1114.990234"/>
     <use xlink:href="#DejaVuSans-6e" x="1176.171875"/>
     <use xlink:href="#DejaVuSans-2d" x="1239.550781"/>
     <use xlink:href="#DejaVuSans-6e" x="1275.634766"/>
     <use xlink:href="#DejaVuSans-75" x="1339.013672"/>
     <use xlink:href="#DejaVuSans-6d" x="1402.392578"/>
    </g>
   </g>
  </g>
  <g id="axes_3">
   <g id="patch_32">
    <path d="M 732.091042 235.1575 
L 994.714375 235.1575 
L 994.714375 25.3575 
L 732.091042 25.3575 
z
" style="fill: #ffffff"/>
   </g>
   <g id="patch_33">
    <path d="M 753.638993 235.1575 
L 775.591736 235.1575 
L 775.591736 231.63366 
L 753.638993 231.63366 
z
" clip-path="url(#p01b40dbba4)" style="fill: #0000ff; fill-opacity: 0.6; stroke: #000000; stroke-linejoin: miter"/>
   </g>
   <g id="patch_34">
    <path d="M 775.591736 235.1575 
L 797.544479 235.1575 
L 797.544479 224.733197 
L 775.591736 224.733197 
z
" clip-path="url(#p01b40dbba4)" style="fill: #0000ff; fill-opacity: 0.6; stroke: #000000; stroke-linejoin: miter"/>
   </g>
   <g id="patch_35">
    <path d="M 797.544479 235.1575 
L 819.497222 235.1575 
L 819.497222 224.513936 
L 797.544479 224.513936 
z
" clip-path="url(#p01b40dbba4)" style="fill: #0000ff; fill-opacity: 0.6; stroke: #000000; stroke-linejoin: miter"/>
   </g>
   <g id="patch_36">
    <path d="M 819.497222 235.1575 
L 841.449965 235.1575 
L 841.449965 151.716093 
L 819.497222 151.716093 
z
" clip-path="url(#p01b40dbba4)" style="fill: #0000ff; fill-opacity: 0.6; stroke: #000000; stroke-linejoin: miter"/>
   </g>
   <g id="patch_37">
    <path d="M 841.449965 235.1575 
L 863.402708 235.1575 
L 863.402708 220.526515 
L 841.449965 220.526515 
z
" clip-path="url(#p01b40dbba4)" style="fill: #0000ff; fill-opacity: 0.6; stroke: #000000; stroke-linejoin: miter"/>
   </g>
   <g id="patch_38">
    <path d="M 863.402708 235.1575 
L 885.355451 235.1575 
L 885.355451 216.902441 
L 863.402708 216.902441 
z
" clip-path="url(#p01b40dbba4)" style="fill: #0000ff; fill-opacity: 0.6; stroke: #000000; stroke-linejoin: miter"/>
   </g>
   <g id="patch_39">
    <path d="M 885.355451 235.1575 
L 907.308194 235.1575 
L 907.308194 226.881957 
L 885.355451 226.881957 
z
" clip-path="url(#p01b40dbba4)" style="fill: #0000ff; fill-opacity: 0.6; stroke: #000000; stroke-linejoin: miter"/>
   </g>
   <g id="patch_40">
    <path d="M 907.308194 235.1575 
L 929.260938 235.1575 
L 929.260938 233.018137 
L 907.308194 233.018137 
z
" clip-path="url(#p01b40dbba4)" style="fill: #0000ff; fill-opacity: 0.6; stroke: #000000; stroke-linejoin: miter"/>
   </g>
   <g id="patch_41">
    <path d="M 929.260938 235.1575 
L 951.213681 235.1575 
L 951.213681 234.170825 
L 929.260938 234.170825 
z
" clip-path="url(#p01b40dbba4)" style="fill: #0000ff; fill-opacity: 0.6; stroke: #000000; stroke-linejoin: miter"/>
   </g>
   <g id="patch_42">
    <path d="M 951.213681 235.1575 
L 973.166424 235.1575 
L 973.166424 234.49032 
L 951.213681 234.49032 
z
" clip-path="url(#p01b40dbba4)" style="fill: #0000ff; fill-opacity: 0.6; stroke: #000000; stroke-linejoin: miter"/>
   </g>
   <g id="matplotlib.axis_5">
    <g id="xtick_9">
     <g id="line2d_24">
      <g>
       <use xlink:href="#m88cab2971f" x="751.398917" y="235.1575" style="stroke: #000000; stroke-width: 0.8"/>
      </g>
     </g>
     <g id="text_26">
      <!-- 0 -->
      <g transform="translate(746.945167 252.795313)scale(0.14 -0.14)">
       <use xlink:href="#DejaVuSans-30"/>
      </g>
     </g>
    </g>
    <g id="xtick_10">
     <g id="line2d_25">
      <g>
       <use xlink:href="#m88cab2971f" x="796.200434" y="235.1575" style="stroke: #000000; stroke-width: 0.8"/>
      </g>
     </g>
     <g id="text_27">
      <!-- 20 -->
      <g transform="translate(787.292934 252.795313)scale(0.14 -0.14)">
       <use xlink:href="#DejaVuSans-32"/>
       <use xlink:href="#DejaVuSans-30" x="63.623047"/>
      </g>
     </g>
    </g>
    <g id="xtick_11">
     <g id="line2d_26">
      <g>
       <use xlink:href="#m88cab2971f" x="841.00195" y="235.1575" style="stroke: #000000; stroke-width: 0.8"/>
      </g>
     </g>
     <g id="text_28">
      <!-- 40 -->
      <g transform="translate(832.09445 252.795313)scale(0.14 -0.14)">
       <use xlink:href="#DejaVuSans-34"/>
       <use xlink:href="#DejaVuSans-30" x="63.623047"/>
      </g>
     </g>
    </g>
    <g id="xtick_12">
     <g id="line2d_27">
      <g>
       <use xlink:href="#m88cab2971f" x="885.803467" y="235.1575" style="stroke: #000000; stroke-width: 0.8"/>
      </g>
     </g>
     <g id="text_29">
      <!-- 60 -->
      <g transform="translate(876.895967 252.795313)scale(0.14 -0.14)">
       <use xlink:href="#DejaVuSans-36"/>
       <use xlink:href="#DejaVuSans-30" x="63.623047"/>
      </g>
     </g>
    </g>
    <g id="xtick_13">
     <g id="line2d_28">
      <g>
       <use xlink:href="#m88cab2971f" x="930.604983" y="235.1575" style="stroke: #000000; stroke-width: 0.8"/>
      </g>
     </g>
     <g id="text_30">
      <!-- 80 -->
      <g transform="translate(921.697483 252.795313)scale(0.14 -0.14)">
       <use xlink:href="#DejaVuSans-38"/>
       <use xlink:href="#DejaVuSans-30" x="63.623047"/>
      </g>
     </g>
    </g>
    <g id="xtick_14">
     <g id="line2d_29">
      <g>
       <use xlink:href="#m88cab2971f" x="975.4065" y="235.1575" style="stroke: #000000; stroke-width: 0.8"/>
      </g>
     </g>
     <g id="text_31">
      <!-- 100 -->
      <g transform="translate(962.04525 252.795313)scale(0.14 -0.14)">
       <use xlink:href="#DejaVuSans-31"/>
       <use xlink:href="#DejaVuSans-30" x="63.623047"/>
       <use xlink:href="#DejaVuSans-30" x="127.246094"/>
      </g>
     </g>
    </g>
    <g id="text_32">
     <!-- hours-per-week -->
     <g transform="translate(801.338958 271.864375)scale(0.16 -0.16)">
      <defs>
       <path id="DejaVuSans-68" d="M 3513 2113 
L 3513 0 
L 2938 0 
L 2938 2094 
Q 2938 2591 2744 2837 
Q 2550 3084 2163 3084 
Q 1697 3084 1428 2787 
Q 1159 2491 1159 1978 
L 1159 0 
L 581 0 
L 581 4863 
L 1159 4863 
L 1159 2956 
Q 1366 3272 1645 3428 
Q 1925 3584 2291 3584 
Q 2894 3584 3203 3211 
Q 3513 2838 3513 2113 
z
" transform="scale(0.015625)"/>
       <path id="DejaVuSans-70" d="M 1159 525 
L 1159 -1331 
L 581 -1331 
L 581 3500 
L 1159 3500 
L 1159 2969 
Q 1341 3281 1617 3432 
Q 1894 3584 2278 3584 
Q 2916 3584 3314 3078 
Q 3713 2572 3713 1747 
Q 3713 922 3314 415 
Q 2916 -91 2278 -91 
Q 1894 -91 1617 61 
Q 1341 213 1159 525 
z
M 3116 1747 
Q 3116 2381 2855 2742 
Q 2594 3103 2138 3103 
Q 1681 3103 1420 2742 
Q 1159 2381 1159 1747 
Q 1159 1113 1420 752 
Q 1681 391 2138 391 
Q 2594 391 2855 752 
Q 3116 1113 3116 1747 
z
" transform="scale(0.015625)"/>
       <path id="DejaVuSans-77" d="M 269 3500 
L 844 3500 
L 1563 769 
L 2278 3500 
L 2956 3500 
L 3675 769 
L 4391 3500 
L 4966 3500 
L 4050 0 
L 3372 0 
L 2619 2869 
L 1863 0 
L 1184 0 
L 269 3500 
z
" transform="scale(0.015625)"/>
       <path id="DejaVuSans-6b" d="M 581 4863 
L 1159 4863 
L 1159 1991 
L 2875 3500 
L 3609 3500 
L 1753 1863 
L 3688 0 
L 2938 0 
L 1159 1709 
L 1159 0 
L 581 0 
L 581 4863 
z
" transform="scale(0.015625)"/>
      </defs>
      <use xlink:href="#DejaVuSans-68"/>
      <use xlink:href="#DejaVuSans-6f" x="63.378906"/>
      <use xlink:href="#DejaVuSans-75" x="124.560547"/>
      <use xlink:href="#DejaVuSans-72" x="187.939453"/>
      <use xlink:href="#DejaVuSans-73" x="229.052734"/>
      <use xlink:href="#DejaVuSans-2d" x="281.152344"/>
      <use xlink:href="#DejaVuSans-70" x="317.236328"/>
      <use xlink:href="#DejaVuSans-65" x="380.712891"/>
      <use xlink:href="#DejaVuSans-72" x="442.236328"/>
      <use xlink:href="#DejaVuSans-2d" x="476.974609"/>
      <use xlink:href="#DejaVuSans-77" x="513.058594"/>
      <use xlink:href="#DejaVuSans-65" x="594.845703"/>
      <use xlink:href="#DejaVuSans-65" x="656.369141"/>
      <use xlink:href="#DejaVuSans-6b" x="717.892578"/>
     </g>
    </g>
   </g>
   <g id="matplotlib.axis_6">
    <g id="ytick_12">
     <g id="line2d_30">
      <g>
       <use xlink:href="#m49ba2ba0cc" x="732.091042" y="235.1575" style="stroke: #000000; stroke-width: 0.8"/>
      </g>
     </g>
     <g id="text_33">
      <!-- 0.00 -->
      <g transform="translate(693.919167 240.476406)scale(0.14 -0.14)">
       <use xlink:href="#DejaVuSans-30"/>
       <use xlink:href="#DejaVuSans-2e" x="63.623047"/>
       <use xlink:href="#DejaVuSans-30" x="95.410156"/>
       <use xlink:href="#DejaVuSans-30" x="159.033203"/>
      </g>
     </g>
    </g>
    <g id="ytick_13">
     <g id="line2d_31">
      <g>
       <use xlink:href="#m49ba2ba0cc" x="732.091042" y="205.171868" style="stroke: #000000; stroke-width: 0.8"/>
      </g>
     </g>
     <g id="text_34">
      <!-- 0.02 -->
      <g transform="translate(693.919167 210.490774)scale(0.14 -0.14)">
       <use xlink:href="#DejaVuSans-30"/>
       <use xlink:href="#DejaVuSans-2e" x="63.623047"/>
       <use xlink:href="#DejaVuSans-30" x="95.410156"/>
       <use xlink:href="#DejaVuSans-32" x="159.033203"/>
      </g>
     </g>
    </g>
    <g id="ytick_14">
     <g id="line2d_32">
      <g>
       <use xlink:href="#m49ba2ba0cc" x="732.091042" y="175.186236" style="stroke: #000000; stroke-width: 0.8"/>
      </g>
     </g>
     <g id="text_35">
      <!-- 0.04 -->
      <g transform="translate(693.919167 180.505142)scale(0.14 -0.14)">
       <use xlink:href="#DejaVuSans-30"/>
       <use xlink:href="#DejaVuSans-2e" x="63.623047"/>
       <use xlink:href="#DejaVuSans-30" x="95.410156"/>
       <use xlink:href="#DejaVuSans-34" x="159.033203"/>
      </g>
     </g>
    </g>
    <g id="ytick_15">
     <g id="line2d_33">
      <g>
       <use xlink:href="#m49ba2ba0cc" x="732.091042" y="145.200604" style="stroke: #000000; stroke-width: 0.8"/>
      </g>
     </g>
     <g id="text_36">
      <!-- 0.06 -->
      <g transform="translate(693.919167 150.51951)scale(0.14 -0.14)">
       <use xlink:href="#DejaVuSans-30"/>
       <use xlink:href="#DejaVuSans-2e" x="63.623047"/>
       <use xlink:href="#DejaVuSans-30" x="95.410156"/>
       <use xlink:href="#DejaVuSans-36" x="159.033203"/>
      </g>
     </g>
    </g>
    <g id="ytick_16">
     <g id="line2d_34">
      <g>
       <use xlink:href="#m49ba2ba0cc" x="732.091042" y="115.214971" style="stroke: #000000; stroke-width: 0.8"/>
      </g>
     </g>
     <g id="text_37">
      <!-- 0.08 -->
      <g transform="translate(693.919167 120.533878)scale(0.14 -0.14)">
       <use xlink:href="#DejaVuSans-30"/>
       <use xlink:href="#DejaVuSans-2e" x="63.623047"/>
       <use xlink:href="#DejaVuSans-30" x="95.410156"/>
       <use xlink:href="#DejaVuSans-38" x="159.033203"/>
      </g>
     </g>
    </g>
    <g id="ytick_17">
     <g id="line2d_35">
      <g>
       <use xlink:href="#m49ba2ba0cc" x="732.091042" y="85.229339" style="stroke: #000000; stroke-width: 0.8"/>
      </g>
     </g>
     <g id="text_38">
      <!-- 0.10 -->
      <g transform="translate(693.919167 90.548246)scale(0.14 -0.14)">
       <use xlink:href="#DejaVuSans-30"/>
       <use xlink:href="#DejaVuSans-2e" x="63.623047"/>
       <use xlink:href="#DejaVuSans-31" x="95.410156"/>
       <use xlink:href="#DejaVuSans-30" x="159.033203"/>
      </g>
     </g>
    </g>
    <g id="ytick_18">
     <g id="line2d_36">
      <g>
       <use xlink:href="#m49ba2ba0cc" x="732.091042" y="55.243707" style="stroke: #000000; stroke-width: 0.8"/>
      </g>
     </g>
     <g id="text_39">
      <!-- 0.12 -->
      <g transform="translate(693.919167 60.562613)scale(0.14 -0.14)">
       <use xlink:href="#DejaVuSans-30"/>
       <use xlink:href="#DejaVuSans-2e" x="63.623047"/>
       <use xlink:href="#DejaVuSans-31" x="95.410156"/>
       <use xlink:href="#DejaVuSans-32" x="159.033203"/>
      </g>
     </g>
    </g>
    <g id="text_40">
     <!-- Density -->
     <g transform="translate(686.591667 160.67125)rotate(-90)scale(0.16 -0.16)">
      <use xlink:href="#DejaVuSans-44"/>
      <use xlink:href="#DejaVuSans-65" x="77.001953"/>
      <use xlink:href="#DejaVuSans-6e" x="138.525391"/>
      <use xlink:href="#DejaVuSans-73" x="201.904297"/>
      <use xlink:href="#DejaVuSans-69" x="254.003906"/>
      <use xlink:href="#DejaVuSans-74" x="281.787109"/>
      <use xlink:href="#DejaVuSans-79" x="320.996094"/>
     </g>
    </g>
   </g>
   <g id="line2d_37">
    <path d="M 753.638993 234.283098 
L 759.154758 233.036182 
L 762.464216 232.568436 
L 765.773675 232.127639 
L 767.979981 231.501505 
L 772.392593 229.801546 
L 773.495745 229.612769 
L 774.598898 229.631089 
L 776.805204 230.136547 
L 777.908357 230.408202 
L 779.01151 230.501823 
L 780.114663 230.285865 
L 781.217816 229.696027 
L 784.527275 226.99834 
L 785.630428 226.666876 
L 786.733581 226.87162 
L 788.939886 227.921923 
L 790.043039 227.878324 
L 791.146192 226.918602 
L 792.249345 224.964333 
L 794.455651 219.814415 
L 795.558804 218.196921 
L 796.661957 218.106833 
L 797.76511 219.582307 
L 799.971416 224.640544 
L 801.074568 226.496079 
L 802.177721 227.17624 
L 803.280874 226.717424 
L 805.48718 224.350455 
L 806.590333 223.693631 
L 807.693486 223.928275 
L 808.796639 225.004185 
L 811.002945 227.881773 
L 812.106098 228.536443 
L 813.209251 228.119238 
L 814.312403 226.568214 
L 817.621862 219.3901 
L 818.725015 218.392327 
L 819.828168 218.753674 
L 820.931321 220.190216 
L 822.034474 222.041667 
L 823.137627 223.53289 
L 824.24078 224.022414 
L 825.343933 223.176129 
L 826.447086 221.077125 
L 828.653391 215.494691 
L 829.756544 213.52261 
L 831.96285 211.249488 
L 833.066003 207.863669 
L 834.169156 199.203635 
L 835.272309 182.111514 
L 836.375462 154.85608 
L 839.684921 49.686658 
L 840.788074 35.347976 
L 841.891226 42.653311 
L 842.994379 69.223294 
L 845.200685 144.442562 
L 846.303838 174.835692 
L 847.406991 194.456917 
L 848.510144 204.121514 
L 849.613297 206.984733 
L 850.71645 206.713911 
L 851.819603 206.245503 
L 852.922756 207.161285 
L 854.025909 209.595728 
L 855.129061 212.601837 
L 856.232214 214.799337 
L 857.335367 215.018646 
L 858.43852 212.726946 
L 859.541673 208.214756 
L 860.644826 202.598889 
L 861.747979 197.602218 
L 862.851132 195.023884 
L 863.954285 196.007122 
L 865.057438 200.489735 
L 868.366896 220.323771 
L 869.470049 224.169954 
L 870.573202 225.839949 
L 871.676355 225.869298 
L 873.882661 224.385045 
L 874.985814 224.328521 
L 876.088967 225.108435 
L 878.295273 227.739628 
L 879.398426 228.301168 
L 880.501579 227.609027 
L 881.604731 225.522137 
L 883.811037 219.13535 
L 884.91419 216.777686 
L 886.017343 216.210943 
L 887.120496 217.690118 
L 888.223649 220.743185 
L 890.429955 227.798115 
L 891.533108 230.230954 
L 892.636261 231.571474 
L 893.739414 232.016798 
L 894.842567 231.939547 
L 895.945719 231.726036 
L 897.048872 231.663273 
L 898.152025 231.876964 
L 901.461484 233.251824 
L 902.564637 233.37515 
L 903.66779 233.153102 
L 904.770943 232.631648 
L 906.977249 231.353892 
L 908.080402 231.006718 
L 909.183554 231.024409 
L 910.286707 231.382855 
L 914.699319 233.562155 
L 915.802472 233.817449 
L 918.008778 233.990927 
L 921.318237 234.210596 
L 923.524542 234.411745 
L 924.627695 234.39877 
L 925.730848 234.263929 
L 930.14346 233.275089 
L 931.246613 233.302681 
L 933.452919 233.797056 
L 935.659224 234.294092 
L 937.86553 234.396321 
L 941.174989 234.432752 
L 946.690754 234.934306 
L 950.000212 234.842668 
L 953.309671 234.735221 
L 957.722283 234.980407 
L 961.031742 235.082726 
L 965.444353 234.959738 
L 967.650659 234.720339 
L 972.063271 233.912008 
L 973.166424 233.875117 
L 973.166424 233.875117 
" clip-path="url(#p01b40dbba4)" style="fill: none; stroke: #0000ff; stroke-width: 1.5; stroke-linecap: square"/>
   </g>
   <g id="line2d_38">
    <path d="M 744.028466 235.154413 
L 748.82743 235.033697 
L 751.226913 234.761364 
L 754.826136 234.002798 
L 759.625101 232.951579 
L 763.224324 232.490177 
L 765.623806 232.15785 
L 768.023289 231.485911 
L 772.822253 229.704773 
L 774.021994 229.59544 
L 775.221735 229.727277 
L 777.621218 230.348635 
L 778.820959 230.504615 
L 780.0207 230.318623 
L 781.220441 229.694197 
L 784.819664 226.857984 
L 786.019405 226.681939 
L 787.219147 227.092348 
L 788.418888 227.725194 
L 789.618629 227.98771 
L 790.81837 227.311541 
L 792.018111 225.446136 
L 794.417593 219.891366 
L 795.617334 218.150648 
L 796.817076 218.226894 
L 798.016817 220.08913 
L 800.416299 225.512182 
L 801.61604 226.985727 
L 802.815781 227.028733 
L 804.015522 225.986077 
L 805.215264 224.617614 
L 806.415005 223.742833 
L 807.614746 223.880762 
L 808.814487 225.026644 
L 810.014228 226.676754 
L 811.213969 228.076547 
L 812.41371 228.536686 
L 813.613451 227.675079 
L 814.813193 225.554367 
L 817.212675 220.076266 
L 818.412416 218.537212 
L 819.612157 218.582624 
L 820.811898 220.000932 
L 822.011639 222.004403 
L 823.21138 223.602523 
L 824.411122 223.982086 
L 825.610863 222.770226 
L 826.810604 220.189095 
L 828.010345 217.042123 
L 829.210086 214.375741 
L 830.409827 212.800275 
L 831.609568 211.740812 
L 832.80931 209.000223 
L 834.009051 200.915785 
L 835.208792 183.366719 
L 836.408533 153.88773 
L 838.808015 73.463606 
L 840.007756 43.41425 
L 841.207497 35.538525 
L 842.407239 53.096326 
L 843.60698 89.323242 
L 844.806721 131.462446 
L 846.006462 167.650635 
L 847.206203 191.693762 
L 848.405944 203.557496 
L 849.605685 206.979723 
L 852.005168 206.281916 
L 853.204909 207.66285 
L 855.604391 213.727116 
L 856.804132 215.211732 
L 858.003873 213.930264 
L 859.203614 209.781494 
L 861.603097 198.155821 
L 862.802838 195.066719 
L 864.002579 196.135518 
L 865.20232 201.282725 
L 867.601802 216.385466 
L 868.801543 222.111075 
L 870.001285 225.223633 
L 871.201026 226.007228 
L 872.400767 225.398228 
L 873.600508 224.522887 
L 874.800249 224.278379 
L 875.99999 225.018519 
L 878.399472 227.834103 
L 879.599214 228.278787 
L 880.798955 227.178085 
L 881.998696 224.493207 
L 883.198437 220.91166 
L 884.398178 217.700049 
L 885.597919 216.182577 
L 886.79766 217.06086 
L 887.997401 220.031267 
L 890.396884 227.708836 
L 891.596625 230.337216 
L 892.796366 231.683881 
L 893.996107 232.030538 
L 896.395589 231.671134 
L 897.595331 231.733578 
L 898.795072 232.118362 
L 901.194554 233.175339 
L 902.394295 233.378247 
L 903.594036 233.17841 
L 904.793777 232.618613 
L 907.19326 231.260423 
L 908.393001 230.973327 
L 909.592742 231.122706 
L 910.792483 231.628897 
L 913.191965 232.956565 
L 914.391706 233.46276 
L 915.591447 233.780136 
L 917.99093 233.990378 
L 920.390412 234.114812 
L 923.989635 234.419964 
L 925.189377 234.345831 
L 927.588859 233.80647 
L 928.7886 233.484934 
L 929.988341 233.286455 
L 931.188082 233.296506 
L 933.587564 233.834785 
L 935.987047 234.333478 
L 938.386529 234.386043 
L 940.786011 234.406582 
L 947.984458 234.932845 
L 953.983164 234.751347 
L 962.381352 235.074901 
L 965.980575 234.918503 
L 968.380057 234.595989 
L 971.979281 233.920202 
L 973.179022 233.875494 
L 974.378763 233.991096 
L 979.177727 234.951325 
L 981.57721 235.119647 
L 982.776951 235.144338 
L 982.776951 235.144338 
" clip-path="url(#p01b40dbba4)" style="fill: none; stroke: #ff0000; stroke-width: 1.5; stroke-linecap: square"/>
   </g>
   <g id="patch_43">
    <path d="M 732.091042 235.1575 
L 732.091042 25.3575 
" style="fill: none; stroke: #000000; stroke-width: 0.8; stroke-linejoin: miter; stroke-linecap: square"/>
   </g>
   <g id="patch_44">
    <path d="M 994.714375 235.1575 
L 994.714375 25.3575 
" style="fill: none; stroke: #000000; stroke-width: 0.8; stroke-linejoin: miter; stroke-linecap: square"/>
   </g>
   <g id="patch_45">
    <path d="M 732.091042 235.1575 
L 994.714375 235.1575 
" style="fill: none; stroke: #000000; stroke-width: 0.8; stroke-linejoin: miter; stroke-linecap: square"/>
   </g>
   <g id="patch_46">
    <path d="M 732.091042 25.3575 
L 994.714375 25.3575 
" style="fill: none; stroke: #000000; stroke-width: 0.8; stroke-linejoin: miter; stroke-linecap: square"/>
   </g>
   <g id="text_41">
    <!-- Distribution of hours-per-week -->
    <g transform="translate(741.872708 19.3575)scale(0.16 -0.16)">
     <use xlink:href="#DejaVuSans-44"/>
     <use xlink:href="#DejaVuSans-69" x="77.001953"/>
     <use xlink:href="#DejaVuSans-73" x="104.785156"/>
     <use xlink:href="#DejaVuSans-74" x="156.884766"/>
     <use xlink:href="#DejaVuSans-72" x="196.09375"/>
     <use xlink:href="#DejaVuSans-69" x="237.207031"/>
     <use xlink:href="#DejaVuSans-62" x="264.990234"/>
     <use xlink:href="#DejaVuSans-75" x="328.466797"/>
     <use xlink:href="#DejaVuSans-74" x="391.845703"/>
     <use xlink:href="#DejaVuSans-69" x="431.054688"/>
     <use xlink:href="#DejaVuSans-6f" x="458.837891"/>
     <use xlink:href="#DejaVuSans-6e" x="520.019531"/>
     <use xlink:href="#DejaVuSans-20" x="583.398438"/>
     <use xlink:href="#DejaVuSans-6f" x="615.185547"/>
     <use xlink:href="#DejaVuSans-66" x="676.367188"/>
     <use xlink:href="#DejaVuSans-20" x="711.572266"/>
     <use xlink:href="#DejaVuSans-68" x="743.359375"/>
     <use xlink:href="#DejaVuSans-6f" x="806.738281"/>
     <use xlink:href="#DejaVuSans-75" x="867.919922"/>
     <use xlink:href="#DejaVuSans-72" x="931.298828"/>
     <use xlink:href="#DejaVuSans-73" x="972.412109"/>
     <use xlink:href="#DejaVuSans-2d" x="1024.511719"/>
     <use xlink:href="#DejaVuSans-70" x="1060.595703"/>
     <use xlink:href="#DejaVuSans-65" x="1124.072266"/>
     <use xlink:href="#DejaVuSans-72" x="1185.595703"/>
     <use xlink:href="#DejaVuSans-2d" x="1220.333984"/>
     <use xlink:href="#DejaVuSans-77" x="1256.417969"/>
     <use xlink:href="#DejaVuSans-65" x="1338.205078"/>
     <use xlink:href="#DejaVuSans-65" x="1399.728516"/>
     <use xlink:href="#DejaVuSans-6b" x="1461.251953"/>
    </g>
   </g>
  </g>
 </g>
 <defs>
  <clipPath id="pe55b22d8db">
   <rect x="73.764375" y="25.3575" width="262.623333" height="209.8"/>
  </clipPath>
  <clipPath id="p21d44aa014">
   <rect x="402.927708" y="25.3575" width="262.623333" height="209.8"/>
  </clipPath>
  <clipPath id="p01b40dbba4">
   <rect x="732.091042" y="25.3575" width="262.623333" height="209.8"/>
  </clipPath>
 </defs>
</svg>
